<svg width="3000" height="1251" viewBox="0 0 3000 1251" fill="none" xmlns="http://www.w3.org/2000/svg">
<path fill-rule="evenodd" clip-rule="evenodd" d="M2473.12 739.917L2363.36 25.1738H2187.47L2079.7 739.838V25.1738H1948.54V308.732H1861.1V25.1738H1729.95V739.258L1462.48 0.485921L1462.29 0H1456.95L1299.74 433.301L1299.51 433.081C1264.34 401.951 1214.8 382.498 1152.24 375.194L1133.18 373.219L1152.08 370.899C1255.13 352.324 1324.4 287.038 1324.4 208.382C1324.4 100.523 1223.27 25.2365 1078.41 25.2365H777.005V30.613H864.583V587.98L651.894 0.485921L651.707 0H646.363L375.658 746.14L374.346 746.296C370.674 746.751 367.033 747.111 363.44 747.378C358.033 747.801 352.658 748.068 347.268 748.068H130.048L542.925 30.5974L546.034 25.2209H41.0159V247.161H46.3753C47.3284 139.052 110.079 30.5974 248.736 30.5974H416.002L0 753.428H560.441V540.783H555.081C554.363 635.005 501.112 724.555 385.33 744.713L381.658 745.34H381.643L469.846 502.207H716.832L805.833 748.052H718.035V753.428H1062.65V748.052H974.521V377.247H1076.26C1179.79 377.247 1239.18 423.645 1239.18 504.511V570.299C1239.18 577.541 1239.66 588.137 1240.21 597.009V597.338L1185.54 748.052H1114.02V753.428H1261.9V748.052H1191.23L1241.02 610.803V610.85C1241.13 612.182 1241.18 612.982 1241.18 612.982L1242.55 625.349L1243.87 633.531C1252.18 684.13 1271.48 721.342 1301.2 744.149L1305.48 747.268C1328.05 763.021 1356.12 771 1388.93 771C1432.4 771 1461.37 760.137 1485.29 734.556L1482.15 731.452C1460.18 751.798 1441.62 760.137 1418.43 760.137C1378.95 760.137 1358.27 712.078 1358.27 664.693V572.54C1358.27 548.354 1354.73 525.688 1347.71 505.201L1346.73 502.333L1346.7 502.239H1527.4L1616.4 748.083H1528.6V753.46H1861.09V432.172H1948.53V753.46H2210.83L2228.11 602.511H2322.67L2341.98 753.46H2604.28V25.1738H2473.12V739.917ZM593.472 161.483L471.8 496.846H714.879L593.472 161.483ZM974.521 30.6444V371.824H1076.26C1179.3 371.824 1210.74 333.875 1210.74 209.463C1210.74 92.4818 1155.91 30.6444 1052.18 30.6444H974.521ZM1344.1 495.514L1344.63 496.846H1525.46L1404.06 161.483L1304.04 437.157L1304.59 437.658L1309.66 442.752C1324.4 458.004 1335.99 475.748 1344.1 495.514ZM2270.84 160.84L2234.25 493.351H2313.54L2272.87 160.84H2270.84Z" fill="black"/>
<path fill-rule="evenodd" clip-rule="evenodd" d="M2981.72 565.754C2983.06 617.434 2984.77 658.581 2986.8 689.178H2986.78C2988.81 719.776 2993.22 738.821 3000 746.298V753.445H2867.83C2865.8 747.991 2864.09 739.84 2862.75 728.961C2861.39 718.083 2860.2 705.151 2859.19 690.197C2858.17 675.243 2857.33 659.271 2856.66 642.263C2855.97 625.272 2855.64 607.935 2855.64 590.239C2854.97 560.331 2853.61 536.536 2851.58 518.839C2849.55 501.174 2846.14 487.741 2841.41 478.555C2836.67 469.37 2830.73 463.601 2823.62 461.219C2816.51 458.852 2807.87 457.645 2797.7 457.645H2770.25V753.43H2639.09V25.175H2816C2877.01 25.175 2920.89 40.8186 2947.67 72.0899C2974.44 103.377 2987.83 148.928 2987.83 208.759C2987.83 259.765 2981.37 299.532 2968.5 328.092C2955.62 356.652 2933.94 377.734 2903.44 391.324V394.397C2918.34 399.178 2930.72 405.118 2940.55 412.25C2950.37 419.382 2958.16 429.258 2963.94 441.829C2969.69 454.416 2973.92 470.733 2976.64 490.781C2979.34 510.845 2981.03 535.847 2981.72 565.754ZM2800.73 355.648C2822.44 355.648 2837.86 345.303 2847 324.549H2846.98C2856.14 303.812 2860.72 274.406 2860.72 236.316C2860.72 200.279 2855.97 174.274 2846.48 158.286C2836.98 142.313 2820.72 134.319 2797.69 134.319H2772.26V355.648H2800.73Z" fill="black"/>
</svg>
