<svg width="60" height="40" viewBox="0 0 60 40" fill="none" xmlns="http://www.w3.org/2000/svg">
<rect width="60" height="40" rx="2" fill="white"/>
<path d="M37.1971 20.93H40.2571C42.2371 20.93 43.5171 22.21 43.5171 24.46C43.5171 26.71 42.2971 28.07 40.2971 28.07H37.1971V20.93ZM38.7671 26.75H40.1571C41.1371 26.75 41.9471 26.14 41.9471 24.6C41.9471 22.9 41.1971 22.25 39.8871 22.25H38.7671V26.75Z" fill="black"/>
<path d="M30.1803 20.93H34.0303C35.2903 20.93 36.1203 21.8 36.1203 22.9C36.1203 23.8 35.7403 24.39 34.9903 24.69V24.71C35.9903 24.99 36.0203 26.09 36.0503 26.76C36.0803 27.44 36.1503 27.82 36.3303 28.07H34.7603C34.6403 27.77 34.6003 27.34 34.5603 26.83C34.4803 25.83 34.3203 25.28 33.3303 25.28H31.7503V28.07H30.1803V20.93ZM31.7503 24.16H33.4803C34.1403 24.16 34.5503 23.89 34.5503 23.14C34.5503 22.43 34.1603 22.15 33.4703 22.15H31.7503V24.16Z" fill="black"/>
<path d="M25.4846 20.93H27.0946L29.7646 28.07H28.1346L27.5946 26.48H24.9246L24.3646 28.07H22.7746L25.4846 20.93ZM26.2846 22.69H26.2646L25.3346 25.31H27.1846L26.2846 22.69Z" fill="black"/>
<path d="M19.5225 20.76C21.1225 20.76 22.4225 21.72 22.6025 23.33H21.0825C20.9725 22.63 20.3025 22.08 19.5225 22.08C18.2425 22.08 17.5825 23.09 17.5825 24.53C17.5825 25.87 18.2125 26.92 19.5225 26.92C20.4225 26.92 21.0125 26.34 21.1425 25.32H22.6625C22.5025 27.12 21.2725 28.24 19.5225 28.24C17.3425 28.24 16.0125 26.62 16.0125 24.53C16.0125 22.42 17.3125 20.76 19.5225 20.76Z" fill="black"/>
<path d="M42.1865 11.93H48.0365V13.25H45.8965V19.07H44.3265V13.25H42.1865V11.93Z" fill="black"/>
<path d="M39.9973 11.93H41.5673V19.07H39.9973V11.93Z" fill="black"/>
<path d="M32.7852 11.93H35.8452C37.8252 11.93 39.1052 13.21 39.1052 15.46C39.1052 17.71 37.8852 19.07 35.8852 19.07H32.7852V11.93ZM34.3552 17.75H35.7452C36.7252 17.75 37.5352 17.14 37.5352 15.6C37.5352 13.9 36.7852 13.25 35.4752 13.25H34.3552V17.75Z" fill="black"/>
<path d="M26.5008 11.93H31.8408V13.25H28.0708V14.78H31.5308V16H28.0708V17.75H31.9208V19.07H26.5008V11.93Z" fill="black"/>
<path d="M19.484 11.93H23.334C24.594 11.93 25.424 12.8 25.424 13.9C25.424 14.8 25.044 15.39 24.294 15.69V15.71C25.294 15.99 25.324 17.09 25.354 17.76C25.384 18.44 25.454 18.82 25.634 19.07H24.064C23.944 18.77 23.904 18.34 23.864 17.83C23.784 16.83 23.624 16.28 22.634 16.28H21.054V19.07H19.484V11.93ZM21.054 15.16H22.784C23.444 15.16 23.854 14.89 23.854 14.14C23.854 13.43 23.464 13.15 22.774 13.15H21.054V15.16Z" fill="black"/>
<path d="M15.4719 11.76C17.0719 11.76 18.3719 12.72 18.5519 14.33H17.0319C16.9219 13.63 16.2519 13.08 15.4719 13.08C14.1919 13.08 13.5319 14.09 13.5319 15.53C13.5319 16.87 14.1619 17.92 15.4719 17.92C16.3719 17.92 16.9619 17.34 17.0919 16.32H18.6119C18.4519 18.12 17.2219 19.24 15.4719 19.24C13.2919 19.24 11.9619 17.62 11.9619 15.53C11.9619 13.42 13.2619 11.76 15.4719 11.76Z" fill="black"/>
</svg>
