<svg width="60" height="40" viewBox="0 0 60 40" fill="none" xmlns="http://www.w3.org/2000/svg">
<rect width="60" height="40" rx="2" fill="white"/>
<path fill-rule="evenodd" clip-rule="evenodd" d="M45.001 29.9998H15.0011C9.47804 29.9998 5.00098 25.5227 5.00098 19.9999C5.00098 14.4773 9.47804 10 15.0011 10H45.001C50.5241 10 55.0012 14.4775 55.0012 19.9999C55.001 25.5227 50.5239 29.9998 45.001 29.9998Z" fill="#FFEB00"/>
<path fill-rule="evenodd" clip-rule="evenodd" d="M16.797 14.462C13.5009 14.462 10.8291 16.5727 10.8291 19.1767C10.8291 20.7393 11.7935 22.1221 13.2755 22.98L12.5732 25.6044C12.5058 25.8562 12.7867 26.0562 13.0023 25.9106L16.0506 23.8531C16.2953 23.8773 16.5439 23.8914 16.797 23.8914C20.093 23.8914 22.7648 21.7807 22.7648 19.1767C22.7648 16.5727 20.093 14.462 16.797 14.462Z" fill="#1E1E1E"/>
<path fill-rule="evenodd" clip-rule="evenodd" d="M28.3892 17.1422V21.7742C28.5022 21.7882 28.7859 21.8165 29.0548 21.8165C30.5277 21.8165 31.0948 20.7825 31.0948 19.1537C31.0948 17.7228 30.7121 16.8591 29.5367 16.8591C29.154 16.8591 28.729 16.9723 28.3892 17.1422ZM28.3892 23.2186V26.1221H26.3213V15.4141H27.7804L28.035 16.0938C28.4745 15.6548 29.1402 15.1874 30.2164 15.1874C32.2419 15.1874 33.205 16.703 33.1912 19.1535C33.1912 21.7172 31.7038 23.3601 29.5791 23.3601C29.1683 23.3603 28.8566 23.3318 28.3892 23.2186Z" fill="#1E1E1E"/>
<path fill-rule="evenodd" clip-rule="evenodd" d="M38.7512 21.1647V19.7481H37.8019C36.7396 19.7481 36.2015 20.1307 36.2015 20.8956C36.2015 21.4762 36.4989 21.7597 37.1084 21.7597C37.6748 21.7597 38.3969 21.4762 38.7512 21.1647ZM37.5758 18.4311H38.7512V18.1759C38.7512 17.3263 38.2693 16.9293 37.4337 16.9293C36.7964 16.9293 35.9747 17.1136 35.309 17.4394L34.7424 16.0512C35.4794 15.5414 36.6124 15.1871 37.6179 15.1871C39.601 15.1871 40.6775 16.2356 40.6775 18.2325V23.1476H39.2184L39.0061 22.4958C38.1705 23.105 37.4052 23.3598 36.7115 23.3598C35.1957 23.3598 34.3457 22.4534 34.3457 20.9237C34.3459 19.2951 35.4794 18.4311 37.5758 18.4311Z" fill="#1E1E1E"/>
<path fill-rule="evenodd" clip-rule="evenodd" d="M46.7497 22.3543C46.0272 24.2806 45.1633 25.6827 43.9024 26.4621L42.6278 25.2863C43.3643 24.6489 43.8884 24.0256 44.3413 23.19L41.5938 15.6974L43.6476 15.1449L45.4035 21.2214L47.146 15.1165L49.1714 15.683L46.7497 22.3543Z" fill="#1E1E1E"/>
</svg>
