<svg width="60" height="40" viewBox="0 0 60 40" fill="none" xmlns="http://www.w3.org/2000/svg">
<rect width="60" height="40" rx="2" fill="white"/>
<rect x="5" y="10" width="50" height="20" rx="10" fill="#2EDC5F"/>
<path d="M23.0186 20C23.0186 21.4834 22.5787 22.9334 21.7545 24.1667C20.9304 25.4 19.7591 26.3613 18.3887 26.9289C17.0183 27.4966 15.5103 27.6451 14.0555 27.3558C12.6007 27.0664 11.2643 26.3522 10.2154 25.3033C9.34321 24.4312 8.69959 23.3575 8.34154 22.1772C7.98348 20.9969 7.92204 19.7465 8.16265 18.5368C8.40326 17.3271 8.9385 16.1954 9.72096 15.242C10.5034 14.2885 11.5089 13.5428 12.6484 13.0708C13.788 12.5988 15.0263 12.4151 16.2538 12.536C17.4812 12.6569 18.6599 13.0786 19.6854 13.7639C20.711 14.4491 21.5517 15.3767 22.1331 16.4645C22.7145 17.5523 23.0187 18.7666 23.0186 20ZM16.773 16.475V20.2456L14.148 16.475H11.9937V23.5344H14.2624V19.7525L16.8874 23.525H19.0493V16.475H16.773ZM50.2185 16.0833L48.1258 20.8516L45.7586 16.0833H43.9385L47.291 22.6988L45.909 25.7987H47.6765L51.986 16.0926L50.2185 16.0833ZM42.7753 23.4568H41.0454V22.7684C40.4163 23.3199 39.6051 23.6188 38.7685 23.6073C36.7001 23.6073 35.0813 21.9144 35.0813 19.77C35.0813 17.6256 36.6983 15.9328 38.7685 15.9328C39.6049 15.9208 40.416 16.219 41.0454 16.7698V16.0833H42.7753V23.4568ZM41.2485 19.7794C41.2485 18.3894 40.2783 17.3341 38.9923 17.3341C37.7061 17.3341 36.7359 18.3894 36.7359 19.7794C36.7359 21.1695 37.7043 22.2247 38.9922 22.2247C40.2802 22.2247 41.2485 21.1601 41.2485 19.7794ZM26.5267 25.7986H28.3317V22.8305C28.9492 23.3442 29.7303 23.6198 30.5335 23.6073C32.6017 23.6073 34.2225 21.9144 34.2225 19.77C34.2225 17.6256 32.6036 15.9328 30.5335 15.9328C29.6949 15.9177 28.8809 16.2162 28.2508 16.7698V16.0833H26.5211L26.5267 25.7986ZM30.3191 17.334C31.6053 17.334 32.5754 18.3893 32.5754 19.7794C32.5754 21.1694 31.6053 22.2247 30.3191 22.2247C29.0331 22.2247 28.0629 21.1694 28.0629 19.7794C28.0629 18.3893 29.0217 17.334 30.3191 17.334Z" fill="black"/>
</svg>
