<svg xmlns="http://www.w3.org/2000/svg" viewBox="0 0 10.83 10.04"><defs><style>.cls-1{fill:#fff;}</style></defs><g id="레이어_2" data-name="레이어 2"><g id="레이어_1-2" data-name="레이어 1"><path class="cls-1" d="M2.36,3.71A.37.37,0,0,0,2,4.08a.38.38,0,0,0,.75,0A.37.37,0,0,0,2.36,3.71Z"/><path class="cls-1" d="M6.05,3.67a.4.4,0,1,0,.4.4A.4.4,0,0,0,6.05,3.67Z"/><path class="cls-1" d="M9.38,0H1.45A1.45,1.45,0,0,0,0,1.45V6.16A1.44,1.44,0,0,0,1.45,7.6h2.8l1,2.25s.07.19.23.19h0c.16,0,.22-.19.22-.19L6.6,7.6H9.38a1.44,1.44,0,0,0,1.45-1.44V1.45A1.45,1.45,0,0,0,9.38,0Zm-6,4.16a.9.9,0,0,1-.89.89A.73.73,0,0,1,2,4.82V5H1.32V2.3h0S2,2.3,2,2.3v1c.15-.26.59-.25.59-.25A.94.94,0,0,1,3.4,4.16Zm1.14-1V5H3.91V3.17c0-.25-.31-.32-.31-.32V2.21A.87.87,0,0,1,4.54,3.15Zm1.51,1.9A1,1,0,0,1,5,4.07a1,1,0,0,1,1.07-1,1,1,0,0,1,1.06,1A1,1,0,0,1,6.05,5.05Zm3.47,0A.9.9,0,0,1,8.59,6H8.3V5.37h.17s.4,0,.39-.57c0,0-.07.25-.63.25a.84.84,0,0,1-.79-.83V3.93a.9.9,0,0,1,.88-.86.65.65,0,0,1,.56.24V3.12h.64Z"/><path class="cls-1" d="M8.51,3.68a.39.39,0,0,0,0,.78.39.39,0,0,0,0-.78Z"/></g></g></svg>