<svg xmlns="http://www.w3.org/2000/svg" viewBox="0 0 10.7 9.83"><defs><style>.cls-1{fill:#fff;}</style></defs><g id="레이어_2" data-name="레이어 2"><g id="레이어_1-2" data-name="레이어 1"><polygon class="cls-1" points="3.92 4.51 4.56 4.51 4.25 3.55 3.92 4.51"/><path class="cls-1" d="M5.35,0C2.4,0,0,1.89,0,4.23a4.15,4.15,0,0,0,2.54,3.6c-.11.42-.41,1.51-.47,1.75s.11.29.23.21l2.06-1.4a6.41,6.41,0,0,0,1,.07c3,0,5.35-1.89,5.35-4.23S8.31,0,5.35,0ZM2.74,5.32c0,.26-.57.25-.57,0V3.45H1.62a.27.27,0,0,1,0-.53H3.29a.27.27,0,0,1,0,.54H2.74Zm2.11.07C4.71,5,4.75,5,4.75,5h-1l-.11.38c-.12.27-.62,0-.51-.22s.66-1.78.79-2.08a.32.32,0,0,1,.31-.17.39.39,0,0,1,.36.17c.1.21.64,1.68.79,2.09S5,5.67,4.85,5.39Zm2,.13H5.79c-.27,0-.22-.31-.22-.31s0-1.54,0-2a.27.27,0,0,1,.3-.25.27.27,0,0,1,.3.25V5h.73C7.15,5,7.15,5.52,6.89,5.52Zm1.78,0-.73-1-.16.13v.75c0,.22-.57.22-.57,0s0-2,0-2.25.14-.17.29-.17.27.05.27.16c0,.28,0,.8,0,.8L8.72,3c.12-.12.49.26.37.38s-.73.77-.73.77l.77,1C9.28,5.32,8.82,5.67,8.67,5.47Z"/></g></g></svg>