<svg xmlns="http://www.w3.org/2000/svg" xmlns:xlink="http://www.w3.org/1999/xlink" width="251.343" height="42" viewBox="0 0 251.343 42">
  <defs>
    <clipPath id="clip-path">
      <rect id="사각형_11" data-name="사각형 11" width="251.343" height="42" transform="translate(0 0)" fill="#fff"/>
    </clipPath>
  </defs>
  <g id="그룹_5" data-name="그룹 5" clip-path="url(#clip-path)">
    <path id="패스_37" data-name="패스 37" d="M148.224,33.135a8.121,8.121,0,0,0-2.029,3.806q0,.068-.185.068c-.122,0-.184-.034-.184-.1q.134-1.308.3-3.37t.168-3.1c0-.112.062-.168.184-.168s.185.056.185.168q0,.738,1.877.738,2.885.1,6.74.1,1.977,0,4.192-.067l2.28-.034a7.373,7.373,0,0,0,1.86-.168,1.03,1.03,0,0,0,.755-.67.18.18,0,0,1,.2-.134c.111,0,.167.045.167.134q-.1,1.039-.2,3.152t-.1,3.42c0,.068-.062.1-.184.1s-.2-.034-.218-.1a6.362,6.362,0,0,0-1.576-3.806,4.57,4.57,0,0,0-3.353-1.224,4.3,4.3,0,0,0-1.392.168.96.96,0,0,0-.6.586,4.24,4.24,0,0,0-.151,1.325V49.414a4.1,4.1,0,0,0,.2,1.508,1.138,1.138,0,0,0,.8.638,7.807,7.807,0,0,0,1.912.168c.067,0,.1.066.1.2s-.034.2-.1.2q-1.174,0-1.844-.034l-2.749-.034-2.616.034q-.7.034-1.945.034c-.045,0-.067-.068-.067-.2s.022-.2.067-.2a8.018,8.018,0,0,0,1.927-.168,1.191,1.191,0,0,0,.838-.654,3.84,3.84,0,0,0,.218-1.492V33.889a3.553,3.553,0,0,0-.167-1.274,1.023,1.023,0,0,0-.6-.57,4,4,0,0,0-1.342-.168,4.7,4.7,0,0,0-3.37,1.258" transform="translate(-87.182 -18.056)" fill="#fff"/>
    <path id="패스_38" data-name="패스 38" d="M217.762,52.925c0,.134-.056.2-.168.2q-.637,0-2.045-.068t-2.046-.066q-.838,0-1.978.066t-1.777.068c-.089,0-.134-.068-.134-.2s.045-.2.134-.2a3.479,3.479,0,0,0,1.426-.218.744.744,0,0,0,.452-.721,4.885,4.885,0,0,0-.57-1.71l-3.621-7.343h-6.069l-2.581,5.8a4.616,4.616,0,0,0-.436,1.81,2.05,2.05,0,0,0,.838,1.777,3.963,3.963,0,0,0,2.347.6c.111,0,.168.066.168.2s-.056.2-.168.2q-.6,0-1.744-.068-1.274-.066-2.212-.066-.906,0-2.113.066-1.073.068-1.777.068c-.112,0-.167-.068-.167-.2s.055-.2.167-.2a3.1,3.1,0,0,0,1.576-.37,3.87,3.87,0,0,0,1.24-1.324,23.7,23.7,0,0,0,1.442-2.834l7.209-16.229c.045-.066.145-.1.3-.1s.246.034.268.1l8.215,16.565a15.928,15.928,0,0,0,1.962,3.3,2.262,2.262,0,0,0,1.693.889c.112,0,.168.066.168.2M201.735,41.894h5.3l-2.783-5.633Z" transform="translate(-115.696 -19.052)" fill="#fff"/>
    <path id="패스_39" data-name="패스 39" d="M266.308,52.135a1.453,1.453,0,0,0,.972.688,9.2,9.2,0,0,0,2.264.2c.067,0,.1.066.1.2s-.033.2-.1.2q-1.375,0-2.147-.034l-2.916-.034-2.414.034q-.637.034-1.744.034c-.067,0-.1-.068-.1-.2s.034-.2.1-.2a5.689,5.689,0,0,0,1.643-.168,1.056,1.056,0,0,0,.688-.637,4.47,4.47,0,0,0,.184-1.508V35.185a4.347,4.347,0,0,0-.184-1.475,1.116,1.116,0,0,0-.7-.654,5.286,5.286,0,0,0-1.627-.184c-.067,0-.1-.067-.1-.2s.034-.2.1-.2l1.744.034q1.476.067,2.381.066.771,0,1.878-.1.4-.034,1.09-.068c.457-.022,1-.033,1.626-.033a8.722,8.722,0,0,1,5.247,1.408,5,5,0,0,1,1.928,4.326,5.871,5.871,0,0,1-1.089,3.588,6.741,6.741,0,0,1-2.783,2.213,8.6,8.6,0,0,1-3.471.738,6.254,6.254,0,0,1-1.576-.168c-.066,0-.1-.055-.1-.168a.446.446,0,0,1,.05-.2c.034-.067.073-.089.118-.067a4.792,4.792,0,0,0,1.173.134,3.71,3.71,0,0,0,2.95-1.442,6.249,6.249,0,0,0,1.208-4.124,6.159,6.159,0,0,0-1.242-4.108,4.248,4.248,0,0,0-3.419-1.458,3.459,3.459,0,0,0-1.225.168,1.009,1.009,0,0,0-.586.62,4.4,4.4,0,0,0-.168,1.426V50.576a3.574,3.574,0,0,0,.252,1.558" transform="translate(-155.573 -19.352)" fill="#fff"/>
    <path id="패스_40" data-name="패스 40" d="M354.35,53.374c0,.134-.034.2-.1.2h-3.756l-1.308.034a1.541,1.541,0,0,1-.805-.2,3.222,3.222,0,0,1-.771-.738q-.436-.536-1.61-2.112l-1.375-1.844-4.66-6.1-.839.872V50.86a4.877,4.877,0,0,0,.168,1.508,1.006,1.006,0,0,0,.687.637,5.874,5.874,0,0,0,1.66.168c.089,0,.134.067.134.2s-.045.2-.134.2q-1.073,0-1.71-.034l-2.448-.034-2.381.034q-.637.034-1.776.034c-.045,0-.068-.068-.068-.2s.023-.2.068-.2a5.878,5.878,0,0,0,1.66-.168,1.108,1.108,0,0,0,.721-.654,4.142,4.142,0,0,0,.2-1.492V35.335a4.332,4.332,0,0,0-.185-1.475,1.117,1.117,0,0,0-.72-.654,5.46,5.46,0,0,0-1.643-.184c-.045,0-.067-.067-.067-.2s.022-.2.067-.2l1.777.034q1.475.068,2.347.066,1.006,0,2.482-.066l1.676-.034c.068,0,.1.068.1.2s-.033.2-.1.2a4.832,4.832,0,0,0-1.626.2,1.154,1.154,0,0,0-.7.688,4.454,4.454,0,0,0-.185,1.492v7.075l6.573-6.639a2.84,2.84,0,0,0,1.04-1.744.872.872,0,0,0-.52-.788,3.24,3.24,0,0,0-1.526-.286q-.068,0-.068-.2c0-.134.022-.2.068-.2l1.508.034q1.477.068,2.683.066,1.308,0,2.649-.066l1.442-.034c.066,0,.1.068.1.2s-.034.2-.1.2a7.838,7.838,0,0,0-3.236.805,11.265,11.265,0,0,0-3.2,2.212l-4.292,4.293,4.929,6.537q2.279,3.119,3.436,4.41a6.658,6.658,0,0,0,1.828,1.593,4.5,4.5,0,0,0,1.811.3c.066,0,.1.067.1.2" transform="translate(-199.239 -19.501)" fill="#fff"/>
    <path id="패스_41" data-name="패스 41" d="M395.456,51.971a9.985,9.985,0,0,1-3.755-3.957,11.446,11.446,0,0,1-1.324-5.449,9.973,9.973,0,0,1,1.744-5.918,10.908,10.908,0,0,1,4.476-3.705,13.379,13.379,0,0,1,5.583-1.24,10.433,10.433,0,0,1,5.6,1.492,10.116,10.116,0,0,1,3.705,3.939,10.987,10.987,0,0,1,1.291,5.2,10.281,10.281,0,0,1-1.61,5.6,11.566,11.566,0,0,1-4.309,4.023A12,12,0,0,1,401,53.429a10.578,10.578,0,0,1-5.549-1.458m10.294-.436a7.285,7.285,0,0,0,2.514-3.2,12.508,12.508,0,0,0,.922-5.03,14.23,14.23,0,0,0-1.022-5.532,8.769,8.769,0,0,0-2.917-3.823,7.368,7.368,0,0,0-4.443-1.374,6,6,0,0,0-5.046,2.33,10.35,10.35,0,0,0-1.794,6.455,15.111,15.111,0,0,0,1.056,5.767,9.616,9.616,0,0,0,2.918,4.04,6.637,6.637,0,0,0,4.208,1.459,6.233,6.233,0,0,0,3.6-1.09" transform="translate(-233.387 -18.953)" fill="#fff"/>
    <path id="패스_42" data-name="패스 42" d="M479.641,53.224c0,.134-.034.2-.1.2h-5.4q-.772,0-2.866-2.8T466.162,42.8a6.046,6.046,0,0,1-1.106.1q-1.24,0-1.744-.034V50.71a4.461,4.461,0,0,0,.184,1.508,1.057,1.057,0,0,0,.7.637,5.88,5.88,0,0,0,1.66.168c.045,0,.068.066.068.2s-.023.2-.068.2q-1.105,0-1.71-.033l-2.482-.034-2.414.034q-.637.034-1.744.033c-.066,0-.1-.067-.1-.2s.034-.2.1-.2a5.869,5.869,0,0,0,1.66-.168,1.106,1.106,0,0,0,.721-.654,4.144,4.144,0,0,0,.2-1.492V35.185a4.348,4.348,0,0,0-.184-1.475,1.117,1.117,0,0,0-.721-.654,5.457,5.457,0,0,0-1.643-.184c-.045,0-.068-.066-.068-.2s.023-.2.068-.2l1.744.034q1.475.068,2.38.066,1.007,0,2.113-.1c.268-.023.591-.045.972-.068s.793-.033,1.241-.033a8.064,8.064,0,0,1,4.593,1.106,3.569,3.569,0,0,1,1.609,3.118,5.3,5.3,0,0,1-.939,2.985,7.268,7.268,0,0,1-2.447,2.28q2.749,4.226,4.611,6.623a18.566,18.566,0,0,0,3.3,3.47,4.734,4.734,0,0,0,2.817,1.074c.066,0,.1.066.1.2M465.257,42.059a3.636,3.636,0,0,0,2.816-.906,5.1,5.1,0,0,0,.805-3.319,5.913,5.913,0,0,0-.906-3.773,3.175,3.175,0,0,0-2.548-1.056,2.286,2.286,0,0,0-1.661.47,2.6,2.6,0,0,0-.452,1.778v6.673a12.111,12.111,0,0,0,1.945.134" transform="translate(-273.464 -19.352)" fill="#fff"/>
    <path id="패스_43" data-name="패스 43" d="M534.165,48.277a.352.352,0,0,1,.184.05c.055.034.084.061.084.084a35.816,35.816,0,0,0-.336,4.66.592.592,0,0,1-.1.386.523.523,0,0,1-.4.118H519.043c-.067,0-.1-.068-.1-.2s.034-.2.1-.2A5.876,5.876,0,0,0,520.7,53a1.056,1.056,0,0,0,.7-.654,4.477,4.477,0,0,0,.185-1.492V35.334a4.331,4.331,0,0,0-.185-1.475,1.117,1.117,0,0,0-.72-.654,5.471,5.471,0,0,0-1.643-.184c-.067,0-.1-.066-.1-.2s.034-.2.1-.2h13.949q.335,0,.335.3l.067,4.359c0,.045-.061.079-.184.1s-.2,0-.218-.066a4.327,4.327,0,0,0-4.661-3.823h-1.342a2.623,2.623,0,0,0-1.71.436,1.867,1.867,0,0,0-.5,1.475v6.84H528q3.688,0,3.689-2.48,0-.1.184-.1c.123,0,.184.034.184.1l-.033,2.916.033,1.576q.068,1.075.068,1.744c0,.045-.068.068-.2.068s-.2-.023-.2-.068q0-2.882-3.756-2.883h-3.185v7.612a2.214,2.214,0,0,0,.419,1.542,2.032,2.032,0,0,0,1.492.436h1.643a5.4,5.4,0,0,0,5.7-4.359c0-.044.044-.066.134-.066" transform="translate(-310.25 -19.501)" fill="#fff"/>
    <path id="패스_44" data-name="패스 44" d="M588.96,52.925c0,.134-.056.2-.168.2q-.637,0-2.045-.068t-2.046-.066q-.838,0-1.978.066t-1.777.068c-.089,0-.134-.068-.134-.2s.045-.2.134-.2a3.479,3.479,0,0,0,1.426-.218.744.744,0,0,0,.452-.721,4.884,4.884,0,0,0-.57-1.71l-3.621-7.343h-6.069l-2.582,5.8a4.616,4.616,0,0,0-.436,1.81,2.05,2.05,0,0,0,.838,1.777,3.963,3.963,0,0,0,2.347.6c.111,0,.168.066.168.2s-.056.2-.168.2q-.6,0-1.744-.068-1.274-.066-2.212-.066-.906,0-2.113.066-1.073.068-1.777.068c-.112,0-.167-.068-.167-.2s.055-.2.167-.2a3.1,3.1,0,0,0,1.577-.37,3.873,3.873,0,0,0,1.24-1.324,23.693,23.693,0,0,0,1.442-2.834l7.209-16.229c.045-.066.145-.1.3-.1s.246.034.268.1l8.215,16.565a15.928,15.928,0,0,0,1.962,3.3,2.262,2.262,0,0,0,1.693.889c.112,0,.168.066.168.2M572.933,41.894h5.3l-2.783-5.633Z" transform="translate(-337.617 -19.052)" fill="#fff"/>
    <path id="패스_45" data-name="패스 45" d="M277.394,3.642a1.237,1.237,0,0,0,.287.308c.115.087.269.191.465.312.212.133.379.248.5.343a1.3,1.3,0,0,1,.312.352.919.919,0,0,1,.128.489,1,1,0,0,1-.164.567,1.1,1.1,0,0,1-.468.39,1.608,1.608,0,0,1-.689.141,2.27,2.27,0,0,1-.54-.069,1.279,1.279,0,0,1-.42-.169.146.146,0,0,1-.063-.117l-.037-.948V5.234c0-.016.011-.025.031-.027s.034.005.038.021a3.29,3.29,0,0,0,.471.849.83.83,0,0,0,.676.331.69.69,0,0,0,.45-.147.593.593,0,0,0,.181-.489.924.924,0,0,0-.122-.48,1.2,1.2,0,0,0-.3-.343q-.177-.138-.483-.337t-.468-.327a1.235,1.235,0,0,1-.286-.331.87.87,0,0,1-.119-.459.843.843,0,0,1,.181-.548,1.078,1.078,0,0,1,.471-.334,1.7,1.7,0,0,1,.608-.11,2.3,2.3,0,0,1,.424.041,1.737,1.737,0,0,1,.355.1.139.139,0,0,1,.075.047.128.128,0,0,1,.018.071l.019.849c0,.012-.012.023-.035.029s-.037,0-.041-.016a2.773,2.773,0,0,0-.334-.689.708.708,0,0,0-.627-.309.613.613,0,0,0-.446.162.594.594,0,0,0-.164.443.731.731,0,0,0,.115.409" transform="translate(-165.428 -1.496)" fill="#fff"/>
    <path id="패스_46" data-name="패스 46" d="M291.08,6.535c0,.025-.006.037-.019.037h-.7l-.243.006a.282.282,0,0,1-.15-.038.568.568,0,0,1-.143-.137c-.054-.066-.154-.2-.3-.392l-.256-.343L288.4,4.533l-.155.162V6.067a.926.926,0,0,0,.031.282.193.193,0,0,0,.128.119,1.133,1.133,0,0,0,.308.031c.017,0,.025.013.025.037s-.008.037-.025.037q-.2,0-.318-.006l-.456-.006-.443.006q-.118.006-.33.006c-.009,0-.013-.012-.013-.037s0-.037.013-.037a1.131,1.131,0,0,0,.308-.031.212.212,0,0,0,.134-.122.794.794,0,0,0,.037-.278V3.181a.819.819,0,0,0-.035-.275.208.208,0,0,0-.134-.121,1,1,0,0,0-.306-.035c-.009,0-.013-.013-.013-.037s0-.037.013-.037l.33.006c.183.008.329.012.436.012.125,0,.279,0,.462-.012l.312-.006c.013,0,.019.012.019.037s-.006.037-.019.037a.891.891,0,0,0-.3.038.213.213,0,0,0-.131.128.841.841,0,0,0-.034.277V4.508l1.222-1.234a.528.528,0,0,0,.193-.325.162.162,0,0,0-.1-.146.6.6,0,0,0-.284-.053c-.008,0-.012-.013-.012-.037s0-.037.012-.037l.281.006c.183.008.349.012.5.012s.327,0,.493-.012l.268-.006c.012,0,.018.012.018.037s-.006.037-.018.037a1.47,1.47,0,0,0-.6.149,2.093,2.093,0,0,0-.6.412l-.8.8.917,1.216q.425.58.639.82a1.233,1.233,0,0,0,.34.3.831.831,0,0,0,.336.056c.013,0,.019.013.019.037" transform="translate(-171.677 -1.599)" fill="#fff"/>
    <path id="패스_47" data-name="패스 47" d="M301.832,6.348a.192.192,0,0,0,.128.119,1.117,1.117,0,0,0,.308.031c.012,0,.019.013.019.037s-.007.038-.019.038q-.2,0-.318-.006l-.462-.006-.449.006c-.079,0-.187.006-.325.006-.012,0-.018-.012-.018-.038s.006-.037.018-.037a1.108,1.108,0,0,0,.309-.031.21.21,0,0,0,.135-.122.788.788,0,0,0,.037-.278V3.18a.763.763,0,0,0-.037-.275.216.216,0,0,0-.135-.121.982.982,0,0,0-.309-.035c-.012,0-.018-.013-.018-.038s.006-.037.018-.037l.325.006c.183.008.332.012.449.012s.285,0,.468-.012l.312-.006c.012,0,.019.012.019.037s-.007.038-.019.038a.893.893,0,0,0-.3.037.216.216,0,0,0-.131.128.839.839,0,0,0-.035.277V6.067a.918.918,0,0,0,.031.281" transform="translate(-179.772 -1.599)" fill="#fff"/>
    <path id="패스_48" data-name="패스 48" d="M313.285,2.712c0,.025-.005.037-.013.037a.46.46,0,0,0-.387.178.82.82,0,0,0-.137.509V6.66c0,.012-.01.021-.032.026a.046.046,0,0,1-.043-.007l-2.924-3.4V5.819a.827.827,0,0,0,.131.5.446.446,0,0,0,.381.175c.008,0,.012.013.012.037s0,.037-.012.037q-.169,0-.256-.006l-.331-.006-.368.006q-.1.006-.287.006c-.012,0-.018-.012-.018-.037s.006-.037.018-.037a.512.512,0,0,0,.415-.175.762.762,0,0,0,.146-.5V3.087a1.319,1.319,0,0,0-.315-.263.609.609,0,0,0-.29-.074c-.008,0-.012-.013-.012-.037s0-.037.012-.037l.249.006c.054,0,.131.006.23.006l.4-.006c.05,0,.111-.006.182-.006a.1.1,0,0,1,.074.025.652.652,0,0,1,.075.1c.071.1.123.162.156.2l2.238,2.645V3.436a.848.848,0,0,0-.131-.509.436.436,0,0,0-.374-.178c-.009,0-.013-.013-.013-.037s0-.037.013-.037l.256.006c.133.008.243.012.33.012s.2,0,.337-.012l.274-.006c.008,0,.013.012.013.037" transform="translate(-184.714 -1.599)" fill="#fff"/>
    <path id="패스_49" data-name="패스 49" d="M333.673,2.554a1.669,1.669,0,0,1,.477.137.114.114,0,0,1,.071.047.238.238,0,0,1,.023.1l.075.811c0,.012-.011.02-.031.024s-.033,0-.037-.018a1.524,1.524,0,0,0-.545-.742,1.458,1.458,0,0,0-.858-.256,1.237,1.237,0,0,0-1.017.455,1.9,1.9,0,0,0-.368,1.223,2.68,2.68,0,0,0,.2,1.054,1.868,1.868,0,0,0,.561.761,1.269,1.269,0,0,0,.8.28q.842,0,1.278-1.048c0-.017.018-.023.04-.019s.035.013.035.025l-.093.8a.249.249,0,0,1-.029.1.187.187,0,0,1-.071.047,3.075,3.075,0,0,1-1.154.218,2.434,2.434,0,0,1-1.266-.3,1.916,1.916,0,0,1-.745-.771,2.107,2.107,0,0,1-.24-.974,1.761,1.761,0,0,1,.321-1.041,2.135,2.135,0,0,1,.852-.7,2.629,2.629,0,0,1,1.135-.25,3.574,3.574,0,0,1,.584.051" transform="translate(-197.758 -1.496)" fill="#fff"/>
    <path id="패스_50" data-name="패스 50" d="M348.041,6.451c0,.025-.01.038-.031.038-.078,0-.205,0-.38-.012s-.3-.013-.38-.013c-.1,0-.226,0-.369.013s-.252.012-.33.012c-.017,0-.025-.012-.025-.038s.008-.037.025-.037a.642.642,0,0,0,.265-.041.138.138,0,0,0,.084-.134.9.9,0,0,0-.107-.318l-.673-1.367h-1.129l-.48,1.079a.853.853,0,0,0-.081.337.383.383,0,0,0,.155.331.742.742,0,0,0,.437.112c.021,0,.031.013.031.037s-.01.038-.031.038c-.074,0-.183,0-.324-.012-.158-.008-.3-.013-.412-.013s-.243,0-.393.013c-.133.008-.243.012-.33.012-.021,0-.031-.012-.031-.038s.01-.037.031-.037a.576.576,0,0,0,.292-.068.722.722,0,0,0,.232-.247,4.312,4.312,0,0,0,.268-.527L345.7,2.553c.008-.012.027-.018.055-.018s.046.006.05.018l1.529,3.08a2.9,2.9,0,0,0,.364.614.418.418,0,0,0,.314.166c.021,0,.031.013.031.037M345.06,4.4h.986l-.518-1.048Z" transform="translate(-205.381 -1.516)" fill="#fff"/>
    <path id="패스_51" data-name="패스 51" d="M362.648,6.507c0,.025-.006.038-.019.038h-1q-.143,0-.533-.521t-.951-1.457a1.046,1.046,0,0,1-.206.019c-.154,0-.262,0-.324-.006V6.04a.821.821,0,0,0,.035.281.2.2,0,0,0,.131.119,1.111,1.111,0,0,0,.308.031c.008,0,.012.013.012.037s0,.038-.012.038c-.137,0-.244,0-.318-.006l-.462-.006-.449.006c-.079,0-.188.006-.325.006-.012,0-.018-.012-.018-.038s.006-.037.018-.037a1.111,1.111,0,0,0,.308-.031.207.207,0,0,0,.134-.122.766.766,0,0,0,.037-.278V3.153a.8.8,0,0,0-.035-.275.2.2,0,0,0-.134-.121.99.99,0,0,0-.306-.035c-.008,0-.012-.013-.012-.038s0-.037.012-.037l.325.006c.183.008.33.012.443.012s.256-.006.393-.018l.181-.012c.071,0,.147-.006.23-.006a1.5,1.5,0,0,1,.855.2.664.664,0,0,1,.3.581.987.987,0,0,1-.175.555,1.355,1.355,0,0,1-.455.423q.51.785.857,1.232a3.445,3.445,0,0,0,.615.645.879.879,0,0,0,.524.2c.012,0,.019.013.019.037m-2.676-2.077a.674.674,0,0,0,.524-.169.942.942,0,0,0,.15-.617,1.1,1.1,0,0,0-.169-.7.59.59,0,0,0-.474-.2.427.427,0,0,0-.308.087.486.486,0,0,0-.084.331V4.406a2.261,2.261,0,0,0,.362.025" transform="translate(-214.337 -1.572)" fill="#fff"/>
    <path id="패스_52" data-name="패스 52" d="M375.284,5.586a.066.066,0,0,1,.035.009c.01.007.015.012.015.016a6.638,6.638,0,0,0-.062.867.1.1,0,0,1-.019.071.1.1,0,0,1-.074.023h-2.707c-.012,0-.018-.012-.018-.038s.006-.037.018-.037a1.114,1.114,0,0,0,.309-.031.2.2,0,0,0,.131-.122.826.826,0,0,0,.035-.278V3.18a.8.8,0,0,0-.035-.275.2.2,0,0,0-.134-.121.99.99,0,0,0-.306-.035c-.012,0-.018-.013-.018-.037s.006-.038.018-.038h2.595c.042,0,.062.018.062.056l.013.811c0,.008-.012.014-.035.018s-.037,0-.041-.012a.8.8,0,0,0-.867-.711h-.25a.483.483,0,0,0-.318.081.343.343,0,0,0-.094.274V4.464h.6q.686,0,.686-.461c0-.013.012-.019.034-.019s.035.006.035.019l-.006.542.006.294c.008.133.012.241.012.324,0,.009-.012.013-.037.013s-.037,0-.037-.013q0-.536-.7-.536h-.592V6.042a.411.411,0,0,0,.077.286.379.379,0,0,0,.278.081h.306a1,1,0,0,0,1.06-.81c0-.009.009-.013.025-.013" transform="translate(-222.672 -1.599)" fill="#fff"/>
    <path id="패스_53" data-name="패스 53" d="M395.533,6.344c0,.023-.01.034-.022.034h-.91a1.56,1.56,0,0,1-.68-.349,1.752,1.752,0,0,1-1.216.424,1.683,1.683,0,0,1-.7-.128.97.97,0,0,1-.417-.334.778.778,0,0,1-.138-.443.836.836,0,0,1,.212-.567,3.955,3.955,0,0,1,.624-.549c-.059-.092-.121-.2-.188-.312a2.33,2.33,0,0,1-.134-.34,1.2,1.2,0,0,1-.047-.334,1.131,1.131,0,0,1,.14-.561,1.026,1.026,0,0,1,.4-.393,1.225,1.225,0,0,1,.6-.143.973.973,0,0,1,.583.159.536.536,0,0,1,.221.464.779.779,0,0,1-.14.453,1.472,1.472,0,0,1-.328.343c-.125.093-.312.223-.561.39A5.7,5.7,0,0,0,394.126,5.5a1.678,1.678,0,0,0,.1-.611.781.781,0,0,0-.109-.465.444.444,0,0,0-.378-.147c-.008,0-.013-.012-.015-.037s0-.037.015-.037l1.428-.006c.012,0,.019.012.019.037s-.007.038-.019.038a.83.83,0,0,0-.293.041.271.271,0,0,0-.143.125,1.451,1.451,0,0,0-.093.271,3.53,3.53,0,0,1-.375.9,6.439,6.439,0,0,0,.721.474,2.086,2.086,0,0,0,.527.224c.016,0,.024.018.022.041m-1.712-.4c-.083-.062-.156-.119-.218-.169a8.638,8.638,0,0,1-.674-.6,5.959,5.959,0,0,1-.573-.651.955.955,0,0,0-.355.711.86.86,0,0,0,.137.467.982.982,0,0,0,.393.35,1.271,1.271,0,0,0,.587.131,1.067,1.067,0,0,0,.7-.238m-1.048-1.9a1.873,1.873,0,0,0,.387-.449.985.985,0,0,0,.137-.512.641.641,0,0,0-.134-.43.442.442,0,0,0-.352-.155c-.254,0-.38.165-.38.5a2.054,2.054,0,0,0,.343,1.048" transform="translate(-234.029 -1.404)" fill="#fff"/>
    <path id="패스_54" data-name="패스 54" d="M416.989,6.535c0,.025,0,.037-.012.037-.137,0-.248,0-.331-.006l-.449-.006-.436.006q-.113.006-.318.006c-.009,0-.013-.012-.013-.037s0-.037.013-.037a.733.733,0,0,0,.367-.062.3.3,0,0,0,.094-.262l-.006-.107-.125-2.644-1.329,3.106a.051.051,0,0,1-.05.025.081.081,0,0,1-.056-.025l-1.559-3.081-.056,2.37a.788.788,0,0,0,.128.5.474.474,0,0,0,.4.175c.012,0,.019.013.019.037s-.006.037-.019.037q-.169,0-.262-.006l-.343-.006-.368.006c-.063,0-.15.006-.263.006-.012,0-.018-.012-.018-.037s.006-.037.018-.037a.481.481,0,0,0,.4-.175.815.815,0,0,0,.146-.5l.055-2.682a.853.853,0,0,0-.245-.293.526.526,0,0,0-.31-.094c-.012,0-.019-.013-.019-.037s.006-.037.019-.037l.269.006c.053,0,.125.006.212.006l.292-.006a1.077,1.077,0,0,1,.125-.006.163.163,0,0,1,.131.059,1.7,1.7,0,0,1,.156.265l1.373,2.675,1.24-2.843a.3.3,0,0,1,.081-.122.163.163,0,0,1,.106-.034c.029,0,.067,0,.113.006s.1.006.168.006l.337-.006q.081-.006.243-.006c.009,0,.013.012.013.037s0,.037-.013.037a.693.693,0,0,0-.434.109.408.408,0,0,0-.121.36l.143,2.849a.987.987,0,0,0,.047.282.2.2,0,0,0,.128.119,1.094,1.094,0,0,0,.306.031c.008,0,.012.013.012.037" transform="translate(-246.315 -1.599)" fill="#fff"/>
    <path id="패스_55" data-name="패스 55" d="M432.39,6.451c0,.025-.01.038-.032.038-.078,0-.205,0-.38-.012s-.3-.013-.38-.013c-.1,0-.226,0-.369.013s-.252.012-.33.012c-.017,0-.025-.012-.025-.038s.008-.037.025-.037a.642.642,0,0,0,.265-.041.138.138,0,0,0,.084-.134.9.9,0,0,0-.107-.318l-.673-1.367h-1.129l-.48,1.079a.853.853,0,0,0-.081.337.383.383,0,0,0,.155.331.742.742,0,0,0,.437.112c.021,0,.031.013.031.037s-.01.038-.031.038c-.074,0-.183,0-.324-.012-.158-.008-.3-.013-.412-.013s-.243,0-.393.013c-.133.008-.243.012-.33.012-.021,0-.031-.012-.031-.038s.01-.037.031-.037a.576.576,0,0,0,.292-.068.722.722,0,0,0,.232-.247,4.316,4.316,0,0,0,.268-.527l1.341-3.019c.008-.012.027-.018.055-.018s.046.006.05.018l1.529,3.08a2.929,2.929,0,0,0,.365.614.419.419,0,0,0,.314.166c.021,0,.032.013.032.037M429.409,4.4h.986l-.518-1.048Z" transform="translate(-255.809 -1.516)" fill="#fff"/>
    <path id="패스_56" data-name="패스 56" d="M446.644,6.535c0,.025-.006.037-.019.037h-.7l-.242.006a.282.282,0,0,1-.15-.038.563.563,0,0,1-.143-.137c-.054-.066-.154-.2-.3-.392l-.256-.343-.867-1.135-.155.162V6.067a.926.926,0,0,0,.031.282.193.193,0,0,0,.128.119,1.133,1.133,0,0,0,.308.031c.017,0,.025.013.025.037s-.008.037-.025.037q-.2,0-.318-.006l-.456-.006-.443.006c-.079,0-.189.006-.33.006-.009,0-.013-.012-.013-.037s0-.037.013-.037a1.131,1.131,0,0,0,.308-.031.212.212,0,0,0,.134-.122.794.794,0,0,0,.037-.278V3.181a.818.818,0,0,0-.035-.275.208.208,0,0,0-.134-.121,1,1,0,0,0-.306-.035c-.009,0-.013-.013-.013-.037s0-.037.013-.037l.33.006c.184.008.329.012.437.012.125,0,.279,0,.462-.012l.312-.006c.013,0,.019.012.019.037s-.006.037-.019.037a.89.89,0,0,0-.3.038.215.215,0,0,0-.131.128.855.855,0,0,0-.033.277V4.508l1.222-1.234a.528.528,0,0,0,.193-.325.162.162,0,0,0-.1-.146.6.6,0,0,0-.284-.053c-.008,0-.012-.013-.012-.037s0-.037.012-.037l.281.006c.183.008.349.012.5.012s.327,0,.493-.012l.268-.006c.012,0,.018.012.018.037s-.006.037-.018.037a1.47,1.47,0,0,0-.6.149,2.1,2.1,0,0,0-.6.412l-.8.8.917,1.216q.425.58.639.82a1.232,1.232,0,0,0,.34.3.831.831,0,0,0,.336.056c.013,0,.019.013.019.037" transform="translate(-264.681 -1.599)" fill="#fff"/>
    <path id="패스_57" data-name="패스 57" d="M459.061,5.586a.065.065,0,0,1,.035.009c.01.007.015.012.015.016a6.633,6.633,0,0,0-.062.867.1.1,0,0,1-.019.071.094.094,0,0,1-.074.023h-2.707c-.012,0-.018-.012-.018-.038s.006-.037.018-.037a1.113,1.113,0,0,0,.308-.031.2.2,0,0,0,.131-.122.826.826,0,0,0,.034-.278V3.18a.8.8,0,0,0-.034-.275.2.2,0,0,0-.134-.121.989.989,0,0,0-.305-.035c-.012,0-.018-.013-.018-.037s.006-.038.018-.038h2.594c.042,0,.062.018.062.056l.013.811c0,.008-.012.014-.035.018s-.037,0-.041-.012a.8.8,0,0,0-.867-.711h-.25a.482.482,0,0,0-.318.081.343.343,0,0,0-.094.274V4.464h.6c.458,0,.686-.153.686-.461,0-.013.012-.019.035-.019s.035.006.035.019l-.006.542.006.294c.008.133.012.241.012.324,0,.009-.012.013-.037.013s-.037,0-.037-.013q0-.536-.7-.536h-.592V6.042a.413.413,0,0,0,.077.286.379.379,0,0,0,.278.081h.306a1,1,0,0,0,1.06-.81c0-.009.009-.013.025-.013" transform="translate(-272.758 -1.599)" fill="#fff"/>
    <path id="패스_58" data-name="패스 58" d="M477.894,2.931a.51.51,0,0,0-.421-.181c-.008,0-.012-.013-.012-.038s0-.037.012-.037l.287.006q.236.012.374.012c.075,0,.188,0,.337-.012l.274-.006c.009,0,.013.012.013.037s0,.038-.013.038a.441.441,0,0,0-.376.181.836.836,0,0,0-.134.506V5.182a1.551,1.551,0,0,1-.191.783,1.3,1.3,0,0,1-.536.514,1.7,1.7,0,0,1-.8.181,1.783,1.783,0,0,1-.81-.178,1.3,1.3,0,0,1-.552-.512,1.513,1.513,0,0,1-.2-.783V3.181a.761.761,0,0,0-.037-.275.216.216,0,0,0-.135-.121.944.944,0,0,0-.3-.035c-.012,0-.018-.013-.018-.038s.006-.037.018-.037l.325.006c.183.008.331.012.443.012s.279,0,.462-.012l.312-.006c.012,0,.018.012.018.037s-.006.038-.018.038a.89.89,0,0,0-.3.037.223.223,0,0,0-.134.128.756.756,0,0,0-.038.277V4.97a1.683,1.683,0,0,0,.309,1.108,1.209,1.209,0,0,0,1.693.037,1.322,1.322,0,0,0,.3-.926V3.436a.785.785,0,0,0-.146-.506" transform="translate(-283.773 -1.599)" fill="#fff"/>
    <path id="패스_59" data-name="패스 59" d="M489.992,6.3a.266.266,0,0,0,.181.128,1.692,1.692,0,0,0,.421.037c.012,0,.018.013.018.038s-.006.037-.018.037q-.256,0-.4-.006l-.543-.006-.448.006c-.079,0-.188.006-.325.006-.012,0-.018-.012-.018-.037s.006-.038.018-.038a1.093,1.093,0,0,0,.306-.03.2.2,0,0,0,.128-.119.819.819,0,0,0,.035-.281V3.153a.8.8,0,0,0-.035-.275.2.2,0,0,0-.131-.121.958.958,0,0,0-.3-.035c-.012,0-.018-.013-.018-.037s.006-.037.018-.037l.325.006c.183.008.33.012.442.012.1,0,.212-.006.349-.018.049,0,.117-.008.2-.012s.186-.006.3-.006a1.621,1.621,0,0,1,.975.262.929.929,0,0,1,.36.8,1.1,1.1,0,0,1-.2.668,1.257,1.257,0,0,1-.518.411,1.607,1.607,0,0,1-.646.137,1.21,1.21,0,0,1-.293-.03c-.012,0-.018-.011-.018-.032a.085.085,0,0,1,.009-.037c.006-.012.013-.016.022-.012a.923.923,0,0,0,.218.024.689.689,0,0,0,.548-.268,1.16,1.16,0,0,0,.224-.767,1.141,1.141,0,0,0-.23-.764.79.79,0,0,0-.636-.272.656.656,0,0,0-.228.031.189.189,0,0,0-.109.116.8.8,0,0,0-.031.265v2.85a.66.66,0,0,0,.047.289" transform="translate(-292.266 -1.572)" fill="#fff"/>
    <path id="패스_60" data-name="패스 60" d="M508.632,6.3a.266.266,0,0,0,.181.128,1.692,1.692,0,0,0,.421.037c.012,0,.018.013.018.038s-.006.037-.018.037q-.256,0-.4-.006l-.543-.006-.448.006c-.079,0-.188.006-.325.006-.012,0-.018-.012-.018-.037s.006-.038.018-.038a1.093,1.093,0,0,0,.306-.03.2.2,0,0,0,.128-.119.819.819,0,0,0,.035-.281V3.153a.8.8,0,0,0-.035-.275.2.2,0,0,0-.131-.121.958.958,0,0,0-.3-.035c-.012,0-.018-.013-.018-.037s.006-.037.018-.037l.325.006c.183.008.33.012.442.012.1,0,.212-.006.349-.018.049,0,.117-.008.2-.012s.186-.006.3-.006a1.621,1.621,0,0,1,.975.262.929.929,0,0,1,.359.8,1.1,1.1,0,0,1-.2.668,1.257,1.257,0,0,1-.518.411,1.607,1.607,0,0,1-.646.137,1.21,1.21,0,0,1-.293-.03c-.012,0-.018-.011-.018-.032a.086.086,0,0,1,.009-.037c.006-.012.013-.016.023-.012a.923.923,0,0,0,.218.024.689.689,0,0,0,.548-.268,1.161,1.161,0,0,0,.224-.767,1.142,1.142,0,0,0-.23-.764.791.791,0,0,0-.636-.272.656.656,0,0,0-.228.031.189.189,0,0,0-.109.116.8.8,0,0,0-.031.265v2.85a.661.661,0,0,0,.047.289" transform="translate(-303.41 -1.572)" fill="#fff"/>
    <path id="패스_61" data-name="패스 61" d="M522.306,6.451c0,.025-.01.038-.032.038-.078,0-.205,0-.38-.012s-.3-.013-.38-.013c-.1,0-.226,0-.369.013s-.252.012-.33.012c-.017,0-.025-.012-.025-.038s.008-.037.025-.037a.642.642,0,0,0,.265-.041.138.138,0,0,0,.084-.134.9.9,0,0,0-.107-.318l-.673-1.367h-1.129l-.48,1.079a.853.853,0,0,0-.081.337.383.383,0,0,0,.155.331.742.742,0,0,0,.437.112c.021,0,.031.013.031.037s-.01.038-.031.038c-.074,0-.183,0-.324-.012-.158-.008-.3-.013-.412-.013s-.243,0-.393.013c-.133.008-.242.012-.33.012-.021,0-.031-.012-.031-.038s.01-.037.031-.037a.576.576,0,0,0,.292-.068.721.721,0,0,0,.232-.247,4.307,4.307,0,0,0,.268-.527l1.341-3.019c.008-.012.027-.018.055-.018s.046.006.05.018l1.529,3.08a2.914,2.914,0,0,0,.364.614.419.419,0,0,0,.315.166c.021,0,.032.013.032.037M519.325,4.4h.986l-.518-1.048Z" transform="translate(-309.566 -1.516)" fill="#fff"/>
    <path id="패스_62" data-name="패스 62" d="M535.638,2.554a1.669,1.669,0,0,1,.477.137.114.114,0,0,1,.071.047.237.237,0,0,1,.023.1l.075.811c0,.012-.011.02-.031.024s-.033,0-.037-.018a1.525,1.525,0,0,0-.545-.742,1.458,1.458,0,0,0-.858-.256,1.237,1.237,0,0,0-1.017.455,1.9,1.9,0,0,0-.368,1.223,2.681,2.681,0,0,0,.2,1.054,1.871,1.871,0,0,0,.561.761,1.269,1.269,0,0,0,.8.28q.841,0,1.278-1.048c0-.017.018-.023.041-.019s.034.013.034.025l-.093.8a.251.251,0,0,1-.029.1.187.187,0,0,1-.071.047A3.075,3.075,0,0,1,535,6.545a2.434,2.434,0,0,1-1.266-.3,1.916,1.916,0,0,1-.745-.771,2.107,2.107,0,0,1-.24-.974,1.761,1.761,0,0,1,.321-1.041,2.135,2.135,0,0,1,.852-.7,2.629,2.629,0,0,1,1.135-.25,3.575,3.575,0,0,1,.584.051" transform="translate(-318.504 -1.496)" fill="#fff"/>
    <path id="패스_63" data-name="패스 63" d="M549.99,6.535c0,.025-.006.037-.019.037h-.7l-.242.006a.282.282,0,0,1-.15-.038.562.562,0,0,1-.143-.137c-.054-.066-.154-.2-.3-.392l-.256-.343-.867-1.135-.155.162V6.067a.929.929,0,0,0,.031.282.193.193,0,0,0,.128.119,1.131,1.131,0,0,0,.308.031c.017,0,.025.013.025.037s-.008.037-.025.037q-.2,0-.318-.006l-.456-.006-.443.006c-.079,0-.189.006-.33.006-.009,0-.013-.012-.013-.037s0-.037.013-.037a1.131,1.131,0,0,0,.308-.031.212.212,0,0,0,.134-.122.8.8,0,0,0,.037-.278V3.181a.82.82,0,0,0-.035-.275.208.208,0,0,0-.134-.121,1,1,0,0,0-.306-.035c-.009,0-.013-.013-.013-.037s0-.037.013-.037l.33.006c.184.008.329.012.437.012.125,0,.279,0,.462-.012l.312-.006c.013,0,.019.012.019.037s-.006.037-.019.037a.891.891,0,0,0-.3.038.215.215,0,0,0-.131.128.853.853,0,0,0-.033.277V4.508l1.222-1.234a.528.528,0,0,0,.193-.325.163.163,0,0,0-.1-.146.6.6,0,0,0-.284-.053c-.008,0-.012-.013-.012-.037s0-.037.012-.037l.281.006q.274.012.5.012.244,0,.493-.012l.268-.006c.012,0,.018.012.018.037s-.006.037-.018.037a1.47,1.47,0,0,0-.6.149,2.1,2.1,0,0,0-.6.412l-.8.8.917,1.216q.425.58.639.82a1.233,1.233,0,0,0,.34.3.83.83,0,0,0,.336.056c.013,0,.019.013.019.037" transform="translate(-326.467 -1.599)" fill="#fff"/>
    <path id="패스_64" data-name="패스 64" d="M563.371,6.451c0,.025-.01.038-.032.038-.078,0-.205,0-.38-.012s-.3-.013-.38-.013c-.1,0-.226,0-.369.013s-.252.012-.33.012c-.017,0-.025-.012-.025-.038s.008-.037.025-.037a.642.642,0,0,0,.265-.041.138.138,0,0,0,.084-.134.9.9,0,0,0-.107-.318l-.673-1.367h-1.129l-.48,1.079a.853.853,0,0,0-.081.337.383.383,0,0,0,.155.331.743.743,0,0,0,.437.112c.021,0,.031.013.031.037s-.01.038-.031.038c-.074,0-.183,0-.324-.012-.158-.008-.3-.013-.412-.013s-.243,0-.393.013c-.133.008-.242.012-.33.012-.021,0-.031-.012-.031-.038s.01-.037.031-.037a.576.576,0,0,0,.292-.068.722.722,0,0,0,.232-.247,4.325,4.325,0,0,0,.268-.527l1.341-3.019c.008-.012.027-.018.055-.018s.046.006.05.018l1.529,3.08a2.916,2.916,0,0,0,.364.614.419.419,0,0,0,.314.166c.021,0,.032.013.032.037M560.39,4.4h.986l-.518-1.048Z" transform="translate(-334.116 -1.516)" fill="#fff"/>
    <path id="패스_65" data-name="패스 65" d="M574.858,6.283a1.874,1.874,0,0,1-.777-.715,1.942,1.942,0,0,1-.268-1.007,1.906,1.906,0,0,1,.309-1.07,2.045,2.045,0,0,1,.848-.73,2.769,2.769,0,0,1,1.214-.259,3.479,3.479,0,0,1,.586.051,1.753,1.753,0,0,1,.474.137.163.163,0,0,1,.066.05.239.239,0,0,1,.022.093l.075.811c0,.012-.01.02-.032.024a.035.035,0,0,1-.043-.018,1.588,1.588,0,0,0-.561-.73,1.494,1.494,0,0,0-.88-.262,1.289,1.289,0,0,0-1.054.446,1.872,1.872,0,0,0-.368,1.226,2.55,2.55,0,0,0,.225,1.091,1.8,1.8,0,0,0,.621.748,1.552,1.552,0,0,0,.888.268,1.247,1.247,0,0,0,.424-.056.383.383,0,0,0,.221-.218,1.231,1.231,0,0,0,.072-.48,1.847,1.847,0,0,0-.038-.453.248.248,0,0,0-.165-.172,1.6,1.6,0,0,0-.446-.043c-.025,0-.037-.016-.037-.05a.064.064,0,0,1,.009-.033.024.024,0,0,1,.022-.016c.345.022.621.032.829.032s.424-.006.649-.019c.008,0,.015.006.022.016a.058.058,0,0,1,.008.027c0,.029-.01.044-.03.044a.237.237,0,0,0-.174.041.31.31,0,0,0-.067.191q-.014.144-.015.5a2.592,2.592,0,0,0,.021.4,1.089,1.089,0,0,1,.023.149c0,.025-.005.041-.016.047s-.03.015-.06.029a6.582,6.582,0,0,1-1.4.175,2.574,2.574,0,0,1-1.194-.262" transform="translate(-343.055 -1.496)" fill="#fff"/>
    <path id="패스_66" data-name="패스 66" d="M589.187,6.348a.192.192,0,0,0,.128.119,1.119,1.119,0,0,0,.308.031c.012,0,.019.013.019.037s-.007.038-.019.038q-.2,0-.318-.006l-.462-.006-.449.006c-.079,0-.187.006-.325.006-.012,0-.019-.012-.019-.038s.006-.037.019-.037a1.107,1.107,0,0,0,.308-.031.21.21,0,0,0,.135-.122.789.789,0,0,0,.037-.278V3.18a.763.763,0,0,0-.037-.275.216.216,0,0,0-.135-.121.981.981,0,0,0-.308-.035c-.012,0-.019-.013-.019-.038s.006-.037.019-.037l.325.006q.274.012.449.012c.129,0,.285,0,.468-.012l.312-.006c.012,0,.019.012.019.037s-.007.038-.019.038a.894.894,0,0,0-.3.037.216.216,0,0,0-.131.128.838.838,0,0,0-.035.277V6.067a.931.931,0,0,0,.031.281" transform="translate(-351.568 -1.599)" fill="#fff"/>
    <path id="패스_67" data-name="패스 67" d="M600.638,2.712c0,.025-.005.037-.013.037a.46.46,0,0,0-.387.178.82.82,0,0,0-.137.509V6.66c0,.012-.01.021-.032.026a.045.045,0,0,1-.043-.007L597.1,3.28V5.819a.827.827,0,0,0,.131.5.445.445,0,0,0,.381.175c.008,0,.012.013.012.037s0,.037-.012.037q-.169,0-.256-.006l-.331-.006-.368.006q-.1.006-.287.006c-.012,0-.018-.012-.018-.037s.006-.037.018-.037a.512.512,0,0,0,.415-.175.762.762,0,0,0,.146-.5V3.087a1.327,1.327,0,0,0-.315-.263.609.609,0,0,0-.29-.074c-.008,0-.012-.013-.012-.037s0-.037.012-.037l.25.006c.054,0,.131.006.23.006l.4-.006c.05,0,.111-.006.182-.006a.1.1,0,0,1,.074.025.657.657,0,0,1,.075.1c.071.1.123.162.156.2l2.238,2.645V3.436a.848.848,0,0,0-.131-.509.436.436,0,0,0-.374-.178c-.009,0-.013-.013-.013-.037s0-.037.013-.037l.256.006c.133.008.242.012.33.012s.2,0,.337-.012l.274-.006c.008,0,.013.012.013.037" transform="translate(-356.508 -1.599)" fill="#fff"/>
    <path id="패스_68" data-name="패스 68" d="M612.311,6.283a1.873,1.873,0,0,1-.776-.715,1.937,1.937,0,0,1-.268-1.007,1.9,1.9,0,0,1,.308-1.07,2.048,2.048,0,0,1,.849-.73,2.767,2.767,0,0,1,1.213-.259,3.473,3.473,0,0,1,.586.051,1.761,1.761,0,0,1,.474.137.165.165,0,0,1,.066.05.236.236,0,0,1,.021.093l.075.811c0,.012-.01.02-.032.024a.036.036,0,0,1-.043-.018,1.583,1.583,0,0,0-.561-.73,1.492,1.492,0,0,0-.879-.262,1.289,1.289,0,0,0-1.054.446,1.87,1.87,0,0,0-.368,1.226,2.55,2.55,0,0,0,.224,1.091,1.806,1.806,0,0,0,.621.748,1.551,1.551,0,0,0,.888.268,1.249,1.249,0,0,0,.424-.056.385.385,0,0,0,.221-.218,1.239,1.239,0,0,0,.072-.48,1.867,1.867,0,0,0-.037-.453.249.249,0,0,0-.165-.172,1.6,1.6,0,0,0-.446-.043c-.025,0-.038-.016-.038-.05a.065.065,0,0,1,.009-.033.025.025,0,0,1,.022-.016c.345.022.621.032.83.032s.424-.006.649-.019c.008,0,.015.006.021.016a.054.054,0,0,1,.009.027c0,.029-.01.044-.03.044a.24.24,0,0,0-.175.041.314.314,0,0,0-.066.191q-.015.144-.015.5a2.582,2.582,0,0,0,.021.4,1.085,1.085,0,0,1,.023.149c0,.025-.005.041-.015.047l-.06.029a6.582,6.582,0,0,1-1.4.175,2.576,2.576,0,0,1-1.195-.262" transform="translate(-365.447 -1.496)" fill="#fff"/>
    <path id="패스_69" data-name="패스 69" d="M21.6,1.008A20.595,20.595,0,1,0,42.2,21.6,20.619,20.619,0,0,0,21.6,1.008m0,40.661A20.067,20.067,0,1,1,41.668,21.6,20.089,20.089,0,0,1,21.6,41.669" transform="translate(-0.602 -0.603)" fill="#fff"/>
    <path id="패스_70" data-name="패스 70" d="M28.561,12.648A15.914,15.914,0,1,0,44.475,28.562,15.931,15.931,0,0,0,28.561,12.648M44.392,29.232a6.361,6.361,0,0,0-3.622-5.6L39.376,25.11a4.536,4.536,0,0,1-1.342,8.869H30.743V35.8h7.3a6.357,6.357,0,0,0,6.2-4.976A15.877,15.877,0,0,1,30.136,44.331V24.941h8.571l.689-.761H28.713V44.406c-.051,0-.1,0-.151,0s-.1,0-.151,0V24.18H16.575l-.689.761,11.1.006V44.331A15.878,15.878,0,0,1,12.878,30.825l4.788-5.277H15.348l-2.632,2.9a15.869,15.869,0,0,1,14.2-15.65l-8.833,9.735H20.4l6.583-7.255v7.255h3.152V12.792A15.87,15.87,0,0,1,44.409,28.562c0,.225-.008.448-.017.67" transform="translate(-7.562 -7.562)" fill="#fff"/>
    <path id="패스_71" data-name="패스 71" d="M27.748,11.288a16.461,16.461,0,1,0,16.46,16.461,16.48,16.48,0,0,0-16.46-16.461m0,32.657a16.2,16.2,0,1,1,16.2-16.2,16.215,16.215,0,0,1-16.2,16.2" transform="translate(-6.748 -6.749)" fill="#fff"/>
    <path id="패스_72" data-name="패스 72" d="M35.85,6.15a21,21,0,1,0-29.7,29.7,21,21,0,0,0,29.7-29.7M35.8,35.8A20.934,20.934,0,0,1,6.2,6.2,20.934,20.934,0,0,1,35.8,35.8" transform="translate(0 0)" fill="#fff"/>
    <path id="패스_73" data-name="패스 73" d="M87.9,26.51c.031.047.064.1.1.164s.076.128.115.2l.087-.055-.027-.043a.342.342,0,0,1-.056-.125.117.117,0,0,1,.029-.093,1.028,1.028,0,0,1,.182-.143q.154-.1.594-.384l.458-.286.2-.124.148.234a.534.534,0,0,1,.107.294.325.325,0,0,1-.142.2l.065.069c.052-.046.106-.09.159-.129s.1-.076.156-.109l.041-.024.04-.025a.471.471,0,0,1-.131-.13q-.078-.1-.316-.48l-.193-.3c-.12-.19-.2-.324-.242-.4a.469.469,0,0,1-.062-.173,2.078,2.078,0,0,1-.213.118c-.074.035-.152.068-.234.1l.033.091a.4.4,0,0,1,.266-.036.511.511,0,0,1,.206.216l.158.251-.4.251c-.339.215-.589.372-.752.471a2.205,2.205,0,0,1-.289.161.146.146,0,0,1-.113,0,.318.318,0,0,1-.1-.112l-.027-.043-.087.055c.049.07.093.135.134.2s.075.112.1.155" transform="translate(-52.409 -14.732)" fill="#fff"/>
    <path id="패스_74" data-name="패스 74" d="M89.957,31.5a.317.317,0,0,1-.163-.041.322.322,0,0,1-.108-.132l-.09.043c.032.061.063.117.088.169s.049.1.067.132.043.095.068.152L89.9,32l.092-.043-.018-.036a.239.239,0,0,1-.032-.136.116.116,0,0,1,.075-.078.673.673,0,0,1,.172-.039c.084-.012.22-.023.408-.036.029.057.057.111.082.165s.053.11.081.17c.016.031.045.1.093.206l.064.139-.346.323a.67.67,0,0,1-.052.047.38.38,0,0,1-.045.027.1.1,0,0,1-.1,0,.289.289,0,0,1-.082-.119l-.013-.025-.092.043c.035.065.068.126.1.185s.057.112.08.162.04.088.066.145l.082.193.092-.043-.012-.027a.2.2,0,0,1-.024-.124.47.47,0,0,1,.113-.165q.177-.194.54-.554t.807-.783l-.107-.228c-.44.037-.845.066-1.216.087s-.62.032-.746.032m1.742.059-.666.648c-.006-.013-.015-.033-.028-.058-.058-.115-.1-.194-.118-.239s-.048-.1-.093-.206c-.014-.033-.025-.057-.033-.074Z" transform="translate(-53.564 -18.728)" fill="#fff"/>
    <path id="패스_75" data-name="패스 75" d="M92.964,36.385l-.143.048a.94.94,0,0,1-.351.07.163.163,0,0,1-.126-.127.191.191,0,0,1-.009-.033c0-.007,0-.014-.005-.022l-.092.029c.03.079.057.149.078.212s.039.11.05.142c.021.067.043.136.064.2s.039.139.057.208l.092-.032a.015.015,0,0,0,0-.006.036.036,0,0,0,0-.011.108.108,0,0,0-.006-.016c0-.006-.005-.011-.007-.014a.235.235,0,0,1,0-.194.525.525,0,0,1,.256-.132l.421-.136c.013.058.025.109.035.151s.02.075.028.1a.918.918,0,0,0,.348.514.587.587,0,0,0,.524.051.523.523,0,0,0,.342-.313.778.778,0,0,0-.007-.538c-.008-.028-.031-.089-.066-.183s-.064-.175-.086-.245-.039-.123-.058-.187-.036-.127-.051-.193l-.1.032,0,.011a.228.228,0,0,1,.006.172.25.25,0,0,1-.151.1l-.875.283-.168.056m.887-.007.382-.118c.018.035.035.07.051.107s.03.077.043.118a.553.553,0,0,1,0,.4.429.429,0,0,1-.278.239.449.449,0,0,1-.386-.025.629.629,0,0,1-.246-.361c-.011-.031-.019-.063-.028-.1s-.015-.069-.021-.111l.485-.156" transform="translate(-55.145 -21.363)" fill="#fff"/>
    <path id="패스_76" data-name="패스 76" d="M95.413,46.056l-.171.016-.143.014a.975.975,0,0,1-.366-.01.162.162,0,0,1-.095-.15c0-.012,0-.021,0-.028s0-.013,0-.019l-.1.009c.01.078.02.149.027.214s.014.12.018.165.01.118.013.185.008.137.01.21l.1-.009s0-.014,0-.024a.127.127,0,0,1,0-.023.193.193,0,0,1,.049-.175.829.829,0,0,1,.347-.074l.5-.044c-.11.129-.252.3-.422.5-.284.339-.448.51-.5.514h-.008l-.006,0c.008.053.015.1.022.15s.011.09.013.127.006.107.01.208c0,.027,0,.047,0,.063l.1-.01a.036.036,0,0,1,0-.013c0-.006,0-.014,0-.025-.008-.087.077-.234.253-.44.029-.035.051-.062.068-.081l.611-.728.76.664.015.013a.464.464,0,0,1,.173.308l0,.013.1-.009c-.01-.064-.019-.125-.026-.179s-.012-.1-.016-.145c-.005-.058-.009-.118-.012-.18s-.006-.124-.008-.187l-.1.009,0,.037a.2.2,0,0,1-.008.092.047.047,0,0,1-.044.033.666.666,0,0,1-.2-.131c-.051-.04-.09-.072-.121-.094l-.658-.51.565-.049a.759.759,0,0,1,.343.014.2.2,0,0,1,.082.171l0,.019.1-.009c-.009-.064-.019-.127-.026-.189s-.014-.123-.019-.185-.009-.109-.012-.172-.007-.13-.009-.2l-.1.009c0,.005,0,.011,0,.021s0,.014,0,.018a.166.166,0,0,1-.062.163.829.829,0,0,1-.324.071l-.154.012-.186.014Z" transform="translate(-56.518 -27.33)" fill="#fff"/>
    <path id="패스_77" data-name="패스 77" d="M96.86,52.684a1.084,1.084,0,0,0-.2-.349,1.05,1.05,0,0,0-.348-.272,1.1,1.1,0,0,0-.433-.111,1.16,1.16,0,0,0-.412.051,1.12,1.12,0,0,0-.36.192,1,1,0,0,0-.275.335,1.075,1.075,0,0,0-.059.805,1,1,0,0,0,.18.338,1.054,1.054,0,0,0,.359.292,1.137,1.137,0,0,0,.456.12,1.159,1.159,0,0,0,.456-.066,1.107,1.107,0,0,0,.388-.241.918.918,0,0,0,.214-.306,1.151,1.151,0,0,0,.086-.395,1.085,1.085,0,0,0-.053-.392m-.413.892a1.081,1.081,0,0,1-.713.181.986.986,0,0,1-.633-.23A.632.632,0,0,1,94.887,53a.684.684,0,0,1,.31-.537,1.131,1.131,0,0,1,.73-.182.954.954,0,0,1,.617.228.635.635,0,0,1,.207.528.684.684,0,0,1-.3.54" transform="translate(-56.63 -31.058)" fill="#fff"/>
    <path id="패스_78" data-name="패스 78" d="M95.883,58.745a.234.234,0,0,1-.08.154.255.255,0,0,1-.182.012l-.258-.053-.246-.052-.392-.085-.212-.045q-.537-.112-.5-.3a.234.234,0,0,1,.006-.027.135.135,0,0,1,.006-.019l-.094-.019c-.012.082-.024.156-.035.221s-.02.115-.028.151c-.013.066-.027.132-.043.2s-.032.134-.048.2l.095.019a.006.006,0,0,1,0-.005.018.018,0,0,0,0-.009.031.031,0,0,0,0-.012v-.012a.224.224,0,0,1,.092-.166.534.534,0,0,1,.283.01l.443.089-.018.086c-.01.05-.018.1-.025.138s-.011.081-.015.118c-.16.07-.328.137-.505.2s-.275.1-.289.107a.494.494,0,0,0-.2.143.623.623,0,0,0-.089.233c-.006.029-.012.075-.019.138,0,.028-.005.048-.007.062l.082.017,0-.014c.023-.119.2-.243.518-.372l.075-.029.462-.187a.771.771,0,0,0,.175.33.543.543,0,0,0,.291.157.5.5,0,0,0,.429-.11.753.753,0,0,0,.253-.452c.006-.032.016-.1.031-.192s.029-.177.043-.241.025-.121.04-.183.031-.125.049-.188l-.1-.021Zm-.172.577c0,.037-.01.077-.018.116a.5.5,0,0,1-.191.324.431.431,0,0,1-.347.065.524.524,0,0,1-.251-.118.588.588,0,0,1-.152-.242c.005-.041.009-.079.014-.113s.012-.067.018-.093.015-.068.024-.109.023-.083.036-.127c.214.042.383.078.51.1s.247.053.365.08a.919.919,0,0,1-.008.114" transform="translate(-55.92 -34.859)" fill="#fff"/>
    <path id="패스_79" data-name="패스 79" d="M94.43,64.667a.232.232,0,0,1-.1.143.25.25,0,0,1-.181-.012c-.091-.03-.173-.059-.25-.085l-.238-.083-.379-.135-.2-.071c-.347-.12-.5-.241-.457-.364a.132.132,0,0,1,.011-.027.09.09,0,0,1,.007-.019l-.09-.03-.017.051c-.092.31-.163.535-.21.673-.035.1-.074.214-.12.337s-.1.258-.15.4c.068.041.136.084.2.131s.135.1.2.15l.068-.089a.482.482,0,0,1-.2-.264,1.044,1.044,0,0,1,.088-.483c.023-.07.047-.134.069-.192s.045-.11.067-.154l.235.073.191.063.173.061.189.065-.035.1-.083.248a.805.805,0,0,1-.152.307.181.181,0,0,1-.183.015l-.011,0-.028.092.068.017c.082.023.133.037.157.047.042.014.088.031.134.051s.1.043.156.069l.038-.084a.167.167,0,0,1-.116-.118.669.669,0,0,1,.053-.279c.009-.028.028-.082.058-.164l.072-.2.014-.043.312.114.405.146-.019.062q-.066.209-.092.286a.9.9,0,0,1-.194.376.286.286,0,0,1-.261.027l-.023.1.225.058c.074.02.146.041.216.064.032-.11.064-.219.1-.325s.068-.211.1-.314.07-.2.116-.329.1-.271.16-.432l-.093-.032Z" transform="translate(-55.036 -38.252)" fill="#fff"/>
    <path id="패스_80" data-name="패스 80" d="M90.4,69.057a.309.309,0,0,1-.069-.154.334.334,0,0,1,.036-.166l-.09-.045c-.027.064-.053.122-.076.175s-.045.1-.063.134-.047.093-.076.148l-.1.176.09.045.019-.035a.235.235,0,0,1,.086-.109.116.116,0,0,1,.107.011.674.674,0,0,1,.138.11q.092.087.28.3c-.025.058-.052.113-.078.166s-.054.109-.083.169c-.015.03-.05.1-.1.2-.029.058-.053.1-.069.137l-.467-.072q-.041-.006-.07-.013a.258.258,0,0,1-.05-.019.1.1,0,0,1-.062-.073A.284.284,0,0,1,89.736,70l.012-.024-.091-.046c-.029.068-.057.132-.085.191s-.053.114-.077.163-.044.086-.074.142-.063.117-.1.183l.09.046.014-.027a.2.2,0,0,1,.083-.095.468.468,0,0,1,.2-.015c.175.013.431.041.769.081s.711.091,1.116.15l.112-.226c-.3-.323-.575-.622-.82-.9s-.409-.467-.487-.567m.111,1.283.027-.059.113-.24c.019-.036.053-.1.1-.2.017-.031.029-.055.037-.072l.637.692Z" transform="translate(-53.401 -41.068)" fill="#fff"/>
    <path id="패스_81" data-name="패스 81" d="M86.571,79.232l-.078.061a.4.4,0,0,1,.118.242.519.519,0,0,1-.142.261l-.19.228-.36-.3q-.463-.385-.678-.571A2.229,2.229,0,0,1,85,78.929a.14.14,0,0,1-.033-.108.3.3,0,0,1,.075-.13l.033-.04-.079-.066c-.051.068-.1.131-.146.189s-.082.1-.115.143-.078.092-.126.147-.1.111-.154.171l.079.066.033-.04a.331.331,0,0,1,.1-.09.123.123,0,0,1,.1,0,1.07,1.07,0,0,1,.191.13q.148.113.548.447c.071.058.208.174.412.346.078.066.138.117.18.154l-.179.213a.544.544,0,0,1-.247.193.336.336,0,0,1-.232-.075l-.046.082c.061.036.117.073.172.111s.1.077.152.116l.037.032c.015.014.027.024.035.031a.481.481,0,0,1,.083-.164q.074-.106.36-.449l.228-.276c.143-.172.247-.29.31-.354a.448.448,0,0,1,.145-.111,2.139,2.139,0,0,1-.177-.167c-.056-.06-.111-.124-.166-.193" transform="translate(-50.49 -46.982)" fill="#fff"/>
    <path id="패스_82" data-name="패스 82" d="M81.214,81.716a.271.271,0,0,1,.08-.312l-.068-.072-.133.138-.1.1c-.036.033-.076.071-.124.112l-.151.131.069.074.029-.028a.241.241,0,0,1,.119-.072.115.115,0,0,1,.1.047.676.676,0,0,1,.092.152c.036.076.09.2.159.377q-.068.068-.133.129c-.042.04-.088.084-.136.129q-.036.035-.168.153c-.048.043-.085.078-.112.1l-.414-.229a.467.467,0,0,1-.061-.037.381.381,0,0,1-.04-.034.1.1,0,0,1-.033-.091.3.3,0,0,1,.088-.115l.021-.019-.07-.074c-.05.054-.1.1-.146.15s-.09.088-.13.125-.071.066-.118.108-.1.087-.158.136l.069.074.021-.02a.2.2,0,0,1,.111-.06.455.455,0,0,1,.192.056q.237.11.692.343t.994.528l.184-.173c-.169-.406-.321-.784-.455-1.13s-.221-.58-.26-.7m-.343,1.241c.011-.01.027-.025.047-.046.091-.09.155-.151.19-.185s.085-.078.168-.152l.06-.054.356.87Z" transform="translate(-47.629 -48.624)" fill="#fff"/>
    <path id="패스_83" data-name="패스 83" d="M79.025,87.242a.234.234,0,0,1-.162.059.247.247,0,0,1-.138-.113l-.54-.745c-.027-.036-.064-.084-.107-.143l-.09-.121a.949.949,0,0,1-.175-.313.161.161,0,0,1,.082-.158l.029-.02.02-.012-.057-.078c-.065.053-.124.1-.177.14l-.121.091c-.056.041-.116.082-.175.123s-.12.08-.18.12l.058.077.006,0,.009-.006.013-.012.011-.01a.235.235,0,0,1,.185-.062c.047.013.115.08.2.2l.259.358c-.051.031-.1.057-.132.081s-.066.042-.086.057a.919.919,0,0,0-.381.489.589.589,0,0,0,.113.515.521.521,0,0,0,.4.228.777.777,0,0,0,.51-.172c.024-.018.076-.057.154-.12s.148-.115.205-.158l.161-.113c.055-.037.111-.073.168-.108l-.061-.084Zm-.522.308c-.03.026-.063.052-.1.078a.553.553,0,0,1-.383.122.436.436,0,0,1-.315-.192.453.453,0,0,1-.094-.375.635.635,0,0,1,.267-.345c.027-.018.053-.037.082-.054s.062-.036.1-.055c.12.165.22.3.3.413s.155.219.23.328c-.027.028-.055.055-.086.081" transform="translate(-46.174 -51.175)" fill="#fff"/>
    <path id="패스_84" data-name="패스 84" d="M69.138,92.382a.06.06,0,0,1-.015.008.164.164,0,0,1-.174-.007.783.783,0,0,1-.167-.286c-.011-.025-.031-.072-.06-.143l-.073-.173-.153-.359c-.016-.04-.04-.093-.068-.157s-.048-.108-.058-.132a.985.985,0,0,1-.1-.351.159.159,0,0,1,.113-.136l.026-.011.018-.007-.04-.093-.194.093-.152.068c-.052.022-.109.045-.173.07s-.128.05-.2.075l.041.095.023-.011a.087.087,0,0,1,.021-.011.189.189,0,0,1,.182-.008.839.839,0,0,1,.177.307l.2.464q-.236-.1-.606-.246a2.144,2.144,0,0,1-.645-.314.021.021,0,0,1,0-.008V91.1c-.048.025-.093.047-.137.068s-.081.038-.115.053-.1.039-.2.073l-.058.023.041.094.011-.007.023-.01c.082-.035.247,0,.5.1l.1.039.882.356-.4.927-.008.019a.47.47,0,0,1-.239.261l-.011,0,.038.092c.059-.029.113-.056.163-.079l.132-.06c.054-.023.11-.046.168-.068s.115-.044.175-.065l-.039-.092-.033.014a.211.211,0,0,1-.092.022.049.049,0,0,1-.043-.033.69.69,0,0,1,.062-.232c.023-.06.04-.107.051-.144l.281-.782.222.521a.763.763,0,0,1,.093.331c-.01.052-.057.1-.138.13l-.017.007.04.092c.057-.029.115-.056.172-.083l.169-.075c.049-.021.1-.043.161-.065s.122-.047.187-.071l-.041-.094-.019.009" transform="translate(-39.786 -54.128)" fill="#fff"/>
    <path id="패스_85" data-name="패스 85" d="M63.207,93.658a1.112,1.112,0,0,0-.3-.284.988.988,0,0,0-.4-.158,1.073,1.073,0,0,0-.441.028,1.092,1.092,0,0,0-.61.442,1.074,1.074,0,0,0-.165.432,1.109,1.109,0,0,0,.028.47,1.123,1.123,0,0,0,.2.413,1.076,1.076,0,0,0,.348.294.919.919,0,0,0,.358.109,1.155,1.155,0,0,0,.4-.042,1.076,1.076,0,0,0,.777-.884,1.1,1.1,0,0,0-.029-.446,1.189,1.189,0,0,0-.176-.376m-.147,1.177a.635.635,0,0,1-.437.361.685.685,0,0,1-.608-.121,1.082,1.082,0,0,1-.394-.62.992.992,0,0,1,.023-.675.625.625,0,0,1,.436-.366.673.673,0,0,1,.606.127,1.126,1.126,0,0,1,.4.636.959.959,0,0,1-.026.657" transform="translate(-36.636 -55.723)" fill="#fff"/>
    <path id="패스_86" data-name="패스 86" d="M56.794,96.308a.226.226,0,0,1-.171-.029.244.244,0,0,1-.067-.168q-.017-.141-.03-.263c-.009-.08-.018-.164-.027-.25l-.041-.4c0-.051-.011-.123-.021-.214-.041-.364,0-.554.133-.569l.029,0h.02l-.012-.095-.22.035c-.066.009-.115.016-.152.02-.068.008-.135.015-.2.021l-.207.015.011.1h.016l.01,0,.012,0a.226.226,0,0,1,.187.037.524.524,0,0,1,.076.272l.052.448-.088.01-.138.018-.117.023q-.173-.2-.347-.419c-.117-.149-.18-.23-.192-.241a.493.493,0,0,0-.2-.14.584.584,0,0,0-.25-.013c-.029,0-.074.012-.137.025l-.06.012.01.083.014,0c.121-.014.293.111.514.378.024.027.041.047.053.062l.32.381a.778.778,0,0,0-.258.269.546.546,0,0,0-.06.326.5.5,0,0,0,.237.374.754.754,0,0,0,.509.1c.033,0,.1-.013.192-.029s.177-.027.242-.034.122-.014.187-.019.128-.01.194-.012l-.012-.1Zm-.6.016c-.038.008-.077.014-.116.019a.5.5,0,0,1-.368-.082.429.429,0,0,1-.169-.31.523.523,0,0,1,.034-.274.588.588,0,0,1,.183-.22c.041-.009.078-.016.113-.022l.093-.013c.033,0,.068-.007.111-.01s.086,0,.133,0q.036.323.058.516c.013.127.026.251.037.372-.036.01-.072.02-.11.028" transform="translate(-32.682 -56.388)" fill="#fff"/>
    <path id="패스_87" data-name="패스 87" d="M50.412,94.869c-.107,0-.226,0-.359-.01s-.275-.012-.428-.021c-.018.077-.039.154-.063.233s-.051.158-.081.238l.1.037a.493.493,0,0,1,.19-.271,1.075,1.075,0,0,1,.486-.063c.075,0,.143,0,.206.008s.117.009.166.016c0,.094,0,.176,0,.246s0,.138,0,.2c0,.038,0,.1-.005.183s0,.151,0,.2h-.1l-.262-.005a.813.813,0,0,1-.34-.049.181.181,0,0,1-.069-.17v-.012h-.1c0,.016,0,.039,0,.07,0,.084,0,.139,0,.164,0,.044,0,.092-.007.144s-.01.108-.019.169l.092.01a.171.171,0,0,1,.078-.146A.659.659,0,0,1,50.186,96l.174.006.216.005h.045c0,.051-.005.162-.012.331s-.012.314-.016.432h-.366a.892.892,0,0,1-.417-.07.283.283,0,0,1-.1-.24l-.1.007c.005.078.01.154.014.232s.006.152,0,.225c.114,0,.228-.006.338-.007s.222,0,.33,0,.215,0,.35.01.289.012.46.02l0-.1h-.012a.232.232,0,0,1-.166-.051.248.248,0,0,1-.043-.175c0-.1,0-.183.005-.265s0-.165.006-.251l.012-.4c0-.052,0-.123.007-.216.008-.366.076-.548.207-.546h.029l.019,0,0-.1h-.053q-.486.008-.7,0" transform="translate(-29.582 -56.699)" fill="#fff"/>
    <path id="패스_88" data-name="패스 88" d="M45.266,94.31c-.049-.007-.1-.016-.165-.028l-.2-.038-.015.1.039.006a.236.236,0,0,1,.131.049.116.116,0,0,1,.023.1.633.633,0,0,1-.063.165c-.038.076-.1.2-.2.359L44.638,95l-.187-.027-.222-.038-.151-.024L44,94.449a.527.527,0,0,1-.009-.072.351.351,0,0,1,0-.051.1.1,0,0,1,.051-.082.293.293,0,0,1,.146,0l.027,0,.014-.1c-.074-.006-.142-.014-.207-.022s-.127-.015-.18-.023l-.158-.027-.2-.04-.016.1.029,0a.2.2,0,0,1,.116.05.461.461,0,0,1,.075.185q.062.254.159.756t.2,1.108l.251.037q.32-.578.6-1.058t.39-.638a.27.27,0,0,1,.294-.13l.015-.1-.191-.019c-.058-.006-.106-.013-.145-.019m-.992,1.68-.167-.913.063.008.263.035c.04.005.115.019.223.037l.08.014Z" transform="translate(-25.987 -56.217)" fill="#fff"/>
    <path id="패스_89" data-name="패스 89" d="M34.167,91.657c-.053-.021-.112-.045-.178-.074l-.211-.093-.037.1.047.019a.318.318,0,0,1,.118.069.13.13,0,0,1,.032.092,1.189,1.189,0,0,1-.065.222q-.063.174-.253.659l-.2.5c-.038.095-.068.168-.089.219l-.259-.1a.548.548,0,0,1-.259-.176.33.33,0,0,1,0-.243l-.092-.017c-.016.068-.034.134-.052.2s-.04.123-.063.18c0,.01-.011.025-.02.044a.445.445,0,0,0-.017.042.484.484,0,0,1,.181.029c.082.025.262.092.539.2l.333.132c.208.084.353.144.433.185a.441.441,0,0,1,.151.1,2.322,2.322,0,0,1,.1-.22,2.226,2.226,0,0,1,.132-.217l-.082-.055a.4.4,0,0,1-.195.186.506.506,0,0,1-.292-.054l-.276-.109.173-.436q.222-.56.332-.823a2.489,2.489,0,0,1,.138-.3.146.146,0,0,1,.093-.066.313.313,0,0,1,.147.031l.048.019.038-.1c-.082-.027-.156-.054-.224-.079s-.127-.047-.173-.066" transform="translate(-19.47 -54.698)" fill="#fff"/>
    <path id="패스_90" data-name="패스 90" d="M30.843,89.482a.322.322,0,0,1,.165.042l.048-.088-.172-.084-.132-.068L30.61,89.2l-.173-.1-.048.089.035.019a.24.24,0,0,1,.106.091.118.118,0,0,1-.015.107.692.692,0,0,1-.117.132q-.092.087-.309.268l-.164-.085-.166-.09c-.029-.016-.094-.053-.2-.113l-.133-.075.09-.464a.554.554,0,0,1,.016-.069.271.271,0,0,1,.019-.049.1.1,0,0,1,.076-.06.3.3,0,0,1,.137.047l.024.014.05-.089q-.1-.048-.188-.092l-.16-.084-.138-.079c-.055-.032-.115-.069-.18-.109l-.049.089.026.014a.2.2,0,0,1,.092.086.464.464,0,0,1,.005.2q-.03.261-.112.765t-.195,1.109l.222.121c.333-.287.645-.549.932-.784s.484-.39.586-.464a.326.326,0,0,1,.157-.062m-1.6,1.036L29.4,89.6l.057.029.236.124.195.113.072.04Z" transform="translate(-17.305 -52.854)" fill="#fff"/>
    <path id="패스_91" data-name="패스 91" d="M24.99,86.923c-.057-.042-.114-.084-.171-.129s-.114-.089-.17-.134l-.056.078a.015.015,0,0,0,.005.006s0,0,.008.007a.052.052,0,0,0,.015.008l.013.008c.075.054.114.107.115.156a.53.53,0,0,1-.129.257l-.261.358c-.044-.04-.085-.074-.118-.1s-.06-.05-.08-.065a.92.92,0,0,0-.583-.212.588.588,0,0,0-.454.266.524.524,0,0,0-.094.454.787.787,0,0,0,.322.432q.035.025.161.109c.084.056.155.1.214.148s.1.076.156.117.1.082.154.125l.061-.083-.01-.007a.229.229,0,0,1-.106-.136.256.256,0,0,1,.065-.167l.541-.743c.028-.037.062-.085.1-.144s.071-.1.087-.123a.949.949,0,0,1,.243-.263.162.162,0,0,1,.176.029.336.336,0,0,1,.028.021.087.087,0,0,1,.016.016l.057-.077-.187-.126c-.055-.037-.1-.066-.124-.086m-1.011,1.136q-.12.163-.24.32a.988.988,0,0,1-.1-.056,1.244,1.244,0,0,1-.1-.07.552.552,0,0,1-.235-.327.433.433,0,0,1,.086-.358.445.445,0,0,1,.327-.205.632.632,0,0,1,.411.148l.077.061c.025.022.052.048.082.077-.121.165-.221.3-.3.41" transform="translate(-13.758 -51.81)" fill="#fff"/>
    <path id="패스_92" data-name="패스 92" d="M17.171,79.462c-.036-.043-.077-.09-.12-.142s-.086-.107-.131-.165l-.077.068a.13.13,0,0,0,.017.017l.017.017a.192.192,0,0,1,.063.171.847.847,0,0,1-.238.263l-.381.331q.021-.253.048-.653a2.143,2.143,0,0,1,.1-.708l.006-.005.006,0c-.037-.037-.074-.074-.106-.109s-.062-.066-.086-.094-.068-.082-.13-.163c-.017-.021-.031-.038-.039-.05l-.076.069.009.008a.116.116,0,0,1,.016.019c.059.066.076.234.055.5,0,.046-.007.081-.008.106l-.068.949-1-.092-.021,0a.47.47,0,0,1-.32-.147l-.009-.01-.076.066c.046.046.088.09.125.13s.07.076.1.108.078.09.116.138.078.1.115.147l.076-.065-.025-.027a.216.216,0,0,1-.049-.08A.053.053,0,0,1,15.1,80a.658.658,0,0,1,.24-.013l.153.006.832.026-.428.372a.778.778,0,0,1-.286.19.2.2,0,0,1-.166-.09l-.012-.014-.075.066c.045.047.088.091.131.138s.084.092.123.138.072.084.112.133.082.1.124.157l.078-.068-.015-.014-.013-.012a.164.164,0,0,1-.047-.169.813.813,0,0,1,.22-.247l.118-.1c.059-.049.106-.09.142-.122l.294-.257c.034-.029.076-.066.129-.113l.108-.1a.945.945,0,0,1,.3-.207.159.159,0,0,1,.165.066l.018.021.011.015.076-.068c-.053-.056-.1-.108-.148-.156l-.111-.123" transform="translate(-8.741 -46.774)" fill="#fff"/>
    <path id="패스_93" data-name="패스 93" d="M13.212,76.139a1.135,1.135,0,0,0,.3-.283,1.112,1.112,0,0,0,.18-.367,1,1,0,0,0,.026-.432,1.08,1.08,0,0,0-.771-.855,1.076,1.076,0,0,0-.461-.023,1.143,1.143,0,0,0-.943.914.929.929,0,0,0,.008.374,1.169,1.169,0,0,0,.163.369,1.049,1.049,0,0,0,.274.286,1.071,1.071,0,0,0,.366.166,1.046,1.046,0,0,0,.441.015,1.108,1.108,0,0,0,.416-.165m-.863-.059a.64.64,0,0,1-.479-.306.681.681,0,0,1-.071-.614,1.079,1.079,0,0,1,.469-.567.988.988,0,0,1,.647-.187.631.631,0,0,1,.484.3.676.676,0,0,1,.065.616,1.121,1.121,0,0,1-.482.577.957.957,0,0,1-.633.179" transform="translate(-6.892 -44.339)" fill="#fff"/>
    <path id="패스_94" data-name="패스 94" d="M10.281,69.521q.5-.227.583-.049c0,.011.008.021.01.026a.112.112,0,0,1,.007.019l.086-.04c-.038-.074-.072-.14-.1-.2s-.05-.1-.066-.137c-.029-.062-.056-.124-.082-.187s-.054-.127-.079-.193l-.089.041v.005a.048.048,0,0,0,0,.009l.007.01a.023.023,0,0,1,.006.01.222.222,0,0,1,.023.189.528.528,0,0,1-.234.157l-.409.188-.037-.08c-.021-.046-.041-.088-.061-.125s-.039-.072-.058-.1c.088-.15.185-.3.29-.461s.163-.242.171-.256a.5.5,0,0,0,.072-.23.6.6,0,0,0-.065-.241c-.012-.027-.035-.067-.066-.123-.015-.024-.025-.042-.032-.054l-.076.035.006.013c.051.111-.016.312-.2.606l-.043.068-.263.423a.778.778,0,0,0-.337-.164.546.546,0,0,0-.327.045.493.493,0,0,0-.282.341.751.751,0,0,0,.062.515c.013.029.043.087.087.173s.081.161.108.22.051.113.076.171.049.119.072.181l.093-.043-.005-.011a.229.229,0,0,1-.025-.173.249.249,0,0,1,.138-.115l.241-.11.228-.1.367-.162.2-.088m-.944.129-.343.151c-.022-.031-.042-.063-.062-.1s-.036-.068-.053-.1a.5.5,0,0,1-.037-.375.428.428,0,0,1,.242-.257.523.523,0,0,1,.272-.052.566.566,0,0,1,.265.107c.021.035.039.069.056.1s.03.06.041.085.028.064.043.1.032.081.046.125l-.471.216" transform="translate(-5.153 -40.472)" fill="#fff"/>
    <path id="패스_95" data-name="패스 95" d="M7.568,64.6l.208-.06q.525-.16.583.027a.224.224,0,0,1,.008.027c0,.006,0,.013,0,.02l.091-.028-.017-.05c-.105-.307-.181-.53-.224-.669q-.046-.153-.1-.344c-.036-.127-.074-.265-.114-.413-.079.006-.159.011-.241.012s-.165,0-.251,0l0,.111a.493.493,0,0,1,.317.1,1.074,1.074,0,0,1,.211.443c.023.072.042.137.057.2s.028.115.036.163l-.233.078-.192.062-.175.052-.191.058-.031-.1-.077-.25a.807.807,0,0,1-.059-.338.183.183,0,0,1,.14-.119l.012,0-.031-.091-.066.025c-.079.029-.13.047-.154.055-.042.013-.089.026-.139.038s-.106.024-.166.035l.019.091a.166.166,0,0,1,.162.027A.624.624,0,0,1,7.07,64c.009.028.026.084.05.167s.046.152.062.208l.013.043-.318.091-.417.119c0-.013-.01-.033-.02-.062-.046-.138-.077-.233-.093-.286a.91.91,0,0,1-.065-.419.288.288,0,0,1,.2-.175L6.442,63.6c-.072.029-.144.058-.216.085s-.144.053-.213.075c.04.109.078.215.113.32s.07.21.1.314.062.2.1.335.078.278.122.443l.095-.029,0-.011a.232.232,0,0,1,0-.175.247.247,0,0,1,.153-.1l.253-.078.241-.072Z" transform="translate(-3.595 -37.73)" fill="#fff"/>
    <path id="패스_96" data-name="패스 96" d="M6.942,58.664a.331.331,0,0,1,.146.084.316.316,0,0,1,.069.156l.1-.016c-.015-.067-.029-.13-.04-.188s-.021-.106-.028-.144-.015-.1-.025-.165-.015-.127-.024-.2l-.1.016.007.04a.246.246,0,0,1-.006.139.118.118,0,0,1-.093.054.672.672,0,0,1-.176-.009c-.084-.012-.218-.038-.4-.077-.012-.062-.023-.123-.033-.181s-.021-.12-.033-.186q-.008-.049-.033-.224c-.01-.064-.017-.114-.024-.151l.421-.217a.5.5,0,0,1,.064-.03.225.225,0,0,1,.051-.015.1.1,0,0,1,.094.023.309.309,0,0,1,.048.137l0,.027.1-.016c-.016-.072-.031-.14-.043-.2s-.024-.124-.033-.179-.014-.095-.023-.157-.017-.132-.026-.208l-.1.018.006.028a.2.2,0,0,1-.012.126.453.453,0,0,1-.153.128q-.223.138-.67.386t-.991.533l.041.249q.648.127,1.193.247c.362.081.606.139.728.174m-1.659-.531L6.1,57.69c0,.014.007.035.012.064.025.125.04.213.049.261s.017.114.033.223c0,.035.008.062.012.08Z" transform="translate(-2.977 -33.943)" fill="#fff"/>
    <path id="패스_97" data-name="패스 97" d="M4.78,48.8a.409.409,0,0,1-.236-.127.514.514,0,0,1-.039-.295l.019-.3.467.03c.4.026.7.047.885.063a2.3,2.3,0,0,1,.329.039.14.14,0,0,1,.09.068.305.305,0,0,1,.017.15l0,.051.1.007c0-.086,0-.164.008-.238s.005-.134.008-.183.009-.121.015-.193.014-.148.024-.229l-.1-.006,0,.051a.321.321,0,0,1-.029.134.12.12,0,0,1-.077.058,1.025,1.025,0,0,1-.231.008q-.186-.005-.706-.039l-.538-.038-.236-.019.018-.277a.563.563,0,0,1,.088-.3.334.334,0,0,1,.231-.076l-.011-.093c-.07.006-.138.01-.2.01s-.13,0-.191,0l-.047,0-.046,0a.489.489,0,0,1,.028.183c0,.086-.007.277-.026.574l-.024.358c-.014.223-.028.38-.042.469a.445.445,0,0,1-.051.176,2.091,2.091,0,0,1,.241.03c.081.015.164.035.248.059Z" transform="translate(-2.549 -28.126)" fill="#fff"/>
    <path id="패스_98" data-name="패스 98" d="M6.816,43.576a.327.327,0,0,1,.109.128.332.332,0,0,1,.01.171l.1.018c.008-.068.018-.131.027-.189s.017-.106.025-.145.02-.1.034-.163.029-.126.045-.2l-.1-.019-.007.039A.245.245,0,0,1,7,43.349a.119.119,0,0,1-.107.019.706.706,0,0,1-.162-.07c-.074-.04-.19-.111-.35-.212.01-.063.021-.123.03-.182s.022-.119.034-.185c.007-.033.023-.106.048-.221.013-.063.022-.113.029-.15L7,42.29c.029,0,.051-.005.071-.006a.36.36,0,0,1,.053,0,.1.1,0,0,1,.08.054.289.289,0,0,1,0,.144l0,.027.1.019c.01-.073.02-.142.03-.207s.021-.124.031-.178.018-.095.032-.156.03-.129.048-.2l-.1-.019-.005.029a.2.2,0,0,1-.054.114.486.486,0,0,1-.189.067c-.17.034-.425.077-.762.13s-.709.1-1.115.156l-.047.248c.377.229.721.444,1.034.645s.519.34.622.416M6.364,42.37c0,.014-.006.035-.01.064-.021.126-.036.214-.045.262s-.023.113-.047.221c-.007.035-.013.062-.016.08l-.8-.495Z" transform="translate(-3.086 -24.972)" fill="#fff"/>
    <path id="패스_99" data-name="패스 99" d="M6.266,37.161a.231.231,0,0,1,.1-.144.253.253,0,0,1,.179.01l.875.284c.042.014.1.032.169.053l.145.046a.919.919,0,0,1,.325.15.161.161,0,0,1,.028.177l-.011.032c0,.007-.006.014-.01.021l.09.03c.023-.082.044-.153.061-.218s.033-.111.044-.144c.022-.067.045-.135.069-.2s.049-.136.076-.2l-.093-.029,0,.005s0,.006,0,.01,0,.009,0,.017l0,.015c-.03.088-.066.142-.112.159a.543.543,0,0,1-.286-.044l-.42-.137c.024-.055.044-.1.06-.143s.028-.073.036-.1a.912.912,0,0,0,.02-.62.589.589,0,0,0-.393-.35.527.527,0,0,0-.461.052.778.778,0,0,0-.311.44c-.009.027-.027.09-.054.187s-.052.18-.075.249-.041.123-.063.186-.045.124-.071.186l.1.032Zm.24-.557c.009-.038.021-.078.035-.121a.548.548,0,0,1,.238-.324.435.435,0,0,1,.367-.029.452.452,0,0,1,.3.247.631.631,0,0,1-.013.436.924.924,0,0,1-.035.092c-.013.031-.028.065-.047.1l-.484-.159c-.127-.043-.254-.086-.379-.13.006-.037.013-.077.021-.116" transform="translate(-3.686 -21.41)" fill="#fff"/>
    <path id="패스_100" data-name="패스 100" d="M10.106,28.646a.117.117,0,0,1,.008-.015.165.165,0,0,1,.145-.1.816.816,0,0,1,.3.134l.132.081.16.1.335.2.148.087.124.072a.98.98,0,0,1,.291.223.161.161,0,0,1-.012.177.133.133,0,0,1-.014.023l-.01.016.087.053c.036-.07.07-.133.1-.191s.059-.1.082-.144.062-.1.1-.157.076-.115.116-.176l-.089-.053L12.1,29a.128.128,0,0,1-.01.02c-.044.074-.091.111-.143.114a.841.841,0,0,1-.324-.145l-.92-.551a.775.775,0,0,1-.269-.214.2.2,0,0,1,.035-.186l.009-.017-.085-.051c-.03.058-.061.114-.09.169s-.062.108-.094.16-.056.094-.091.147-.071.109-.109.167l.088.053s.005-.01.009-.019" transform="translate(-5.984 -16.721)" fill="#fff"/>
    <path id="패스_101" data-name="패스 101" d="M11.608,26.209a.2.2,0,0,1,.061-.07.051.051,0,0,1,.055,0,.676.676,0,0,1,.086.224c.017.061.031.111.042.147l.234.8q.247-.059.636-.156a2.131,2.131,0,0,1,.706-.124l.006,0a.019.019,0,0,0,0,.006c.025-.048.048-.093.072-.135s.043-.078.062-.11.058-.09.114-.175l.036-.052-.09-.052a.033.033,0,0,1,0,.012.122.122,0,0,1-.012.022c-.044.076-.2.144-.462.207l-.1.025-.922.23-.224-.983-.005-.021a.465.465,0,0,1,.041-.35l.006-.012-.085-.051c-.031.058-.059.111-.086.16s-.05.09-.071.126-.063.1-.1.154l-.1.155.085.051Z" transform="translate(-6.878 -15.302)" fill="#fff"/>
    <path id="패스_102" data-name="패스 102" d="M14.824,22.871a1.159,1.159,0,0,0,.362.2,1.111,1.111,0,0,0,.4.057,1,1,0,0,0,.419-.109,1.056,1.056,0,0,0,.341-.281,1.1,1.1,0,0,0,.235-.716,1.073,1.073,0,0,0-.119-.446,1.165,1.165,0,0,0-.705-.58,1.1,1.1,0,0,0-.456-.034.934.934,0,0,0-.353.121,1.186,1.186,0,0,0-.3.269,1.056,1.056,0,0,0-.188.349,1.072,1.072,0,0,0-.045.4,1.051,1.051,0,0,0,.121.425,1.1,1.1,0,0,0,.285.345m-.066-1.388a.68.68,0,0,1,.563-.257A1.08,1.08,0,0,1,16,21.5a1,1,0,0,1,.378.56.633.633,0,0,1-.139.553.678.678,0,0,1-.566.252,1.129,1.129,0,0,1-.7-.282.95.95,0,0,1-.364-.548.633.633,0,0,1,.143-.549" transform="translate(-8.618 -12.527)" fill="#fff"/>
    <path id="패스_103" data-name="패스 103" d="M18.247,17.428a.226.226,0,0,1,.156-.077.246.246,0,0,1,.152.1l.179.2c.055.06.11.122.168.186l.267.3.144.161c.246.271.32.45.226.538l-.022.019-.016.012.066.07c.058-.059.111-.112.158-.157s.083-.081.11-.106c.05-.046.1-.091.153-.136s.1-.089.157-.133l-.066-.072-.005,0-.007.006-.008.009-.008.009a.221.221,0,0,1-.172.079.532.532,0,0,1-.222-.174l-.306-.332.066-.06c.037-.034.071-.067.1-.1s.058-.059.082-.087q.255.056.528.136c.181.052.281.08.3.082a.486.486,0,0,0,.241,0,.6.6,0,0,0,.21-.136c.021-.02.053-.053.1-.1l.041-.046-.056-.062-.011.01q-.134.124-.638,0l-.078-.019-.484-.121a.752.752,0,0,0,.053-.37.548.548,0,0,0-.142-.3.5.5,0,0,0-.411-.163.747.747,0,0,0-.472.216l-.138.137c-.068.069-.127.125-.177.17s-.09.082-.14.125-.1.083-.15.123l.07.076Zm.477-.366c.025-.028.054-.057.082-.083a.5.5,0,0,1,.346-.149.423.423,0,0,1,.319.152.517.517,0,0,1,.132.242.574.574,0,0,1-.019.285c-.027.031-.053.059-.078.083s-.047.047-.068.066-.052.046-.084.072-.066.055-.1.082c-.147-.16-.263-.287-.35-.383s-.169-.189-.249-.279a1.084,1.084,0,0,1,.073-.088" transform="translate(-10.862 -9.917)" fill="#fff"/>
    <path id="패스_104" data-name="패스 104" d="M23.138,13.03a.228.228,0,0,1,.165-.057.254.254,0,0,1,.138.116c.055.078.106.15.152.217s.093.136.142.206l.226.332.122.178c.208.3.26.489.153.563l-.023.016-.018.009.055.078.043-.031q.388-.293.566-.419c.088-.061.187-.129.3-.2s.229-.152.358-.236c-.03-.072-.06-.148-.086-.224s-.051-.158-.075-.242l-.106.033a.484.484,0,0,1,0,.331,1.069,1.069,0,0,1-.356.338c-.061.042-.117.081-.17.115s-.1.062-.144.085c-.056-.076-.107-.142-.147-.2l-.117-.164-.1-.15c-.048-.07-.085-.125-.113-.163l.085-.062.215-.15a.789.789,0,0,1,.3-.159.179.179,0,0,1,.156.1l.008.01.076-.058-.044-.054c-.052-.066-.086-.109-.1-.13-.026-.037-.051-.077-.079-.121s-.055-.094-.085-.148l-.08.046a.169.169,0,0,1,.024.163.641.641,0,0,1-.208.194l-.144.1-.178.122-.037.027-.185-.276c-.095-.142-.175-.261-.242-.359a.583.583,0,0,0,.052-.038c.118-.086.2-.145.245-.177a.883.883,0,0,1,.378-.189.288.288,0,0,1,.226.133l.075-.064c-.051-.06-.1-.119-.147-.18s-.095-.12-.137-.179c-.09.07-.181.139-.27.206s-.179.131-.267.193-.176.123-.288.2-.24.16-.383.254l.057.08Z" transform="translate(-13.794 -7.238)" fill="#fff"/>
    <path id="패스_105" data-name="패스 105" d="M30.019,11.712a.321.321,0,0,1-.033.165.331.331,0,0,1-.127.113l.046.088.165-.1.129-.071c.043-.023.092-.047.149-.075l.182-.085-.047-.089-.035.018a.244.244,0,0,1-.135.038.12.12,0,0,1-.081-.072.75.75,0,0,1-.046-.17c-.015-.083-.031-.219-.051-.407.055-.031.109-.062.161-.089l.168-.088.2-.1.136-.069.336.332c.02.02.037.037.049.053a.26.26,0,0,1,.029.043.1.1,0,0,1,.008.1.3.3,0,0,1-.115.088l-.025.012.047.09c.063-.038.124-.072.181-.1s.111-.061.159-.086l.142-.071.19-.089L31.754,11l-.026.013a.2.2,0,0,1-.122.029.467.467,0,0,1-.17-.105c-.133-.113-.324-.286-.575-.518s-.521-.491-.814-.777l-.224.117c.055.437.1.841.135,1.211s.056.619.06.745m.666-1.1-.058.031c-.113.062-.189.1-.233.127l-.2.1c-.033.015-.058.027-.072.036l-.109-.935Z" transform="translate(-17.83 -5.763)" fill="#fff"/>
    <path id="패스_106" data-name="패스 106" d="M38.289,6.169l.1,0a.409.409,0,0,1,.048-.265.509.509,0,0,1,.268-.128L38.99,5.7l.116.454q.15.583.215.861a2.161,2.161,0,0,1,.064.325.138.138,0,0,1-.036.107.3.3,0,0,1-.136.062l-.051.013.027.1c.081-.025.156-.048.227-.067l.177-.049c.055-.013.117-.029.188-.044L40,7.41l-.025-.1-.051.013a.335.335,0,0,1-.136.013.12.12,0,0,1-.079-.056.975.975,0,0,1-.079-.218q-.052-.177-.181-.682c-.023-.09-.067-.264-.132-.524-.023-.1-.042-.175-.055-.23l.268-.068a.552.552,0,0,1,.314-.01.334.334,0,0,1,.144.2l.085-.041c-.027-.064-.052-.128-.074-.19s-.039-.123-.054-.183l-.011-.046a.438.438,0,0,0-.01-.046.473.473,0,0,1-.164.084c-.081.029-.266.08-.554.153l-.347.088c-.218.055-.37.09-.46.1a.443.443,0,0,1-.183.006,2.119,2.119,0,0,1,.047.238,2.464,2.464,0,0,1,.02.254" transform="translate(-22.851 -3.133)" fill="#fff"/>
    <path id="패스_107" data-name="패스 107" d="M44.257,6.888l.147-.021c.048-.006.1-.012.165-.018l.2-.016-.013-.1-.039.005a.239.239,0,0,1-.139-.012.118.118,0,0,1-.051-.095.7.7,0,0,1,.016-.176c.015-.084.047-.217.092-.4l.183-.027L45.006,6l.226-.024.152-.017.2.428a.572.572,0,0,1,.027.066.276.276,0,0,1,.013.051A.1.1,0,0,1,45.6,6.6a.293.293,0,0,1-.138.042l-.028,0,.012.1.206-.035.178-.026.159-.017c.062-.006.132-.012.208-.017l-.012-.1-.029,0a.2.2,0,0,1-.124-.016.457.457,0,0,1-.123-.158q-.128-.229-.358-.685t-.494-1.011l-.25.032q-.153.643-.3,1.182c-.095.359-.161.6-.2.72a.321.321,0,0,1-.088.142.325.325,0,0,1-.159.062l.012.1.187-.033M44.9,4.98l.41.834-.064.009-.262.038-.226.024-.08.009Z" transform="translate(-26.34 -2.8)" fill="#fff"/>
    <path id="패스_108" data-name="패스 108" d="M50.759,6.418l.214,0,.216.01v-.1l-.008,0h-.027l-.016,0a.234.234,0,0,1-.186-.058.561.561,0,0,1-.045-.284l0-.442.156.013c.043,0,.078,0,.1,0a.91.91,0,0,0,.6-.171.59.59,0,0,0,.212-.482.524.524,0,0,0-.193-.421.777.777,0,0,0-.513-.162c-.03,0-.1,0-.2.006s-.187.006-.258.006-.13,0-.2,0-.132-.006-.2-.011v.1h.01a.225.225,0,0,1,.166.048.246.246,0,0,1,.045.173l0,.919c0,.045,0,.1,0,.177s0,.125,0,.151a.918.918,0,0,1-.043.356.161.161,0,0,1-.159.08h-.034l-.023,0v.095l.226-.008.151,0m.152-1.512c0-.135,0-.268.007-.4.038-.007.076-.012.117-.015s.081,0,.125,0a.547.547,0,0,1,.382.127.431.431,0,0,1,.141.34.445.445,0,0,1-.144.359.63.63,0,0,1-.419.121c-.033,0-.065,0-.1,0s-.07-.008-.111-.014c0-.2,0-.374,0-.508" transform="translate(-30.121 -2.588)" fill="#fff"/>
    <path id="패스_109" data-name="패스 109" d="M59.954,7.183c.056.012.117.027.181.044l.2.055.023-.1-.025,0-.023,0c-.083-.019-.134-.052-.152-.1A.828.828,0,0,1,60.2,6.72l.111-.493c.088.145.2.33.347.555a2.164,2.164,0,0,1,.337.631.028.028,0,0,1,0,.007l0,.006.151.025.124.025c.037.008.1.026.2.054l.06.016.023-.1h-.013l-.024-.005c-.087-.019-.2-.144-.342-.375l-.057-.089L60.6,6.174l.863-.519.018-.012a.467.467,0,0,1,.345-.07l.012,0,.023-.1-.177-.031c-.054-.01-.1-.02-.143-.03s-.116-.027-.175-.042l-.181-.049-.022.1.036.008a.2.2,0,0,1,.086.035.049.049,0,0,1,.017.053.694.694,0,0,1-.186.152c-.053.035-.1.063-.127.086l-.686.471.125-.554a.767.767,0,0,1,.119-.322.2.2,0,0,1,.187-.026l.019,0,.022-.1c-.064-.01-.126-.021-.187-.033l-.182-.038-.168-.041-.193-.053-.023.1.019,0,.017,0a.162.162,0,0,1,.138.107.773.773,0,0,1-.032.33c-.006.027-.017.076-.035.151s-.032.134-.043.182l-.086.381c-.009.043-.022.1-.036.167s-.025.116-.03.141a1,1,0,0,1-.121.345.16.16,0,0,1-.173.045l-.027-.006L59.6,7.011l-.023.1c.078.013.148.026.213.039l.162.034" transform="translate(-35.619 -3.029)" fill="#fff"/>
    <path id="패스_110" data-name="패스 110" d="M66.151,9.141a1.061,1.061,0,0,0,.373.236,1.077,1.077,0,0,0,.753,0,1.075,1.075,0,0,0,.388-.252A1.177,1.177,0,0,0,68,8.275a1.1,1.1,0,0,0-.11-.443.924.924,0,0,0-.225-.3,1.151,1.151,0,0,0-.349-.2,1.076,1.076,0,0,0-1.149.258,1.1,1.1,0,0,0-.238.378,1.153,1.153,0,0,0-.079.407,1.118,1.118,0,0,0,.072.4,1,1,0,0,0,.233.365m.1-1.117a.951.951,0,0,1,.406-.517.638.638,0,0,1,.567-.034.684.684,0,0,1,.42.454,1.076,1.076,0,0,1-.046.734.993.993,0,0,1-.414.532.63.63,0,0,1-.568.041.676.676,0,0,1-.416-.46,1.124,1.124,0,0,1,.051-.75" transform="translate(-39.366 -4.341)" fill="#fff"/>
    <path id="패스_111" data-name="패스 111" d="M71.318,11.289c.058.03.1.055.135.072.059.033.117.067.178.1s.117.071.176.109l.047-.084,0,0-.007-.006-.012,0-.011,0c-.078-.044-.121-.09-.128-.139a.521.521,0,0,1,.1-.265l.22-.393.077.043c.045.025.085.047.123.065s.074.036.108.051c.017.174.029.355.034.544s.012.292.014.307a.48.48,0,0,0,.077.229.591.591,0,0,0,.193.157c.027.014.068.034.127.061l.057.025.041-.073-.013-.008c-.106-.059-.17-.261-.194-.607,0-.035,0-.062-.005-.08l-.035-.5a.768.768,0,0,0,.367-.066.54.54,0,0,0,.24-.229.5.5,0,0,0,.027-.441.751.751,0,0,0-.353-.38c-.027-.016-.085-.046-.172-.089s-.159-.082-.217-.114l-.162-.094-.165-.1-.05.089.01.006a.23.23,0,0,1,.122.125.25.25,0,0,1-.044.175c-.047.083-.09.159-.132.23s-.082.143-.124.218l-.2.347c-.027.045-.062.107-.108.187-.182.319-.329.445-.443.382l-.024-.014-.016-.012-.047.083.2.1m1.019-1.2c.064-.111.127-.219.19-.323.035.012.07.027.1.042s.071.033.106.053a.5.5,0,0,1,.249.282.426.426,0,0,1-.046.351.517.517,0,0,1-.188.2.585.585,0,0,1-.278.07c-.037-.016-.072-.033-.1-.049l-.083-.043-.094-.058c-.037-.023-.073-.047-.112-.074.107-.19.192-.34.255-.452" transform="translate(-42.519 -5.603)" fill="#fff"/>
    <path id="패스_112" data-name="패스 112" d="M76.266,14.322l-.015-.014-.057.076.043.031c.265.187.455.323.573.411l.285.219c.1.082.215.171.333.269.061-.052.123-.1.187-.151s.134-.1.207-.145l-.063-.092a.491.491,0,0,1-.312.107,1.081,1.081,0,0,1-.432-.234c-.058-.045-.111-.087-.16-.127s-.09-.077-.125-.111c.053-.077.1-.143.142-.2s.082-.11.121-.163c.023-.029.059-.078.112-.145l.121-.158.083.063.21.157a.806.806,0,0,1,.246.24.184.184,0,0,1-.044.179l-.007.009.078.055c.009-.014.023-.033.038-.058.046-.07.078-.115.093-.136s.056-.072.091-.111.072-.082.114-.126l-.069-.062a.168.168,0,0,1-.147.072.653.653,0,0,1-.249-.137l-.138-.107c-.068-.053-.126-.1-.171-.132l-.036-.027c.031-.04.1-.127.2-.261l.267-.34c.01.008.028.021.052.037l.242.177a.907.907,0,0,1,.3.3.285.285,0,0,1-.056.256l.083.052c.041-.066.083-.131.125-.2s.085-.126.128-.185c-.095-.064-.187-.129-.278-.193s-.18-.13-.267-.195-.17-.13-.277-.213-.226-.18-.359-.288l-.059.079.009.007a.224.224,0,0,1,.1.139.248.248,0,0,1-.066.169l-.16.211-.152.2-.246.317-.132.171q-.332.437-.489.32l-.023-.018" transform="translate(-45.553 -7.61)" fill="#fff"/>
    <path id="패스_113" data-name="패스 113" d="M80.383,18.685a.329.329,0,0,1-.147-.087l-.07.071.142.128c.043.041.078.074.106.1s.074.074.117.119.089.094.138.148l.072-.073-.029-.028a.23.23,0,0,1-.076-.116.115.115,0,0,1,.043-.1.708.708,0,0,1,.148-.1q.112-.059.371-.173c.047.044.092.086.133.127s.089.085.136.132c.023.023.076.077.157.162l.108.108-.213.422a.515.515,0,0,1-.036.062.179.179,0,0,1-.032.042.1.1,0,0,1-.089.037.3.3,0,0,1-.12-.082l-.018-.02-.072.072c.055.049.107.095.155.14s.092.087.13.125.068.068.112.114.092.1.142.154l.072-.072-.021-.021a.192.192,0,0,1-.064-.109.444.444,0,0,1,.049-.194q.1-.242.316-.7t.491-1.013l-.181-.178q-.6.279-1.111.5c-.341.147-.571.242-.69.285a.332.332,0,0,1-.168.018m1.823-.559-.4.836-.047-.044c-.094-.088-.159-.149-.193-.184s-.081-.082-.158-.162c-.024-.025-.043-.045-.056-.058Z" transform="translate(-47.927 -10.691)" fill="#fff"/>
    <path id="패스_114" data-name="패스 114" d="M23.106,39.474H45.922l.668-.739H23.774Z" transform="translate(-13.814 -23.158)" fill="#fff"/>
  </g>
</svg>
