<?xml version="1.0" encoding="UTF-8"?>
<svg id="_레이어_2" data-name="레이어 2" xmlns="http://www.w3.org/2000/svg" viewBox="0 0 308 100">
  <defs>
    <style>
      .cls-1 {
        fill: #6a6e70;
      }

      .cls-1, .cls-2, .cls-3, .cls-4 {
        stroke-width: 0px;
      }

      .cls-2 {
        fill: #c7004e;
      }

      .cls-3 {
        fill: none;
      }

      .cls-4 {
        fill: #fff;
      }
    </style>
  </defs>
  <g id="domestic">
    <g id="lg_h_h" data-name="lg_h&amp;amp;h">
      <g id="_확인필요_augustin" data-name="확인필요_augustin">
        <rect class="cls-3" width="308" height="100"/>
      </g>
      <g id="_레이어_1-2" data-name=" 레이어 1-2">
        <path class="cls-3" d="m226.46,70.92H81.54V30.48h144.91v40.44Z"/>
        <g>
          <g>
            <path class="cls-2" d="m101.9,66.64c8.71,0,15.78-7.05,15.78-15.76s-7.07-15.77-15.78-15.77-15.78,7.06-15.78,15.77,7.06,15.76,15.78,15.76"/>
            <polygon class="cls-4" points="101.27 43.96 101.27 57.79 105.67 57.79 105.67 56.55 102.54 56.55 102.54 43.96 101.27 43.96"/>
            <path class="cls-4" d="m96.87,47.73c1.05,0,1.89-.85,1.89-1.89s-.84-1.89-1.89-1.89-1.89.86-1.89,1.89.84,1.89,1.89,1.89"/>
            <path class="cls-4" d="m102.54,37.68c-.17,0-.48-.02-.63-.02-7.28,0-13.21,5.93-13.21,13.2,0,3.53,1.37,6.85,3.86,9.34,2.5,2.49,5.81,3.86,9.34,3.86s6.84-1.37,9.33-3.86c2.49-2.49,3.87-5.8,3.87-9.34v-.59h-9.43v1.21h8.17v.19c-.42,6.22-5.61,11.15-11.94,11.15-3.2,0-6.2-1.24-8.47-3.51-2.27-2.25-3.52-5.25-3.52-8.46s1.25-6.2,3.52-8.46c2.26-2.26,5.26-3.5,8.47-3.5.14,0,.47,0,.63,0v-1.23h0Z"/>
          </g>
          <path class="cls-1" d="m177.42,48.82h-7.73v-8.39h-4.33v20.41h4.33v-8.47h7.73v8.47h4.36v-20.41h-4.36v8.39h0Zm40.1,0h-7.73v-8.39h-4.33v20.41h4.33v-8.47h7.73v8.47h4.36v-20.41h-4.36v8.39h0Zm-18,7.77c1.55-1.85,2.59-4.36,3.12-6.58l-3.71-.7c-.28,1.32-.93,3.03-1.8,4.36l-2.45-2.73c2.56-.82,4.72-2.84,4.72-5.74,0-3.51-2.64-5.06-6.04-5.06-3.68,0-6.27,1.91-6.27,5.48,0,1.35.73,3.03,1.55,4.11-2.7,1.44-3.88,3.35-3.88,5.96,0,3.79,2.53,5.54,6.74,5.54,1.88,0,3.91-.62,5.42-1.72l1.24,1.38h5.09l-3.74-4.3h.01Zm-6.07-13.34c1.1,0,1.83.72,1.83,2.08,0,1.51-1.39,2.31-2.93,2.91-.52-.84-.93-1.77-.93-2.79,0-1.53.84-2.2,2.03-2.2Zm-1.61,14.49c-1.6,0-2.64-.82-2.64-2.67,0-1.15.93-2.05,1.8-2.47l3.63,4.19c-.87.7-1.88.95-2.78.95h0Zm-62.35-17.34h-4.74v20.52h14.56v-4h-9.82v-16.53h0Zm20.25,12.7h3.86v3.59c-.71.27-2.1.54-3.42.54-4.26,0-5.69-2.17-5.69-6.57s1.36-6.67,5.62-6.67c2.37,0,3.72.75,4.84,2.17l2.95-2.71c-1.8-2.57-4.94-3.35-7.89-3.35-6.64,0-10.13,3.62-10.13,10.53s3.15,10.6,10.09,10.6c3.18,0,6.3-.81,7.99-2v-9.95h-8.23v3.83Z"/>
        </g>
      </g>
    </g>
  </g>
</svg>