<?xml version="1.0" encoding="UTF-8"?>
<svg id="_레이어_2" data-name="레이어 2" xmlns="http://www.w3.org/2000/svg" viewBox="0 0 308 100">
  <defs>
    <style>
      .cls-1 {
        fill: #231815;
      }

      .cls-1, .cls-2 {
        stroke-width: 0px;
      }

      .cls-2 {
        fill: none;
      }
    </style>
  </defs>
  <g id="global">
    <g id="loreal">
      <rect class="cls-2" width="308" height="100"/>
      <g>
        <polygon class="cls-1" points="89.57 60.56 86.91 60.56 86.91 40.83 89.57 40.83 89.57 58.49 104.07 58.49 104.07 60.52 89.89 60.52 89.57 60.56"/>
        <polygon class="cls-1" points="206.59 60.31 203.93 60.31 203.93 40.59 206.59 40.59 206.59 58.25 221.09 58.25 221.09 60.28 206.91 60.28 206.59 60.31"/>
        <polygon class="cls-1" points="102.36 41.08 104.92 41.08 101.34 47.91 99.76 47.91 102.36 41.08"/>
        <path class="cls-1" d="m119.77,60.05c5.59,0,10.12-4.4,10.12-9.83s-4.53-9.83-10.12-9.83-10.11,4.4-10.11,9.83,4.53,9.83,10.11,9.83m-13.03-9.83c0-6.79,5.83-12.29,13.03-12.29s13.03,5.5,13.03,12.29-5.83,12.29-13.03,12.29-13.03-5.5-13.03-12.29"/>
        <path class="cls-1" d="m150.08,49.56c1.59-.63,2.66-1.8,2.66-3.13,0-1.54-1.44-2.86-3.47-3.39,0,0-1.24-.24-1.85-.24h-8.08l-.26.03v7.04l.39.03h7.95c.8.03,2.67-.34,2.67-.34m.59,2.55l5.5,8.13-2.94.03-5.82-8.17h-7.92l-.42-.06v7.99h-2.56v-19.45h10.9c5.9,0,7.4,2.62,7.4,2.62.59.91.94,1.99.94,3.16,0,2.85-2.05,5.21-4.76,5.69l-.32.06Z"/>
        <polygon class="cls-1" points="169.03 37.48 166.86 39.9 173.72 37.55 169.03 37.48"/>
        <polygon class="cls-1" points="162.79 58.15 177.27 58.15 177.27 60.11 159.92 60.11 159.92 40.67 177.27 40.67 177.27 42.63 162.58 42.63 162.62 43.09 162.62 49.25 173.48 49.25 173.48 51.29 162.76 51.29 162.62 51.32 162.62 58.09 162.79 58.15"/>
        <path class="cls-1" d="m194.79,52.6l-4.67-9.56-.16.35-4.65,9.51h.18s9.43,0,9.43,0l-.12-.29Zm-16,7.56l9.49-19.39h3.69l9.56,19.55-2.95.02-2.47-5.05-.11-.16h-11.66l-.1-.02-2.48,5.06-2.96-.02Z"/>
      </g>
    </g>
  </g>
</svg>