<?xml version="1.0" encoding="UTF-8"?>
<svg id="_레이어_2" data-name="레이어 2" xmlns="http://www.w3.org/2000/svg" xmlns:xlink="http://www.w3.org/1999/xlink" viewBox="0 0 308 100">
  <defs>
    <style>
      .cls-1 {
        fill: none;
      }

      .cls-1, .cls-2, .cls-3 {
        stroke-width: 0px;
      }

      .cls-2 {
        fill-rule: evenodd;
      }

      .cls-2, .cls-3 {
        fill: #161615;
      }

      .cls-4 {
        clip-path: url(#clippath);
      }
    </style>
    <clipPath id="clippath">
      <rect class="cls-1" x="59.21" y="31.37" width="193.57" height="41.47"/>
    </clipPath>
  </defs>
  <g id="global">
    <g id="lancome">
      <rect class="cls-1" width="308" height="100"/>
      <g id="_로고_랑콤" data-name="로고 랑콤">
        <g class="cls-4">
          <g id="_그룹_282" data-name="그룹 282">
            <path id="_패스_2891" data-name="패스 2891" class="cls-2" d="m116.85,68.46v-2.12h3.18c.8,0,1.59,0,1.59,1.06,0,.93-.79,1.06-1.59,1.06h-3.18Zm-1.46,4.24h1.46v-3.05h2.78c1.33,0,3.45,0,3.45-2.25,0-2.38-2.12-2.38-3.45-2.38h-4.24v7.69Z"/>
            <path id="_패스_2892" data-name="패스 2892" class="cls-2" d="m127.98,69.66l1.59-3.45,1.59,3.45h-3.18Zm-3.05,3.05h1.59l.8-1.72h4.37l.8,1.72h1.59l-3.71-7.69h-1.72l-3.71,7.69Z"/>
            <path id="_패스_2893" data-name="패스 2893" class="cls-2" d="m139.37,68.46v-2.25h2.92c1.19,0,1.85.27,1.85,1.06,0,.93-.66,1.19-1.85,1.19h-2.92Zm-1.46,4.24h1.46v-3.05h2.39l2.26,3.05h1.85l-2.38-3.18c1.13.04,2.08-.85,2.12-1.98,0-.09,0-.18,0-.27,0-1.85-1.33-2.25-3.05-2.25h-4.64v7.69Z"/>
            <rect id="_사각형_48" data-name="사각형 48" class="cls-3" x="150.37" y="65.02" width="1.46" height="7.69"/>
            <path id="_패스_2894" data-name="패스 2894" class="cls-2" d="m162.56,67.4c-.26-.79-.93-1.32-2.78-1.32-1.06,0-1.99.26-1.99.93,0,.39.13.66,1.72.93l1.85.27c1.72.26,2.65.92,2.65,2.12,0,1.85-1.72,2.51-3.71,2.51-3.31,0-4.11-1.59-4.37-2.12l1.46-.53c.26.53.93,1.33,2.91,1.33,1.19,0,2.25-.4,2.25-1.06,0-.4-.53-.8-1.72-.93l-1.86-.26c-1.72-.13-2.78-.93-2.78-2.12,0-2.25,3.05-2.25,3.58-2.25,3.31,0,3.98,1.46,4.11,1.99l-1.32.53Z"/>
            <path id="_패스_2895" data-name="패스 2895" class="cls-2" d="m198.07,56.14c.4,3.97,2.38,3.31,2.52,3.71h-7.68c-.13-.14,2.12-.14,1.72-3.45l-1.99-15.1c-.13-.4-.13-.8-.4-.8-.13.13-6.76,16.3-6.76,16.3-.13.26-.26.4-.53,0-.13-.27-6.23-13.65-6.23-13.65-.26-.66-.79-1.72-.93-1.99s-.39-.26-.39.8l-1.59,15.23c-.4,2.65,2.12,2.51,2.12,2.65h-5.57c0-.14,1.85.13,2.25-2.65l1.85-16.83c-.13-3.31-2.38-3.18-2.38-3.45h5.83v.26l6.09,13.38c.13.13.27.26.27.26.13.39.13.66.39.27l5.96-14.18h5.57c0,.26-2.25.13-2.25,2.92l2.12,16.3Z"/>
            <path id="_패스_2896" data-name="패스 2896" class="cls-2" d="m71.14,59.06h-3.05c-1.06,0-2.39.13-2.39-1.06v-17.76c0-2.78,3.05-2.78,3.18-3.05h-9.41c-.13.26,2.91.26,2.91,3.18v17.09c0,2.25-3.18,2.25-3.18,2.39h16.56l.93-4.91c-.4,0-.13,3.97-5.57,4.11"/>
            <path id="_패스_2897" data-name="패스 2897" class="cls-2" d="m208.67,48.59v8.61c0,1.72-.13,1.85,1.06,1.85h6.1c4.9-.26,3.97-3.71,4.37-3.84l-.13,4.64h-17.09c-.13-.14,2.52.26,2.52-3.45v-15.9c0-3.71-2.38-3.18-2.38-3.44h16.96l.13,4.5c-.27,0,.66-3.58-4.5-3.84h-5.57c-.93.27-1.46-.4-1.46,1.86v5.96c0,.79.13.93,1.19.93h5.57c2.65,0,2.39-2.52,2.52-2.52v5.96c-.13,0,.13-2.78-2.39-2.65h-5.57c-1.19,0-1.32.4-1.32,1.19v.13Z"/>
            <path id="_패스_2898" data-name="패스 2898" class="cls-2" d="m106.51,57.47c.26,2.79,2.39,2.12,2.39,2.39h-5.96c0-.27,2.39,0,2.39-2.52v-17.22c0-2.92-2.52-2.92-2.65-3.18h6.09l12.46,15.5-.13-12.59c0-3.05-2.39-2.78-2.39-2.92h6.23c0,.13-2.39.13-2.52,2.92v19.48s.13,1.46-.8.26c-.4-.53-14.97-18.94-14.97-18.94-.13-.26-.13,0-.13.4v16.42Z"/>
            <path id="_패스_2899" data-name="패스 2899" class="cls-2" d="m98.43,56.94l-8.35-19.87c-.66-.66-.93.13-.93.13-.8,1.85-8.48,20.27-8.48,20.27-1.06,2.52-2.39,2.25-2.39,2.39h5.44c0-.27-2.92.13-1.86-2.39l2.78-7.02c.4-.53.4-.66,1.06-.66h5.43q.66,0,1.06.66l2.65,6.76c.8,2.65-1.59,2.51-1.59,2.65h7.68c.13-.27-1.19.53-2.52-2.92m-12.19-8.21c-.53,0-.53-.4-.26-.93,0,0,1.99-5.17,2.25-5.7.4-.79.66-.66.93,0l1.99,5.83c.26.53.53.8-.13.8h-4.77Z"/>
            <path id="_패스_2900" data-name="패스 2900" class="cls-2" d="m169.31,35.87l-9.27-4.5-9.14,4.5,9.14-2.78,9.27,2.78Z"/>
            <path id="_패스_2901" data-name="패스 2901" class="cls-2" d="m160.17,36.53c-6.45-.14-11.78,4.98-11.92,11.42,0,.12,0,.25,0,.37-.06,6.31,5.01,11.48,11.32,11.53.16,0,.31,0,.47,0,7.16,0,11.92-5.44,11.92-11.53.08-6.43-5.06-11.71-11.49-11.79-.1,0-.2,0-.3,0m-.13,22.53h0c-4.5,0-7.42-4.24-7.42-10.6,0-7.42,3.05-11,7.42-11s7.42,3.58,7.42,11c0,6.36-3.05,10.47-7.42,10.6"/>
            <path id="_패스_2902" data-name="패스 2902" class="cls-2" d="m138.18,58.92c5.3,0,7.55-3.71,8.08-3.84-1.67,2.9-4.74,4.71-8.08,4.77-12.32,0-12.19-11.26-12.19-11.26.39-7.82,6.76-12.59,12.85-11.92,1.72.26,2.38.53,3.58.79.53.27,2.12,1.06,2.65.8.4-.13.8-1.06.93-1.06v6.09c-.4,0-1.85-5.83-7.68-5.83-4.77,0-8.48,5.44-8.35,10.87.13,9.01,6.36,10.6,8.22,10.6"/>
            <path id="_패스_2903" data-name="패스 2903" class="cls-2" d="m235.43,59.59h.53c.8-3.45,1.99-7.29,4.77-8.74-.43-.59-.97-1.08-1.59-1.46-.54,1.74-1.25,3.43-2.12,5.04-.71,1.66-1.24,3.39-1.59,5.17"/>
            <path id="_패스_2904" data-name="패스 2904" class="cls-2" d="m236.36,54.55c-.95-1.8-2.16-3.45-3.58-4.9v-.4c1.31.45,2.47,1.28,3.31,2.39.66,1.19.66,2.39.26,2.91"/>
            <path id="_패스_2905" data-name="패스 2905" class="cls-2" d="m232.92,50.84c1.17,1.24,2.11,2.68,2.78,4.24.13.53-.14.4-.53.4-.26,0-1.32,0-1.85-1.59-.24-1-.37-2.02-.39-3.05"/>
            <path id="_패스_2906" data-name="패스 2906" class="cls-2" d="m237.81,57.07c1.91-.48,3.86-.79,5.83-.93l.27-.26c-1.11-.54-2.36-.72-3.58-.53-1.33.13-2.39.93-2.52,1.72"/>
            <path id="_패스_2907" data-name="패스 2907" class="cls-2" d="m242.85,56.94c-1.75.02-3.49.28-5.17.79-.26.14-.13.4.13.79.27.27.93,1.06,2.52.27.97-.42,1.83-1.06,2.52-1.86"/>
            <path id="_패스_2908" data-name="패스 2908" class="cls-2" d="m238.34,49.25h0c-.13-4.11-2.52-7.02-4.11-8.88,1.85-1.46,3.44-3.97,3.84-4.37.41-.51,1.15-.6,1.66-.19.07.06.14.12.19.19.84.96,1.35,2.17,1.46,3.44-.23.49-.54.94-.93,1.33-.27-.66-.66-1.46-.8-1.72l-.53.53c1.46,3.05,1.06,7.82-.8,9.67"/>
            <path id="_패스_2909" data-name="패스 2909" class="cls-2" d="m239.54,48.72c.53.4,1.33,1.06,1.46,1.19,0-3.71,2.25-4.77,3.84-5.04-.03-1.42.29-2.83.93-4.1-.47-2-1.23-3.92-2.25-5.7-.09,2.46-1.14,4.79-2.91,6.49.26,1.59.53,5.03-1.06,7.15"/>
            <path id="_패스_2910" data-name="패스 2910" class="cls-2" d="m242.06,51.11c-.8-3.45.93-5.44,3.44-5.57,2.51.11,4.95.79,7.16,1.99-2.65,1.99-6.89,3.05-10.6,3.58"/>
            <path id="_패스_2911" data-name="패스 2911" class="cls-2" d="m246.16,39.05l1.73-.53c.64.79,1.01,1.77,1.06,2.78.13.13.53.53.53.66-.8.66-1.46,1.33-1.46,1.33-.06.6-.24,1.19-.53,1.72,1.5.2,2.97.6,4.37,1.19.66-.4.93-.53.93-.93,0-.53-1.06-1.85-2.12-5.17-.93-3.18-.26-4.37-.93-4.77-.66-.53-3.84.66-4.51,1.46,0,0,.53,1.19.93,2.25"/>
            <path id="_패스_2912" data-name="패스 2912" class="cls-2" d="m248.28,41.57c.53.4.4.4.13.53-.27.27-.4.27-.4.27,0-.36-.05-.71-.13-1.06.13,0,.26,0,.39.26"/>
            <path id="_패스_2913" data-name="패스 2913" class="cls-2" d="m247.62,39.84c-.07-.12-.12-.26-.13-.4.27-.26.93,1.06.8,1.33-.14.13-.14,0-.14,0-.13-.13-.26-.13-.39-.27v-.13c-.03-.18-.07-.36-.14-.53"/>
            <path id="_패스_2914" data-name="패스 2914" class="cls-2" d="m245.63,44.88h0c-.09-1.39.23-2.77.93-3.98v-.4c-.06-.27-.15-.54-.26-.8l.53-.13c.06.12.11.26.13.4.36.97.54,2.01.53,3.05-.01.7-.3,1.36-.8,1.85h-1.06Z"/>
          </g>
        </g>
      </g>
    </g>
  </g>
</svg>