<?xml version="1.0" encoding="UTF-8"?>
<svg id="_레이어_2" data-name="레이어 2" xmlns="http://www.w3.org/2000/svg" viewBox="0 0 308 100">
  <defs>
    <style>
      .cls-1, .cls-2 {
        stroke-width: 0px;
      }

      .cls-2 {
        fill: none;
      }
    </style>
  </defs>
  <g id="global">
    <g id="esteelauder">
      <rect class="cls-2" width="308" height="100"/>
      <g id="_에스띠로더" data-name="에스띠로더">
        <g id="_로고_에스띠로더" data-name="로고 에스띠로더">
          <path id="_패스_2929" data-name="패스 2929" class="cls-1" d="m48.07,62.72h12.85v-1.61h-9.98v-9.64h9.21v-1.52h-9.21v-7.95h9.98l.08-1.52h-12.93v22.24Z"/>
          <path id="_패스_2930" data-name="패스 2930" class="cls-1" d="m71.83,49.87s-5.83-.93-5.33-4.9c0,0,.25-4.48,6.68-3.3,1.45.46,2.84,1.09,4.14,1.86v-1.94s-6.51-3.89-11.75.59c0,0-4.48,3.81.17,8.12,0,0,.93,1.18,5.24,2.29,0,0,5.92,1.27,5.66,4.4,0,0,.08,3.89-4.73,4.99-2.82.32-5.66-.43-7.95-2.11v1.95s3.55,2.87,10.48.93c0,0,5.66-1.35,4.65-7.86,0,0-.5-3.89-7.27-4.99"/>
          <path id="_패스_2931" data-name="패스 2931" class="cls-1" d="m79.52,41.84h7.02v20.71h3.13v-20.63h7.27v-1.52h-17.41v1.44Z"/>
          <path id="_패스_2932" data-name="패스 2932" class="cls-1" d="m99.99,62.72h12.84v-1.61h-9.97v-9.64h9.21v-1.52h-9.21v-7.95h9.97l.08-1.52h-12.93v22.24Z"/>
          <path id="_패스_2933" data-name="패스 2933" class="cls-1" d="m117.23,62.72h12.85v-1.61h-9.98v-9.64h9.22v-1.52h-9.22v-7.95h9.98l.08-1.52h-12.93v22.24Z"/>
          <path id="_패스_2934" data-name="패스 2934" class="cls-1" d="m99.89,38.03h13.02v-1.41l-13.02-.02v1.43Z"/>
          <path id="_패스_2935" data-name="패스 2935" class="cls-1" d="m146.14,40.4h-2.88v22.15h13.1v-1.35h-10.23v-20.8Z"/>
          <path id="_패스_2936" data-name="패스 2936" class="cls-1" d="m166.34,40.48l-9.13,22.06h2.03l3.64-8.2h8.79l3.47,8.2h3.47l-9.72-21.98-2.54-.08Zm-2.87,12.34l3.72-9.3,3.89,9.3h-7.61Z"/>
          <path id="_패스_2937" data-name="패스 2937" class="cls-1" d="m196.01,55.19s.34,6.76-6.85,6.51c0,0-6.42.59-6.34-6.51v-14.63h-2.88v14.63s-.76,7.52,8.28,7.86c0,0,9.72,1.01,9.64-7.86v-14.79h-1.86v14.79Z"/>
          <path id="_패스_2938" data-name="패스 2938" class="cls-1" d="m211.4,40.4l-9.3-.08v22.32h9.05s10.57.68,10.57-11.41c0,0,.17-10.23-10.31-10.82m7.18,11.84c-.34,9.3-7.35,8.96-7.35,8.96h-6.17v-19.1h6.34c7.94.59,7.18,10.14,7.18,10.14"/>
          <path id="_패스_2939" data-name="패스 2939" class="cls-1" d="m225.27,62.55h12.84v-1.61h-9.98v-9.64h9.22v-1.52h-9.22v-7.95h9.98l.08-1.52h-12.93v22.23Z"/>
          <path id="_패스_2940" data-name="패스 2940" class="cls-1" d="m252.74,51.81c5.66-1.1,5.49-5.83,5.49-5.83.34-5.33-6.76-5.75-6.76-5.75h-8.96v22.15l2.96-.08v-10.4h4.23l6.85,10.74h3.38l-7.19-10.82Zm-2.29-1.18h-4.99v-8.96l5.58-.09c4.65.51,4.31,4.57,4.31,4.57-.17,4.9-4.91,4.48-4.91,4.48"/>
        </g>
      </g>
    </g>
  </g>
</svg>