<?xml version="1.0" encoding="UTF-8"?>
<svg id="_레이어_2" data-name="레이어 2" xmlns="http://www.w3.org/2000/svg" viewBox="0 0 308 100">
  <defs>
    <style>
      .cls-1 {
        fill: #021d49;
      }

      .cls-1, .cls-2, .cls-3 {
        stroke-width: 0px;
      }

      .cls-2 {
        fill: none;
      }

      .cls-3 {
        fill: #316094;
      }
    </style>
  </defs>
  <g id="domestic">
    <g id="amorepacific">
      <g id="_확인필요_augustin" data-name="확인필요_augustin">
        <rect class="cls-2" width="308" height="100"/>
      </g>
      <g>
        <path class="cls-3" d="m65.81,44.04c.35.86,2,4.88,2.23,5.45l-4.61-.02c.25-.57,2.01-4.57,2.38-5.43m-.91-2.66l-7.83,17.76h2.23s3.34-7.77,3.34-7.77c0,0,5.8.02,6.11.02.12.3,3.2,7.8,3.2,7.8h2.35s-7.42-17.81-7.42-17.81h-2Z"/>
        <path class="cls-3" d="m92.15,41.48s-5.76,13.11-6.19,14.1c-.43-.99-6.08-14.14-6.08-14.14h-2.84s-.07,17.78-.07,17.78h2.12s.05-14.39.05-14.39l6.26,14.42h1.05s5.51-12.61,6.27-14.36l-.05,14.39h2.11s.07-17.78.07-17.78h-2.71Z"/>
        <polygon class="cls-3" points="140.25 41.67 140.18 59.46 152.72 59.5 152.72 57.53 142.31 57.49 142.33 51.26 151.8 51.3 151.81 49.33 142.34 49.29 142.36 43.64 152.39 43.68 152.39 41.71 140.25 41.67"/>
        <path class="cls-3" d="m131.7,51.05c2.79-.46,4.27-2.05,4.28-4.61.01-3.18-2.13-4.8-6.38-4.81l-7.43-.03-.03,7.62-4.71-.02c-.52-4.8-4.1-8.07-9.08-8.09-5.41-.02-9.2,3.8-9.22,9.3-.02,5.5,3.74,9.35,9.15,9.37,5.18.02,8.87-3.49,9.19-8.61l4.65.02-.03,8.21h2.12s.03-8.2.03-8.2l5.24.02c.14.24,4.83,8.22,4.83,8.22h2.42s-4.7-7.81-5.04-8.39m-23.41,6.76c-4.17-.02-7.07-3.06-7.05-7.39.02-4.33,2.94-7.35,7.1-7.34,4.16.02,7.06,3.06,7.04,7.39-.02,4.34-2.93,7.36-7.1,7.34m15.94-8.62l.02-5.65,5.8.02c3.43.01,3.79,1.99,3.79,2.84,0,.85-.38,2.82-3.81,2.81l-5.8-.02Z"/>
        <path class="cls-1" d="m159.42,41.74l-.07,17.79h1.18s.03-8.69.03-8.69l4.22.02c2.54,0,5.25-1.17,5.27-4.51.02-4.13-3.93-4.59-5.62-4.6l-5.01-.02m1.44,1.04h3.77c1.96.02,4.24.96,4.23,3.57,0,2.58-2.15,3.49-4.15,3.48l-4.15-.02.03-7.04h.27m16.17-.97l-7.83,17.76h1.21s3.28-7.64,3.35-7.79l7.55.03c.06.15,3.2,7.82,3.2,7.82h1.35s-7.42-17.82-7.42-17.82h-1.42m.37,1.51s.14-.33.25-.57c.21.52,3.11,7.71,3.24,8.04l-6.68-.03c.15-.34,3.18-7.44,3.18-7.44m10.39,7.42c-.02,5.5,3.74,9.35,9.14,9.37,2.63,0,4.75-.97,6.32-2.91l.08-.1-.98-.75-.08.1c-1.5,1.95-3.82,2.63-5.35,2.63-4.71-.02-7.98-3.45-7.96-8.34.02-4.89,3.32-8.29,8.03-8.27,1.94,0,3.7.85,4.83,2.29l.08.11.98-.82-.09-.09c-1.43-1.66-3.38-2.5-5.81-2.51-5.4-.02-9.19,3.8-9.21,9.3m47.59.18c-.02,5.5,3.74,9.35,9.14,9.37,2.63.01,4.75-.97,6.32-2.91l.08-.1-.98-.75-.08.1c-1.49,1.95-3.81,2.63-5.35,2.63-4.71-.02-7.98-3.45-7.97-8.34.02-4.89,3.32-8.29,8.03-8.27,1.94,0,3.7.85,4.83,2.29l.08.11.99-.82-.09-.09c-1.43-1.66-3.38-2.5-5.81-2.51-5.4-.02-9.19,3.8-9.21,9.3m-27.16,8.8h1.19s.07-17.79.07-17.79h-1.19s-.07,17.79-.07,17.79Zm6.31-17.77l-.07,17.79h1.19s.03-8.69.03-8.69l8.61.03v-1.03s-8.61-.03-8.61-.03l.03-7.04,9.26.03v-1.03s-10.45-.04-10.45-.04m15.4,17.85h1.19s.07-17.79.07-17.79h-1.19s-.07,17.79-.07,17.79Z"/>
      </g>
    </g>
  </g>
</svg>