<?xml version="1.0" encoding="UTF-8"?>
<svg id="_레이어_2" data-name="레이어 2" xmlns="http://www.w3.org/2000/svg" viewBox="0 0 308 100">
  <defs>
    <style>
      .cls-1 {
        fill: none;
      }

      .cls-1, .cls-2 {
        stroke-width: 0px;
      }

      .cls-2 {
        fill: #12b560;
      }
    </style>
  </defs>
  <g id="domestic">
    <g id="innisfree">
      <g id="_확인필요_augustin" data-name="확인필요_augustin">
        <rect class="cls-1" width="308" height="100"/>
      </g>
      <g id="Layer_1-2" data-name="Layer 1-2">
        <path class="cls-2" d="m99.94,40.43c-.11,0-.22,0-.32,0-2.28,0-4.69,1.23-5.96,3.08l-.21.31-.07-2.75h-4.21v18.22h4.38v-9.42c0-3.72,2.35-5.41,4.53-5.41,2.37,0,3.52,1.77,3.52,5.4v9.44h4.37v-11.37c0-4.56-2.2-7.29-6.02-7.49h0Z"/>
        <rect class="cls-2" x="80.07" y="41.07" width="4.38" height="18.22"/>
        <path class="cls-2" d="m121.47,40.45c-.11,0-.22,0-.33,0-2.28,0-4.69,1.23-5.95,3.06l-.21.31-.07-2.75h-4.21v18.22h4.38v-9.42c0-3.7,2.35-5.39,4.53-5.39,2.37,0,3.52,1.77,3.52,5.4v9.41h4.37v-11.35c0-4.56-2.2-7.29-6.02-7.49h0Z"/>
        <rect class="cls-2" x="132.22" y="41.07" width="4.38" height="18.22"/>
        <path class="cls-2" d="m149.8,48.44c-.34-.09-.68-.17-1.02-.25-1.35-.31-3.6-.83-3.45-2.46.13-1.31,1.64-1.78,3.01-1.78,1.64,0,3.76.82,5.2,1.99l2-2.82c-1.2-1.31-4.25-2.68-7-2.68-3.79.02-6.05,1.14-7.13,3.52-.53,1.17-.55,2.71-.05,4.01.42,1.08,1.74,2.23,3.15,2.74,1.36.49,2.73.93,4.13,1.27,1.1.27,2.47.6,2.86,1.66.2.54.1,1.52-.73,2.03-1.99,1.21-5.56.48-8.15-1.65l-2.13,2.83c1.69,1.72,4.59,2.79,7.6,2.79,3.91,0,6.26-1.2,7.4-3.78.51-1.16.57-3.2-.23-4.46-1.19-1.88-3.37-2.43-5.48-2.95h0Z"/>
        <polygon class="cls-2" points="159.87 59.29 164.25 59.29 164.25 52.49 172.37 52.49 172.37 49.15 164.25 49.15 164.25 44.75 173.18 44.75 173.18 41.06 159.87 41.06 159.87 59.29"/>
        <path class="cls-2" d="m181.13,43.66l-.21.35-.11-2.94h-4.23v18.22h4.34v-9.53c0-2.71,1.62-4.64,4.12-4.93,1.16-.14,2.3,0,3.55.43l.02-4.4c-.45-.11-.97-.18-1.57-.19-3.64,0-5.37,2.07-5.91,2.97h0Z"/>
        <path class="cls-2" d="m198.94,40.37h-.02c-2.59,0-4.81.86-6.44,2.48-1.69,1.68-2.62,4.14-2.62,6.9-.03,2.96.86,5.46,2.6,7.21,1.65,1.67,4.01,2.59,6.63,2.59,3.13,0,5.49-.83,7.64-2.68l-2-2.92c-1.43,1.14-2.77,2.01-5.3,2.01h-.42c-2.52-.1-4.61-1.99-4.84-4.42v-.14s13.23,0,13.23,0c.36-3.36-.45-6.43-2.24-8.44-1.5-1.69-3.65-2.59-6.21-2.59h0Zm4.26,7.74h-9.01v-.13c.21-2.57,2.65-4.16,4.72-4.11,1.21.03,2.4.45,3.22,1.36.67.75,1.07,1.75,1.07,2.75v.12h0Z"/>
        <path class="cls-2" d="m225.61,42.96c-1.5-1.69-3.65-2.59-6.21-2.59h-.02c-2.59,0-4.81.86-6.44,2.48-1.69,1.68-2.62,4.14-2.62,6.9-.03,2.96.86,5.46,2.6,7.21,1.65,1.67,4.01,2.59,6.63,2.59,3.13,0,5.49-.83,7.64-2.68l-2-2.92c-1.43,1.14-2.77,2.01-5.3,2.01-.14,0-.27,0-.42,0-2.52-.09-4.61-1.99-4.84-4.42v-.14s13.23,0,13.23,0c.36-3.36-.45-6.43-2.24-8.44h0Zm-1.95,5.15h-9.01v-.13c.21-2.57,2.65-4.16,4.72-4.11,1.21.03,2.4.45,3.22,1.36.67.75,1.07,1.75,1.07,2.75v.12h0Z"/>
      </g>
    </g>
  </g>
</svg>