<?xml version="1.0" encoding="UTF-8"?>
<svg id="_레이어_2" data-name="레이어 2" xmlns="http://www.w3.org/2000/svg" viewBox="0 0 308 100">
  <defs>
    <style>
      .cls-1 {
        fill: none;
      }

      .cls-1, .cls-2 {
        stroke-width: 0px;
      }

      .cls-2 {
        fill: #c49757;
      }
    </style>
  </defs>
  <g id="global">
    <g id="valmont">
      <rect class="cls-1" width="308" height="100"/>
      <g>
        <path class="cls-2" d="m101.82,61.83l-8.7-21.24c-.29-.57-.57-1.14-1-1.57-.43-.43-1.28-1-2.28-1v-.29h9.12v.43c-.86,0-1.43.29-1.85.29-.43.14-.71.57-.71,1.14,0,.43.29,1,.43,1.57l5.7,13.54,5.56-13.26c.14-.57.29-1,.29-1.43,0-1-.43-1.85-2.14-1.85v-.43h7.13v.43c-.71,0-1.57,0-2,.43-.43.29-.86,1.43-1.28,2.42l-8.27,20.96v-.14Z"/>
        <path class="cls-2" d="m114.94,42.87l.71-1.71h.29l7.56,17.39c.29.71.71,1.28.86,1.71.29.43,1.28.57,2,.71v.57h-7.98v-.43h.43c1-.14,1.43-.57,1.43-1.28,0-.29-.14-.71-.29-1.14l-1.57-3.85h-3.56v-1.43h2.85l-2.71-6.84-.14.29v-3.99h.14Zm-6.42,15.11l6.42-15.11v3.85l-2.85,6.7h2.85v1.43h-3.28l-1.71,3.85c0,.14-.29.43-.29,1,0,.43.14,1,.57,1.14.43.14.86.29,1.57.29v.43h-5.85v-.43c.57,0,1-.43,1.43-.71.14-.57.57-1.28,1.14-2.42Z"/>
        <path class="cls-2" d="m126.91,44.58c0-.71,0-1.28-.14-1.71-.14-.43-.43-.71-.71-.86-.29-.14-1-.29-1.71-.29v-.43h7.84v.43c-.86,0-1.28.14-1.71.43-.29.29-.57,1.14-.57,2.14v14.68c0,.43.14.71.43.86.57.29.86.29,1.43.29h3.28c.43,0,1-.14,1.57-.43.57-.29,1-.71,1.43-1.28.43-.57.86-1.28,1.14-2.28h.43l-1.14,5.42h-13.83v-.57c.71,0,1.43-.29,1.71-.57.43-.29.57-.86.57-1.85v-13.97Z"/>
        <path class="cls-2" d="m141.03,56.99v-12.69c0-.57,0-1-.14-1.28-.14-.29-.43-.57-.71-.71-.43-.14-1-.43-1.71-.57v-.43h5.7l6.42,14.54,6.13-14.54h5.56v.57c-.71.14-1.28.14-1.57.29-.29.14-.43.29-.71.71-.14.43-.29,1-.29,1.85v12.97c0,1,0,1.85.14,2.28.14.43.29.71.71.86.29.14.86.29,1.57.29v.43h-7.84v-.43c.71,0,1.28-.29,1.57-.43.29-.14.57-.57.71-1,.14-.43.14-1.28.14-2.14v-12.4l-6.99,16.4h-.43l-6.84-16.4v11.83c0,1.14,0,2.14.14,2.71.14.57.43.86.86,1.14.29.14.86.29,1.57.29v.43h-6.7v-.43c1.28,0,2-.57,2.42-1.28.14-.57.29-1.57.29-2.85Z"/>
        <path class="cls-2" d="m185.08,56.7v-13.26c-.57-.57-1-1.14-1.28-1.28-.43-.29-1.14-.57-2.14-.57v-.43h5.7l11.41,14.68v-10.27c0-1.71-.14-2.99-.71-3.42-.43-.29-1.28-.43-2.14-.43v-.57h7.13v.71c-.71,0-1.43,0-1.71.14-.43.14-.71.43-.86,1-.14.57-.14,1.43-.14,2.42v16.4h-.29l-13.4-16.68v-.14,13.83c0,.57.14,1.14.29,1.43.14.29.57.43,1,.57.29,0,.86,0,1.43.14v.57h-6.84v-.57c.71,0,1,0,1.28-.14.29,0,.57-.29.86-.43.29-.29.29-.86.43-1.43v-2.28Z"/>
        <path class="cls-2" d="m202.19,45.72v-4.7h15.97v4.56h-.29c-.14-1-.43-1.28-.86-2.14-.29-.43-.71-.71-1.14-.86-.43-.14-1.28-.14-2-.14h-2.14v15.68c0,.57,0,1.14.14,1.57.14.43.43.86.86.86.43.14,1,.14,1.57.14v.43h-8.27v-.29c1,0,1.71-.14,2-.43.43-.29.57-1.14.57-2v-15.97h-1.85c-.86,0-1.57,0-2.14.14-.43.14-1.28.29-1.57,1-.29.57-.43.86-.57,2l-.29.14Z"/>
        <path class="cls-2" d="m172.39,60.98c2.14,0,3.85-.86,5.13-2.57,1.28-1.71,2-4.13,2-6.99s-.57-5.28-1.85-6.84c-1.28-1.71-3.14-2.71-5.13-2.71v-1c3.14,0,5.7,1,7.7,2.99,2,2,2.99,4.56,2.99,7.7s-1,5.85-2.99,7.7c-2,2-4.56,2.85-7.7,2.99v-1.28h-.14Zm-7.13-9.55c0,2.99.57,5.28,1.85,6.99,1.28,1.71,2.99,2.57,5.13,2.57h.14v1.14h-.14c-3.14,0-5.7-1-7.7-2.85-2-2-2.99-4.56-2.99-7.84s1-5.7,2.85-7.7c2-2,4.56-2.99,7.7-2.99h.14v1h-.14c-2.14,0-3.85.86-5.13,2.57-1.14,1.85-1.71,4.28-1.71,7.13Z"/>
      </g>
    </g>
  </g>
</svg>