<?xml version="1.0" encoding="UTF-8"?>
<svg id="_레이어_2" data-name="레이어 2" xmlns="http://www.w3.org/2000/svg" viewBox="0 0 308 100">
  <defs>
    <style>
      .cls-1 {
        fill: #1c1c1b;
      }

      .cls-1, .cls-2 {
        stroke-width: 0px;
      }

      .cls-2 {
        fill: none;
      }
    </style>
  </defs>
  <g id="domestic">
    <g id="thefaceshop">
      <g id="_확인필요_augustin" data-name="확인필요_augustin">
        <rect class="cls-2" width="308" height="100"/>
      </g>
      <g>
        <g>
          <g>
            <path class="cls-1" d="m83.59,40.17h-3.98v-2.13h10.27v2.13h-3.98v11.11h-2.31v-11.11Z"/>
            <path class="cls-1" d="m85.94,51.33h-2.4v-11.11h-3.98v-2.22h10.35v2.22h-3.98v11.11Zm-2.31-.08h2.23v-11.11h3.98v-2.05h-10.18v2.05h3.98v11.11Z"/>
          </g>
          <g>
            <path class="cls-1" d="m92.37,38.04h2.31v5.28h6.07v-5.28h2.31v13.25h-2.31v-5.84h-6.07v5.84h-2.31v-13.25Z"/>
            <path class="cls-1" d="m103.11,51.33h-2.4v-5.84h-5.98v5.84h-2.4v-13.33h2.4v5.28h5.98v-5.28h2.4v13.33Zm-2.31-.08h2.23v-13.16h-2.23v5.28h-6.15v-5.28h-2.23v13.16h2.23v-5.84h6.15v5.84Z"/>
          </g>
          <g>
            <path class="cls-1" d="m106.51,38.04h8.6v2.13h-6.29v3.26h5.96v2.13h-5.96v3.59h6.62v2.13h-8.93v-13.25Z"/>
            <path class="cls-1" d="m115.48,51.33h-9.01v-13.33h8.68v2.22h-6.29v3.17h5.96v2.22h-5.96v3.51h6.62v2.22Zm-8.93-.08h8.85v-2.05h-6.62v-3.68h5.96v-2.05h-5.96v-3.34h6.29v-2.05h-8.51v13.16Z"/>
          </g>
          <g>
            <path class="cls-1" d="m122.41,38.04h8.38v2.13h-6.07v3.48h5.72v2.13h-5.72v5.5h-2.31v-13.25Z"/>
            <path class="cls-1" d="m124.76,51.33h-2.4v-13.33h8.46v2.22h-6.07v3.4h5.72v2.22h-5.72v5.5Zm-2.31-.08h2.23v-5.5h5.72v-2.05h-5.72v-3.57h6.07v-2.05h-8.3v13.16Z"/>
          </g>
          <g>
            <path class="cls-1" d="m138.14,38.04h2l5.59,13.25h-2.64l-1.21-3.03h-5.63l-1.17,3.03h-2.58l5.65-13.25Zm2.93,8.2l-2-5.39-2.03,5.39h4.03Z"/>
            <path class="cls-1" d="m145.79,51.33h-2.73v-.03s-1.21-3-1.21-3h-5.57l-1.17,3.03h-2.68l.02-.06,5.66-13.27h2.05v.03s5.63,13.31,5.63,13.31Zm-2.68-.08h2.55l-5.56-13.16h-1.94l-5.61,13.16h2.49l1.17-3.03h5.69v.03s1.21,3,1.21,3Zm-1.98-4.97h-4.16l2.1-5.55.04.11,2.02,5.45Zm-4.03-.08h3.91l-1.94-5.22-1.97,5.22Z"/>
          </g>
          <g>
            <path class="cls-1" d="m156.27,41.14c-.48-.52-.94-.87-1.39-1.05-.45-.17-.9-.26-1.35-.26-.67,0-1.28.12-1.82.36-.54.24-1.01.58-1.4,1.01-.39.43-.69.93-.91,1.51-.21.57-.32,1.19-.32,1.85,0,.71.11,1.37.32,1.97.21.6.52,1.12.91,1.55.39.44.86.78,1.4,1.03.54.25,1.15.37,1.82.37.52,0,1.04-.13,1.53-.38.49-.25.96-.66,1.38-1.23l1.91,1.38c-.59.82-1.3,1.42-2.14,1.8-.84.37-1.74.56-2.7.56-1,0-1.92-.17-2.76-.5-.84-.33-1.56-.8-2.16-1.4-.6-.6-1.08-1.33-1.42-2.18-.34-.85-.51-1.79-.51-2.82s.17-2.02.51-2.89c.34-.87.82-1.61,1.42-2.22.6-.61,1.33-1.08,2.16-1.41.84-.33,1.76-.5,2.76-.5.88,0,1.7.16,2.45.48.75.32,1.45.86,2.1,1.62l-1.8,1.35Z"/>
            <path class="cls-1" d="m153.52,51.66c-1,0-1.93-.17-2.77-.5-.84-.33-1.57-.81-2.18-1.41-.61-.61-1.09-1.34-1.43-2.19-.34-.85-.52-1.8-.52-2.84s.17-2.04.52-2.91c.34-.87.82-1.62,1.43-2.23.6-.61,1.34-1.09,2.18-1.42.84-.33,1.77-.5,2.77-.5.88,0,1.71.16,2.47.48.76.32,1.47.87,2.12,1.63l.03.03-.04.03-1.83,1.37-.03-.03c-.47-.52-.93-.86-1.37-1.04-.44-.17-.89-.26-1.33-.26-.66,0-1.27.12-1.81.36-.53.24-1,.58-1.39,1-.38.42-.69.93-.9,1.49-.21.56-.32,1.18-.32,1.84,0,.7.11,1.36.32,1.95.21.59.51,1.11.9,1.54.39.43.85.77,1.39,1.02.54.25,1.14.37,1.81.37.52,0,1.03-.13,1.51-.38.49-.25.95-.66,1.37-1.21l.03-.03.03.02,1.94,1.41-.02.03c-.59.83-1.32,1.44-2.16,1.81-.85.37-1.76.56-2.71.56Zm0-13.92c-.99,0-1.92.17-2.74.49-.83.33-1.55.8-2.15,1.4-.6.6-1.07,1.35-1.41,2.2-.34.86-.51,1.83-.51,2.88s.17,1.97.51,2.81c.34.84.81,1.57,1.41,2.17.6.6,1.32,1.07,2.15,1.39.83.33,1.75.49,2.74.49s1.84-.19,2.68-.56c.82-.36,1.53-.95,2.1-1.75l-1.84-1.34c-.42.55-.88.95-1.37,1.2-.5.26-1.02.39-1.55.39-.68,0-1.3-.13-1.84-.38-.55-.25-1.02-.6-1.42-1.04-.39-.44-.7-.97-.92-1.57-.21-.6-.32-1.26-.32-1.98,0-.66.11-1.29.32-1.87.22-.58.52-1.09.92-1.52.4-.43.87-.78,1.42-1.02.55-.24,1.17-.37,1.84-.37.46,0,.91.09,1.36.26.44.17.91.52,1.37,1.03l1.73-1.3c-.63-.73-1.32-1.26-2.05-1.57-.74-.31-1.56-.47-2.43-.47Z"/>
          </g>
          <g>
            <path class="cls-1" d="m161.57,38.04h8.6v2.13h-6.29v3.26h5.96v2.13h-5.96v3.59h6.62v2.13h-8.93v-13.25Z"/>
            <path class="cls-1" d="m170.55,51.33h-9.01v-13.33h8.68v2.22h-6.29v3.17h5.96v2.22h-5.96v3.51h6.62v2.22Zm-8.93-.08h8.85v-2.05h-6.62v-3.68h5.96v-2.05h-5.96v-3.34h6.29v-2.05h-8.51v13.16Z"/>
          </g>
          <g>
            <path class="cls-1" d="m183.47,40.88c-.24-.36-.57-.63-.98-.79-.41-.17-.84-.25-1.29-.25-.27,0-.53.03-.78.09-.25.06-.48.16-.68.3-.2.14-.36.31-.48.53-.12.22-.18.48-.18.78,0,.45.15.79.46,1.03.31.24.68.44,1.14.62.45.18.95.34,1.48.51.54.16,1.03.39,1.49.67.45.29.83.67,1.14,1.14.31.47.46,1.1.46,1.89,0,.71-.13,1.33-.39,1.86-.26.53-.6.97-1.03,1.32-.44.35-.94.61-1.51.79-.57.17-1.18.26-1.82.26-.81,0-1.58-.14-2.33-.41-.75-.27-1.39-.74-1.93-1.38l1.74-1.72c.28.44.65.78,1.11,1.02.46.24.94.36,1.46.36.27,0,.54-.04.81-.11.27-.07.51-.19.73-.34.22-.15.4-.34.53-.57.13-.23.2-.5.2-.8,0-.49-.15-.86-.46-1.12-.31-.26-.68-.48-1.14-.66-.45-.18-.95-.35-1.49-.51-.54-.16-1.03-.38-1.49-.66-.45-.28-.83-.65-1.14-1.12-.31-.47-.46-1.09-.46-1.88,0-.69.14-1.28.41-1.78.28-.5.64-.91,1.08-1.24.45-.33.96-.58,1.53-.74.57-.16,1.16-.24,1.76-.24.68,0,1.35.11,1.99.32.64.21,1.22.56,1.73,1.05l-1.69,1.81Z"/>
            <path class="cls-1" d="m180.48,51.66c-.81,0-1.59-.14-2.34-.41-.75-.27-1.4-.74-1.94-1.4l-.02-.03.03-.03,1.78-1.76.03.04c.27.43.64.77,1.09,1.01.45.24.93.36,1.44.36.26,0,.53-.04.8-.11.26-.07.51-.18.72-.33.22-.15.39-.33.52-.56.13-.22.2-.48.2-.77,0-.47-.15-.84-.44-1.09-.3-.26-.68-.48-1.12-.66-.44-.18-.94-.35-1.48-.51-.54-.16-1.04-.39-1.5-.67-.46-.28-.84-.67-1.15-1.14-.31-.47-.47-1.11-.47-1.9,0-.69.14-1.29.42-1.8.28-.5.65-.93,1.1-1.26.45-.33.97-.58,1.54-.74.58-.16,1.17-.25,1.77-.25.69,0,1.36.11,2,.32.65.21,1.23.57,1.75,1.06l.03.03-.03.03-1.72,1.85-.03-.04c-.24-.35-.56-.61-.96-.78-.4-.17-.83-.25-1.28-.25-.26,0-.52.03-.77.09-.24.06-.47.16-.67.29-.2.13-.36.31-.47.52-.12.21-.18.47-.18.76,0,.43.15.77.44,1,.3.23.68.44,1.13.61.45.17.95.34,1.48.5.54.16,1.04.39,1.49.68.46.29.84.68,1.15,1.15.31.48.47,1.12.47,1.91,0,.72-.13,1.35-.39,1.88-.26.53-.61.98-1.05,1.33-.44.35-.95.62-1.53.79-.58.18-1.19.26-1.83.26Zm-4.2-1.84c.53.63,1.16,1.08,1.88,1.34.74.27,1.52.41,2.31.41.63,0,1.23-.09,1.8-.26.57-.17,1.07-.43,1.5-.78.43-.34.77-.78,1.02-1.3.25-.52.38-1.14.38-1.84,0-.77-.15-1.4-.45-1.87-.3-.47-.68-.85-1.12-1.13-.45-.28-.94-.51-1.48-.67-.54-.16-1.04-.33-1.49-.51-.45-.17-.84-.38-1.15-.62-.32-.24-.48-.6-.48-1.06,0-.31.06-.57.19-.8.12-.22.29-.41.5-.55.21-.14.44-.24.69-.31.25-.06.52-.09.79-.09.46,0,.9.09,1.31.26.4.16.72.42.97.77l1.62-1.75c-.5-.46-1.07-.8-1.69-1.01-.63-.21-1.3-.32-1.98-.32-.59,0-1.18.08-1.75.24-.57.16-1.08.41-1.52.73-.44.33-.8.74-1.07,1.23-.27.49-.41,1.08-.41,1.76,0,.77.15,1.4.45,1.86.3.46.68.83,1.12,1.11.45.28.95.5,1.48.66.54.16,1.04.34,1.49.52.45.18.84.41,1.15.67.31.27.47.66.47,1.16,0,.31-.07.58-.21.82-.14.23-.32.43-.54.58-.22.15-.48.27-.75.34-.27.08-.55.11-.82.11-.52,0-1.01-.12-1.48-.37-.45-.24-.82-.57-1.1-.99l-1.68,1.66Z"/>
          </g>
          <g>
            <path class="cls-1" d="m188.55,38.04h2.31v5.28h6.07v-5.28h2.31v13.25h-2.31v-5.84h-6.07v5.84h-2.31v-13.25Z"/>
            <path class="cls-1" d="m199.28,51.33h-2.4v-5.84h-5.98v5.84h-2.4v-13.33h2.4v5.28h5.98v-5.28h2.4v13.33Zm-2.31-.08h2.23v-13.16h-2.23v5.28h-6.15v-5.28h-2.23v13.16h2.23v-5.84h6.15v5.84Z"/>
          </g>
          <g>
            <path class="cls-1" d="m202.35,44.72c0-1.06.17-2.02.51-2.89.34-.87.82-1.61,1.42-2.22.6-.61,1.33-1.08,2.16-1.41.84-.33,1.76-.5,2.76-.5,1.01-.01,1.94.14,2.79.46.84.32,1.57.78,2.18,1.39.61.61,1.09,1.35,1.43,2.21.34.86.51,1.82.51,2.88s-.17,1.98-.51,2.82c-.34.85-.82,1.58-1.43,2.19-.61.61-1.34,1.09-2.18,1.43-.84.34-1.77.52-2.79.53-1,0-1.92-.17-2.76-.5-.84-.33-1.56-.8-2.16-1.4-.6-.6-1.08-1.33-1.42-2.18-.34-.85-.51-1.79-.51-2.82Zm2.42-.15c0,.71.11,1.37.32,1.97.21.6.52,1.12.91,1.55.39.44.86.78,1.4,1.03.54.25,1.15.37,1.82.37s1.28-.12,1.83-.37c.55-.25,1.02-.59,1.41-1.03.39-.44.69-.95.91-1.55.21-.6.32-1.25.32-1.97,0-.66-.11-1.28-.32-1.85-.21-.57-.52-1.08-.91-1.51-.39-.43-.86-.77-1.41-1.01-.55-.24-1.16-.36-1.83-.36s-1.28.12-1.82.36c-.54.24-1.01.58-1.4,1.01-.39.43-.69.93-.91,1.51-.21.57-.32,1.19-.32,1.85Z"/>
            <path class="cls-1" d="m209.21,51.66c-1,0-1.94-.17-2.78-.5-.84-.33-1.57-.81-2.18-1.41-.61-.61-1.09-1.34-1.43-2.19-.34-.85-.52-1.8-.52-2.84s.17-2.04.52-2.91c.34-.87.82-1.62,1.43-2.23.6-.61,1.34-1.09,2.18-1.42.84-.33,1.77-.5,2.78-.5.04,0,.08,0,.11,0,.97,0,1.88.16,2.69.46.84.32,1.58.79,2.2,1.4.61.61,1.1,1.36,1.44,2.22.34.86.52,1.84.52,2.9s-.17,1.99-.52,2.84c-.34.85-.83,1.59-1.44,2.2-.62.61-1.36,1.1-2.2,1.44-.84.34-1.79.52-2.8.54Zm.11-13.92s-.07,0-.11,0c-.99,0-1.92.17-2.74.49-.83.33-1.55.8-2.15,1.4-.6.6-1.07,1.35-1.41,2.2-.34.86-.51,1.83-.51,2.88s.17,1.97.51,2.81c.34.84.81,1.57,1.41,2.17.6.6,1.32,1.07,2.15,1.39.83.33,1.75.49,2.74.49,1-.01,1.94-.19,2.77-.53.83-.34,1.56-.82,2.17-1.42.6-.6,1.08-1.34,1.42-2.18.34-.84.51-1.78.51-2.81s-.17-2.01-.51-2.87c-.34-.85-.82-1.59-1.42-2.19-.61-.6-1.34-1.07-2.17-1.38-.8-.3-1.7-.46-2.66-.46Zm-.09,11.79c-.68,0-1.3-.13-1.84-.38-.55-.25-1.02-.6-1.42-1.04-.39-.44-.7-.97-.92-1.57-.21-.6-.32-1.26-.32-1.98,0-.66.11-1.29.32-1.87.22-.58.52-1.09.92-1.52.4-.43.87-.78,1.42-1.02.55-.24,1.17-.37,1.84-.37s1.3.12,1.85.37c.55.24,1.03.59,1.43,1.02.39.43.7.95.92,1.52.22.58.32,1.21.32,1.87,0,.71-.11,1.38-.32,1.98-.21.6-.52,1.13-.92,1.57-.39.44-.87.79-1.43,1.04-.55.25-1.18.38-1.85.38Zm0-9.65c-.66,0-1.27.12-1.81.36-.53.24-1,.58-1.39,1-.38.42-.69.93-.9,1.49-.21.56-.32,1.18-.32,1.84,0,.7.11,1.36.32,1.95.21.59.51,1.11.9,1.54.39.43.85.77,1.39,1.02.54.25,1.14.37,1.81.37s1.27-.12,1.82-.37c.54-.25,1.01-.59,1.4-1.02.39-.43.69-.95.9-1.54.21-.59.32-1.25.32-1.95,0-.65-.11-1.27-.32-1.84-.21-.56-.51-1.07-.9-1.49-.39-.42-.86-.76-1.4-1-.54-.24-1.15-.36-1.82-.36Z"/>
          </g>
          <g>
            <path class="cls-1" d="m219.24,38.04h4.36c.62,0,1.23.06,1.81.19.58.13,1.09.33,1.53.63.44.29.79.69,1.05,1.18.26.49.39,1.11.39,1.84,0,.84-.14,1.51-.42,2.02-.28.51-.66.91-1.14,1.19-.48.28-1.03.47-1.66.57-.63.1-1.29.15-1.97.15h-1.65v5.48h-2.31v-13.25Zm3.7,5.74c.33,0,.67-.01,1.03-.04.35-.02.68-.1.98-.22.3-.12.54-.31.73-.56.19-.25.28-.6.28-1.05,0-.41-.08-.74-.26-.98-.17-.24-.39-.43-.66-.56-.27-.13-.57-.22-.9-.25-.33-.04-.65-.06-.95-.06h-1.65v3.72h1.39Z"/>
            <path class="cls-1" d="m221.59,51.33h-2.4v-13.33h4.41c.62,0,1.23.06,1.82.19.58.13,1.1.34,1.54.63.45.3.8.7,1.07,1.19.26.5.4,1.12.4,1.86,0,.84-.14,1.53-.43,2.04-.28.52-.67.92-1.15,1.2-.48.28-1.04.48-1.67.58-.63.1-1.29.15-1.98.15h-1.61v5.48Zm-2.31-.08h2.23v-5.48h1.69c.68,0,1.34-.05,1.97-.15.62-.1,1.17-.29,1.64-.56.47-.28.84-.67,1.12-1.17.28-.5.42-1.17.42-2,0-.73-.13-1.34-.39-1.82-.26-.48-.61-.87-1.04-1.16-.43-.29-.94-.5-1.52-.62-.58-.12-1.18-.19-1.8-.19h-4.32v13.16Zm3.66-7.42h-1.44v-3.81h1.69c.3,0,.63.02.96.06.33.04.64.12.91.26.28.13.5.33.68.58.17.25.26.59.26,1.01,0,.46-.1.82-.29,1.07-.19.25-.45.45-.75.57-.3.13-.64.2-.99.23-.35.02-.7.04-1.03.04Zm-1.35-.08h1.35c.33,0,.67-.01,1.02-.04.35-.03.67-.1.97-.22.29-.12.53-.31.72-.55.18-.24.28-.58.28-1.02,0-.4-.08-.72-.25-.96-.17-.24-.38-.42-.64-.55-.26-.13-.56-.21-.89-.25-.33-.04-.65-.06-.95-.06h-1.61v3.64Z"/>
          </g>
        </g>
        <g>
          <path class="cls-1" d="m121.59,64.43c-.1.62-.36,1.1-.77,1.43-.39.32-.88.49-1.46.49-.65,0-1.19-.22-1.64-.67-.27-.27-.45-.62-.53-1.05-.04-.25-.07-.71-.07-1.37s.02-1.12.07-1.37c.08-.43.26-.78.53-1.05.44-.44.99-.66,1.64-.66.58,0,1.08.16,1.48.49.4.33.65.8.75,1.42h-1.2c-.14-.57-.48-.86-1.02-.86-.36,0-.63.13-.83.4-.15.22-.23.76-.23,1.63,0,.47,0,.77.02.89.04.38.13.66.28.83.19.21.44.32.76.32.54,0,.88-.29,1.02-.86h1.2Z"/>
          <path class="cls-1" d="m128.25,66.29h-3.94v-6.07h1.18v5.01h2.75v1.06Z"/>
          <path class="cls-1" d="m134.74,66.29h-4v-6.07h4v1.06h-2.81v1.42h2.39v1.06h-2.39v1.48h2.81v1.06Z"/>
          <path class="cls-1" d="m142.12,66.29h-1.24l-.36-1.07h-2.16l-.37,1.07h-1.24l2.21-6.07h.93l2.22,6.07Zm-1.91-2.07l-.74-2.21-.77,2.21h1.51Z"/>
          <path class="cls-1" d="m148.88,66.29h-1.06l-2.4-3.72v3.72h-1.18v-6.07h1.06l2.4,3.72v-3.72h1.18v6.07Z"/>
          <path class="cls-1" d="m159.73,64.54c0,.55-.17.98-.51,1.29-.34.31-.79.46-1.35.46h-2.54v-6.07h2.44c.59,0,1.04.15,1.38.46.33.31.5.72.5,1.24,0,.31-.09.58-.26.83-.14.19-.31.34-.49.43.56.26.84.72.84,1.36Zm-1.27-2.56c0-.21-.07-.38-.2-.51-.14-.13-.33-.19-.58-.19h-1.16v1.4h1.16c.25,0,.44-.06.58-.19.14-.13.2-.3.2-.51Zm.08,2.5c0-.21-.07-.39-.2-.53-.14-.14-.33-.21-.59-.21h-1.24v1.49h1.24c.26,0,.45-.07.59-.21.14-.14.2-.32.2-.54Z"/>
          <path class="cls-1" d="m166.47,66.29h-4v-6.07h4v1.06h-2.81v1.42h2.39v1.06h-2.39v1.48h2.81v1.06Z"/>
          <path class="cls-1" d="m173.68,66.29h-1.24l-.36-1.07h-2.16l-.37,1.07h-1.24l2.21-6.07h.93l2.22,6.07Zm-1.91-2.07l-.74-2.21-.77,2.21h1.51Z"/>
          <path class="cls-1" d="m180.16,64.21c0,.63-.21,1.14-.64,1.54-.43.4-.96.59-1.59.59s-1.17-.2-1.59-.59c-.43-.39-.64-.91-.64-1.54v-3.99h1.18v3.95c0,.35.09.62.28.82.19.2.44.3.77.3s.58-.1.77-.3c.19-.2.29-.47.29-.82v-3.95h1.18v3.99Z"/>
          <path class="cls-1" d="m186.75,61.28h-1.58v5.01h-1.18v-5.01h-1.58v-1.06h4.35v1.06Z"/>
          <path class="cls-1" d="m193.22,60.22l-1.82,3.58v2.49h-1.18v-2.49l-1.82-3.58h1.29l1.13,2.45,1.12-2.45h1.29Z"/>
        </g>
      </g>
    </g>
  </g>
</svg>