<?xml version="1.0" encoding="UTF-8"?>
<svg id="_레이어_2" data-name="레이어 2" xmlns="http://www.w3.org/2000/svg" xmlns:xlink="http://www.w3.org/1999/xlink" viewBox="0 0 308 100">
  <defs>
    <style>
      .cls-1 {
        fill: none;
      }

      .cls-1, .cls-2 {
        stroke-width: 0px;
      }

      .cls-2 {
        fill: #1a1311;
        fill-rule: evenodd;
      }

      .cls-3 {
        clip-path: url(#clippath);
      }
    </style>
    <clipPath id="clippath">
      <rect class="cls-1" x="117.73" y="35.68" width="72.54" height="28.64"/>
    </clipPath>
  </defs>
  <g id="global">
    <g id="dior">
      <rect class="cls-1" width="308" height="100"/>
      <g class="cls-3">
        <g id="_그룹_285" data-name="그룹 285">
          <path id="_패스_2941" data-name="패스 2941" class="cls-2" d="m120.68,36.36l-1.37-.07-.57-.11-.11-.21c0-.2.14-.28.43-.28h14.2c6.65,0,11.34,2.03,14.05,6.09,1.6,2.49,2.41,5.41,2.33,8.37,0,1.66-.26,3.31-.78,4.88-.57,1.6-1.4,3.1-2.48,4.42-1.16,1.36-2.59,2.46-4.2,3.21-1.85.82-3.86,1.23-5.89,1.2h-18.11c-.3,0-.44-.1-.44-.27,0-.18.21-.28.61-.28l3.47-.21c.41-.02.8-.17,1.1-.44l.35-.5c.15-.5.22-1.02.21-1.54v-22.45c.02-.84-.62-1.56-1.46-1.63l-1.35-.17Zm7.65.38l-.1.57v24.93c0,.28.06.48.17.55l.57.08h1.87l4.33-.16c.99-.09,1.98-.28,2.93-.57.78-.28,1.5-.68,2.15-1.19.67-.59,1.27-1.25,1.78-1.98,1.15-1.58,1.93-3.4,2.29-5.32.28-1.35.42-2.73.43-4.11-.01-1.27-.19-2.53-.52-3.75-.43-1.83-1.22-3.55-2.31-5.08-2.05-2.8-5.42-4.19-10.08-4.19h-2.88c-.33-.03-.54.04-.64.21m24.1,26.9c-.03-.17.11-.24.43-.24l.99-.03c.54-.07.86-.26.99-.54l.18-1.02v-8.22c.02-.27-.1-.53-.33-.69l-.74-.07-.99.27-.54-.03c-.07-.17.14-.33.64-.47,1.08-.27,2.11-.67,3.09-1.2.35-.21.72-.39,1.09-.55l.43-.04c.14.03.21.31.21.82v10.36c-.04.38.08.76.33,1.06.25.26.85.38,1.77.38.33,0,.5.07.52.23,0,.13-.1.17-.27.17h-7.55c-.17,0-.26-.07-.26-.18m33.42-10.19c-.69.72-1.18,1.62-1.42,2.59v6.02c-.04.46.18.91.57,1.16l.86.16.91.1c.21.03.3.07.3.18l-.04.1-.24.07h-7.58c-.23,0-.35-.07-.35-.18l.21-.17,1.27-.1c.38-.03.74-.21.98-.51l.21-.64v-8.49l-.14-.62-.24-.14c-.1-.08-.22-.13-.35-.14-.25,0-.5.04-.74.14l-.72.2-.41-.1c-.07-.1-.04-.17.06-.21l.61-.26c1.14-.31,2.24-.73,3.28-1.27l.96-.52.43.03.17.35v3.11c1.06-1.73,1.91-2.79,2.49-3.14.3-.19.61-.34.95-.45l.5-.04c.38-.01.75.1,1.06.33.51.27.83.8.85,1.37.05.44-.11.87-.43,1.17-.21.22-.52.31-.82.24-.21-.03-.41-.13-.55-.28l-.4-.5c-.31-.45-.61-.59-.96-.47-.5.18-.95.5-1.27.92m-29.59-11.64c-.49,0-.96.19-1.3.54-.38.34-.58.83-.54,1.33-.03.49.17.96.54,1.27.73.72,1.9.71,2.61-.02.33-.33.52-.78.53-1.25,0-.5-.19-.98-.55-1.33-.34-.35-.8-.54-1.29-.54m7.5,11.3c.52-.69,1.17-1.27,1.91-1.7.64-.38,1.34-.64,2.07-.78l2.62-.16c.9.03,1.79.23,2.62.58,1.91.84,3.26,2.61,3.57,4.67.47,2.29.07,4.23-1.17,5.8-1.06,1.33-2.56,2.24-4.23,2.55-1.71.42-3.5.29-5.14-.35-2.02-.82-3.26-2.45-3.65-4.83-.41-2.04.11-4.16,1.42-5.79m8.3-.64c-.81-.94-2.04-1.42-3.27-1.27-1.3.13-2.41.97-2.89,2.18-.62,1.4-.82,2.95-.58,4.46.08,1.53.64,2.99,1.6,4.19.95,1.12,2.02,1.59,3.23,1.37,1.2-.2,2.24-.96,2.79-2.05.64-1.43.87-3.02.67-4.57-.17-1.91-.67-3.33-1.54-4.3"/>
          <path id="_패스_2942" data-name="패스 2942" class="cls-2" d="m152.32,53.1v.14l-.31-.2v.07l.03.13h-.04v-.27h.01l.28.21v-.21h.06l-.03.13Z"/>
          <path id="_패스_2943" data-name="패스 2943" class="cls-2" d="m152.84,53h-.17v.1h.14s-.14.01-.14.01v.1h.17v.03h-.21v-.27h.21v.03Z"/>
          <path id="_패스_2944" data-name="패스 2944" class="cls-2" d="m153.62,52.97h.01l-.14.27h-.04l-.11-.21-.13.21h-.01c-.06-.09-.1-.18-.14-.27h.07l.09.21.13-.21h.04l.1.21.11-.21h.03Z"/>
          <path id="_패스_2945" data-name="패스 2945" class="cls-2" d="m154.02,53.11l.03.13h-.07v-.1l-.14-.17h.07l.11.14.11-.14h.06l-.17.14Z"/>
          <path id="_패스_2946" data-name="패스 2946" class="cls-2" d="m154.42,53.02s.11-.06.17-.06c.06,0,.12.02.17.06.03.02.04.05.04.09l-.04.1c-.05.02-.11.03-.17.03-.07,0-.14,0-.17-.03l-.07-.1s.03-.08.07-.09m.28,0l-.11-.03-.11.03s-.06.05-.06.09c0,.03.03.06.06.07l.11.06s.09-.02.11-.06c.03-.01.05-.04.06-.07,0-.04-.02-.07-.06-.09"/>
          <path id="_패스_2947" data-name="패스 2947" class="cls-2" d="m155.12,53v.1s.03,0,.03,0c.07,0,.11-.03.11-.06,0-.01-.01-.04-.09-.04h-.06Zm.07-.03c.07,0,.13.03.13.07l-.06.06h-.07s.17.14.17.14h-.07l-.17-.13h-.01v.13s-.06,0-.06,0v-.27h.14Z"/>
          <path id="_패스_2948" data-name="패스 2948" class="cls-2" d="m155.9,52.97l-.18.13.18.14h-.07l-.16-.13h0s-.03,0-.03,0l.03.13h-.07v-.27h.07l-.03.13h.03l.18-.13h.04Z"/>
        </g>
      </g>
    </g>
  </g>
</svg>