<?xml version="1.0" encoding="UTF-8"?>
<svg id="_레이어_2" data-name="레이어 2" xmlns="http://www.w3.org/2000/svg" viewBox="0 0 308 100">
  <defs>
    <style>
      .cls-1, .cls-2 {
        stroke-width: 0px;
      }

      .cls-2 {
        fill: none;
      }
    </style>
  </defs>
  <g id="global">
    <g id="sephora">
      <rect class="cls-2" width="308" height="100"/>
      <g>
        <path class="cls-2" d="m119.1,41.77h-1.92v7.96h2.26c2.06,0,6.17-.2,6.04-4.25-.2-4.11-5.44-3.72-6.37-3.72Z"/>
        <path class="cls-2" d="m210,45.02c-.4-3.58-4.91-3.32-5.77-3.32h-1.79v7.43h2.12c.93,0,5.91.13,5.44-4.11Z"/>
        <polygon class="cls-2" points="233.62 42.5 230.17 53.38 230.17 53.38 237.33 53.32 233.68 42.5 233.62 42.5"/>
        <path class="cls-1" d="m119.63,38.99h0c-1.19,0-3.78-.07-5.97-.07v22.03h3.45v-8.36c.86,0,2.65-.07,4.11-.13,1.99-.07,7.23-1.06,7.23-7.03-.07-6.77-7.63-6.37-8.82-6.44Zm-.2,10.75h0s-2.26,0-2.26,0v-7.96h1.92c.93,0,6.17-.4,6.37,3.72.13,4.05-3.98,4.25-6.04,4.25Z"/>
        <path class="cls-1" d="m87.85,38.99v21.96h13.87v-2.85h-10.35v-7.5h7.36v-2.72h-7.36v-5.97h10.35c-.07-1.73,0-2.92,0-2.92h-13.87Z"/>
        <polygon class="cls-1" points="152.81 47.74 141.53 47.74 141.53 39.12 138.14 39.12 138.14 61.01 141.53 61.01 141.53 50.6 152.81 50.6 152.81 61.01 156.19 61.01 156.19 39.12 152.81 39.12 152.81 47.74"/>
        <path class="cls-1" d="m67.75,44.36c0-3.58,4.78-3.78,7.56-1.46.99-2.79,1.06-2.99,1.06-2.99h0c-8.16-3.91-11.94,1.26-11.94,4.64,0,7.96,11.28,6.24,9.62,11.88-.53,2.06-4.18,3.25-8.36.66-.33.86-.86,1.86-1.33,2.92,5.57,2.92,12.74,1.53,13-4.45.33-7.56-9.62-7.03-9.62-11.21Z"/>
        <path class="cls-1" d="m235.74,39.05h-3.98l-7.1,22.03h3.38c1.06-3.98,1.39-5.11,1.39-5.11l8.89-.07c1,2.92,1.79,5.18,1.79,5.18h3.52l-7.89-22.03Zm-5.57,14.33h0l3.45-10.88h.07l3.65,10.81-7.17.07Z"/>
        <path class="cls-1" d="m212.98,45.16c-.46-6.5-6.83-6.04-8.23-6.1-1.13-.07-3.65-.07-5.77-.07v21.96h3.45v-9.29c1.13,0,1.53,0,3.32-.07l6.24,9.35h0s4.18,0,4.18,0l-6.97-9.89c1.86-.66,4.05-2.26,3.78-5.91Zm-8.43,3.98h-2.12v-7.43h1.79c.86,0,5.37-.27,5.77,3.32.46,4.25-4.51,4.11-5.44,4.11Z"/>
        <polygon class="cls-1" points="231.76 39.05 231.76 39.05 231.76 39.05 231.76 39.05"/>
        <path class="cls-1" d="m177.55,38.39h0c-7.03,0-11.61,5.18-11.61,11.61s4.58,11.61,11.54,11.61,11.54-5.18,11.54-11.61c.07-6.44-4.51-11.61-11.48-11.61Zm0,20.04c-5.11,0-8.03-3.78-8.03-8.42s2.92-8.43,8.03-8.43,8.03,3.78,8.03,8.43-2.85,8.42-8.03,8.42Z"/>
      </g>
    </g>
  </g>
</svg>