<?xml version="1.0" encoding="UTF-8"?>
<svg id="_레이어_2" data-name="레이어 2" xmlns="http://www.w3.org/2000/svg" viewBox="0 0 308 100">
  <defs>
    <style>
      .cls-1 {
        fill: none;
      }

      .cls-1, .cls-2, .cls-3 {
        stroke-width: 0px;
      }

      .cls-2 {
        fill: #231f20;
      }

      .cls-3 {
        fill: #ea1d22;
      }
    </style>
  </defs>
  <g id="domestic">
    <g id="cosmax">
      <g id="thefaceshop">
        <g id="_확인필요_augustin" data-name="확인필요_augustin">
          <rect class="cls-1" width="308" height="100"/>
        </g>
      </g>
      <g>
        <g>
          <path class="cls-3" d="m228.47,39.38c.55-3.14,3.3-5.5,6.52-5.5,3.69,0,6.68,2.99,6.68,6.68,0,1.1-.31,2.2-.86,3.22.39.31.86.79,1.18,1.26.86-1.26,1.26-2.75,1.26-4.4,0-4.32-3.3-7.78-7.47-8.25h0v-1.34h0c-.08-.16-.16-.24-.39-.24h-1.26c-.24.08-.39.24-.47.31h0v.08s0,.08.08.08h0c.16.08.31.16.31.31h0c.08.08.08.16.08.24h0v.08h0v.39h0c-4.17.39-7.47,3.93-7.47,8.25,0,.47.08.86.16,1.34.39-1.02.94-1.81,1.65-2.52"/>
          <path class="cls-3" d="m235,53.77c2.28,0,4.4-.94,5.89-2.52.08-.31.08-.55.08-.86,0-.55-.08-1.1-.24-1.65-1.18,1.96-3.3,3.3-5.74,3.3-3.69,0-6.68-2.99-6.68-6.68s2.99-6.68,6.68-6.68c2.44,0,4.56,1.34,5.74,3.3.16-.55.24-1.02.24-1.65,0-.31,0-.55-.08-.86-1.34-1.34-3.07-2.2-5.11-2.44h0v-1.02c-.08-.16-.24-.24-.31-.24h-1.26c-.24.08-.39.24-.47.31h0v.08s0,.08.08.08h0c.16.08.31.16.31.31h0c.08.08.08.16.08.24h0v.08h0v.39h0c-4.17.39-7.47,3.93-7.47,8.25-.08,4.56,3.69,8.25,8.25,8.25"/>
          <path class="cls-3" d="m242.38,45.51c.31.39.55.86.79,1.34.08-.39.16-.86.16-1.34s-.08-.86-.16-1.34c-.24.39-.47.86-.79,1.34"/>
          <path class="cls-3" d="m235,48.74c1.89,0,3.62-.63,5.03-1.65-.31-.47-.71-.86-1.1-1.26-1.1.79-2.44,1.26-3.93,1.26-2.44,0-4.56-1.34-5.74-3.3-.16.55-.24,1.02-.24,1.65,0,.31,0,.55.08.86,1.41,1.57,3.54,2.44,5.89,2.44"/>
          <path class="cls-3" d="m235.78,42.21h0v-1.18h0c-.08-.16-.24-.24-.31-.24h-1.26c-.24.08-.39.24-.47.31h0v.08s0,.08.08.08h0c.16.08.31.16.31.31h0c.08.08.08.16.08.24h0v.08h0v.39c-1.49.16-2.91.79-4.09,1.57.31.47.71.86,1.1,1.26,1.1-.79,2.44-1.26,3.93-1.26,3.69,0,6.68,2.99,6.68,6.68s-2.99,6.68-6.68,6.68c-3.3,0-5.97-2.36-6.52-5.5-.71-.71-1.26-1.57-1.65-2.52-.08.39-.16.86-.16,1.34,0,4.56,3.69,8.25,8.25,8.25s8.25-3.69,8.25-8.25c-.08-4.4-3.3-7.94-7.55-8.33"/>
        </g>
        <path class="cls-2" d="m81.81,55.73s0-.08,0,0h-.16c-.55.94-1.34,1.81-2.2,2.36-1.18.86-2.59,1.34-4.09,1.34-4.01,0-7.23-3.3-7.23-7.23s3.3-7.23,7.23-7.23c1.02,0,2.12.24,2.99.63,1.02.47,1.89,1.1,2.59,1.96l.08.08c.08.08.24.16.39.16.24,0,.31-.16.47-.31l.08-.08,1.26-2.59.16-.24h0c.16-.31.24-.55.24-.86v-.31h0c0-.08-.08-.16-.16-.16h-.08c-.24.24-.47.31-.86.31-.16,0-.31-.08-.39-.08-.31-.16-.94-.55-1.34-.79-.16-.08-.24-.16-.31-.24-1.49-.79-3.22-1.26-5.03-1.26-5.97.31-10.77,5.11-10.77,11s4.79,10.69,10.69,10.69c2.44,0,4.64-.86,6.45-2.12.63-.47,1.18-1.02,1.65-1.57l-1.65-3.46h0Z"/>
        <path class="cls-2" d="m101.77,59.42c-3.85,0-6.92-3.14-6.92-6.92s3.14-6.92,6.92-6.92,6.92,3.14,6.92,6.92-3.07,6.92-6.92,6.92m2.44-16.98v-.79c0-.47-.39-.86-.86-.86h-2.99c-.47,0-.86.24-1.18.47h0l-.08.08c0,.08.08.16.08.16h0c.31.08.55.24.71.39,0,0,0,.08.08.08h0v.08c0,.16-.08.24-.24.24h0c-.31.08-.55.16-.86.24-4.4,1.18-7.55,5.19-7.55,9.98,0,5.66,4.64,10.37,10.37,10.37s10.37-4.64,10.37-10.37c.08-4.87-3.3-8.96-7.86-10.06"/>
        <path class="cls-2" d="m212.52,52.11l-2.12-2.67-5.66-7.07-.08-.16c-.24-.31-.55-.39-.86-.39h-2.52c-.31,0-.71.08-.86.31h-.08l-.08.08s-.08,0-.08.08c0,0-.08,0-.08.08v.08c0,.08.08.16.16.16h0c.31,0,.63.16.86.39q.08.08.16.16l1.34,1.65.08.08,5.74,7.31,2.12,2.67,6.21,7.78h4.24l-8.49-10.53Z"/>
        <path class="cls-2" d="m208.35,52.11l2.12-2.67,5.66-7.07.08-.16c.24-.31.55-.39.86-.39h2.52c.31,0,.71.08.86.31h.08l.08.08s.08,0,.08.08c0,0,.08,0,.08.08v.08c0,.08-.08.16-.16.16h0c-.31,0-.63.16-.86.39q-.08.08-.16.16l-1.34,1.65-.08.08-5.74,7.31-2.12,2.67-6.21,7.78h-4.24l8.49-10.53Z"/>
        <path class="cls-2" d="m138.48,54.94c-.39-1.57-1.65-2.67-3.3-3.3-.86-.31-1.96-.63-2.91-.86-.94-.31-1.96-.39-2.91-.63-1.02-.24-2.12-.31-3.22-.71-1.65-.55-2.2-2.12-1.02-3.38.71-.79,1.73-1.1,2.83-1.18.55-.08,1.1-.08,1.65-.08h.47c.39.08,1.02.16,1.81.39.31.16.79.31,1.1.47h0s.08,0,.08.08c.24.16.47.24.71.31,0,0,.08,0,.08.08,0,0,.08,0,.08.08.55.31,1.34.79,2.04,1.26,0,0,.08.08.24.16.24.16.63.31.86-.24l1.41-2.67v-.08c0-.08.08-.16.08-.31s.08-.31.08-.39v-.24c0-.08-.08-.16-.16-.16s-.08,0-.08.08h0c-.24.24-.55.39-.86.39-.16,0-.47,0-.86-.24h0c-.16-.08-.24-.16-.31-.16-.24-.16-.86-.39-.86-.47-.86-.55-.94-.55-1.34-.71-.24-.08-.86-.31-1.34-.47-5.03-1.57-9.04.71-9.04.71-.31.16-.47.31-.79.39-1.49,1.02-2.44,2.44-2.52,4.17-.08.55,0,2.44,1.26,3.69.86.94,2.12,1.49,3.38,1.81,1.02.24,2.12.39,3.14.71.31.08.71.16,1.02.24.86.24,1.81.31,2.67.63.47.16,1.02.31,1.49.63.86.47,1.02,1.26.94,2.12-.08.63-.31,1.18-.86,1.49-.63.47-1.41.79-2.12.86,0,0-.31.08-.47.08,0,0-.31,0-.31.08-1.81.16-3.22-.16-3.93-.31,0,0-.47-.08-1.1-.31h0c-.55-.24-1.1-.55-1.57-.86-.24-.16-.39-.31-.63-.47-.16-.16-.31-.31-.47-.47-.39-.39-.86-.86-.94-.94h-.08s-.08,0-.08.08h0l-1.73,3.3h0l-.08.16s0,.08.16.16h0c.16.16.31.31.39.31.24.16.39.31.63.55.08.08.16.16.16.16,0,0,.16.08.24.16,1.57,1.1,3.46,1.73,5.42,1.96,2.12.24,4.32.24,6.37-.39,1.1-.31,2.2-.79,3.14-1.49,2.04-1.89,2.59-3.93,1.96-6.21"/>
        <path class="cls-2" d="m167.72,42.29h0c-.31-.31-.79-.47-1.18-.47h-3.54c-.16.08-.31.16-.31.31h0l-.08.24h0c0,.08-.08.24-.16.31l.08-.08-5.11,11.55-.16.24h-.16l-.16-.24-5.03-11.55.08.08-.16-.31h0l-.08-.24h0c-.08-.16-.24-.31-.31-.31h-3.54c-.47,0-.86.16-1.18.47h0v.08c0,.08.08.16.16.16h0c.31,0,.47.16.71.31.31.24.39.55.39.86v18.71h3.46q.08,0,.08-.08h0v-12.89c.31.79,5.74,12.97,5.74,12.97h.16s5.42-12.26,5.74-12.97v12.97h0q0,.08.08.08h3.46v-18.71c0-.31.16-.71.39-.86.24-.16.39-.31.71-.31h0c.08,0,.16-.08.16-.16q-.16-.08-.24-.16"/>
        <path class="cls-2" d="m185.95,43.55l-.63-1.34v-.08c-.08-.16-.31-.31-.47-.31h-2.91c-.31,0-.47.08-.71.16-.24.08-.39.24-.55.31h0v.08c0,.08.08.16.08.16h0c.55.16.94.63.94,1.18,0,.16,0,.31-.08.47v.08l-.08.08-.31.79-.08.24-7.55,17.13h4.01l6.45-14.54,6.45,14.54h4.01l-8.57-18.94Z"/>
      </g>
    </g>
  </g>
</svg>