<?xml version="1.0" encoding="UTF-8"?>
<svg id="_레이어_2" data-name="레이어 2" xmlns="http://www.w3.org/2000/svg" viewBox="0 0 308 100">
  <defs>
    <style>
      .cls-1, .cls-2 {
        stroke-width: 0px;
      }

      .cls-2 {
        fill: none;
      }
    </style>
  </defs>
  <g id="global">
    <g id="sisley">
      <rect class="cls-2" width="308" height="100"/>
      <path id="_로고_시슬리" data-name="로고 시슬리" class="cls-1" d="m165.62,71.02c-.77-.11-1.45-.55-1.87-1.2-.13-.28-.2-.58-.19-.89.02-.06.15-.07.54-.07h.52l.03.21c.13.83.91,1.26,2.28,1.26.68.07,1.36-.12,1.9-.54.25-.33.2-.81-.12-1.08-.58-.33-1.23-.52-1.89-.55-.73-.07-1.44-.24-2.12-.5-.53-.19-.88-.7-.85-1.26,0-1.35,1.41-2.13,3.47-1.92.53.03,1.04.15,1.52.38.55.27.94.8,1.03,1.41l.03.25h-.55c-.49,0-.55-.01-.55-.09-.06-.31-.23-.59-.48-.79-.85-.61-2.81-.5-3.24.19-.17.27-.17.61.01.87.22.24.5.32,2.01.59,1.83.33,2.26.48,2.62.89.26.27.39.65.35,1.02.03.25-.02.51-.14.74-.2.36-.52.64-.91.79-.7.3-1.46.43-2.21.38-.4,0-.8-.02-1.19-.07Zm-28.59-3.23v-3.16h2.14c2.41,0,2.63.02,3.16.35.32.15.57.41.71.74.12.22.18.47.16.72-.01.76-.5,1.43-1.22,1.66l-.39.16-1.68.02-1.68.02v2.65h-1.2v-3.16Zm4.16-.36c.49-.08.85-.52.82-1.02.03-.35-.18-.68-.51-.81-.71-.23-1.47-.31-2.21-.24h-1.06v2.14h1.35c.54.03,1.08,0,1.61-.08h0Zm1.98,3.36c.08-.16,1.12-2.27,2.41-4.91l.61-1.24h1.32l.48,1c1.22,2.58,2.47,5.25,2.47,5.28-.2.03-.41.04-.62.03h-.62l-.41-.91-.41-.91h-3.24l-.42.91-.42.91h-1.23l.08-.16Zm4.23-3.77c-.32-.73-.59-1.33-.61-1.33s-1.14,2.35-1.24,2.59c-.02.06.2.07,1.2.07h1.23l-.58-1.33Zm4.5.78v-3.16h2.26c2.4,0,2.63.02,3.24.25.63.19,1.05.79,1.02,1.44.02.59-.31,1.13-.84,1.38l-.22.11.26.12c.31.14.53.42.61.74.02.11.05.54.08.97.05.81.1.98.32,1.05.06.02.1.07.11.13,0,.1-.04.1-.7.1h-.7l-.03-.14c-.02-.08-.04-.18-.06-.22s-.05-.42-.07-.84c-.05-.79-.08-.91-.31-1.15-.26-.27-.5-.31-2.24-.34l-1.58-.02v2.72h-1.15v-3.16Zm4.58-.41c.31-.08.56-.3.69-.59.08-.32.05-.65-.09-.94-.24-.26-.56-.41-.91-.43-.21-.03-1-.05-1.75-.05h-1.37v2.15l1.58-.03c.62.03,1.24,0,1.85-.11h0Zm4.03.41v-3.16h1.14v6.31h-1.15v-3.16Zm37.56-1.94l-.66-.05-.43-.03v-2.9l.86.03c.7.07,1.41-.01,2.07-.24,1.06-.39,1.92-1.18,2.39-2.2.28-.56.49-1.15.65-1.75l.03-.17-.36.03c-.2.01-.87.04-1.49.05l-1.13.03-.41-.85c-.23-.47-.66-1.37-.97-2s-.73-1.5-.94-1.93-.67-1.37-1.02-2.09-.81-1.66-1.02-2.09-.65-1.35-.99-2.03c-1.96-4.01-2.58-5.29-2.58-5.35,0-.03,1.24-.05,3.14-.05h3.14l.6,1.37c1.53,3.52,2.65,6.08,3.24,7.39.35.79.8,1.82.99,2.3.67,1.62,1.18,2.78,1.23,2.8.21-.52.39-1.05.54-1.58.27-.88.64-2.04.83-2.57.81-2.34,1.51-4.4,2.17-6.34.39-1.15.8-2.34.91-2.66l.2-.57h3.01c1.65-.02,3.01-.01,3.01,0s-.27.74-.59,1.6-.86,2.31-1.2,3.2l-1.65,4.44c-.58,1.55-1.18,3.17-1.34,3.6-2.12,5.71-2.29,6.12-2.95,7.2-1.45,2.34-3.11,3.19-6.68,3.42-.77.04-2.02.05-2.58,0h0Zm-96.68-7.04c-1.88-.02-3.76-.29-5.57-.79-1.61-.44-2.77-1.86-2.85-3.53-.03-.27-.04-.54-.02-.82l.03-.26h3.05c1.67,0,3.04,0,3.04.01s-.03.14-.08.3c-.18.47-.08,1,.25,1.38.63.71,2.16,1.07,4.64,1.07,2.52,0,4.2-.34,4.99-1.02.51-.47.65-1.22.34-1.84-.31-.6-.89-1.01-1.56-1.1-.7-.13-1.42-.19-2.14-.16-5.05-.13-6.67-.25-8.41-.6-1.04-.12-2.01-.56-2.78-1.27-.28-.25-.5-.55-.67-.89-.37-.71-.53-1.52-.45-2.32-.05-.49,0-.98.12-1.46.08-.27.19-.53.31-.78.34-.57.81-1.05,1.38-1.4.95-.53,2.38-.84,4.85-1.06,1.3-.11,6.81-.13,8.05-.03,1.59.03,3.17.36,4.64.97.85.46,1.47,1.26,1.72,2.2.1.43.16.88.18,1.32v.17h-5.77l-.09-.43c-.18-.82-.49-1.22-1.07-1.4-.96-.21-1.94-.3-2.92-.24-1.15-.08-2.31-.01-3.45.19-.58.09-1.12.34-1.56.73-.33.28-.49.71-.43,1.13.01.81.29,1.29.85,1.45,1.76.26,3.54.4,5.32.4,4.64.17,7.23.55,8.4,1.25.51.32.92.78,1.19,1.32.34.69.48,1.46.4,2.23.08.78-.06,1.56-.42,2.26-.99,1.95-3.19,2.74-8.37,3.01-.89.05-4.14.06-5.13.02h0Zm36.88-.02c-5.18-.29-7.14-1.15-7.8-3.45-.09-.38-.14-.77-.14-1.16l-.03-.77h3.06c1.68,0,3.06.01,3.06.03s-.04.18-.08.35c-.32,1.24.58,1.97,2.85,2.29,1.47.1,2.94.09,4.41-.02,1.66-.23,2.67-.7,3-1.38.18-.44.17-.94-.02-1.38-.33-.59-.91-.99-1.58-1.09-.7-.13-1.42-.19-2.13-.16-2.38,0-4.76-.13-7.12-.39-2.45-.33-3.66-.84-4.41-1.86-.53-.75-.81-1.65-.79-2.58-.07-1.77.4-2.89,1.54-3.71.92-.66,2.5-1.03,5.39-1.27,1.1-.09,5.53-.13,6.86-.05,4.51.24,6.28.88,7.07,2.54.23.53.37,1.1.4,1.68l.03.48h-2.89s-2.89-.03-2.89-.03l-.12-.49c-.34-1.38-.78-1.54-4.4-1.54-.86-.04-1.72-.01-2.58.09-.78.07-1.52.38-2.11.89-.27.31-.38.73-.31,1.13.04.81.28,1.21.84,1.37,1.76.26,3.53.39,5.3.4,4.75.18,7.38.58,8.49,1.3.47.3.85.72,1.09,1.23.27.52.42,1.08.45,1.66.13,1.05-.06,2.12-.54,3.07-.37.58-.86,1.07-1.43,1.44-1.2.69-2.93,1.08-5.86,1.32-.92.08-5.53.11-6.6.05h0Zm39.15.02c-3.29-.18-5.21-.53-6.6-1.22-.85-.38-1.53-1.05-1.93-1.89-.48-.99-.79-2.07-.9-3.17-.13-1.46-.13-2.94,0-4.4.12-1.49.75-2.9,1.78-3.98.42-.39.9-.7,1.44-.91,1.56-.58,3.19-.91,4.85-1,1.03-.09,5.55-.09,6.55,0,2.72.26,4.53.74,5.55,1.49,1.17.98,1.91,2.39,2.04,3.91.12,1.12.19,2.25.2,3.38v.2h-16.48l-.04.19c-.04.7,0,1.4.13,2.09.13.69.52,1.3,1.1,1.69.82.52,2.85.77,5.43.67,2.65-.11,3.41-.39,3.76-1.39.07-.23.12-.47.14-.71l.03-.4h5.94l-.03.59c.02.73-.18,1.45-.59,2.06-1,1.47-3.2,2.34-6.85,2.71-.76.08-4.63.15-5.53.1h0Zm7.08-10.75c-.08-1.79-.55-2.43-2-2.72-1.92-.29-3.87-.33-5.8-.11-.74.04-1.44.32-2.01.79-.45.63-.69,1.39-.69,2.16l-.03.59h10.57l-.03-.72Zm-64.61,2.44v-8.14h5.94v16.27h-5.94v-8.14Zm37.35-3.47v-11.61h5.94v23.21h-5.94v-11.61Zm-37.35-9.96v-1.64h5.94v3.29h-5.94v-1.64Z"/>
    </g>
  </g>
</svg>