<?xml version="1.0" encoding="UTF-8"?>
<svg id="_레이어_2" data-name="레이어 2" xmlns="http://www.w3.org/2000/svg" viewBox="0 0 308 100">
  <defs>
    <style>
      .cls-1 {
        fill: none;
      }

      .cls-1, .cls-2 {
        stroke-width: 0px;
      }

      .cls-2 {
        fill: #221714;
      }
    </style>
  </defs>
  <g id="global">
    <g id="laorairie">
      <rect class="cls-1" width="308" height="100"/>
      <g>
        <path class="cls-2" d="m121.63,57.52v-11.08s-.41-3.52-4.87-4.1c0,0-6.32-1.04-8.4,1.85,0,0-1.27,1.74-1.39,3.77h4.17s-.17-2.09,2.49-2.32c0,0,3.13-.52,3.36,1.51,0,0,.58,1.1-.93,1.45,0,0-1.51.29-2.72.46,0,0-6.14.23-7.07,4.87v-20.19h-4.49v25.41h4.49v-3.53s1.33,3.36,4,3.94c0,0,5.38,1.22,6.83-1.97,0,0,.12.64.82,1.56h4.17s-.46-.17-.46-1.62Zm-6.61-1.51c-4,.98-4.06-1.22-4.06-1.22-.64-2.38,3.22-2.61,3.22-2.61,1.3-.17,3.04-1.19,3.04-1.19,1.1,4.6-2.2,5.02-2.2,5.02Z"/>
        <path class="cls-2" d="m168.04,47.15s.64-4.31-5.85-4.99c0,0-5.21-.45-7.3,2.21v-1.91s-4-1.22-5.45,3.3v-3.13h-4.69v3.94s-1.39-3.73-5.04-4.44c0,0-4.46-1.12-6.61,2.76v-2.03l-4.4-.06v25.46h4.46v-11.15s1.85,3.35,5.62,2.66c0,0,4.52-.34,6.08-5.27v4.64h4.75v-8.18s.12-5.27,4.52-4.69l-.46,1.51h4.02s.27-2.38,2.99-2.14c0,0,2.55.12,2.84,1.39,0,0,.46.98-.64,1.39,0,0-1.51.41-2.9.58,0,0-6.61.45-7.13,4.63,0,0-.64,4.58,3.82,5.86,0,0,4.87,1.56,7.36-1.97,0,0-.06,1.45.64,1.74h4s.17-.35-.64-1.45v-10.66Zm-30.87,8.9c-2.13,0-3.85-2.3-3.85-5.13s1.72-5.13,3.85-5.13,3.85,2.3,3.85,5.13-1.72,5.13-3.85,5.13Zm24.19-.03c-4,.98-4.06-1.22-4.06-1.22-.64-2.38,3.22-2.61,3.22-2.61,1.3-.17,3.04-1.19,3.04-1.19,1.1,4.6-2.2,5.02-2.2,5.02Z"/>
        <rect class="cls-2" x="169.6" y="36.06" width="4.76" height="4.42"/>
        <rect class="cls-2" x="169.6" y="42.48" width="4.76" height="16.88"/>
        <path class="cls-2" d="m180.11,45.8v-3.13h-4.57v16.69h4.85v-7.7s-.71-6.13,4.99-5.33v-3.85s-4.38-.83-5.28,3.32Z"/>
        <rect class="cls-2" x="185.72" y="36.06" width="4.76" height="4.42"/>
        <rect class="cls-2" x="185.72" y="42.48" width="4.76" height="16.88"/>
        <path class="cls-2" d="m200.33,42.15s-7.63-1.76-9.96,5.8v6.32s2.19,6.51,9.8,5.26c0,0,4.56-.83,5.98-5.45h-4.41s-1.46,2.07-3.44,2.19c0,0-3.88.43-3.78-4.33h11.64s1.09-7.85-5.82-9.8Zm1.22,6.69h-7c.28-3.71,3.5-3.36,3.5-3.36,3.56.29,3.5,3.36,3.5,3.36Z"/>
      </g>
    </g>
  </g>
</svg>