<?xml version="1.0" encoding="UTF-8"?>
<svg id="_레이어_2" data-name="레이어 2" xmlns="http://www.w3.org/2000/svg" viewBox="0 0 308 100">
  <defs>
    <style>
      .cls-1 {
        fill: none;
      }

      .cls-1, .cls-2, .cls-3 {
        stroke-width: 0px;
      }

      .cls-2 {
        fill: #171717;
      }

      .cls-2, .cls-3 {
        fill-rule: evenodd;
      }

      .cls-3 {
        fill: #a0a0a0;
      }
    </style>
  </defs>
  <g id="domestic">
    <g>
      <rect class="cls-1" width="308" height="100"/>
      <g>
        <path class="cls-3" d="m81.04,52c-.19-.2-.39-.38-.61-.55-.2-.16-.41-.3-.63-.43l-.05-.03-2.89-1.75-.6-.36c-1.18-.75-2.26-1.55-2.75-2.51-.18-.35-.28-.73-.28-1.13,0-.82.46-1.52,1.24-1.98.62-.36,1.43-.57,2.38-.58h0c.59,0,1.19.22,1.73.58,1.04.68,1.85,1.89,1.85,3.11h.61v-3.68h0c-.36-.23-.74-.42-1.13-.58-.98-.39-2.01-.58-3.06-.58-1.13,0-2.19.21-3.11.58-.39.16-.77.35-1.13.58-.27.17-.53.36-.77.58-.94.83-1.51,1.91-1.51,3.1,0,1.58,1.17,2.75,2.75,3.8.83.55,1.78,1.07,2.74,1.6.33.18.66.37.99.55.8.49,1.42,1,1.85,1.53.46.57.7,1.16.7,1.78,0,1.06-.48,1.94-1.41,2.48-.63.37-1.47.58-2.52.58-.81,0-1.61-.19-2.32-.58-1.9-1.03-2.77-3.18-2.77-4.26h-.61v3.74c.16.18.34.35.53.51l.07.06c.23.18.47.36.73.51.36.22.76.41,1.18.57.95.37,2.03.58,3.18.58,1.27,0,2.41-.21,3.36-.58.42-.16.81-.36,1.17-.58.27-.17.53-.36.77-.58.11-.1.22-.2.32-.31.78-.83,1.21-1.85,1.21-2.96,0-.34-.05-.67-.13-.98-.19-.68-.56-1.3-1.08-1.85m6.01,5.08c-.8,0-1.45.62-1.45,1.38s.65,1.37,1.45,1.37,1.45-.62,1.45-1.37-.65-1.38-1.45-1.38m5.09-14.39c.83,0,1.57.22,2.1.58.49.33.8.77.8,1.27v12.31c0,.49-.3.94-.8,1.27-.53.35-1.27.57-2.1.57v.58h8.7v-.58c-.83,0-1.57-.22-2.1-.58-.49-.33-.8-.77-.8-1.27v-12.31c0-.49.3-.94.8-1.27.53-.35,1.27-.58,2.1-.58v-.58h-8.7s0,.58,0,.58Zm13.79,14.39c-.8,0-1.45.62-1.45,1.38s.65,1.37,1.45,1.37,1.45-.62,1.45-1.37-.65-1.38-1.45-1.38"/>
        <path class="cls-2" d="m124.31,44.03c.13-.3.37-.56.69-.78.53-.35,1.27-.57,2.1-.58h0v-.57h-6.77v.58h0c.65,0,1.24.22,1.66.57.39.33.63.77.63,1.27,0,.18-.03.35-.09.51l-4.68,10.47-4.64-10.37-.08-.23c-.03-.13-.05-.26-.05-.39,0-.49.24-.94.63-1.27.42-.35,1.01-.57,1.66-.57h0v-.57h-8.6v.58h0c.83,0,1.57.22,2.1.57.32.22.56.48.69.78h0l7.07,15.79h.61s7.06-15.79,7.06-15.79h0,0Zm11.82-.78c.53-.35,1.27-.58,2.1-.58v-.58h-8.7v.58c.83,0,1.57.22,2.1.58.49.33.8.77.8,1.27v12.31c0,.49-.31.94-.8,1.27-.53.35-1.27.57-2.1.57v.58h8.7v-.58c-.83,0-1.57-.22-2.1-.58-.49-.33-.8-.77-.8-1.27v-12.31c0-.49.3-.94.8-1.27m40.33,12.56s-.56.83-1.69,1.41c-.76.39-1.44.64-2.67.81-.45.06-1.16.07-1.68.07h-3.62v-14.44c0-.53.5-.98.77-.98v-.58h-6.57v.58c.83,0,1.57.22,2.1.58.49.33.8.77.8,1.26v12.31c0,.49-.3.93-.8,1.26-.53.35-1.27.58-2.1.58v.58h14.82l1.29-3.43h-.65Zm-18.51,0s-.56.83-1.69,1.41c-.76.39-1.44.64-2.67.81-.45.06-1.16.07-1.68.07h-3.62v-14.44c0-.53.5-.98.77-.98v-.58h-6.57v.58c.83,0,1.57.22,2.1.58.49.33.8.77.8,1.26v12.31c0,.49-.3.93-.8,1.26-.53.35-1.27.58-2.1.58v.58h14.82l1.29-3.43h-.65Zm42.19,2.86c-.83,0-1.57-.22-2.1-.58-.3-.2-.53-.44-.66-.71l-7.35-16.43h-.38c-.72.9-1.98,1.11-2.21,1.15h-.04s0,0,0,0l.7,1.57-6.12,13.67h0c-.13.28-.37.54-.68.75-.53.35-1.27.58-2.1.58h0v.58h6.77v-.58h0c-.65,0-1.24-.22-1.66-.58-.39-.33-.63-.77-.63-1.27,0-.18.03-.36.1-.53h0l1.61-3.61h6.75l1.61,3.61h0c.06.17.1.35.1.53,0,.49-.24.94-.63,1.27-.42.35-1.01.57-1.66.57h0v.58h8.6v-.58h0,0Zm-14.25-7.13l2.86-6.4,2.86,6.4h-5.73Zm26.07-.66v.58c.83,0,1.57.22,2.1.58.49.33.8.77.8,1.26v4.27c-.29.21-.59.38-.91.53-.63.29-1.3.47-1.99.54-.24.02-.47.04-.71.04h0c-.98,0-1.96-.2-2.86-.58-.39-.16-.76-.35-1.11-.58-.52-.33-.99-.71-1.42-1.15-1.16-1.19-1.92-2.71-2.18-4.34-.03-.19-.06-.38-.08-.57-.02-.19-.03-.38-.03-.58,0-.07,0-.13,0-.2,0-1.4.35-2.71.95-3.85.85-1.61,2.22-2.88,3.88-3.57,1.13-.47,2.36-.66,3.58-.54.73.07,1.39.26,1.99.54.32.15.62.33.91.53,1.02.73,1.78,1.78,2.28,3.03h.62v-3.82c-.2-.1-.4-.19-.61-.28l-.11-.05c-.71-.3-1.44-.54-2.19-.72-.94-.23-1.89-.38-2.86-.43h-.04c-.24-.02-.48-.02-.73-.02-.26,0-.51,0-.76.02-1.09.05-2.16.25-3.2.58-.49.16-.97.35-1.44.58-.36.17-.7.37-1.03.57-.45.28-.87.6-1.26.96-.82.74-1.5,1.62-2,2.61-.6,1.19-.91,2.51-.9,3.84v.21h0c0,.39.04.77.1,1.15.25,1.63.97,3.11,2.06,4.34.37.42.78.81,1.22,1.15.58.45,1.2.83,1.86,1.15.46.22.95.41,1.46.57,1.18.37,2.48.58,3.89.58,1.98,0,3.93-.39,5.76-1.15l.16-.07c.52-.22,1.02-.47,1.51-.76v-.32h-.91v-3.77c0-.69.24-1.3.62-1.72.09-.1.19-.19.29-.26.27-.2.58-.31.91-.31h0v-.58s-7.61,0-7.61,0Zm25.62,4.93s-.56.83-1.69,1.41c-.76.39-1.44.64-2.67.81-.45.06-1.16.07-1.68.07h-3.63v-7.25h2.77c1.5,0,2.73.83,2.88,1.76h0s.61-.01.61-.01v-4.64h-.61v-.02c-.15.93-1.38,1.76-2.88,1.76h-2.77v-6.44h5.08c.21,0,.41.01.61.04,1.31.18,2.29,1.02,2.29,1.91v.12h.61v-3.22h-14.38v.57c.62,0,1.2.13,1.67.34.16.07.3.15.43.24.25.16.45.36.58.57.14.21.21.45.21.69v12.31c0,.49-.3.93-.8,1.26-.33.21-.69.37-1.07.46-.34.08-.68.12-1.03.12v.58h14.82l1.29-3.43h-.65Z"/>
        <path class="cls-1" d="m49.98,13.82h208.03v72.36H49.98V13.82Z"/>
      </g>
    </g>
  </g>
</svg>