<svg xmlns="http://www.w3.org/2000/svg" xmlns:xlink="http://www.w3.org/1999/xlink" width="144" height="45" viewBox="0 0 144 45">
  <defs>
    <clipPath id="clip-path">
      <rect id="사각형_727" data-name="사각형 727" width="119.687" height="20" fill="none"/>
    </clipPath>
  </defs>
  <g id="위치표시_탭코리아" transform="translate(-805.936 -5566.667)">
    <rect id="사각형_78" data-name="사각형 78" width="144" height="40" rx="20" transform="translate(805.936 5566.667)"/>
    <path id="다각형_1" data-name="다각형 1" d="M5,0l5,9H0Z" transform="translate(882.936 5611.667) rotate(180)"/>
    <g id="logo" transform="translate(817.936 5576.667)">
      <g id="그룹_288" data-name="그룹 288" transform="translate(0 0)" clip-path="url(#clip-path)">
        <path id="패스_2969" data-name="패스 2969" d="M146.968,31.6A3.867,3.867,0,0,0,146,33.41q0,.032-.088.032c-.058,0-.088-.016-.088-.048q.064-.623.144-1.6t.08-1.477c0-.053.029-.08.088-.08s.088.027.088.08q0,.352.894.351,1.374.048,3.21.048.942,0,2-.032l1.086-.016a3.511,3.511,0,0,0,.886-.08.491.491,0,0,0,.359-.319.085.085,0,0,1,.1-.064c.053,0,.08.021.08.064q-.047.495-.1,1.5t-.048,1.629c0,.032-.029.048-.088.048s-.094-.016-.1-.048a3.03,3.03,0,0,0-.75-1.812,2.176,2.176,0,0,0-1.6-.583,2.046,2.046,0,0,0-.663.08.457.457,0,0,0-.287.279,2.019,2.019,0,0,0-.072.631V39.35a1.953,1.953,0,0,0,.1.718.542.542,0,0,0,.383.3,3.718,3.718,0,0,0,.91.08c.032,0,.048.032.048.1s-.016.1-.048.1q-.559,0-.878-.016l-1.309-.016-1.245.016q-.336.016-.926.016c-.021,0-.032-.032-.032-.1s.01-.1.032-.1a3.818,3.818,0,0,0,.918-.08.567.567,0,0,0,.4-.311,1.828,1.828,0,0,0,.1-.71V31.957a1.692,1.692,0,0,0-.08-.607.487.487,0,0,0-.287-.271,1.906,1.906,0,0,0-.639-.08,2.237,2.237,0,0,0-1.6.6" transform="translate(-117.9 -24.418)" fill="#fff"/>
        <path id="패스_2970" data-name="패스 2970" d="M205.064,41.9c0,.064-.027.1-.08.1q-.3,0-.974-.032t-.974-.032q-.4,0-.942.032t-.846.032c-.042,0-.064-.032-.064-.1s.021-.1.064-.1a1.657,1.657,0,0,0,.679-.1.354.354,0,0,0,.215-.344,2.326,2.326,0,0,0-.271-.814l-1.724-3.5h-2.89L196.027,39.8a2.2,2.2,0,0,0-.208.862.976.976,0,0,0,.4.846,1.887,1.887,0,0,0,1.118.287c.053,0,.08.032.08.1s-.027.1-.08.1q-.287,0-.83-.032-.607-.031-1.053-.032-.431,0-1.006.032-.511.032-.846.032c-.053,0-.079-.032-.079-.1s.026-.1.079-.1a1.474,1.474,0,0,0,.751-.176,1.843,1.843,0,0,0,.591-.63,11.288,11.288,0,0,0,.687-1.349l3.433-7.728c.021-.032.069-.048.144-.048s.117.016.128.048l3.912,7.888a7.586,7.586,0,0,0,.934,1.572,1.077,1.077,0,0,0,.806.423c.053,0,.08.032.08.1m-7.632-5.253h2.523l-1.325-2.682Z" transform="translate(-156.461 -25.765)" fill="#fff"/>
        <path id="패스_2971" data-name="패스 2971" d="M263.12,41.781a.692.692,0,0,0,.463.327,4.381,4.381,0,0,0,1.078.1c.032,0,.048.032.048.1s-.016.1-.048.1q-.655,0-1.022-.016l-1.389-.016-1.15.016q-.3.016-.83.016c-.032,0-.048-.032-.048-.1s.016-.1.048-.1a2.709,2.709,0,0,0,.782-.08.5.5,0,0,0,.327-.3,2.129,2.129,0,0,0,.088-.718V33.71a2.07,2.07,0,0,0-.088-.7.531.531,0,0,0-.335-.311,2.517,2.517,0,0,0-.775-.088c-.032,0-.048-.032-.048-.1s.016-.1.048-.1l.83.016q.7.032,1.134.032.367,0,.894-.048.191-.016.519-.032t.774-.016a4.153,4.153,0,0,1,2.5.67,2.381,2.381,0,0,1,.918,2.06,2.8,2.8,0,0,1-.519,1.708,3.21,3.21,0,0,1-1.325,1.054,4.1,4.1,0,0,1-1.653.351,2.978,2.978,0,0,1-.75-.08c-.031,0-.048-.026-.048-.08a.213.213,0,0,1,.024-.1c.016-.032.035-.043.056-.032a2.283,2.283,0,0,0,.559.064,1.767,1.767,0,0,0,1.4-.687,2.976,2.976,0,0,0,.575-1.964,2.933,2.933,0,0,0-.591-1.956,2.023,2.023,0,0,0-1.628-.694,1.647,1.647,0,0,0-.583.08.481.481,0,0,0-.279.3,2.1,2.1,0,0,0-.08.679v7.3a1.7,1.7,0,0,0,.12.742" transform="translate(-210.389 -26.17)" fill="#fff"/>
        <path id="패스_2972" data-name="패스 2972" d="M343.3,42.5c0,.064-.016.1-.048.1h-1.788l-.623.016a.734.734,0,0,1-.383-.1,1.534,1.534,0,0,1-.367-.351q-.208-.255-.767-1.006l-.655-.878-2.219-2.906-.4.415v3.513a2.322,2.322,0,0,0,.08.718.479.479,0,0,0,.327.3,2.8,2.8,0,0,0,.79.08c.042,0,.064.032.064.1s-.021.1-.064.1q-.511,0-.814-.016l-1.166-.016-1.134.016q-.3.016-.846.016c-.021,0-.032-.032-.032-.1s.011-.1.032-.1a2.8,2.8,0,0,0,.79-.08.528.528,0,0,0,.343-.311,1.973,1.973,0,0,0,.1-.71V33.912a2.063,2.063,0,0,0-.088-.7.532.532,0,0,0-.343-.311,2.6,2.6,0,0,0-.782-.088c-.021,0-.032-.032-.032-.1s.01-.1.032-.1l.846.016q.7.032,1.118.032.479,0,1.182-.032l.8-.016c.032,0,.048.032.048.1s-.016.1-.048.1a2.3,2.3,0,0,0-.774.1.549.549,0,0,0-.335.327,2.121,2.121,0,0,0-.088.71v3.369l3.13-3.161a1.352,1.352,0,0,0,.5-.83.415.415,0,0,0-.248-.375,1.543,1.543,0,0,0-.727-.136q-.032,0-.032-.1c0-.064.011-.1.032-.1l.718.016q.7.032,1.278.032.623,0,1.261-.032l.687-.016c.032,0,.048.032.048.1s-.016.1-.048.1a3.733,3.733,0,0,0-1.541.383,5.364,5.364,0,0,0-1.525,1.053l-2.044,2.044,2.347,3.113q1.085,1.485,1.636,2.1a3.17,3.17,0,0,0,.87.759,2.145,2.145,0,0,0,.863.144c.032,0,.048.032.048.1" transform="translate(-269.44 -26.372)" fill="#fff"/>
        <path id="패스_2973" data-name="패스 2973" d="M392.795,41.354a4.755,4.755,0,0,1-1.788-1.884,5.451,5.451,0,0,1-.631-2.595,4.749,4.749,0,0,1,.83-2.818,5.194,5.194,0,0,1,2.131-1.764A6.371,6.371,0,0,1,396,31.7a4.968,4.968,0,0,1,2.666.71,4.817,4.817,0,0,1,1.764,1.876,5.232,5.232,0,0,1,.615,2.475,4.9,4.9,0,0,1-.767,2.666,5.508,5.508,0,0,1-2.052,1.916,5.716,5.716,0,0,1-2.786.7,5.037,5.037,0,0,1-2.642-.694m4.9-.208a3.469,3.469,0,0,0,1.2-1.525,5.956,5.956,0,0,0,.439-2.4,6.776,6.776,0,0,0-.487-2.634,4.176,4.176,0,0,0-1.389-1.821,3.508,3.508,0,0,0-2.116-.654,2.856,2.856,0,0,0-2.4,1.11,4.929,4.929,0,0,0-.854,3.074,7.2,7.2,0,0,0,.5,2.746,4.579,4.579,0,0,0,1.389,1.924,3.161,3.161,0,0,0,2,.695,2.968,2.968,0,0,0,1.717-.519" transform="translate(-315.619 -25.631)" fill="#fff"/>
        <path id="패스_2974" data-name="패스 2974" d="M468,42.3c0,.064-.016.1-.048.1h-2.571q-.368,0-1.365-1.333t-2.435-3.728a2.879,2.879,0,0,1-.527.048q-.591,0-.83-.016V41.1a2.124,2.124,0,0,0,.088.718.5.5,0,0,0,.335.3,2.8,2.8,0,0,0,.791.08c.021,0,.032.032.032.1s-.011.1-.032.1q-.526,0-.814-.016l-1.182-.016-1.149.016q-.3.016-.83.016c-.032,0-.048-.032-.048-.1s.016-.1.048-.1a2.8,2.8,0,0,0,.79-.08.527.527,0,0,0,.344-.311,1.973,1.973,0,0,0,.1-.71V33.71a2.07,2.07,0,0,0-.088-.7.532.532,0,0,0-.343-.311,2.6,2.6,0,0,0-.782-.088c-.021,0-.032-.032-.032-.1s.011-.1.032-.1l.83.016q.7.032,1.133.032.48,0,1.006-.048c.128-.011.281-.021.463-.032s.378-.016.591-.016a3.84,3.84,0,0,1,2.187.527,1.7,1.7,0,0,1,.766,1.485,2.522,2.522,0,0,1-.447,1.421,3.461,3.461,0,0,1-1.165,1.086q1.309,2.012,2.2,3.154a8.842,8.842,0,0,0,1.572,1.652,2.254,2.254,0,0,0,1.341.511c.032,0,.048.032.048.1m-6.85-5.317a1.731,1.731,0,0,0,1.341-.431,2.428,2.428,0,0,0,.384-1.581,2.816,2.816,0,0,0-.431-1.8,1.512,1.512,0,0,0-1.213-.5,1.089,1.089,0,0,0-.791.224,1.24,1.24,0,0,0-.215.846V36.92a5.767,5.767,0,0,0,.926.064" transform="translate(-369.817 -26.17)" fill="#fff"/>
        <path id="패스_2975" data-name="패스 2975" d="M526.191,40.075a.168.168,0,0,1,.088.024c.026.016.04.029.04.04a17.049,17.049,0,0,0-.16,2.219.282.282,0,0,1-.048.184.249.249,0,0,1-.191.056h-6.93c-.032,0-.048-.032-.048-.1s.016-.1.048-.1a2.8,2.8,0,0,0,.79-.08.5.5,0,0,0,.335-.311,2.132,2.132,0,0,0,.088-.71V33.911a2.063,2.063,0,0,0-.088-.7.532.532,0,0,0-.343-.311,2.605,2.605,0,0,0-.782-.088c-.032,0-.048-.032-.048-.1s.016-.1.048-.1h6.642q.159,0,.16.144l.032,2.076c0,.021-.029.038-.088.048s-.093,0-.1-.032a2.06,2.06,0,0,0-2.219-1.821h-.639a1.249,1.249,0,0,0-.814.208.889.889,0,0,0-.239.7V37.2h1.533q1.756,0,1.756-1.181,0-.048.088-.048c.059,0,.088.016.088.048l-.016,1.389.016.75q.032.512.032.83c0,.021-.032.032-.1.032s-.1-.011-.1-.032q0-1.372-1.788-1.373H521.72V41.24a1.055,1.055,0,0,0,.2.734.968.968,0,0,0,.71.208h.782a2.572,2.572,0,0,0,2.715-2.076c0-.021.021-.032.064-.032" transform="translate(-419.565 -26.372)" fill="#fff"/>
        <path id="패스_2976" data-name="패스 2976" d="M576.262,41.9c0,.064-.027.1-.08.1q-.3,0-.974-.032t-.974-.032q-.4,0-.942.032t-.846.032c-.042,0-.064-.032-.064-.1s.021-.1.064-.1a1.657,1.657,0,0,0,.679-.1.354.354,0,0,0,.215-.344,2.327,2.327,0,0,0-.271-.814l-1.724-3.5h-2.89L567.224,39.8a2.2,2.2,0,0,0-.208.862.976.976,0,0,0,.4.846,1.887,1.887,0,0,0,1.118.287c.053,0,.08.032.08.1s-.027.1-.08.1q-.287,0-.83-.032-.607-.031-1.053-.032-.431,0-1.006.032-.511.032-.846.032c-.053,0-.079-.032-.079-.1s.026-.1.079-.1a1.475,1.475,0,0,0,.751-.176,1.844,1.844,0,0,0,.59-.63,11.289,11.289,0,0,0,.687-1.349l3.433-7.728c.021-.032.069-.048.144-.048s.117.016.128.048l3.912,7.888a7.585,7.585,0,0,0,.934,1.572,1.077,1.077,0,0,0,.806.423c.053,0,.08.032.08.1m-7.632-5.253h2.523l-1.325-2.682Z" transform="translate(-456.575 -25.765)" fill="#fff"/>
        <path id="패스_2977" data-name="패스 2977" d="M277.033,3.045a.589.589,0,0,0,.137.147c.055.042.128.091.221.148s.18.118.239.163a.621.621,0,0,1,.148.168.437.437,0,0,1,.061.233.478.478,0,0,1-.078.27.525.525,0,0,1-.223.186.766.766,0,0,1-.328.067,1.081,1.081,0,0,1-.257-.033.609.609,0,0,1-.2-.08.069.069,0,0,1-.03-.056l-.018-.452v0c0-.008.005-.012.015-.013s.016,0,.018.01a1.567,1.567,0,0,0,.224.4.4.4,0,0,0,.322.158.329.329,0,0,0,.214-.07.282.282,0,0,0,.086-.233.44.44,0,0,0-.058-.229.57.57,0,0,0-.143-.163q-.084-.065-.23-.16c-.095-.061-.169-.113-.223-.156a.588.588,0,0,1-.136-.158.414.414,0,0,1-.057-.219.4.4,0,0,1,.086-.261.513.513,0,0,1,.224-.159.811.811,0,0,1,.29-.052,1.094,1.094,0,0,1,.2.019.827.827,0,0,1,.169.049.067.067,0,0,1,.036.022.061.061,0,0,1,.009.034l.009.4c0,.006-.006.011-.016.014s-.017,0-.019-.008a1.319,1.319,0,0,0-.159-.328.337.337,0,0,0-.3-.147.292.292,0,0,0-.213.077.283.283,0,0,0-.078.211.348.348,0,0,0,.055.195" transform="translate(-223.716 -2.024)" fill="#fff"/>
        <path id="패스_2978" data-name="패스 2978" d="M289.025,4.513c0,.012,0,.018-.009.018h-.332l-.116,0a.134.134,0,0,1-.071-.018.271.271,0,0,1-.068-.065c-.026-.031-.074-.094-.143-.187l-.122-.164-.413-.54-.074.077V4.29a.441.441,0,0,0,.015.134.092.092,0,0,0,.061.056.539.539,0,0,0,.147.015c.008,0,.012.006.012.018s0,.018-.012.018q-.095,0-.151,0l-.217,0-.211,0q-.056,0-.157,0s-.006-.006-.006-.018,0-.018.006-.018a.539.539,0,0,0,.147-.015.1.1,0,0,0,.064-.058.377.377,0,0,0,.018-.133V2.916a.389.389,0,0,0-.016-.131.1.1,0,0,0-.064-.058.474.474,0,0,0-.146-.016s-.006-.006-.006-.018,0-.018.006-.018l.157,0c.087,0,.156.006.208.006s.133,0,.22-.006l.148,0c.006,0,.009.006.009.018s0,.018-.009.018a.425.425,0,0,0-.144.018.1.1,0,0,0-.062.061.4.4,0,0,0-.016.132v.626l.582-.588a.251.251,0,0,0,.092-.155.077.077,0,0,0-.046-.07.286.286,0,0,0-.135-.025s-.006-.006-.006-.018,0-.018.006-.018l.134,0c.087,0,.166.006.237.006s.156,0,.235-.006l.128,0c.006,0,.009.006.009.018s0,.018-.009.018a.7.7,0,0,0-.287.071,1,1,0,0,0-.284.2l-.38.38.436.579q.2.276.3.391a.586.586,0,0,0,.162.141.4.4,0,0,0,.16.027c.006,0,.009.006.009.018" transform="translate(-232.167 -2.163)" fill="#fff"/>
        <path id="패스_2979" data-name="패스 2979" d="M301.237,4.423a.091.091,0,0,0,.061.056.532.532,0,0,0,.147.015c.006,0,.009.006.009.018s0,.018-.009.018q-.095,0-.151,0l-.22,0-.214,0c-.038,0-.089,0-.155,0-.006,0-.009-.006-.009-.018s0-.018.009-.018a.528.528,0,0,0,.147-.015.1.1,0,0,0,.064-.058.376.376,0,0,0,.017-.132V2.915a.364.364,0,0,0-.017-.131.1.1,0,0,0-.064-.057.468.468,0,0,0-.147-.016c-.006,0-.009-.006-.009-.018s0-.018.009-.018l.155,0c.087,0,.158.006.214.006s.136,0,.223-.006l.148,0c.006,0,.009.006.009.018s0,.018-.009.018a.425.425,0,0,0-.144.018.1.1,0,0,0-.062.061.4.4,0,0,0-.016.132V4.289a.438.438,0,0,0,.015.134" transform="translate(-243.114 -2.162)" fill="#fff"/>
        <path id="패스_2980" data-name="패스 2980" d="M311.021,2.693c0,.012,0,.018-.006.018a.219.219,0,0,0-.184.085.391.391,0,0,0-.065.242V4.573c0,.006,0,.01-.015.012a.022.022,0,0,1-.021,0l-1.393-1.618V4.172a.394.394,0,0,0,.062.24.212.212,0,0,0,.181.083s.006.006.006.018,0,.018-.006.018q-.08,0-.122,0l-.158,0-.175,0q-.048,0-.137,0c-.006,0-.009-.006-.009-.018s0-.018.009-.018a.244.244,0,0,0,.2-.083.363.363,0,0,0,.07-.24v-1.3a.628.628,0,0,0-.15-.125.29.29,0,0,0-.138-.035s-.006-.006-.006-.018,0-.018.006-.018l.119,0c.026,0,.062,0,.11,0l.19,0c.024,0,.053,0,.087,0a.046.046,0,0,1,.035.012.31.31,0,0,1,.036.047c.034.045.059.077.074.095l1.066,1.26V3.038a.4.4,0,0,0-.062-.242.208.208,0,0,0-.178-.085s-.006-.006-.006-.018,0-.018.006-.018l.122,0c.063,0,.116.006.157.006s.093,0,.16-.006l.13,0s.006.006.006.018" transform="translate(-249.797 -2.163)" fill="#fff"/>
        <path id="패스_2981" data-name="패스 2981" d="M332.159,2.527a.8.8,0,0,1,.227.065.054.054,0,0,1,.034.022.113.113,0,0,1,.011.046l.036.386c0,.006-.005.01-.015.011s-.016,0-.018-.009a.726.726,0,0,0-.26-.354.694.694,0,0,0-.408-.122.589.589,0,0,0-.484.217.9.9,0,0,0-.175.583,1.277,1.277,0,0,0,.1.5.89.89,0,0,0,.267.363.6.6,0,0,0,.382.133q.4,0,.609-.5c0-.008.009-.011.019-.009s.016.006.016.012l-.044.38a.119.119,0,0,1-.014.046.089.089,0,0,1-.034.022,1.464,1.464,0,0,1-.55.1,1.159,1.159,0,0,1-.6-.144.912.912,0,0,1-.355-.367,1,1,0,0,1-.115-.464.839.839,0,0,1,.153-.5,1.017,1.017,0,0,1,.406-.336,1.252,1.252,0,0,1,.54-.119,1.7,1.7,0,0,1,.278.024" transform="translate(-267.438 -2.024)" fill="#fff"/>
        <path id="패스_2982" data-name="패스 2982" d="M345.679,4.4c0,.012,0,.018-.015.018-.037,0-.1,0-.181-.006s-.144-.006-.181-.006-.108,0-.176.006-.12.006-.157.006c-.008,0-.012-.006-.012-.018s0-.018.012-.018a.306.306,0,0,0,.126-.019.066.066,0,0,0,.04-.064.428.428,0,0,0-.051-.151l-.32-.651h-.538L344,4.011a.407.407,0,0,0-.039.16.182.182,0,0,0,.074.158.353.353,0,0,0,.208.053c.01,0,.015.006.015.018s0,.018-.015.018c-.035,0-.087,0-.154-.006s-.141-.006-.2-.006-.116,0-.187.006-.116.006-.157.006c-.01,0-.015-.006-.015-.018s0-.018.015-.018a.274.274,0,0,0,.139-.032.343.343,0,0,0,.11-.118,2.046,2.046,0,0,0,.128-.251l.639-1.437c0-.006.013-.009.026-.009s.022,0,.024.009l.728,1.467a1.382,1.382,0,0,0,.174.292.2.2,0,0,0,.15.079c.01,0,.015.006.015.018m-1.42-.977h.469l-.246-.5Z" transform="translate(-277.746 -2.05)" fill="#fff"/>
        <path id="패스_2983" data-name="패스 2983" d="M360.482,4.476c0,.012,0,.018-.009.018h-.479q-.068,0-.254-.248t-.453-.694a.5.5,0,0,1-.1.009c-.073,0-.125,0-.154,0v.695a.391.391,0,0,0,.016.134.094.094,0,0,0,.062.056.529.529,0,0,0,.147.015s.006.006.006.018,0,.018-.006.018c-.065,0-.116,0-.151,0l-.22,0-.214,0c-.038,0-.089,0-.155,0-.006,0-.009-.006-.009-.018s0-.018.009-.018a.529.529,0,0,0,.147-.015.1.1,0,0,0,.064-.058.365.365,0,0,0,.018-.132V2.878a.381.381,0,0,0-.016-.131.1.1,0,0,0-.064-.057.471.471,0,0,0-.146-.016s-.006-.006-.006-.018,0-.018.006-.018l.155,0c.087,0,.157.006.211.006s.122,0,.187-.009l.086-.006c.034,0,.07,0,.11,0a.715.715,0,0,1,.407.1.316.316,0,0,1,.143.277.47.47,0,0,1-.083.264.645.645,0,0,1-.217.2q.243.374.408.587a1.641,1.641,0,0,0,.293.307.419.419,0,0,0,.249.095c.006,0,.009.006.009.018m-1.274-.989a.321.321,0,0,0,.249-.08.449.449,0,0,0,.072-.294.522.522,0,0,0-.08-.334.281.281,0,0,0-.226-.094.2.2,0,0,0-.147.042.232.232,0,0,0-.04.158v.591a1.077,1.077,0,0,0,.172.012" transform="translate(-289.858 -2.126)" fill="#fff"/>
        <path id="패스_2984" data-name="패스 2984" d="M373.8,4.061a.031.031,0,0,1,.016,0s.007.006.007.008a3.163,3.163,0,0,0-.029.413.049.049,0,0,1-.009.034.045.045,0,0,1-.035.011h-1.289c-.006,0-.009-.006-.009-.018s0-.018.009-.018a.53.53,0,0,0,.147-.015.094.094,0,0,0,.062-.058.393.393,0,0,0,.016-.132V2.915a.381.381,0,0,0-.016-.131.1.1,0,0,0-.064-.057.471.471,0,0,0-.146-.016c-.006,0-.009-.006-.009-.018s0-.018.009-.018H373.7c.02,0,.029.009.029.027l.006.386s-.006.007-.016.009-.017,0-.019-.006a.383.383,0,0,0-.413-.338h-.119a.23.23,0,0,0-.151.039.163.163,0,0,0-.045.13v.606h.285q.327,0,.327-.219c0-.006.006-.009.016-.009s.016,0,.016.009l0,.258,0,.14c0,.063.006.115.006.154,0,0-.006.006-.018.006s-.018,0-.018-.006q0-.255-.333-.255h-.282v.674a.2.2,0,0,0,.037.136.18.18,0,0,0,.133.039h.146a.478.478,0,0,0,.5-.386s0-.006.012-.006" transform="translate(-301.129 -2.162)" fill="#fff"/>
        <path id="패스_2985" data-name="패스 2985" d="M393.394,4.251c0,.011,0,.016-.011.016h-.434a.743.743,0,0,1-.324-.166.834.834,0,0,1-.579.2.8.8,0,0,1-.332-.061.462.462,0,0,1-.2-.159.371.371,0,0,1-.066-.211.4.4,0,0,1,.1-.27,1.883,1.883,0,0,1,.3-.261c-.028-.044-.057-.093-.089-.148a1.11,1.11,0,0,1-.064-.162.568.568,0,0,1-.022-.159.538.538,0,0,1,.067-.267.488.488,0,0,1,.19-.187.583.583,0,0,1,.287-.068.464.464,0,0,1,.277.076.255.255,0,0,1,.105.221.371.371,0,0,1-.067.216.7.7,0,0,1-.156.163q-.089.067-.267.186a2.716,2.716,0,0,0,.615.638.8.8,0,0,0,.047-.291.372.372,0,0,0-.052-.221.211.211,0,0,0-.18-.07s-.006-.006-.007-.017,0-.018.007-.018l.68,0c.006,0,.009.006.009.017s0,.018-.009.018a.4.4,0,0,0-.14.019.129.129,0,0,0-.068.059.689.689,0,0,0-.044.129,1.681,1.681,0,0,1-.178.428,3.067,3.067,0,0,0,.343.226.994.994,0,0,0,.251.107c.008,0,.012.009.011.019m-.815-.189c-.04-.029-.074-.056-.1-.08a4.121,4.121,0,0,1-.321-.287,2.84,2.84,0,0,1-.273-.31.455.455,0,0,0-.169.339.41.41,0,0,0,.065.222.468.468,0,0,0,.187.167.605.605,0,0,0,.279.062.508.508,0,0,0,.336-.113m-.5-.9a.891.891,0,0,0,.184-.214.468.468,0,0,0,.065-.244.305.305,0,0,0-.064-.2.211.211,0,0,0-.168-.074c-.121,0-.181.079-.181.237a.978.978,0,0,0,.163.5" transform="translate(-316.488 -1.899)" fill="#fff"/>
        <path id="패스_2986" data-name="패스 2986" d="M414.376,4.513c0,.012,0,.018-.006.018-.065,0-.118,0-.158,0l-.214,0-.208,0q-.054,0-.151,0s-.006-.006-.006-.018,0-.018.006-.018a.349.349,0,0,0,.175-.029.142.142,0,0,0,.045-.125l0-.051L413.8,3.031l-.633,1.479a.024.024,0,0,1-.024.012.038.038,0,0,1-.027-.012l-.742-1.467-.027,1.129a.375.375,0,0,0,.061.24.226.226,0,0,0,.191.083c.006,0,.009.006.009.018s0,.018-.009.018q-.08,0-.125,0l-.163,0-.175,0c-.03,0-.072,0-.125,0-.006,0-.009-.006-.009-.018s0-.018.009-.018a.229.229,0,0,0,.189-.083.388.388,0,0,0,.07-.24l.026-1.277a.407.407,0,0,0-.117-.14.25.25,0,0,0-.147-.045c-.006,0-.009-.006-.009-.018s0-.018.009-.018l.128,0c.025,0,.059,0,.1,0l.139,0a.513.513,0,0,1,.06,0,.078.078,0,0,1,.062.028.806.806,0,0,1,.074.126l.654,1.274.591-1.354a.144.144,0,0,1,.039-.058.078.078,0,0,1,.05-.016l.054,0c.022,0,.048,0,.08,0l.16,0q.038,0,.115,0s.006.006.006.018,0,.018-.006.018a.33.33,0,0,0-.206.052.194.194,0,0,0-.057.171l.068,1.357a.47.47,0,0,0,.022.134.094.094,0,0,0,.061.056.521.521,0,0,0,.146.015s.006.006.006.018" transform="translate(-333.102 -2.163)" fill="#fff"/>
        <path id="패스_2987" data-name="패스 2987" d="M430.028,4.4c0,.012,0,.018-.015.018-.037,0-.1,0-.181-.006s-.143-.006-.181-.006-.108,0-.176.006-.12.006-.157.006c-.008,0-.012-.006-.012-.018s0-.018.012-.018a.306.306,0,0,0,.126-.019.066.066,0,0,0,.04-.064.428.428,0,0,0-.051-.151l-.32-.651h-.538l-.229.514a.406.406,0,0,0-.039.16.183.183,0,0,0,.074.158.353.353,0,0,0,.208.053c.01,0,.015.006.015.018s0,.018-.015.018c-.035,0-.087,0-.154-.006s-.141-.006-.2-.006-.116,0-.187.006-.116.006-.157.006c-.01,0-.015-.006-.015-.018s0-.018.015-.018a.274.274,0,0,0,.139-.032.344.344,0,0,0,.11-.118,2.051,2.051,0,0,0,.128-.251l.639-1.437c0-.006.013-.009.026-.009s.022,0,.024.009l.728,1.467a1.4,1.4,0,0,0,.174.292.2.2,0,0,0,.15.079c.01,0,.015.006.015.018m-1.42-.977h.469l-.246-.5Z" transform="translate(-345.942 -2.05)" fill="#fff"/>
        <path id="패스_2988" data-name="패스 2988" d="M444.589,4.513c0,.012,0,.018-.009.018h-.333l-.115,0a.134.134,0,0,1-.071-.018.267.267,0,0,1-.068-.065c-.026-.031-.074-.094-.143-.187l-.122-.164-.413-.54-.074.077V4.29a.441.441,0,0,0,.015.134.092.092,0,0,0,.061.056.539.539,0,0,0,.147.015c.008,0,.012.006.012.018s0,.018-.012.018q-.095,0-.151,0l-.217,0-.211,0c-.038,0-.09,0-.157,0,0,0-.006-.006-.006-.018s0-.018.006-.018a.539.539,0,0,0,.147-.015.1.1,0,0,0,.064-.058.379.379,0,0,0,.018-.133V2.916a.39.39,0,0,0-.016-.131.1.1,0,0,0-.064-.058.474.474,0,0,0-.146-.016s-.006-.006-.006-.018,0-.018.006-.018l.157,0c.088,0,.157.006.208.006s.133,0,.22-.006l.148,0c.006,0,.009.006.009.018s0,.018-.009.018a.424.424,0,0,0-.144.018.1.1,0,0,0-.062.061.406.406,0,0,0-.016.132v.626l.582-.588a.251.251,0,0,0,.092-.155.077.077,0,0,0-.046-.07.286.286,0,0,0-.135-.025s-.006-.006-.006-.018,0-.018.006-.018l.134,0q.131.006.237.006t.235-.006l.128,0c.006,0,.009.006.009.018s0,.018-.009.018a.7.7,0,0,0-.287.071,1,1,0,0,0-.284.2l-.38.38.437.579q.2.276.3.391a.587.587,0,0,0,.162.141.4.4,0,0,0,.16.027c.006,0,.009.006.009.018" transform="translate(-357.94 -2.163)" fill="#fff"/>
        <path id="패스_2989" data-name="패스 2989" d="M457.578,4.061a.031.031,0,0,1,.016,0s.007.006.007.008a3.158,3.158,0,0,0-.029.413.048.048,0,0,1-.009.034.045.045,0,0,1-.035.011h-1.289c-.006,0-.009-.006-.009-.018s0-.018.009-.018a.53.53,0,0,0,.147-.015.094.094,0,0,0,.062-.058.394.394,0,0,0,.016-.132V2.915a.382.382,0,0,0-.016-.131.1.1,0,0,0-.064-.057.471.471,0,0,0-.145-.016c-.006,0-.009-.006-.009-.018s0-.018.009-.018h1.235c.02,0,.03.009.03.027l.006.386s-.006.007-.016.009-.017,0-.019-.006a.383.383,0,0,0-.413-.338h-.119a.23.23,0,0,0-.151.039.163.163,0,0,0-.045.13v.606h.285c.218,0,.327-.073.327-.219,0-.006.006-.009.016-.009s.016,0,.016.009l0,.258,0,.14c0,.063.006.115.006.154,0,0-.006.006-.018.006s-.018,0-.018-.006q0-.255-.333-.255h-.282v.674a.2.2,0,0,0,.037.136.181.181,0,0,0,.133.039h.146a.478.478,0,0,0,.5-.386s0-.006.012-.006" transform="translate(-368.862 -2.162)" fill="#fff"/>
        <path id="패스_2990" data-name="패스 2990" d="M476.2,2.8a.243.243,0,0,0-.2-.086s-.006-.006-.006-.018,0-.018.006-.018l.137,0q.112.006.178.006c.036,0,.089,0,.16-.006l.13,0s.006.006.006.018,0,.018-.006.018a.21.21,0,0,0-.179.086.4.4,0,0,0-.064.241v.831a.739.739,0,0,1-.091.373.618.618,0,0,1-.255.245.81.81,0,0,1-.382.086.849.849,0,0,1-.386-.085.617.617,0,0,1-.263-.244.72.72,0,0,1-.094-.373V2.916a.363.363,0,0,0-.017-.131.1.1,0,0,0-.064-.057.45.45,0,0,0-.144-.016c-.006,0-.009-.006-.009-.018s0-.018.009-.018l.155,0c.087,0,.158.006.211.006s.133,0,.22-.006l.148,0c.006,0,.009.006.009.018s0,.018-.009.018a.424.424,0,0,0-.144.018.106.106,0,0,0-.064.061.36.36,0,0,0-.018.132v.846a.8.8,0,0,0,.147.527.576.576,0,0,0,.806.017.629.629,0,0,0,.143-.441V3.038a.374.374,0,0,0-.07-.241" transform="translate(-383.758 -2.163)" fill="#fff"/>
        <path id="패스_2991" data-name="패스 2991" d="M489.4,4.379a.127.127,0,0,0,.086.061.806.806,0,0,0,.2.018c.006,0,.009.006.009.018s0,.018-.009.018q-.122,0-.19,0l-.259,0-.214,0c-.038,0-.089,0-.155,0-.006,0-.009-.006-.009-.018s0-.018.009-.018a.52.52,0,0,0,.146-.014.094.094,0,0,0,.061-.057.39.39,0,0,0,.016-.134V2.879a.382.382,0,0,0-.016-.131.1.1,0,0,0-.062-.057.456.456,0,0,0-.144-.016c-.006,0-.009-.006-.009-.018s0-.018.009-.018l.155,0c.087,0,.157.006.211.006s.1,0,.166-.009l.1-.006c.041,0,.088,0,.144,0a.772.772,0,0,1,.464.125.442.442,0,0,1,.171.383.521.521,0,0,1-.1.318.6.6,0,0,1-.246.2.765.765,0,0,1-.308.065.576.576,0,0,1-.14-.014c-.006,0-.009-.005-.009-.015a.041.041,0,0,1,0-.018c0-.006.006-.008.011-.006a.439.439,0,0,0,.1.011.328.328,0,0,0,.261-.128.553.553,0,0,0,.107-.365.543.543,0,0,0-.11-.364.376.376,0,0,0-.3-.129.313.313,0,0,0-.108.015.09.09,0,0,0-.052.055.382.382,0,0,0-.015.126V4.242a.314.314,0,0,0,.022.138" transform="translate(-395.244 -2.126)" fill="#fff"/>
        <path id="패스_2992" data-name="패스 2992" d="M508.039,4.379a.127.127,0,0,0,.086.061.806.806,0,0,0,.2.018c.006,0,.009.006.009.018s0,.018-.009.018q-.122,0-.19,0l-.259,0-.214,0c-.038,0-.089,0-.155,0-.006,0-.009-.006-.009-.018s0-.018.009-.018a.52.52,0,0,0,.146-.014.094.094,0,0,0,.061-.057.39.39,0,0,0,.016-.134V2.879a.382.382,0,0,0-.016-.131.1.1,0,0,0-.062-.057.456.456,0,0,0-.144-.016c-.006,0-.009-.006-.009-.018s0-.018.009-.018l.155,0c.087,0,.157.006.211.006s.1,0,.166-.009l.1-.006c.041,0,.089,0,.144,0a.772.772,0,0,1,.464.125.442.442,0,0,1,.171.383.522.522,0,0,1-.1.318.6.6,0,0,1-.246.2.765.765,0,0,1-.308.065.576.576,0,0,1-.14-.014c-.006,0-.009-.005-.009-.015a.04.04,0,0,1,0-.018c0-.006.006-.008.011-.006a.44.44,0,0,0,.1.011.328.328,0,0,0,.261-.128.552.552,0,0,0,.107-.365.543.543,0,0,0-.11-.364.376.376,0,0,0-.3-.129.312.312,0,0,0-.108.015.09.09,0,0,0-.052.055.384.384,0,0,0-.015.126V4.242a.314.314,0,0,0,.022.138" transform="translate(-410.314 -2.126)" fill="#fff"/>
        <path id="패스_2993" data-name="패스 2993" d="M519.944,4.4c0,.012-.005.018-.015.018-.037,0-.1,0-.181-.006s-.144-.006-.181-.006-.108,0-.176.006-.12.006-.157.006c-.008,0-.012-.006-.012-.018s0-.018.012-.018a.306.306,0,0,0,.126-.019.066.066,0,0,0,.04-.064.427.427,0,0,0-.051-.151l-.32-.651h-.538l-.229.514a.406.406,0,0,0-.039.16.183.183,0,0,0,.074.158.354.354,0,0,0,.208.053c.01,0,.015.006.015.018s0,.018-.015.018c-.035,0-.087,0-.154-.006s-.141-.006-.2-.006-.116,0-.187.006-.115.006-.157.006c-.01,0-.015-.006-.015-.018s0-.018.015-.018a.274.274,0,0,0,.139-.032.343.343,0,0,0,.11-.118,2.055,2.055,0,0,0,.128-.251l.639-1.437c0-.006.013-.009.026-.009s.022,0,.024.009l.728,1.467a1.387,1.387,0,0,0,.174.292.2.2,0,0,0,.15.079c.01,0,.015.006.015.018m-1.42-.977h.469l-.246-.5Z" transform="translate(-418.639 -2.05)" fill="#fff"/>
        <path id="패스_2994" data-name="패스 2994" d="M534.124,2.527a.8.8,0,0,1,.227.065.054.054,0,0,1,.034.022.113.113,0,0,1,.011.046l.036.386c0,.006-.005.01-.015.011s-.016,0-.018-.009a.726.726,0,0,0-.26-.354.7.7,0,0,0-.409-.122.589.589,0,0,0-.484.217.9.9,0,0,0-.175.583,1.277,1.277,0,0,0,.1.5.892.892,0,0,0,.267.363.6.6,0,0,0,.382.133q.4,0,.609-.5c0-.008.009-.011.019-.009s.016.006.016.012l-.044.38a.12.12,0,0,1-.014.046.09.09,0,0,1-.034.022,1.464,1.464,0,0,1-.55.1,1.159,1.159,0,0,1-.6-.144.913.913,0,0,1-.355-.367,1,1,0,0,1-.115-.464.839.839,0,0,1,.153-.5,1.017,1.017,0,0,1,.406-.336,1.252,1.252,0,0,1,.54-.119,1.7,1.7,0,0,1,.278.024" transform="translate(-430.726 -2.024)" fill="#fff"/>
        <path id="패스_2995" data-name="패스 2995" d="M547.935,4.513c0,.012,0,.018-.009.018h-.333l-.115,0a.134.134,0,0,1-.071-.018.268.268,0,0,1-.068-.065c-.026-.031-.074-.094-.143-.187l-.122-.164-.413-.54-.074.077V4.29a.441.441,0,0,0,.015.134.092.092,0,0,0,.061.056.539.539,0,0,0,.147.015c.008,0,.012.006.012.018s0,.018-.012.018q-.095,0-.151,0l-.217,0-.211,0c-.038,0-.09,0-.157,0,0,0-.006-.006-.006-.018s0-.018.006-.018a.539.539,0,0,0,.147-.015.1.1,0,0,0,.064-.058.379.379,0,0,0,.018-.133V2.916a.391.391,0,0,0-.016-.131.1.1,0,0,0-.064-.058.474.474,0,0,0-.146-.016s-.006-.006-.006-.018,0-.018.006-.018l.157,0c.088,0,.157.006.208.006s.133,0,.22-.006l.148,0c.006,0,.009.006.009.018s0,.018-.009.018a.424.424,0,0,0-.144.018.1.1,0,0,0-.062.061.406.406,0,0,0-.016.132v.626l.582-.588a.252.252,0,0,0,.092-.155.077.077,0,0,0-.046-.07.286.286,0,0,0-.135-.025s-.006-.006-.006-.018,0-.018.006-.018l.134,0q.131.006.237.006t.235-.006l.128,0c.006,0,.009.006.009.018s0,.018-.009.018a.7.7,0,0,0-.287.071,1,1,0,0,0-.284.2l-.38.38.437.579q.2.276.3.391a.586.586,0,0,0,.162.141.4.4,0,0,0,.16.027c.006,0,.009.006.009.018" transform="translate(-441.496 -2.163)" fill="#fff"/>
        <path id="패스_2996" data-name="패스 2996" d="M561.009,4.4c0,.012-.005.018-.015.018-.037,0-.1,0-.181-.006s-.144-.006-.181-.006-.108,0-.176.006-.12.006-.157.006c-.008,0-.012-.006-.012-.018s0-.018.012-.018a.306.306,0,0,0,.126-.019.066.066,0,0,0,.04-.064.427.427,0,0,0-.051-.151l-.32-.651h-.538l-.229.514a.407.407,0,0,0-.039.16.183.183,0,0,0,.074.158.353.353,0,0,0,.208.053c.01,0,.015.006.015.018s0,.018-.015.018c-.035,0-.087,0-.154-.006s-.141-.006-.2-.006-.116,0-.187.006-.115.006-.157.006c-.01,0-.015-.006-.015-.018s0-.018.015-.018a.274.274,0,0,0,.139-.032.343.343,0,0,0,.11-.118,2.046,2.046,0,0,0,.128-.251l.639-1.437c0-.006.013-.009.026-.009s.022,0,.024.009l.728,1.467a1.387,1.387,0,0,0,.174.292.2.2,0,0,0,.15.079c.01,0,.015.006.015.018m-1.42-.977h.469l-.247-.5Z" transform="translate(-451.84 -2.05)" fill="#fff"/>
        <path id="패스_2997" data-name="패스 2997" d="M574.31,4.3a.893.893,0,0,1-.37-.34.925.925,0,0,1-.128-.48.908.908,0,0,1,.147-.509.974.974,0,0,1,.4-.348,1.319,1.319,0,0,1,.578-.123,1.658,1.658,0,0,1,.279.024.835.835,0,0,1,.226.065.077.077,0,0,1,.031.024.114.114,0,0,1,.01.044l.036.386c0,.006,0,.01-.015.011a.017.017,0,0,1-.02-.009.756.756,0,0,0-.267-.348.712.712,0,0,0-.419-.125.614.614,0,0,0-.5.212.891.891,0,0,0-.175.584,1.214,1.214,0,0,0,.107.52.859.859,0,0,0,.3.356.739.739,0,0,0,.423.128.6.6,0,0,0,.2-.027.182.182,0,0,0,.105-.1.585.585,0,0,0,.034-.229.877.877,0,0,0-.018-.216.118.118,0,0,0-.079-.082.759.759,0,0,0-.212-.021c-.012,0-.018-.008-.018-.024a.03.03,0,0,1,0-.016.012.012,0,0,1,.01-.008c.164.01.3.015.395.015s.2,0,.309-.009c0,0,.007,0,.01.008a.027.027,0,0,1,0,.013c0,.014,0,.021-.014.021a.113.113,0,0,0-.083.019.147.147,0,0,0-.032.091c0,.046-.007.125-.007.237a1.231,1.231,0,0,0,.01.19.518.518,0,0,1,.011.071c0,.012,0,.019-.008.022l-.028.014a3.134,3.134,0,0,1-.668.083,1.226,1.226,0,0,1-.569-.125" transform="translate(-463.928 -2.024)" fill="#fff"/>
        <path id="패스_2998" data-name="패스 2998" d="M588.592,4.423a.091.091,0,0,0,.061.056.532.532,0,0,0,.147.015c.006,0,.009.006.009.018s0,.018-.009.018q-.095,0-.151,0l-.22,0-.214,0c-.038,0-.089,0-.155,0-.006,0-.009-.006-.009-.018s0-.018.009-.018a.527.527,0,0,0,.147-.015.1.1,0,0,0,.064-.058.375.375,0,0,0,.017-.132V2.915a.363.363,0,0,0-.017-.131.1.1,0,0,0-.064-.057.467.467,0,0,0-.147-.016c-.006,0-.009-.006-.009-.018s0-.018.009-.018l.155,0q.13.006.214.006c.061,0,.136,0,.223-.006l.148,0c.006,0,.009.006.009.018s0,.018-.009.018a.426.426,0,0,0-.144.018.1.1,0,0,0-.062.061.4.4,0,0,0-.016.132V4.289a.444.444,0,0,0,.015.134" transform="translate(-475.44 -2.162)" fill="#fff"/>
        <path id="패스_2999" data-name="패스 2999" d="M598.374,2.693c0,.012,0,.018-.006.018a.219.219,0,0,0-.184.085.391.391,0,0,0-.065.242V4.573c0,.006,0,.01-.015.012a.022.022,0,0,1-.021,0L596.69,2.963V4.172a.394.394,0,0,0,.062.24.212.212,0,0,0,.181.083s.006.006.006.018,0,.018-.006.018q-.08,0-.122,0l-.158,0-.175,0q-.048,0-.137,0c-.006,0-.009-.006-.009-.018s0-.018.009-.018a.244.244,0,0,0,.2-.083.363.363,0,0,0,.07-.24v-1.3a.631.631,0,0,0-.15-.125.29.29,0,0,0-.138-.035s-.006-.006-.006-.018,0-.018.006-.018l.119,0c.026,0,.062,0,.11,0l.19,0q.036,0,.087,0a.046.046,0,0,1,.035.012.313.313,0,0,1,.036.047c.034.045.059.077.074.095l1.066,1.26V3.038a.4.4,0,0,0-.062-.242.208.208,0,0,0-.178-.085s-.006-.006-.006-.018,0-.018.006-.018l.122,0c.063,0,.115.006.157.006s.093,0,.16-.006l.13,0s.006.006.006.018" transform="translate(-482.122 -2.163)" fill="#fff"/>
        <path id="패스_3000" data-name="패스 3000" d="M611.764,4.3a.892.892,0,0,1-.37-.34.923.923,0,0,1-.128-.48.907.907,0,0,1,.147-.509.976.976,0,0,1,.4-.348A1.317,1.317,0,0,1,612.4,2.5a1.653,1.653,0,0,1,.279.024.839.839,0,0,1,.226.065.079.079,0,0,1,.031.024.112.112,0,0,1,.01.044l.036.386c0,.006,0,.01-.015.011a.017.017,0,0,1-.021-.009.754.754,0,0,0-.267-.348.711.711,0,0,0-.419-.125.614.614,0,0,0-.5.212.89.89,0,0,0-.175.584,1.214,1.214,0,0,0,.107.52.86.86,0,0,0,.3.356.739.739,0,0,0,.423.128.594.594,0,0,0,.2-.027.183.183,0,0,0,.105-.1.591.591,0,0,0,.034-.229.893.893,0,0,0-.018-.216.119.119,0,0,0-.079-.082.76.76,0,0,0-.212-.021c-.012,0-.018-.008-.018-.024a.031.031,0,0,1,0-.016.012.012,0,0,1,.011-.008c.164.01.3.015.4.015s.2,0,.309-.009c0,0,.007,0,.01.008a.025.025,0,0,1,0,.013c0,.014,0,.021-.014.021a.114.114,0,0,0-.083.019.149.149,0,0,0-.031.091q-.007.068-.007.237a1.231,1.231,0,0,0,.01.19.518.518,0,0,1,.011.071c0,.012,0,.019-.007.022L613,4.345a3.134,3.134,0,0,1-.668.083,1.226,1.226,0,0,1-.569-.125" transform="translate(-494.21 -2.024)" fill="#fff"/>
        <path id="패스_3001" data-name="패스 3001" d="M10.814,1.008a9.807,9.807,0,1,0,9.807,9.807,9.818,9.818,0,0,0-9.807-9.807m0,19.362a9.556,9.556,0,1,1,9.555-9.555,9.566,9.566,0,0,1-9.555,9.555" transform="translate(-0.814 -0.815)" fill="#fff"/>
        <path id="패스_3002" data-name="패스 3002" d="M20.226,12.648A7.578,7.578,0,1,0,27.8,20.226a7.586,7.586,0,0,0-7.578-7.578m7.539,7.9a3.029,3.029,0,0,0-1.725-2.669l-.664.706a2.16,2.16,0,0,1-.639,4.223H21.265v.868h3.476A3.027,3.027,0,0,0,27.694,21.3a7.561,7.561,0,0,1-6.719,6.431V18.5h4.081l.328-.362H20.3v9.631l-.072,0-.072,0V18.14H14.518l-.328.362,5.284,0v9.23A7.561,7.561,0,0,1,12.757,21.3l2.28-2.513h-1.1l-1.253,1.381a7.557,7.557,0,0,1,6.762-7.452l-4.206,4.636h1.1L19.475,13.9v3.455h1.5V12.717a7.557,7.557,0,0,1,6.8,7.509c0,.107,0,.213-.008.319" transform="translate(-10.226 -10.226)" fill="#fff"/>
        <path id="패스_3003" data-name="패스 3003" d="M19.125,11.288a7.838,7.838,0,1,0,7.838,7.838,7.847,7.847,0,0,0-7.838-7.838m0,15.551a7.713,7.713,0,1,1,7.712-7.712,7.721,7.721,0,0,1-7.712,7.712" transform="translate(-9.126 -9.126)" fill="#fff"/>
        <path id="패스_3004" data-name="패스 3004" d="M17.071,2.929A10,10,0,1,0,2.929,17.071,10,10,0,0,0,17.071,2.929m-.022,14.12a9.969,9.969,0,0,1-14.1-14.1,9.969,9.969,0,0,1,14.1,14.1" transform="translate(0 0)" fill="#fff"/>
        <path id="패스_3005" data-name="패스 3005" d="M87.774,25.531c.015.023.031.049.048.078s.036.061.055.095l.041-.026-.013-.02a.163.163,0,0,1-.027-.06.056.056,0,0,1,.014-.044.49.49,0,0,1,.087-.068q.073-.049.283-.183l.218-.136.1-.059.07.112a.254.254,0,0,1,.051.14.155.155,0,0,1-.068.094l.031.033c.025-.022.05-.043.076-.061s.05-.036.074-.052l.02-.011.019-.012a.224.224,0,0,1-.062-.062q-.037-.049-.151-.228l-.092-.144c-.057-.091-.1-.154-.115-.192a.223.223,0,0,1-.03-.082.989.989,0,0,1-.1.056c-.035.017-.073.033-.111.047l.016.043a.192.192,0,0,1,.127-.017.243.243,0,0,1,.1.1l.075.119-.188.119c-.161.1-.28.177-.358.224a1.049,1.049,0,0,1-.138.077.069.069,0,0,1-.054,0,.152.152,0,0,1-.048-.053l-.013-.021-.042.026.064.093c.02.029.036.053.048.074" transform="translate(-70.875 -19.922)" fill="#fff"/>
        <path id="패스_3006" data-name="패스 3006" d="M89.767,31.407a.151.151,0,0,1-.078-.019.153.153,0,0,1-.052-.063l-.043.02c.015.029.03.056.042.08l.032.063c.01.021.02.045.033.072l.037.088.044-.02-.008-.017a.114.114,0,0,1-.015-.065.055.055,0,0,1,.036-.037.32.32,0,0,1,.082-.019c.04-.006.1-.011.194-.017l.039.079.038.081c.007.015.022.047.044.1l.03.066-.165.154-.025.022-.022.013a.046.046,0,0,1-.046,0,.138.138,0,0,1-.039-.056l-.006-.012-.044.02c.017.031.033.06.046.088s.027.053.038.077l.031.069.039.092.044-.02-.006-.013a.093.093,0,0,1-.011-.059.224.224,0,0,1,.054-.079q.084-.092.257-.264t.384-.373L90.7,31.35c-.21.017-.4.031-.579.042s-.3.015-.355.015m.83.028-.317.309-.013-.027c-.028-.055-.046-.092-.056-.114s-.023-.05-.044-.1l-.016-.035Z" transform="translate(-72.438 -25.326)" fill="#fff"/>
        <path id="패스_3007" data-name="패스 3007" d="M92.584,36.043l-.068.023a.448.448,0,0,1-.167.033.078.078,0,0,1-.06-.061.091.091,0,0,1,0-.016l0-.01-.044.014c.014.038.027.071.037.1l.024.068.03.1c.01.033.019.066.027.1l.044-.015a.008.008,0,0,0,0,0,.017.017,0,0,0,0-.005l0-.007,0-.007a.112.112,0,0,1,0-.092.25.25,0,0,1,.122-.063l.2-.065.017.072c.006.02.009.036.013.047a.437.437,0,0,0,.166.245.28.28,0,0,0,.249.025.249.249,0,0,0,.163-.149.37.37,0,0,0,0-.256c0-.013-.015-.042-.031-.087s-.03-.083-.041-.116-.019-.059-.027-.089-.017-.061-.025-.092l-.047.015,0,.005a.108.108,0,0,1,0,.082.119.119,0,0,1-.072.046l-.417.135-.08.027m.422,0,.182-.056c.009.016.017.033.024.051s.014.037.021.056a.264.264,0,0,1,0,.191.2.2,0,0,1-.132.114.214.214,0,0,1-.184-.012.3.3,0,0,1-.117-.172c-.005-.015-.009-.03-.013-.045s-.007-.033-.01-.053l.231-.074" transform="translate(-74.574 -28.89)" fill="#fff"/>
        <path id="패스_3008" data-name="패스 3008" d="M94.953,45.877l-.081.008-.068.007a.464.464,0,0,1-.174,0,.077.077,0,0,1-.045-.072c0-.006,0-.01,0-.013s0-.006,0-.009l-.048,0c0,.037.01.071.013.1s.007.057.008.079,0,.056.006.088,0,.065,0,.1l.049,0s0-.007,0-.011a.06.06,0,0,1,0-.011.092.092,0,0,1,.023-.083.4.4,0,0,1,.165-.035l.24-.021c-.052.061-.12.141-.2.238-.135.161-.214.243-.238.245H94.6c0,.025.007.049.01.072s.005.043.006.06,0,.051,0,.1c0,.013,0,.023,0,.03l.048,0a.017.017,0,0,1,0-.006s0-.007,0-.012c0-.042.037-.112.121-.209l.033-.038.291-.347.362.316.007.006a.221.221,0,0,1,.083.146V46.6l.047,0c0-.031-.009-.06-.012-.085s-.006-.049-.007-.069,0-.056-.006-.086,0-.059,0-.089l-.047,0,0,.017a.1.1,0,0,1,0,.044.022.022,0,0,1-.021.016.317.317,0,0,1-.1-.062l-.057-.045L95.041,46l.269-.024a.361.361,0,0,1,.163.007.1.1,0,0,1,.039.081v.009l.047,0c0-.03-.009-.061-.012-.09s-.007-.059-.009-.088,0-.052-.006-.082,0-.062,0-.1l-.049,0s0,.005,0,.01l0,.009a.079.079,0,0,1-.029.078.4.4,0,0,1-.154.034l-.073.006-.088.007Z" transform="translate(-76.432 -36.96)" fill="#fff"/>
        <path id="패스_3009" data-name="패스 3009" d="M95.74,52.3a.516.516,0,0,0-.094-.166A.5.5,0,0,0,95.48,52a.523.523,0,0,0-.206-.053.552.552,0,0,0-.2.024.533.533,0,0,0-.172.091.478.478,0,0,0-.131.159.512.512,0,0,0-.028.383.479.479,0,0,0,.086.161.5.5,0,0,0,.171.139.542.542,0,0,0,.217.057.552.552,0,0,0,.217-.031.527.527,0,0,0,.185-.115.437.437,0,0,0,.1-.146.548.548,0,0,0,.041-.188.516.516,0,0,0-.025-.187m-.2.425a.515.515,0,0,1-.34.086.47.47,0,0,1-.3-.11.3.3,0,0,1-.1-.252.326.326,0,0,1,.147-.256.538.538,0,0,1,.348-.087.454.454,0,0,1,.294.109.3.3,0,0,1,.1.251.326.326,0,0,1-.144.257" transform="translate(-76.583 -42.001)" fill="#fff"/>
        <path id="패스_3010" data-name="패스 3010" d="M94.653,58.516a.111.111,0,0,1-.038.074.121.121,0,0,1-.087.006l-.123-.025-.117-.025L94.1,58.5l-.1-.022q-.256-.053-.238-.144a.112.112,0,0,1,0-.013l0-.009-.045-.009c-.006.039-.011.074-.017.105s-.01.055-.013.072-.013.063-.021.095-.015.064-.023.1l.045.009a0,0,0,0,1,0,0,.009.009,0,0,0,0,0,.015.015,0,0,0,0-.006v-.006a.106.106,0,0,1,.044-.079.254.254,0,0,1,.135,0l.211.043-.009.041c0,.024-.009.046-.012.065s-.005.038-.007.056c-.076.033-.156.065-.241.1l-.138.051a.235.235,0,0,0-.093.068.3.3,0,0,0-.043.111c0,.014-.006.036-.009.066,0,.013,0,.023,0,.029l.039.008,0-.007c.011-.057.094-.116.247-.177l.036-.014.22-.089a.367.367,0,0,0,.083.157.258.258,0,0,0,.139.075.237.237,0,0,0,.2-.052.358.358,0,0,0,.12-.215c0-.015.008-.046.015-.091s.014-.084.02-.115.012-.057.019-.087.015-.06.023-.09l-.048-.01Zm-.082.275c0,.018,0,.037-.008.055a.237.237,0,0,1-.091.154.2.2,0,0,1-.165.031.249.249,0,0,1-.119-.056.28.28,0,0,1-.073-.115c0-.019,0-.038.007-.054s.006-.032.008-.044.007-.032.011-.052l.017-.061.243.049.174.038a.439.439,0,0,1,0,.054" transform="translate(-75.623 -47.141)" fill="#fff"/>
        <path id="패스_3011" data-name="패스 3011" d="M93.186,64.309a.11.11,0,0,1-.047.068.119.119,0,0,1-.086-.006l-.119-.041-.113-.039-.18-.064-.1-.034c-.165-.057-.237-.115-.218-.174a.063.063,0,0,1,.005-.013.043.043,0,0,1,0-.009l-.043-.014-.008.024c-.044.147-.078.255-.1.32-.017.048-.035.1-.057.161s-.046.123-.071.191c.032.019.065.04.1.062s.064.046.1.072l.033-.042a.229.229,0,0,1-.095-.126.5.5,0,0,1,.042-.23c.011-.034.022-.064.033-.092s.021-.052.032-.073l.112.035.091.03.082.029.09.031-.017.048-.04.118a.383.383,0,0,1-.072.146.086.086,0,0,1-.087.007l-.005,0-.013.044.032.008c.039.011.063.018.075.022s.042.015.064.024l.074.033.018-.04a.08.08,0,0,1-.055-.056.318.318,0,0,1,.025-.133c0-.013.013-.039.027-.078l.034-.1.007-.021.149.054.193.07-.009.029q-.032.1-.044.136a.426.426,0,0,1-.092.179.136.136,0,0,1-.124.013l-.011.046.107.027c.035.009.07.02.1.031.015-.052.03-.1.046-.155s.032-.1.049-.15.033-.1.055-.157.047-.129.076-.205l-.044-.015Z" transform="translate(-74.427 -51.73)" fill="#fff"/>
        <path id="패스_3012" data-name="패스 3012" d="M89.833,68.866a.147.147,0,0,1-.033-.073.159.159,0,0,1,.017-.079l-.043-.021c-.013.03-.025.058-.036.083s-.022.047-.03.064l-.036.07-.046.084.043.021L89.677,69a.112.112,0,0,1,.041-.052.055.055,0,0,1,.051.005.32.32,0,0,1,.065.052q.044.042.133.142c-.012.028-.025.054-.037.079l-.04.081-.05.1-.033.065-.223-.034-.033-.006a.122.122,0,0,1-.024-.009.047.047,0,0,1-.03-.035.135.135,0,0,1,.02-.066l.006-.011-.043-.022c-.014.032-.027.063-.04.091s-.025.054-.037.078l-.035.067c-.014.027-.03.056-.048.087l.043.022.007-.013a.1.1,0,0,1,.04-.045.223.223,0,0,1,.094-.007c.083.006.205.02.366.038s.338.043.531.071l.053-.107c-.143-.154-.274-.3-.391-.429s-.195-.223-.232-.27m.053.611.013-.028.054-.114.05-.1.018-.034.3.329Z" transform="translate(-72.216 -55.538)" fill="#fff"/>
        <path id="패스_3013" data-name="패스 3013" d="M85.462,78.893l-.037.029a.19.19,0,0,1,.056.115.247.247,0,0,1-.068.124l-.09.109-.171-.143q-.221-.183-.323-.272a1.062,1.062,0,0,1-.116-.107A.067.067,0,0,1,84.7,78.7a.143.143,0,0,1,.036-.062l.016-.019-.038-.031-.069.09c-.021.027-.039.05-.055.068l-.06.07-.073.082.038.031.016-.019a.158.158,0,0,1,.049-.043.059.059,0,0,1,.046,0,.509.509,0,0,1,.091.062q.07.054.261.213l.2.165.086.073-.085.1a.259.259,0,0,1-.117.092.16.16,0,0,1-.111-.036l-.022.039c.029.017.056.035.082.053s.05.037.072.055l.017.015.017.015a.229.229,0,0,1,.04-.078q.035-.051.171-.214l.109-.132c.068-.082.118-.138.147-.169a.213.213,0,0,1,.069-.053,1.018,1.018,0,0,1-.084-.079c-.027-.029-.053-.059-.079-.092" transform="translate(-68.28 -63.536)" fill="#fff"/>
        <path id="패스_3014" data-name="패스 3014" d="M80.4,81.515a.129.129,0,0,1,.038-.149l-.032-.034-.063.065-.05.049-.059.053-.072.062.033.035.014-.013a.115.115,0,0,1,.057-.034.055.055,0,0,1,.046.022.322.322,0,0,1,.044.073c.017.036.043.1.076.18l-.063.061-.065.061-.08.073-.053.049-.2-.109a.224.224,0,0,1-.029-.018l-.019-.016a.047.047,0,0,1-.016-.043.141.141,0,0,1,.042-.055l.01-.009-.033-.035c-.024.026-.047.049-.069.071l-.062.06-.056.051-.075.065.033.035.01-.01a.1.1,0,0,1,.053-.029.217.217,0,0,1,.091.027q.113.052.33.163t.473.252l.088-.082c-.08-.193-.153-.373-.217-.538s-.105-.276-.124-.334m-.163.591.022-.022.09-.088.08-.072.029-.026.17.414Z" transform="translate(-64.411 -65.757)" fill="#fff"/>
        <path id="패스_3015" data-name="패스 3015" d="M78.087,86.381a.111.111,0,0,1-.077.028.118.118,0,0,1-.066-.054L77.687,86l-.051-.068-.043-.058a.452.452,0,0,1-.083-.149.077.077,0,0,1,.039-.075l.014-.009.009-.006-.027-.037c-.031.025-.059.048-.084.067l-.057.043-.083.059-.086.057.028.037h0l0,0,.006-.006.005,0a.112.112,0,0,1,.088-.03c.023.006.055.038.1.1l.123.17-.063.038-.041.027a.438.438,0,0,0-.181.233.281.281,0,0,0,.054.245.248.248,0,0,0,.192.109.37.37,0,0,0,.243-.082c.011-.008.036-.027.073-.057l.1-.075.077-.054.08-.052-.029-.04Zm-.249.146-.047.037a.263.263,0,0,1-.183.058.207.207,0,0,1-.15-.091.216.216,0,0,1-.045-.179.3.3,0,0,1,.127-.164c.013-.009.025-.018.039-.026l.047-.026.142.2c.038.052.074.1.11.156-.013.013-.026.026-.041.038" transform="translate(-62.444 -69.206)" fill="#fff"/>
        <path id="패스_3016" data-name="패스 3016" d="M67.782,91.416l-.007,0a.078.078,0,0,1-.083,0,.373.373,0,0,1-.08-.136l-.029-.068-.035-.082-.073-.171c-.008-.019-.019-.044-.033-.075s-.023-.052-.027-.063a.469.469,0,0,1-.05-.167.076.076,0,0,1,.054-.065l.012-.005.008,0-.019-.044-.092.044-.072.032-.082.033-.094.036.02.045.011-.005.01-.005a.09.09,0,0,1,.087,0,.4.4,0,0,1,.084.146l.094.221-.288-.117a1.021,1.021,0,0,1-.307-.15v-.007l-.065.032-.055.025c-.016.007-.047.019-.093.035l-.028.011.02.045.005,0,.011,0c.039-.017.117,0,.236.049l.047.019.42.169-.189.442,0,.009a.224.224,0,0,1-.114.124l-.005,0,.018.044.078-.038.063-.029.08-.033.083-.031-.019-.044-.016.007a.1.1,0,0,1-.044.01.023.023,0,0,1-.02-.016.329.329,0,0,1,.029-.111c.011-.028.019-.051.025-.068l.134-.372.106.248a.363.363,0,0,1,.044.157c0,.025-.027.046-.065.062l-.008,0,.019.044.082-.04.08-.036.077-.031.089-.034-.019-.045-.009,0" transform="translate(-53.805 -73.199)" fill="#fff"/>
        <path id="패스_3017" data-name="패스 3017" d="M62.2,93.421a.53.53,0,0,0-.141-.135.471.471,0,0,0-.192-.075.511.511,0,0,0-.21.013.52.52,0,0,0-.29.211.511.511,0,0,0-.079.206.528.528,0,0,0,.013.224.535.535,0,0,0,.1.2.512.512,0,0,0,.166.14.438.438,0,0,0,.17.052.55.55,0,0,0,.192-.02.512.512,0,0,0,.37-.421.522.522,0,0,0-.014-.212.566.566,0,0,0-.084-.179m-.07.561a.3.3,0,0,1-.208.172.326.326,0,0,1-.29-.057.515.515,0,0,1-.188-.3.472.472,0,0,1,.011-.321.3.3,0,0,1,.207-.174.32.32,0,0,1,.289.061.536.536,0,0,1,.191.3.457.457,0,0,1-.012.313" transform="translate(-49.545 -75.357)" fill="#fff"/>
        <path id="패스_3018" data-name="패스 3018" d="M55.679,95.266a.108.108,0,0,1-.081-.014.116.116,0,0,1-.032-.08q-.008-.067-.014-.125l-.013-.119-.019-.19c0-.025-.005-.059-.01-.1-.02-.174,0-.264.063-.271H55.6l-.006-.045-.1.017-.072.009-.1.01-.1.007.005.046h.007l0,0h.006a.107.107,0,0,1,.089.017.249.249,0,0,1,.036.129l.025.213-.042,0-.066.009-.056.011q-.082-.093-.165-.2c-.056-.071-.086-.11-.091-.115a.235.235,0,0,0-.093-.067.278.278,0,0,0-.119-.006l-.065.012-.029.006,0,.04h.007c.057-.007.14.053.245.18l.025.029.152.182a.371.371,0,0,0-.123.128.26.26,0,0,0-.029.155.237.237,0,0,0,.113.178.359.359,0,0,0,.242.048l.092-.014c.046-.007.084-.013.115-.016l.089-.009.092-.006-.006-.049Zm-.286.007-.055.009a.237.237,0,0,1-.175-.039.2.2,0,0,1-.081-.148.249.249,0,0,1,.016-.13.28.28,0,0,1,.087-.1l.054-.01.044-.006.053,0,.063,0q.017.154.028.245c.006.061.012.12.017.177l-.052.013" transform="translate(-44.197 -76.256)" fill="#fff"/>
        <path id="패스_3019" data-name="패스 3019" d="M49.924,94.853l-.171,0-.2-.01c-.008.037-.019.073-.03.111s-.025.075-.039.113l.05.018a.235.235,0,0,1,.091-.129.512.512,0,0,1,.232-.03l.1,0,.079.007c0,.045,0,.084,0,.117s0,.065,0,.1,0,.047,0,.087,0,.072,0,.094h-.05l-.125,0a.387.387,0,0,1-.162-.023.086.086,0,0,1-.033-.081v-.006H49.61c0,.008,0,.019,0,.033,0,.04,0,.066,0,.078s0,.044,0,.068,0,.052-.009.08l.044,0a.082.082,0,0,1,.037-.07.314.314,0,0,1,.134-.017l.083,0,.1,0h.021c0,.024,0,.077-.006.158s-.006.15-.008.206h-.174a.425.425,0,0,1-.2-.033.135.135,0,0,1-.05-.114l-.047,0c0,.037,0,.074.007.111s0,.072,0,.107l.161,0h.157l.167,0,.219.01V95.8h-.006a.111.111,0,0,1-.079-.024.118.118,0,0,1-.021-.083c0-.045,0-.087,0-.126s0-.079,0-.119l.006-.191c0-.025,0-.059,0-.1,0-.174.036-.261.1-.26h.014l.009,0V94.85H50.26q-.231,0-.336,0" transform="translate(-40.005 -76.677)" fill="#fff"/>
        <path id="패스_3020" data-name="패스 3020" d="M44.324,94.165l-.079-.013-.094-.018-.007.048.019,0a.112.112,0,0,1,.062.023.055.055,0,0,1,.011.05.3.3,0,0,1-.03.079c-.018.036-.049.093-.094.171l-.087-.011-.089-.013-.106-.018-.072-.011-.036-.222a.251.251,0,0,1,0-.034.167.167,0,0,1,0-.025.047.047,0,0,1,.024-.039.139.139,0,0,1,.069,0l.013,0,.007-.048-.1-.011-.086-.011-.075-.013-.1-.019-.008.048.014,0a.1.1,0,0,1,.055.024.219.219,0,0,1,.036.088q.029.121.076.36t.1.528l.119.018q.152-.275.288-.5t.186-.3a.128.128,0,0,1,.14-.062l.007-.047-.091-.009-.069-.009m-.472.8-.08-.435.03,0,.125.017.106.018.038.007Z" transform="translate(-35.144 -76.025)" fill="#fff"/>
        <path id="패스_3021" data-name="패스 3021" d="M33.328,91.57l-.085-.035-.1-.044-.018.046.023.009a.152.152,0,0,1,.056.033.062.062,0,0,1,.015.044.566.566,0,0,1-.031.106q-.03.083-.121.314l-.1.238c-.018.045-.032.08-.043.1l-.123-.049a.261.261,0,0,1-.123-.084.157.157,0,0,1,0-.116l-.044-.008c-.007.033-.016.064-.025.094s-.019.058-.03.086l-.009.021a.213.213,0,0,0-.008.02.23.23,0,0,1,.086.014c.039.012.125.044.257.1l.159.063c.1.04.168.069.206.088a.21.21,0,0,1,.072.049,1.107,1.107,0,0,1,.05-.1,1.058,1.058,0,0,1,.063-.1l-.039-.026a.191.191,0,0,1-.093.089.241.241,0,0,1-.139-.026l-.131-.052.082-.207q.106-.267.158-.392a1.187,1.187,0,0,1,.066-.143.07.07,0,0,1,.044-.031.149.149,0,0,1,.07.015l.023.009.018-.046-.107-.038-.083-.031" transform="translate(-26.33 -73.971)" fill="#fff"/>
        <path id="패스_3022" data-name="패스 3022" d="M29.849,88.919a.153.153,0,0,1,.079.02l.023-.042-.082-.04-.063-.033-.068-.039-.082-.049-.023.042.017.009a.114.114,0,0,1,.05.043.056.056,0,0,1-.007.051.329.329,0,0,1-.056.063q-.044.042-.147.128l-.078-.04-.079-.043-.093-.054-.063-.036.043-.221a.263.263,0,0,1,.008-.033.13.13,0,0,1,.009-.023.047.047,0,0,1,.036-.029.144.144,0,0,1,.065.023l.011.007.024-.042-.09-.044-.076-.04-.065-.038-.086-.052-.024.042.012.007a.094.094,0,0,1,.044.041.221.221,0,0,1,0,.095q-.014.124-.053.364t-.093.528l.106.058c.159-.137.307-.261.444-.373s.231-.186.279-.221a.155.155,0,0,1,.075-.03m-.762.493.075-.435.027.014.112.059.093.054.034.019Z" transform="translate(-23.403 -71.477)" fill="#fff"/>
        <path id="패스_3023" data-name="패스 3023" d="M23.954,86.785l-.081-.061-.081-.064-.027.037,0,0,0,0,.007,0,.006,0c.036.026.054.051.055.074a.252.252,0,0,1-.061.122l-.124.17L23.6,87.03,23.56,87a.438.438,0,0,0-.278-.1.28.28,0,0,0-.216.127.25.25,0,0,0-.045.216.375.375,0,0,0,.153.206l.077.052c.04.027.074.05.1.07l.074.056.073.06.029-.04,0,0a.109.109,0,0,1-.05-.065.122.122,0,0,1,.031-.08l.258-.354.05-.069.042-.059a.452.452,0,0,1,.116-.125.077.077,0,0,1,.084.014l.013.01.008.007.027-.037-.089-.06-.059-.041m-.481.541-.114.152a.471.471,0,0,1-.049-.027.59.59,0,0,1-.05-.033.263.263,0,0,1-.112-.156.206.206,0,0,1,.041-.17.212.212,0,0,1,.156-.1.3.3,0,0,1,.2.07l.037.029.039.037c-.058.079-.105.144-.144.2" transform="translate(-18.606 -70.065)" fill="#fff"/>
        <path id="패스_3024" data-name="패스 3024" d="M15.835,78.82l-.057-.068c-.02-.025-.041-.051-.062-.079l-.037.032.008.008.008.008a.092.092,0,0,1,.03.081.4.4,0,0,1-.113.125l-.181.157q.01-.121.023-.311a1.02,1.02,0,0,1,.048-.337l0,0h0l-.05-.052-.041-.045c-.012-.014-.033-.039-.062-.078l-.019-.024-.036.033,0,0a.055.055,0,0,1,.008.009c.028.031.036.112.026.24,0,.022,0,.039,0,.05l-.032.452-.478-.044h-.01a.224.224,0,0,1-.152-.07l0,0-.036.031.06.062.047.051.055.066c.019.023.037.046.055.07l.036-.031-.012-.013a.1.1,0,0,1-.024-.038.025.025,0,0,1,.009-.025.313.313,0,0,1,.114-.006l.073,0,.4.012-.2.177a.371.371,0,0,1-.136.09.1.1,0,0,1-.079-.043l-.006-.007-.036.031.062.066c.02.022.04.044.059.066l.053.063.059.075.037-.033-.007-.007-.006-.006a.078.078,0,0,1-.022-.08.387.387,0,0,1,.1-.118l.056-.048.068-.058.14-.122.061-.054.051-.045a.45.45,0,0,1,.144-.1.076.076,0,0,1,.079.031l.009.01.005.007.036-.032-.07-.074-.053-.059" transform="translate(-11.821 -63.255)" fill="#fff"/>
        <path id="패스_3025" data-name="패스 3025" d="M12.33,75.1a.54.54,0,0,0,.144-.135.529.529,0,0,0,.086-.175.477.477,0,0,0,.012-.206.514.514,0,0,0-.367-.407.512.512,0,0,0-.22-.011.544.544,0,0,0-.449.435.443.443,0,0,0,0,.178.557.557,0,0,0,.078.176.5.5,0,0,0,.131.136.51.51,0,0,0,.174.079.5.5,0,0,0,.21.007.528.528,0,0,0,.2-.079m-.411-.028a.3.3,0,0,1-.228-.146.324.324,0,0,1-.034-.292.514.514,0,0,1,.223-.27.471.471,0,0,1,.308-.089.3.3,0,0,1,.23.144.322.322,0,0,1,.031.294.534.534,0,0,1-.23.275.456.456,0,0,1-.3.085" transform="translate(-9.321 -59.961)" fill="#fff"/>
        <path id="패스_3026" data-name="패스 3026" d="M9.41,68.565q.238-.108.277-.023l0,.012a.053.053,0,0,1,0,.009l.041-.019-.048-.095-.031-.065c-.014-.029-.027-.059-.039-.089s-.026-.061-.038-.092l-.042.019v0a.023.023,0,0,0,0,0l0,0a.011.011,0,0,1,0,0,.106.106,0,0,1,.011.09.251.251,0,0,1-.111.075l-.195.09-.018-.038c-.01-.022-.02-.042-.029-.06s-.019-.034-.027-.05c.042-.072.088-.145.138-.22s.078-.115.082-.122a.239.239,0,0,0,.034-.11A.288.288,0,0,0,9.4,67.78c-.006-.013-.016-.032-.031-.058L9.353,67.7l-.036.017,0,.006c.024.053-.008.149-.095.289l-.02.032-.125.2a.37.37,0,0,0-.16-.078.26.26,0,0,0-.156.022.235.235,0,0,0-.134.162.358.358,0,0,0,.029.245c.006.014.02.042.042.083s.039.077.052.1l.036.082c.011.028.023.057.034.086l.044-.02,0-.005a.109.109,0,0,1-.012-.082.119.119,0,0,1,.066-.055l.115-.052.109-.049.175-.077.094-.042m-.45.061L8.8,68.7c-.01-.015-.02-.03-.03-.046s-.017-.033-.025-.05a.24.24,0,0,1-.017-.178A.2.2,0,0,1,8.84,68.3a.249.249,0,0,1,.13-.025.27.27,0,0,1,.126.051l.027.048.02.04.02.048c.007.019.015.038.022.06l-.224.1" transform="translate(-6.968 -54.732)" fill="#fff"/>
        <path id="패스_3027" data-name="패스 3027" d="M6.754,63.819l.1-.029q.25-.076.277.013a.107.107,0,0,1,0,.013s0,.006,0,.01l.043-.013-.008-.024c-.05-.146-.086-.252-.107-.319q-.022-.073-.048-.164c-.017-.061-.035-.126-.054-.2-.038,0-.076.005-.115.006s-.079,0-.12,0v.053a.235.235,0,0,1,.151.046.511.511,0,0,1,.1.211c.011.034.02.065.027.094s.013.055.017.078l-.111.037-.092.029-.083.025-.091.028-.015-.048-.037-.119a.384.384,0,0,1-.028-.161.087.087,0,0,1,.067-.057l.006,0-.015-.043-.031.012-.074.026-.066.018-.079.017.009.043a.079.079,0,0,1,.077.013.3.3,0,0,1,.057.123c0,.013.012.04.024.079l.03.1.006.021-.151.043-.2.057c0-.006,0-.016-.009-.029-.022-.066-.037-.111-.044-.136a.433.433,0,0,1-.031-.2.137.137,0,0,1,.093-.083l-.018-.043-.1.04c-.034.013-.068.025-.1.036.019.052.037.1.054.152s.033.1.048.15.029.1.047.159.037.133.058.211l.045-.014,0-.005a.111.111,0,0,1,0-.083.118.118,0,0,1,.073-.046l.12-.037.115-.034Z" transform="translate(-4.862 -51.024)" fill="#fff"/>
        <path id="패스_3028" data-name="패스 3028" d="M5.914,57.674a.157.157,0,0,1,.069.04.15.15,0,0,1,.033.074l.047-.008c-.007-.032-.014-.062-.019-.09s-.01-.05-.013-.069-.007-.049-.012-.079-.007-.061-.011-.095l-.048.008,0,.019a.117.117,0,0,1,0,.066.056.056,0,0,1-.044.026.32.32,0,0,1-.084,0c-.04-.006-.1-.018-.192-.037-.006-.03-.011-.058-.016-.086l-.016-.088q0-.024-.016-.107c0-.031-.008-.054-.011-.072l.2-.1a.237.237,0,0,1,.031-.014.107.107,0,0,1,.024-.007.048.048,0,0,1,.045.011.147.147,0,0,1,.023.065l0,.013.048-.007c-.008-.034-.015-.067-.02-.1s-.011-.059-.016-.085-.007-.045-.011-.075-.008-.063-.012-.1l-.048.008,0,.013a.1.1,0,0,1-.006.06.216.216,0,0,1-.073.061q-.106.065-.319.184t-.472.254l.02.119q.309.061.568.118c.173.039.289.066.347.083m-.79-.253.389-.211c0,.007,0,.017.006.03.012.06.019.1.023.124s.008.054.016.106c0,.017,0,.03.006.038Z" transform="translate(-4.026 -45.903)" fill="#fff"/>
        <path id="패스_3029" data-name="패스 3029" d="M4.51,47.88A.2.2,0,0,1,4.4,47.82a.245.245,0,0,1-.019-.14l.009-.141.223.014c.191.012.331.022.421.03a1.1,1.1,0,0,1,.157.019.067.067,0,0,1,.043.032.145.145,0,0,1,.008.071l0,.024.049,0c0-.041,0-.078,0-.113s0-.064,0-.087,0-.058.007-.092.007-.071.011-.109l-.049,0,0,.024a.153.153,0,0,1-.014.064.057.057,0,0,1-.037.028.488.488,0,0,1-.11,0q-.088,0-.336-.019l-.256-.018L4.4,47.4,4.4,47.27a.268.268,0,0,1,.042-.144.159.159,0,0,1,.11-.036l-.005-.044c-.033,0-.066,0-.1,0s-.062,0-.091,0l-.023,0-.022,0a.233.233,0,0,1,.013.087c0,.041,0,.132-.012.273l-.011.17c-.007.106-.013.181-.02.223a.212.212,0,0,1-.024.084,1,1,0,0,1,.115.014c.039.007.078.017.118.028Z" transform="translate(-3.447 -38.036)" fill="#fff"/>
        <path id="패스_3030" data-name="패스 3030" d="M5.949,42.63A.155.155,0,0,1,6,42.691a.158.158,0,0,1,0,.081l.047.009c0-.033.008-.062.013-.09s.008-.051.012-.069.01-.049.016-.078.014-.06.022-.093l-.048-.009,0,.019a.117.117,0,0,1-.025.061.056.056,0,0,1-.051.009.336.336,0,0,1-.077-.033c-.035-.019-.091-.053-.167-.1,0-.03.01-.058.014-.087l.016-.088c0-.016.011-.051.023-.105.006-.03.01-.054.014-.071l.223-.027.034,0,.025,0a.047.047,0,0,1,.038.026.138.138,0,0,1,0,.069l0,.013.047.009c0-.035.01-.067.014-.1s.01-.059.015-.085.009-.045.015-.074.014-.062.023-.1L6.2,41.77l0,.014a.1.1,0,0,1-.026.054.232.232,0,0,1-.09.032c-.081.016-.2.037-.363.062s-.337.05-.531.074l-.023.118c.18.109.343.211.492.307s.247.162.3.2m-.215-.574,0,.03c-.01.06-.017.1-.021.125s-.011.054-.022.105c0,.017-.006.029-.008.038L5.3,42.118Z" transform="translate(-4.173 -33.771)" fill="#fff"/>
        <path id="패스_3031" data-name="패스 3031" d="M6.213,36.454a.11.11,0,0,1,.046-.068.12.12,0,0,1,.085,0l.417.135.08.025.069.022a.438.438,0,0,1,.155.072.077.077,0,0,1,.013.084l-.005.015,0,.01.043.014c.011-.039.021-.073.029-.1s.016-.053.021-.069c.011-.032.021-.064.033-.1s.023-.065.036-.1l-.044-.014,0,0,0,0,0,.008,0,.007c-.014.042-.032.067-.053.076a.258.258,0,0,1-.136-.021l-.2-.065c.011-.026.021-.049.029-.068s.013-.035.017-.046a.434.434,0,0,0,.01-.3.28.28,0,0,0-.187-.167.251.251,0,0,0-.219.025.37.37,0,0,0-.148.209c0,.013-.013.043-.026.089s-.025.086-.036.118-.019.059-.03.088-.022.059-.034.088l.046.015Zm.115-.265c0-.018.01-.037.016-.057a.261.261,0,0,1,.113-.154.207.207,0,0,1,.175-.014.215.215,0,0,1,.141.118.3.3,0,0,1-.006.208.44.44,0,0,1-.017.044c-.006.015-.013.031-.022.049l-.23-.076-.18-.062c0-.018.006-.037.01-.055" transform="translate(-4.984 -28.953)" fill="#fff"/>
        <path id="패스_3032" data-name="패스 3032" d="M10.055,28.291l0-.007a.079.079,0,0,1,.069-.047.388.388,0,0,1,.145.064l.063.038.076.046.159.1.071.042.059.034a.467.467,0,0,1,.138.106.076.076,0,0,1-.006.084.063.063,0,0,1-.007.011l0,.008.042.025c.017-.033.034-.063.049-.091s.028-.05.039-.069L11,28.558l.055-.084-.042-.025-.006.011a.061.061,0,0,1,0,.01c-.021.035-.043.053-.068.054a.4.4,0,0,1-.154-.069l-.438-.263a.369.369,0,0,1-.128-.1A.094.094,0,0,1,10.228,28l0-.008-.041-.024-.043.08c-.015.026-.029.052-.045.076s-.027.045-.043.07l-.052.079.042.025,0-.009" transform="translate(-8.092 -22.613)" fill="#fff"/>
        <path id="패스_3033" data-name="패스 3033" d="M11.553,25.888a.094.094,0,0,1,.029-.034.024.024,0,0,1,.026,0,.322.322,0,0,1,.041.107c.008.029.015.053.02.07l.111.38.3-.074a1.015,1.015,0,0,1,.336-.059l0,0,0,0c.012-.023.023-.044.034-.064s.02-.037.03-.052.028-.043.054-.083l.017-.025-.043-.025a.016.016,0,0,1,0,.006l-.006.011c-.021.036-.095.069-.22.1l-.049.012-.439.109-.107-.468,0-.01a.222.222,0,0,1,.02-.167l0-.006-.041-.025c-.015.028-.028.053-.041.076l-.034.06-.046.073-.049.074.041.025Z" transform="translate(-9.301 -20.694)" fill="#fff"/>
        <path id="패스_3034" data-name="패스 3034" d="M14.61,21.867a.552.552,0,0,0,.173.1.529.529,0,0,0,.193.027.474.474,0,0,0,.2-.052.5.5,0,0,0,.162-.134.524.524,0,0,0,.112-.341.511.511,0,0,0-.057-.213.555.555,0,0,0-.336-.276.525.525,0,0,0-.217-.016.445.445,0,0,0-.168.058.565.565,0,0,0-.143.128.5.5,0,0,0-.089.166.511.511,0,0,0-.021.19.5.5,0,0,0,.057.2.526.526,0,0,0,.136.164m-.031-.661a.324.324,0,0,1,.268-.123.514.514,0,0,1,.325.129.474.474,0,0,1,.18.267.3.3,0,0,1-.066.263.323.323,0,0,1-.269.12.537.537,0,0,1-.332-.134.453.453,0,0,1-.173-.261.3.3,0,0,1,.068-.261" transform="translate(-11.655 -16.941)" fill="#fff"/>
        <path id="패스_3035" data-name="패스 3035" d="M18.206,16.988a.108.108,0,0,1,.074-.037.117.117,0,0,1,.073.046l.085.093.08.088.127.143.069.077c.117.129.152.214.107.256l-.011.009-.008.006.031.034c.028-.028.053-.053.075-.075l.052-.05.073-.065.075-.063-.031-.034h0l0,0,0,0,0,0a.105.105,0,0,1-.082.038.254.254,0,0,1-.106-.083l-.146-.158.031-.028.048-.046.039-.042q.121.027.251.065l.141.039a.232.232,0,0,0,.115,0,.285.285,0,0,0,.1-.065c.01-.009.025-.025.046-.048l.02-.022-.027-.029-.005,0q-.064.059-.3,0l-.037-.009-.231-.057a.358.358,0,0,0,.025-.176.261.261,0,0,0-.068-.142.236.236,0,0,0-.2-.078.356.356,0,0,0-.225.1l-.066.065c-.033.033-.061.06-.084.081s-.043.039-.066.06-.047.04-.071.059l.033.036Zm.227-.174c.012-.013.026-.027.039-.04a.238.238,0,0,1,.165-.071.2.2,0,0,1,.152.072.246.246,0,0,1,.063.115.273.273,0,0,1-.009.136c-.013.015-.025.028-.037.04l-.032.031-.04.034c-.015.013-.032.026-.05.039l-.167-.182-.118-.133a.516.516,0,0,1,.035-.042" transform="translate(-14.69 -13.411)" fill="#fff"/>
        <path id="패스_3036" data-name="패스 3036" d="M23.1,12.546a.109.109,0,0,1,.079-.027.121.121,0,0,1,.066.055l.072.1.068.1.108.158.058.085c.1.143.124.233.073.268l-.011.008-.009,0,.026.037.021-.015q.185-.139.27-.2l.141-.1.171-.113c-.014-.034-.029-.07-.041-.107s-.024-.075-.036-.115l-.05.016a.231.231,0,0,1,0,.157.509.509,0,0,1-.17.161l-.081.055-.068.04-.07-.094-.056-.078-.05-.072-.054-.078.041-.029.1-.071a.376.376,0,0,1,.144-.076.085.085,0,0,1,.074.046l0,0,.036-.027-.021-.026c-.025-.031-.041-.052-.048-.062s-.025-.037-.038-.057l-.04-.07-.038.022a.08.08,0,0,1,.011.078.305.305,0,0,1-.1.092l-.068.047-.085.058-.018.013-.088-.131-.115-.171.025-.018.117-.084a.42.42,0,0,1,.18-.09.137.137,0,0,1,.108.063l.036-.03c-.024-.028-.047-.057-.07-.086s-.045-.057-.065-.085l-.128.1-.127.092c-.038.027-.084.058-.137.094l-.182.121.027.038Z" transform="translate(-18.654 -9.788)" fill="#fff"/>
        <path id="패스_3037" data-name="패스 3037" d="M29.917,10.626a.153.153,0,0,1-.016.079.158.158,0,0,1-.061.054l.022.042.079-.046L30,10.721l.071-.036.087-.04-.022-.043-.017.009a.116.116,0,0,1-.064.018.057.057,0,0,1-.038-.034A.357.357,0,0,1,30,10.514c-.007-.04-.015-.1-.024-.194l.077-.042.08-.042.1-.048.065-.033.16.158.023.025a.124.124,0,0,1,.014.02.048.048,0,0,1,0,.046.143.143,0,0,1-.055.042l-.012.006.022.043.086-.05.076-.041.068-.034.09-.042-.023-.043-.012.006a.094.094,0,0,1-.058.014.222.222,0,0,1-.081-.05c-.063-.054-.154-.136-.274-.246s-.248-.234-.387-.37l-.107.056c.026.208.047.4.064.577s.027.295.029.355m.317-.525-.027.015-.111.061-.1.048-.034.017L29.913,9.8Z" transform="translate(-24.113 -7.793)" fill="#fff"/>
        <path id="패스_3038" data-name="패스 3038" d="M38.254,5.682l.047,0a.2.2,0,0,1,.023-.126.242.242,0,0,1,.128-.061l.137-.035.055.216q.071.277.1.41a1.029,1.029,0,0,1,.03.155.066.066,0,0,1-.017.051.143.143,0,0,1-.065.029l-.024.006.013.047.108-.032.084-.023.09-.021.107-.023-.012-.047-.024.006a.159.159,0,0,1-.065.006.057.057,0,0,1-.038-.027.464.464,0,0,1-.038-.1q-.025-.084-.086-.325c-.011-.043-.032-.126-.063-.25l-.026-.109.128-.033a.263.263,0,0,1,.149,0,.159.159,0,0,1,.068.094l.04-.019c-.013-.031-.025-.061-.035-.091s-.018-.059-.026-.087l-.005-.022a.209.209,0,0,0,0-.022.225.225,0,0,1-.078.04c-.038.014-.127.038-.264.073l-.165.042c-.1.026-.176.043-.219.05a.211.211,0,0,1-.087,0,1.01,1.01,0,0,1,.022.114,1.172,1.172,0,0,1,.01.121" transform="translate(-30.903 -4.237)" fill="#fff"/>
        <path id="패스_3039" data-name="패스 3039" d="M44.152,5.733l.07-.01.079-.009.1-.008-.006-.048-.019,0a.114.114,0,0,1-.066-.006.056.056,0,0,1-.024-.045.331.331,0,0,1,.008-.084c.007-.04.022-.1.044-.19l.087-.013.089-.012.107-.011.072-.008.095.2a.272.272,0,0,1,.013.031.132.132,0,0,1,.006.024.047.047,0,0,1-.013.044.139.139,0,0,1-.066.02l-.013,0,.006.048.1-.017.085-.012.076-.008.1-.008-.006-.048-.014,0A.093.093,0,0,1,45,5.566a.217.217,0,0,1-.059-.075q-.061-.109-.171-.326t-.235-.482l-.119.015q-.073.306-.141.563c-.045.171-.077.285-.1.343a.153.153,0,0,1-.042.068.155.155,0,0,1-.076.029l.006.047.089-.016m.307-.908.2.4-.031,0-.125.018-.107.011-.038,0Z" transform="translate(-35.62 -3.786)" fill="#fff"/>
        <path id="패스_3040" data-name="패스 3040" d="M50.562,5.324l.1,0,.1,0V5.284h-.024a.111.111,0,0,1-.088-.028.267.267,0,0,1-.022-.135V4.91l.074.006.049,0a.433.433,0,0,0,.284-.082.281.281,0,0,0,.1-.23.249.249,0,0,0-.092-.2A.37.37,0,0,0,50.8,4.33l-.093,0-.123,0-.094,0L50.4,4.329v.049h0a.107.107,0,0,1,.079.023.117.117,0,0,1,.021.083v.438c0,.021,0,.049,0,.084s0,.059,0,.072a.437.437,0,0,1-.02.17.077.077,0,0,1-.076.038h-.027v.045l.108,0h.072m.072-.72c0-.064,0-.128,0-.191l.056-.007.059,0a.26.26,0,0,1,.182.061A.205.205,0,0,1,51,4.626a.212.212,0,0,1-.069.171.3.3,0,0,1-.2.058l-.047,0-.053-.007c0-.1,0-.178,0-.242" transform="translate(-40.734 -3.5)" fill="#fff"/>
        <path id="패스_3041" data-name="패스 3041" d="M59.757,6.074l.086.021.1.026.011-.047-.012,0-.011,0c-.04-.009-.064-.025-.072-.048a.394.394,0,0,1,.017-.168l.053-.235c.042.069.1.157.165.264a1.03,1.03,0,0,1,.161.3.013.013,0,0,1,0,0l0,0,.072.012.059.012.1.026.029.008.011-.048h-.006l-.011,0c-.041-.009-.1-.069-.163-.179l-.027-.043-.241-.383.411-.247.008-.006a.222.222,0,0,1,.164-.033h.006l.011-.047-.084-.015-.068-.014-.083-.02-.086-.024-.01.046.017,0a.1.1,0,0,1,.041.017.023.023,0,0,1,.008.025.33.33,0,0,1-.088.072l-.06.041-.327.224.059-.264a.365.365,0,0,1,.057-.153.1.1,0,0,1,.089-.012l.009,0,.01-.046-.089-.016-.087-.018-.08-.02L59.8,5.067l-.011.048H59.8l.008,0a.077.077,0,0,1,.065.051.368.368,0,0,1-.015.157c0,.013-.008.036-.017.072l-.02.087-.041.182c0,.021-.01.047-.017.08s-.012.055-.014.067a.474.474,0,0,1-.058.164A.076.076,0,0,1,59.611,6L59.6,6l-.009,0-.011.047.1.018.077.016" transform="translate(-48.17 -4.097)" fill="#fff"/>
        <path id="패스_3042" data-name="패스 3042" d="M65.991,8.156a.505.505,0,0,0,.178.112.513.513,0,0,0,.359,0,.512.512,0,0,0,.185-.12.561.561,0,0,0,.158-.405.524.524,0,0,0-.052-.211.44.44,0,0,0-.107-.142.548.548,0,0,0-.166-.1A.512.512,0,0,0,66,7.417a.525.525,0,0,0-.114.18.549.549,0,0,0-.038.194.533.533,0,0,0,.034.191.476.476,0,0,0,.111.174m.048-.532a.453.453,0,0,1,.193-.246.3.3,0,0,1,.27-.016.326.326,0,0,1,.2.216.513.513,0,0,1-.022.349.473.473,0,0,1-.2.254.3.3,0,0,1-.271.019.322.322,0,0,1-.2-.219.535.535,0,0,1,.025-.357" transform="translate(-53.237 -5.87)" fill="#fff"/>
        <path id="패스_3043" data-name="패스 3043" d="M71.214,10.285l.064.034.085.049.084.052.023-.04,0,0,0,0-.006,0-.005,0c-.037-.021-.058-.043-.061-.066a.248.248,0,0,1,.046-.126l.1-.187.037.021.059.031.052.024c.008.083.014.169.016.259s.006.139.007.146a.229.229,0,0,0,.037.109.281.281,0,0,0,.092.075l.06.029.027.012.019-.035-.006,0c-.05-.028-.081-.124-.092-.289,0-.017,0-.03,0-.038l-.017-.237A.365.365,0,0,0,72,10.064a.257.257,0,0,0,.114-.109.236.236,0,0,0,.013-.21.358.358,0,0,0-.168-.181l-.082-.043-.1-.054L71.7,9.422l-.079-.05-.024.043,0,0a.11.11,0,0,1,.058.059.119.119,0,0,1-.021.083c-.022.04-.043.076-.063.11l-.059.1-.1.165-.052.089c-.087.152-.157.212-.211.182L71.15,10.2l-.007-.006-.022.04.094.048m.485-.571.09-.154c.017.006.033.013.05.02s.034.016.05.025a.24.24,0,0,1,.119.134.2.2,0,0,1-.022.167.246.246,0,0,1-.09.1.278.278,0,0,1-.132.033l-.049-.024-.04-.02-.045-.027-.053-.035.121-.215" transform="translate(-57.501 -7.577)" fill="#fff"/>
        <path id="패스_3044" data-name="패스 3044" d="M76.228,13.488l-.007-.007-.027.036.021.015c.126.089.217.154.273.2l.136.1.159.128c.029-.025.058-.049.089-.072s.064-.047.1-.069l-.03-.044a.234.234,0,0,1-.149.051.515.515,0,0,1-.206-.112l-.076-.06c-.023-.019-.043-.037-.059-.053l.067-.1.057-.078.053-.069.057-.075.04.03.1.075a.384.384,0,0,1,.117.114.087.087,0,0,1-.021.085l0,0,.037.026.018-.028c.022-.033.037-.055.044-.065s.027-.034.043-.053l.054-.06-.033-.03a.08.08,0,0,1-.07.034.311.311,0,0,1-.119-.065l-.066-.051-.082-.063-.017-.013.1-.124.127-.162.025.018.115.084a.432.432,0,0,1,.142.144.136.136,0,0,1-.027.122l.04.025.059-.093q.03-.046.061-.088l-.132-.092-.127-.093-.132-.1-.171-.137-.028.038,0,0a.107.107,0,0,1,.05.066.118.118,0,0,1-.032.08l-.076.1-.073.095-.117.151-.063.081q-.158.208-.233.152l-.011-.009" transform="translate(-61.603 -10.291)" fill="#fff"/>
        <path id="패스_3045" data-name="패스 3045" d="M80.269,18.264a.157.157,0,0,1-.07-.041l-.033.034.068.061.05.048.056.057c.021.021.043.045.065.07l.034-.035-.014-.013a.11.11,0,0,1-.036-.055.055.055,0,0,1,.02-.047.337.337,0,0,1,.071-.046q.053-.028.177-.083c.022.021.044.041.063.061s.043.04.065.063l.075.077.052.051-.1.2a.245.245,0,0,1-.017.029.085.085,0,0,1-.015.02.046.046,0,0,1-.042.017.14.14,0,0,1-.057-.039l-.009-.01-.034.034.074.067.062.06.053.054.068.073.034-.034-.01-.01a.091.091,0,0,1-.03-.052.211.211,0,0,1,.023-.092q.048-.115.151-.336t.234-.482l-.086-.085q-.285.133-.529.238c-.162.07-.272.115-.329.136a.158.158,0,0,1-.08.009M81.137,18l-.191.4-.022-.021c-.045-.042-.076-.071-.092-.088l-.075-.077-.027-.027Z" transform="translate(-64.814 -14.458)" fill="#fff"/>
        <path id="패스_3046" data-name="패스 3046" d="M23.106,39.088H33.971l.318-.352H23.424Z" transform="translate(-18.681 -31.318)" fill="#fff"/>
      </g>
    </g>
  </g>
</svg>
