<svg id="원형로고" xmlns="http://www.w3.org/2000/svg" width="1283.085" height="1283.085" viewBox="0 0 1283.085 1283.085">
  <path id="패스_69" data-name="패스 69" d="M630.184,1.008C283.266,1.008,1.007,283.255,1.007,630.173s282.259,629.153,629.177,629.153,629.165-282.235,629.165-629.153S977.1,1.008,630.184,1.008m0,1242.187c-338.036,0-613.022-275-613.022-613.022S292.149,17.139,630.184,17.139c338.011,0,613.009,275.011,613.009,613.034s-275,613.022-613.009,613.022" transform="translate(11.364 11.376)" fill="#f8f8f8"/>
  <path id="패스_70" data-name="패스 70" d="M498.8,12.648c-268.082,0-486.15,218.092-486.15,486.162S230.716,984.96,498.8,984.96,984.959,766.88,984.959,498.81,766.88,12.648,498.8,12.648m483.631,506.63c-2.371-75.421-46-141.222-110.656-171.2l-42.582,45.284a138.577,138.577,0,0,1-41.009,270.945H565.459v55.665H788.44c92.731,0,170.191-65.051,189.492-152.008-31.426,218.682-209.468,390.63-431.025,412.584V388.2H808.736l21.045-23.244H503.417V982.834c-1.548.012-3.071.123-4.619.123s-3.071-.111-4.619-.123V364.959H132.628L111.583,388.2l339.018.172V980.549c-221.52-22-399.524-193.939-430.939-412.6l146.271-161.2H95.145L14.737,495.37c1.745-248.437,191.506-453,433.826-478.1l-269.851,297.4H249.5L450.6,93.032v221.63h96.306V17.058C791.364,41.3,982.945,248.087,982.945,498.81c0,6.868-.233,13.674-.516,20.468" transform="translate(142.738 142.739)" fill="#f8f8f8"/>
  <path id="패스_71" data-name="패스 71" d="M514.157,11.288c-277.284,0-502.87,225.6-502.87,502.87s225.586,502.87,502.87,502.87,502.858-225.586,502.858-502.87S791.429,11.288,514.157,11.288m0,997.656c-272.824,0-494.786-221.962-494.786-494.786S241.333,19.36,514.157,19.36s494.786,221.962,494.786,494.8-221.962,494.786-494.786,494.786" transform="translate(127.379 127.391)" fill="#f8f8f8"/>
  <path id="패스_72" data-name="패스 72" d="M1095.191,187.894C974.007,66.723,812.919,0,641.549,0S309.079,66.723,187.907,187.894,0,470.166,0,641.537s66.723,332.47,187.907,453.642,282.272,187.907,453.642,187.907,332.458-66.735,453.642-187.907,187.895-282.284,187.895-453.642-66.723-332.47-187.895-453.642m-1.425,905.859c-120.8,120.791-281.4,187.317-452.217,187.317s-331.426-66.526-452.229-187.317C68.541,972.962,2.015,812.354,2.015,641.537S68.541,310.111,189.32,189.32C310.123,68.529,470.719,2,641.549,2S972.962,68.529,1093.766,189.32c120.779,120.791,187.3,281.387,187.3,452.217s-66.526,331.426-187.3,452.217" transform="translate(0)" fill="#f8f8f8"/>
  <path id="패스_73" data-name="패스 73" d="M94.837,81.744c.946,1.45,1.965,3.133,3.084,5.013,1.142,1.9,2.309,3.919,3.526,6.081l2.653-1.683-.811-1.315a10.433,10.433,0,0,1-1.708-3.821,3.574,3.574,0,0,1,.885-2.838q.885-1.161,5.553-4.361,4.7-3.17,18.133-11.72,3.557-2.267,13.981-8.735c2.617-1.634,4.681-2.912,6.13-3.8l4.521,7.163c2.445,4.1,3.538,7.113,3.256,8.993-.221,1.941-1.671,3.931-4.349,6.057l1.99,2.1c1.6-1.413,3.231-2.74,4.853-3.944,1.585-1.2,3.182-2.334,4.767-3.329.3-.184.713-.43,1.266-.725.565-.332.971-.59,1.228-.749a14.405,14.405,0,0,1-4-3.981Q157.394,63,150.134,51.5l-5.885-9.239c-3.661-5.811-6.106-9.9-7.384-12.347a14.321,14.321,0,0,1-1.9-5.27,63.5,63.5,0,0,1-6.511,3.6c-2.261,1.081-4.656,2.088-7.15,3.022l1.02,2.777c3.612-1.4,6.3-1.757,8.133-1.093s3.919,2.875,6.29,6.585l4.84,7.654-12.089,7.654c-10.357,6.573-17.986,11.352-22.974,14.386-4.939,3-7.912,4.656-8.833,4.914a4.45,4.45,0,0,1-3.44-.025,9.727,9.727,0,0,1-3.1-3.428l-.823-1.327-2.666,1.7c1.5,2.125,2.85,4.116,4.091,5.958,1.253,1.88,2.3,3.428,3.084,4.73" transform="translate(989.309 278.086)" fill="#f8f8f8"/>
  <path id="패스_74" data-name="패스 74" d="M100.64,36.6a9.7,9.7,0,0,1-4.988-1.241,9.832,9.832,0,0,1-3.3-4.03l-2.752,1.3c.971,1.855,1.916,3.563,2.7,5.16.836,1.609,1.511,2.924,2.04,4.03.651,1.339,1.314,2.887,2.088,4.632.737,1.745,1.548,3.637,2.383,5.639l2.8-1.315-.541-1.093a7.315,7.315,0,0,1-.983-4.153,3.554,3.554,0,0,1,2.285-2.371,20.554,20.554,0,0,1,5.258-1.192c2.555-.356,6.708-.713,12.457-1.093.884,1.732,1.732,3.4,2.518,5.037s1.622,3.354,2.47,5.2c.479.934,1.388,3.022,2.85,6.3.811,1.781,1.474,3.207,1.953,4.239l-10.565,9.877a20.5,20.5,0,0,1-1.6,1.425,11.583,11.583,0,0,1-1.388.823,2.951,2.951,0,0,1-2.961.123,8.835,8.835,0,0,1-2.506-3.624l-.393-.762-2.8,1.315c1.069,1.978,2.088,3.858,2.973,5.651.922,1.794,1.732,3.428,2.445,4.951.565,1.192,1.216,2.678,2.015,4.435.762,1.769,1.573,3.735,2.494,5.885l2.8-1.315-.369-.811a5.969,5.969,0,0,1-.737-3.784q.35-1.6,3.44-5.049,5.418-5.915,16.487-16.93t24.657-23.932l-3.28-6.966c-13.441,1.118-25.8,2-37.152,2.666-11.3.639-18.932.971-22.8.971m53.221,1.794-20.345,19.8c-.172-.405-.467-1-.86-1.757-1.781-3.5-2.948-5.921-3.612-7.3-.565-1.118-1.462-3.182-2.85-6.29-.43-1.007-.762-1.745-1.02-2.261Z" transform="translate(1011.125 353.518)" fill="#f8f8f8"/>
  <path id="패스_75" data-name="패스 75" d="M114.426,55.648c-2.138.725-3.563,1.2-4.374,1.474-5.369,1.745-8.932,2.432-10.738,2.138-1.831-.307-3.108-1.609-3.846-3.882a5.819,5.819,0,0,1-.27-1.02c-.061-.209-.11-.43-.16-.663l-2.8.885c.922,2.408,1.732,4.558,2.371,6.475.688,1.9,1.192,3.354,1.523,4.349.639,2.039,1.3,4.14,1.941,6.253s1.191,4.251,1.745,6.364l2.8-.97a.473.473,0,0,0,.025-.2,1.1,1.1,0,0,0-.074-.332,3.336,3.336,0,0,0-.2-.479c-.111-.2-.16-.332-.209-.43-.86-2.7-.86-4.681-.049-5.934.811-1.278,3.44-2.629,7.814-4.042l12.851-4.152c.405,1.781.762,3.329,1.069,4.619.356,1.29.6,2.3.86,3.047,2.421,7.47,5.983,12.691,10.639,15.689s9.976,3.514,16,1.573a15.985,15.985,0,0,0,10.443-9.558c1.9-4.73,1.806-10.234-.209-16.45-.258-.86-.946-2.715-2.015-5.6-1.057-2.862-1.953-5.356-2.642-7.47-.614-1.867-1.192-3.759-1.757-5.713s-1.093-3.895-1.573-5.885l-2.985.983.111.344c.761,2.31.811,4.079.2,5.246-.6,1.192-2.187,2.174-4.607,2.973l-26.733,8.649c-1.278.43-3.01,1-5.147,1.72m27.1-.209c3.895-1.229,7.814-2.433,11.683-3.6.553,1.057,1.069,2.138,1.548,3.256.455,1.118.921,2.347,1.327,3.6q2.248,7-.086,12.285a13.115,13.115,0,0,1-8.489,7.3c-4.632,1.5-8.526,1.216-11.806-.762-3.256-2.015-5.811-5.7-7.506-11.032-.332-.958-.59-1.929-.848-2.912-.2-1.008-.455-2.113-.626-3.379q8.919-2.856,14.8-4.754" transform="translate(1040.952 403.265)" fill="#f8f8f8"/>
  <path id="패스_76" data-name="패스 76" d="M121.354,56.169c-1.351.123-3.083.307-5.221.5-2.138.233-3.612.381-4.374.442-5.725.5-9.46.405-11.168-.295-1.732-.7-2.678-2.261-2.9-4.595-.024-.356-.024-.639-.049-.848,0-.2-.024-.405-.024-.577l-3.084.27c.307,2.371.614,4.546.835,6.548.233,1.978.418,3.673.54,5.037.148,1.72.307,3.612.405,5.664.123,2.052.258,4.19.307,6.425l3.132-.282c0-.148-.061-.418-.11-.737a3.879,3.879,0,0,1-.123-.712c-.209-2.592.283-4.386,1.5-5.357,1.253-.983,4.754-1.745,10.615-2.248l15.369-1.351c-3.366,3.944-7.691,9.03-12.9,15.283-8.661,10.344-13.7,15.578-15.271,15.713a1.43,1.43,0,0,1-.234,0L98.43,95c.258,1.621.454,3.17.664,4.595.172,1.45.331,2.74.405,3.87.123,1.118.2,3.256.307,6.364.049.811.074,1.45.1,1.929l3.108-.319a1.094,1.094,0,0,1-.11-.405c-.049-.184-.049-.418-.1-.75-.233-2.666,2.346-7.162,7.74-13.428.885-1.069,1.573-1.892,2.089-2.469l18.674-22.237,23.207,20.3.455.405c3.255,2.863,4.988,6.008,5.3,9.4l.049.405,3.047-.27c-.32-1.966-.578-3.821-.787-5.467-.2-1.671-.356-3.145-.479-4.435-.16-1.757-.283-3.612-.381-5.492s-.184-3.784-.233-5.713l-3.047.283.1,1.118a6.058,6.058,0,0,1-.233,2.826,1.435,1.435,0,0,1-1.351,1c-.6.061-2.641-1.278-6.155-3.993-1.548-1.216-2.74-2.187-3.686-2.875l-20.1-15.578,17.273-1.511c5.6-.491,9.054-.356,10.479.442,1.4.774,2.249,2.531,2.494,5.209l.074.59,3.034-.283c-.282-1.953-.565-3.894-.786-5.786s-.43-3.772-.59-5.639c-.122-1.573-.282-3.329-.356-5.258-.123-1.953-.221-3.968-.283-6.106l-3.121.27c0,.16.049.344.074.627.073.27.1.442.123.553.209,2.334-.454,4.005-1.88,4.988-1.449.958-4.73,1.7-9.9,2.162-.811.074-2.383.172-4.705.369-2.31.16-4.226.319-5.676.442Z" transform="translate(1066.875 515.905)" fill="#f8f8f8"/>
  <path id="패스_77" data-name="패스 77" d="M160.028,74.376a33.114,33.114,0,0,0-6.057-10.664,32.061,32.061,0,0,0-10.627-8.305A33.518,33.518,0,0,0,130.113,52a35.437,35.437,0,0,0-12.58,1.548,34.225,34.225,0,0,0-11.007,5.86,30.639,30.639,0,0,0-8.4,10.222,32.845,32.845,0,0,0-1.806,24.6,30.711,30.711,0,0,0,5.5,10.332,32.206,32.206,0,0,0,10.959,8.919,34.74,34.74,0,0,0,13.944,3.673,35.419,35.419,0,0,0,13.92-2,33.834,33.834,0,0,0,11.856-7.359,28.057,28.057,0,0,0,6.548-9.362,35.167,35.167,0,0,0,2.617-12.064,33.131,33.131,0,0,0-1.634-11.991m-12.617,27.237c-5.823,4.177-13.047,6.032-21.782,5.541-8.194-.43-14.657-2.764-19.337-7.027a19.3,19.3,0,0,1-6.536-16.143c.405-6.745,3.538-12.212,9.46-16.414,5.983-4.2,13.416-6.032,22.3-5.565,7.986.43,14.3,2.764,18.846,6.978A19.39,19.39,0,0,1,156.674,85.1q-.534,10.228-9.264,16.512" transform="translate(1068.989 586.277)" fill="#f8f8f8"/>
  <path id="패스_78" data-name="패스 78" d="M165.27,71.7c-.492,2.383-1.3,3.968-2.445,4.717-1.2.737-3.034.872-5.553.356-2.85-.578-5.467-1.106-7.887-1.622-2.469-.5-4.964-1.032-7.506-1.585L129.9,70.973c-1.56-.332-3.7-.823-6.462-1.388q-16.42-3.409-15.246-9.263a7.15,7.15,0,0,1,.185-.835,4.131,4.131,0,0,1,.2-.59l-2.875-.59c-.381,2.518-.737,4.779-1.069,6.745-.332,1.99-.614,3.514-.86,4.607-.406,2.015-.823,4.042-1.327,6.081-.455,2.039-.971,4.1-1.475,6.155l2.9.589a.2.2,0,0,1,.073-.16.56.56,0,0,0,.1-.27.948.948,0,0,0,.037-.356v-.356c.553-2.7,1.5-4.411,2.813-5.062,1.351-.688,4.251-.565,8.637.295L129.052,79.3l-.553,2.641c-.307,1.536-.565,2.948-.762,4.2-.184,1.278-.332,2.469-.467,3.612-4.877,2.125-10.025,4.189-15.443,6.155-5.467,1.978-8.391,3.059-8.821,3.28a15.092,15.092,0,0,0-5.958,4.361,19.039,19.039,0,0,0-2.727,7.126c-.172.872-.356,2.285-.577,4.226-.074.848-.16,1.474-.209,1.88l2.518.516.1-.442c.712-3.637,6.007-7.433,15.836-11.376,1.02-.393,1.756-.713,2.285-.9L128.4,98.874a23.561,23.561,0,0,0,5.344,10.074,16.582,16.582,0,0,0,8.895,4.791,15.2,15.2,0,0,0,13.109-3.366c3.919-3.206,6.512-7.813,7.715-13.821.2-.971.5-2.924.959-5.86.491-2.936.9-5.406,1.3-7.371.356-1.806.762-3.685,1.216-5.59.43-1.9.946-3.821,1.487-5.75l-3.108-.639Zm-5.246,17.63c-.123,1.143-.307,2.347-.54,3.538-.885,4.447-2.838,7.777-5.824,9.9a13.153,13.153,0,0,1-10.615,1.978,15.993,15.993,0,0,1-7.654-3.6,17.971,17.971,0,0,1-4.656-7.4c.16-1.241.282-2.408.43-3.452.184-1.081.356-2.039.541-2.85.2-.971.454-2.064.737-3.317.332-1.216.712-2.543,1.094-3.894,6.536,1.29,11.708,2.371,15.566,3.157,3.8.8,7.543,1.61,11.155,2.445a28.1,28.1,0,0,1-.233,3.489" transform="translate(1055.589 658.024)" fill="#f8f8f8"/>
  <path id="패스_79" data-name="패스 79" d="M164.577,84.868c-.786,2.31-1.782,3.759-3.035,4.374-1.241.59-3.1.455-5.516-.38-2.777-.909-5.3-1.794-7.629-2.6-2.371-.8-4.792-1.671-7.261-2.531L129.563,79.6c-1.474-.516-3.538-1.253-6.179-2.174-10.59-3.661-15.222-7.359-13.969-11.131a4.046,4.046,0,0,1,.332-.811,2.766,2.766,0,0,1,.221-.578l-2.74-.921-.515,1.548c-2.826,9.46-4.988,16.34-6.413,20.554-1.068,3.084-2.26,6.524-3.661,10.307-1.376,3.8-2.924,7.887-4.583,12.286,2.064,1.241,4.152,2.58,6.155,4.005,2.064,1.413,4.128,2.936,6.167,4.595l2.089-2.715c-3.464-2.641-5.5-5.357-6.081-8.072-.639-2.7.246-7.617,2.69-14.743.713-2.15,1.425-4.1,2.114-5.872.712-1.794,1.376-3.354,2.039-4.693,2.74.835,5.136,1.573,7.175,2.236,2,.663,3.993,1.314,5.848,1.929,1.069.381,2.826.995,5.27,1.867,2.47.836,4.349,1.5,5.774,1.978l-1.068,3.059-2.543,7.58q-2.635,7.7-4.632,9.386c-1.327,1.118-3.182,1.278-5.6.454l-.331-.123-.86,2.8c.454.123,1.167.307,2.064.529,2.494.688,4.067,1.142,4.8,1.425,1.278.43,2.679.934,4.1,1.548,1.474.614,3.047,1.315,4.754,2.1l1.167-2.58c-2.027-.811-3.207-2-3.538-3.6-.307-1.561.258-4.4,1.634-8.526.282-.848.86-2.519,1.757-5.013s1.622-4.558,2.211-6.241l.43-1.327q2.175.811,9.546,3.489c4.89,1.781,9.03,3.28,12.384,4.472-.123.418-.319,1.044-.577,1.892q-2.027,6.394-2.826,8.747c-2.113,6.2-4.091,10.05-5.934,11.5-1.806,1.474-4.472,1.732-7.961.823l-.712,2.924c2.321.565,4.582,1.142,6.867,1.757s4.46,1.265,6.6,1.965c.983-3.366,1.953-6.683,2.948-9.927,1.02-3.243,2.064-6.45,3.133-9.595.934-2.826,2.138-6.167,3.538-10.05s3.047-8.293,4.9-13.182l-2.85-.97Z" transform="translate(1038.898 722.08)" fill="#f8f8f8"/>
  <path id="패스_80" data-name="패스 80" d="M122.173,79.835a9.441,9.441,0,0,1-2.113-4.693,10.2,10.2,0,0,1,1.094-5.074L118.4,68.692c-.811,1.941-1.609,3.722-2.322,5.344-.762,1.646-1.388,3.01-1.929,4.079-.688,1.314-1.45,2.85-2.334,4.509-.921,1.671-1.892,3.465-2.961,5.381l2.752,1.364.565-1.081c.884-1.782,1.744-2.912,2.617-3.342a3.545,3.545,0,0,1,3.28.331,20.586,20.586,0,0,1,4.2,3.367q2.82,2.672,8.551,9.128c-.761,1.769-1.585,3.452-2.371,5.086s-1.646,3.342-2.543,5.172c-.455.922-1.523,2.949-3.206,6.131-.9,1.757-1.61,3.145-2.113,4.177l-14.275-2.187q-1.253-.184-2.138-.405a7.889,7.889,0,0,1-1.523-.565,3.026,3.026,0,0,1-1.9-2.236c-.111-.934.319-2.347,1.265-4.251l.38-.737-2.776-1.4c-.885,2.064-1.744,4.018-2.592,5.823q-1.253,2.746-2.359,4.988c-.59,1.18-1.351,2.629-2.248,4.325s-1.929,3.563-3.1,5.6l2.764,1.4.418-.811a6.09,6.09,0,0,1,2.543-2.9c.983-.492,3-.627,6.057-.455,5.344.405,13.17,1.253,23.5,2.469q15.535,1.88,34.08,4.57l3.428-6.892c-9.165-9.853-17.556-19.006-25.062-27.508-7.555-8.5-12.494-14.276-14.877-17.335m3.378,39.2c.2-.405.479-1.007.835-1.794,1.658-3.538,2.826-6.008,3.464-7.335.59-1.093,1.622-3.12,3.207-6.13.528-.958.885-1.683,1.142-2.2l19.46,21.131Z" transform="translate(1008.032 775.224)" fill="#f8f8f8"/>
  <path id="패스_81" data-name="패스 81" d="M149.161,98.365l-2.371,1.855c2.494,3,3.673,5.467,3.6,7.408s-1.536,4.607-4.337,7.986l-5.8,6.966-11-9.153q-14.153-11.758-20.726-17.446c-4.411-3.784-6.9-6.093-7.433-6.88a4.286,4.286,0,0,1-1.019-3.3,9.2,9.2,0,0,1,2.285-3.981l1.02-1.216-2.42-2.015c-1.572,2.088-3.047,4.005-4.447,5.762C95.166,86.079,94,87.553,93,88.72c-1.094,1.339-2.4,2.826-3.846,4.484s-3,3.391-4.705,5.234l2.42,2,1-1.216a10.1,10.1,0,0,1,3.157-2.764,3.759,3.759,0,0,1,2.948-.061,32.683,32.683,0,0,1,5.848,3.98q4.515,3.464,16.745,13.662c2.162,1.781,6.34,5.307,12.593,10.578,2.4,2,4.2,3.563,5.5,4.693l-5.455,6.511c-3.1,3.563-5.639,5.516-7.531,5.884-1.88.344-4.275-.417-7.1-2.3l-1.4,2.519c1.867,1.093,3.587,2.236,5.246,3.378,1.634,1.155,3.182,2.347,4.632,3.538.283.221.639.54,1.118.97s.824.737,1.069.934a14.71,14.71,0,0,1,2.543-5.012q2.266-3.243,11-13.711l6.978-8.44c4.374-5.258,7.555-8.858,9.46-10.824,1.954-1.941,3.4-3.1,4.423-3.4a65.36,65.36,0,0,1-5.418-5.1c-1.708-1.831-3.4-3.8-5.062-5.9" transform="translate(953.095 886.871)" fill="#f8f8f8"/>
  <path id="패스_82" data-name="패스 82" d="M126.942,93.077a10.22,10.22,0,0,1-.356-5.124,10.284,10.284,0,0,1,2.8-4.41l-2.064-2.212c-1.449,1.523-2.813,2.924-4.066,4.2q-1.917,1.9-3.206,3.133c-1.094,1.019-2.335,2.162-3.8,3.428-1.425,1.253-2.973,2.592-4.619,4l2.1,2.261.9-.847c1.475-1.364,2.666-2.1,3.637-2.212a3.5,3.5,0,0,1,2.924,1.425,20.644,20.644,0,0,1,2.8,4.656c1.093,2.31,2.752,6.155,4.865,11.524q-2.064,2.064-4.054,3.944c-1.29,1.228-2.69,2.58-4.165,3.943q-1.106,1.069-5.123,4.669c-1.474,1.314-2.592,2.383-3.428,3.145l-12.654-7a14.237,14.237,0,0,1-1.855-1.13,11.656,11.656,0,0,1-1.216-1.031,2.989,2.989,0,0,1-1.02-2.789,9.024,9.024,0,0,1,2.678-3.514l.627-.59-2.137-2.26c-1.523,1.646-3.022,3.157-4.448,4.57s-2.752,2.678-3.968,3.821c-.97.921-2.162,2-3.612,3.292-1.4,1.265-3.059,2.666-4.816,4.165l2.113,2.273.639-.614a6.167,6.167,0,0,1,3.4-1.831c1.069-.135,3.059.455,5.86,1.708q7.242,3.353,21.143,10.479,13.932,7.169,30.358,16.143l5.614-5.283c-5.16-12.408-9.792-23.945-13.907-34.51s-6.745-17.728-7.949-21.425M116.462,131c.332-.307.835-.762,1.425-1.4,2.776-2.74,4.73-4.62,5.8-5.652.946-.835,2.592-2.383,5.147-4.632.811-.737,1.425-1.266,1.83-1.659l10.885,26.586Z" transform="translate(899.082 917.872)" fill="#f8f8f8"/>
  <path id="패스_83" data-name="패스 83" d="M131.942,135.821c-2.039,1.425-3.673,2.027-4.964,1.794-1.327-.233-2.727-1.376-4.226-3.452L106.265,111.4c-.811-1.106-1.941-2.555-3.256-4.361-1.351-1.794-2.236-3.035-2.752-3.7-3.3-4.558-5.061-7.764-5.344-9.571-.282-1.83.565-3.427,2.494-4.828.381-.282.713-.491.872-.6a4.834,4.834,0,0,1,.6-.356L97.149,85.6c-1.978,1.634-3.784,3.047-5.393,4.275s-2.85,2.15-3.686,2.776c-1.707,1.253-3.538,2.519-5.344,3.772s-3.661,2.457-5.491,3.661l1.781,2.359.2-.049.283-.172c.1-.1.233-.209.405-.356s.258-.258.332-.307c2.322-1.659,4.177-2.3,5.651-1.9,1.45.405,3.513,2.457,6.229,6.2l7.912,10.922c-1.548.934-2.924,1.745-4.042,2.469-1.118.7-2.015,1.278-2.641,1.744-6.339,4.583-10.209,9.6-11.634,14.939-1.4,5.369-.283,10.615,3.44,15.725a15.9,15.9,0,0,0,12.31,6.966c5.086.332,10.308-1.413,15.578-5.258.737-.541,2.31-1.732,4.705-3.661,2.42-1.9,4.509-3.5,6.278-4.816,1.609-1.143,3.231-2.285,4.914-3.44s3.391-2.236,5.123-3.3l-1.867-2.555Zm-15.959,9.4c-.921.787-1.929,1.6-3,2.384-4.005,2.887-7.887,4.116-11.708,3.722a13.312,13.312,0,0,1-9.62-5.86c-2.8-3.895-3.735-7.715-2.875-11.463.922-3.722,3.637-7.248,8.17-10.541.811-.565,1.622-1.143,2.519-1.659s1.9-1.093,3-1.671c3.673,5.05,6.72,9.264,9.091,12.6,2.408,3.354,4.73,6.7,7.04,10.013-.835.848-1.7,1.683-2.617,2.469" transform="translate(871.625 966.016)" fill="#f8f8f8"/>
  <path id="패스_84" data-name="패스 84" d="M145.655,146.915a1.833,1.833,0,0,1-.455.258c-2.162.921-3.943.86-5.32-.209-1.4-1.069-3.108-3.968-5.111-8.735-.332-.749-.946-2.211-1.83-4.361s-1.634-3.895-2.224-5.27l-4.681-10.971c-.5-1.228-1.216-2.838-2.089-4.8s-1.474-3.3-1.757-4.018c-2.261-5.3-3.329-8.858-3.206-10.725s1.3-3.256,3.464-4.165c.332-.16.59-.258.786-.332a2.741,2.741,0,0,0,.54-.209l-1.216-2.838c-2.15,1.044-4.128,1.978-5.934,2.838-1.831.848-3.367,1.535-4.632,2.076-1.6.675-3.329,1.388-5.271,2.125q-2.857,1.142-6.032,2.3l1.253,2.9a7.5,7.5,0,0,1,.688-.332,2.64,2.64,0,0,1,.639-.332c2.383-1.044,4.25-1.118,5.565-.246s3.133,3.993,5.418,9.386l6.045,14.177q-7.206-2.985-18.5-7.519C89.24,112.921,82.7,109.727,82.09,108.3a.658.658,0,0,1-.074-.246v-.2c-1.474.75-2.85,1.45-4.189,2.064-1.278.626-2.469,1.167-3.514,1.621-1.044.43-3.01,1.2-5.983,2.236-.762.307-1.351.516-1.782.688l1.253,2.863a1.912,1.912,0,0,1,.344-.209c.16-.086.418-.209.688-.319,2.494-1.069,7.531,0,15.173,3.169,1.29.516,2.285.909,3.022,1.2l26.942,10.873-12.1,28.331-.258.59c-1.732,3.956-4.152,6.609-7.3,7.961l-.332.148,1.167,2.8c1.806-.9,3.44-1.708,4.988-2.42,1.5-.712,2.85-1.327,4.017-1.83,1.659-.7,3.366-1.4,5.135-2.089,1.732-.688,3.514-1.351,5.344-1.978l-1.192-2.8-1.02.43a6.438,6.438,0,0,1-2.826.664,1.486,1.486,0,0,1-1.315-1c-.233-.553.405-2.912,1.88-7.1.688-1.818,1.216-3.28,1.572-4.386l8.588-23.9L127.1,141.4c2.212,5.135,3.157,8.514,2.85,10.1s-1.732,2.924-4.2,3.968l-.528.221,1.217,2.826c1.756-.885,3.513-1.72,5.246-2.543,1.757-.811,3.489-1.573,5.16-2.3,1.486-.627,3.084-1.3,4.914-1.99,1.806-.725,3.723-1.438,5.725-2.174l-1.241-2.875c-.16.062-.332.16-.59.283" transform="translate(751.039 1021.755)" fill="#f8f8f8"/>
  <path id="패스_85" data-name="패스 85" d="M120.14,107.029a33.983,33.983,0,0,0-9.018-8.661,30.192,30.192,0,0,0-12.31-4.816,32.784,32.784,0,0,0-13.465.86,33.348,33.348,0,0,0-18.625,13.514,32.807,32.807,0,0,0-5.037,13.195,33.879,33.879,0,0,0,.848,14.362,34.316,34.316,0,0,0,6.253,12.63,32.863,32.863,0,0,0,10.639,8.981,28.085,28.085,0,0,0,10.934,3.329,35.294,35.294,0,0,0,12.3-1.278,32.857,32.857,0,0,0,23.736-27.016,33.49,33.49,0,0,0-.885-13.625,36.33,36.33,0,0,0-5.369-11.474M115.656,143A19.407,19.407,0,0,1,102.3,154.033c-6.622,1.769-12.777.54-18.576-3.686q-8.661-6.34-12.04-18.944-3.207-11.942.688-20.615A19.086,19.086,0,0,1,85.679,99.6c6.536-1.757,12.7-.492,18.526,3.895,5.848,4.349,9.9,10.824,12.236,19.436,2.039,7.752,1.806,14.436-.786,20.075" transform="translate(691.576 1051.875)" fill="#f8f8f8"/>
  <path id="패스_86" data-name="패스 86" d="M119.692,155.107c-2.408.27-4.165,0-5.209-.885-1.093-.872-1.757-2.58-2.039-5.148q-.534-4.313-.921-8.023c-.27-2.457-.553-5.013-.835-7.629l-1.241-12.187c-.135-1.573-.331-3.772-.639-6.548-1.253-11.131.123-16.929,4.067-17.384.381-.037.663-.061.872-.061a4.748,4.748,0,0,1,.6-.025l-.356-2.9c-2.494.417-4.73.786-6.708,1.081-2.015.283-3.514.492-4.632.6-2.064.246-4.128.467-6.192.639-2.113.184-4.189.319-6.327.466l.332,2.949.147.012a1.281,1.281,0,0,0,.332.025l.307-.1a1.566,1.566,0,0,1,.381-.086c2.715-.307,4.607.049,5.7,1.118,1.044,1.069,1.855,3.833,2.334,8.305l1.585,13.686-2.678.307c-1.523.172-2.949.356-4.226.553-1.241.221-2.457.455-3.587.7q-5.289-5.971-10.6-12.8c-3.563-4.558-5.5-7.027-5.86-7.371a15.053,15.053,0,0,0-5.971-4.288,17.833,17.833,0,0,0-7.642-.405c-.884.1-2.26.356-4.189.762-.823.172-1.425.307-1.83.381l.295,2.543.418-.049c3.686-.43,8.956,3.4,15.689,11.548.737.836,1.253,1.45,1.609,1.892l9.767,11.647a23.778,23.778,0,0,0-7.887,8.207,16.688,16.688,0,0,0-1.831,9.951,15.236,15.236,0,0,0,7.248,11.413c4.251,2.74,9.472,3.772,15.554,3.059,1-.111,2.948-.405,5.872-.885,2.948-.479,5.418-.835,7.408-1.044,1.831-.234,3.735-.418,5.7-.59,1.929-.16,3.919-.295,5.922-.369l-.381-3.133Zm-18.342.479c-1.167.233-2.346.43-3.538.565-4.558.528-8.268-.3-11.241-2.494a13.094,13.094,0,0,1-5.172-9.472,15.968,15.968,0,0,1,1.044-8.366,17.96,17.96,0,0,1,5.6-6.708c1.265-.27,2.4-.491,3.452-.663,1.106-.16,2.039-.295,2.85-.393,1-.111,2.089-.221,3.391-.307,1.241-.086,2.617-.123,4.066-.148q1.106,9.878,1.781,15.75c.405,3.882.786,7.678,1.118,11.376-1.093.319-2.211.6-3.354.86" transform="translate(616.922 1064.426)" fill="#f8f8f8"/>
  <path id="패스_87" data-name="패스 87" d="M77.922,95.772c-3.28-.049-6.917-.147-10.971-.307-4.017-.147-8.391-.381-13.072-.627-.541,2.359-1.2,4.705-1.917,7.113-.737,2.371-1.573,4.816-2.482,7.273l3.194,1.13c1.487-4.116,3.416-6.868,5.811-8.281q3.63-2.119,14.853-1.929c2.3.025,4.374.111,6.29.234,1.88.123,3.588.283,5.086.479.024,2.875.024,5.381.049,7.506-.049,2.162-.025,4.2-.074,6.18,0,1.155-.049,3.01-.16,5.6-.049,2.568-.074,4.607-.123,6.057l-3.207-.025-8.01-.159c-5.418-.086-8.882-.578-10.381-1.5-1.45-.909-2.162-2.653-2.113-5.185l.024-.369-2.948.025c.025.491.074,1.2.123,2.125.1,2.568.123,4.25.123,5.025,0,1.351-.1,2.814-.221,4.386s-.307,3.305-.565,5.16l2.8.319c.209-2.2.971-3.673,2.371-4.46,1.425-.774,4.276-1.13,8.6-1.068.909.024,2.666.061,5.32.171,2.666.086,4.853.135,6.61.16l1.376.025c-.025,1.548-.16,4.939-.356,10.123-.209,5.221-.356,9.595-.492,13.207-.43-.024-1.081-.024-1.978,0-4.46.013-7.506.025-9.189,0q-9.841-.166-12.74-2.125c-1.99-1.314-3.034-3.747-3.207-7.335l-3.034.209c.16,2.371.307,4.717.442,7.089.123,2.347.172,4.632.147,6.867,3.489-.111,6.966-.184,10.332-.221,3.4-.037,6.77-.025,10.074.025,3,.049,6.56.147,10.688.319,4.14.147,8.821.369,14.042.614l.049-3-.381-.012c-2.445-.037-4.14-.578-5.086-1.561s-1.376-2.789-1.327-5.344c.049-2.912.074-5.6.16-8.1.049-2.482.123-5.037.2-7.654l.356-12.261c.049-1.584.1-3.772.209-6.6.258-11.18,2.334-16.745,6.327-16.671.393,0,.688.013.9.025l.59.1.049-2.936-1.634.037q-14.835.239-21.524.135" transform="translate(558.418 1070.294)" fill="#f8f8f8"/>
  <path id="패스_88" data-name="패스 88" d="M98.384,102.533c-1.5-.209-3.157-.491-5.037-.848-1.867-.332-3.87-.737-6.008-1.155l-.455,3.059,1.192.172c1.978.295,3.3.787,3.993,1.487a3.55,3.55,0,0,1,.712,3.206,19.345,19.345,0,0,1-1.929,5.037c-1.155,2.322-3.157,5.983-6.057,10.971-1.917-.234-3.772-.467-5.578-.713-1.781-.258-3.686-.541-5.725-.835-1.02-.16-3.256-.54-6.794-1.155q-2.93-.5-4.607-.737l-2.31-14.239a16.093,16.093,0,0,1-.283-2.2,10.732,10.732,0,0,1,.049-1.573,3.006,3.006,0,0,1,1.56-2.519c.86-.381,2.31-.405,4.447-.1l.835.135.442-3.084c-2.248-.184-4.337-.418-6.315-.676-2.039-.221-3.87-.467-5.492-.713-1.3-.2-2.912-.467-4.816-.811-1.88-.356-3.993-.761-6.253-1.216L43.468,97.1l.9.135A6.065,6.065,0,0,1,47.9,98.762c.762.774,1.523,2.654,2.285,5.663q1.88,7.759,4.853,23.085,3.022,15.35,6.143,33.846l7.654,1.143Q78.6,144.845,87.29,130.188q8.661-14.651,11.9-19.5a8.234,8.234,0,0,1,8.981-3.968l.455-3.022c-2.076-.2-4.017-.381-5.823-.59-1.781-.2-3.231-.405-4.423-.577M68.076,153.85l-5.111-27.888c.406.049,1.069.148,1.929.246,3.895.492,6.561.848,8.047,1.069,1.216.16,3.5.565,6.818,1.143,1.093.184,1.88.344,2.432.418Z" transform="translate(490.558 1061.198)" fill="#f8f8f8"/>
  <path id="패스_89" data-name="패스 89" d="M81.475,96.577c-1.609-.639-3.415-1.376-5.442-2.248s-4.177-1.818-6.438-2.838l-1.143,2.924,1.45.577a9.718,9.718,0,0,1,3.612,2.1,3.97,3.97,0,0,1,.983,2.813,36.3,36.3,0,0,1-1.978,6.794q-1.917,5.326-7.74,20.136-1.6,3.925-6.179,15.271c-1.167,2.887-2.064,5.123-2.727,6.683L47.96,145.67c-4.374-1.9-6.966-3.673-7.912-5.381-.909-1.683-.958-4.152-.024-7.433l-2.826-.528c-.479,2.089-1.044,4.091-1.6,6.032-.59,1.892-1.228,3.747-1.916,5.492-.123.307-.332.762-.6,1.351a13.6,13.6,0,0,0-.516,1.29,14.774,14.774,0,0,1,5.528.885c2.494.749,8.01,2.813,16.463,6.167l10.172,4.017c6.364,2.556,10.787,4.411,13.232,5.652,2.469,1.228,4.017,2.3,4.607,3.133a70.931,70.931,0,0,1,3.182-6.72,68.011,68.011,0,0,1,4.042-6.634L87.3,151.309q-3.133,4.9-5.946,5.688c-1.855.541-4.865-.012-8.932-1.646l-8.428-3.33,5.27-13.305q6.782-17.1,10.148-25.149c2.273-5.332,3.636-8.391,4.226-9.153a4.465,4.465,0,0,1,2.85-2.015,9.564,9.564,0,0,1,4.484.946l1.474.578L93.613,101c-2.494-.835-4.779-1.659-6.843-2.408-2.113-.786-3.87-1.425-5.3-2.015" transform="translate(367.524 1032.521)" fill="#f8f8f8"/>
  <path id="패스_90" data-name="패스 90" d="M86.909,121.234a9.842,9.842,0,0,1,5.037,1.29l1.474-2.678c-1.9-.909-3.637-1.757-5.246-2.555-1.622-.823-2.924-1.511-4.017-2.089-1.265-.713-2.752-1.573-4.374-2.531s-3.415-2.027-5.27-3.17l-1.474,2.715,1.069.565a7.322,7.322,0,0,1,3.231,2.789,3.605,3.605,0,0,1-.454,3.268,21.129,21.129,0,0,1-3.563,4.042q-2.8,2.672-9.448,8.194c-1.72-.872-3.4-1.745-5.012-2.592-1.573-.86-3.28-1.781-5.062-2.752-.885-.491-2.875-1.622-5.983-3.44-1.7-.983-3.047-1.732-4.066-2.285L46.5,105.84a16.946,16.946,0,0,1,.5-2.113,8.3,8.3,0,0,1,.59-1.5,3.021,3.021,0,0,1,2.334-1.843,9.24,9.24,0,0,1,4.177,1.45l.737.418,1.523-2.715q-3.078-1.456-5.75-2.826T45.74,94.144c-1.155-.651-2.543-1.45-4.2-2.42-1.683-.983-3.514-2.1-5.492-3.317l-1.511,2.715.8.442a6.04,6.04,0,0,1,2.813,2.642c.442,1.02.491,3.034.16,6.081q-.921,7.98-3.415,23.38-2.506,15.443-5.946,33.871l6.794,3.71c10.172-8.772,19.694-16.757,28.466-23.944S79,125.4,82.118,123.138a9.955,9.955,0,0,1,4.791-1.9M38,152.881l4.84-27.937c.405.209.958.5,1.745.9,3.489,1.806,5.885,3.071,7.212,3.784,1.044.59,3.047,1.732,5.946,3.44.97.541,1.658.958,2.187,1.229Z" transform="translate(326.67 997.717)" fill="#f8f8f8"/>
  <path id="패스_91" data-name="패스 91" d="M83.395,94.683c-1.732-1.278-3.477-2.58-5.209-3.944-1.781-1.351-3.489-2.715-5.2-4.079l-1.708,2.4a.459.459,0,0,0,.16.184c0,.061.1.135.233.221a1.575,1.575,0,0,0,.454.258c.172.123.307.185.405.258,2.285,1.659,3.489,3.256,3.514,4.767.1,1.5-1.253,4.14-3.944,7.851l-7.961,10.922c-1.351-1.228-2.6-2.273-3.6-3.108-1.044-.86-1.831-1.523-2.457-1.991q-9.509-6.91-17.814-6.462-8.33.5-13.87,8.133a16.016,16.016,0,0,0-2.875,13.883c1.278,4.951,4.558,9.337,9.841,13.207q1.069.774,4.914,3.33c2.568,1.708,4.73,3.182,6.548,4.509q2.359,1.713,4.779,3.587c1.573,1.229,3.157,2.518,4.705,3.833l1.855-2.543-.307-.209c-1.953-1.437-3.047-2.814-3.231-4.14s.491-3.022,1.99-5.111l16.536-22.691c.848-1.13,1.88-2.592,3.182-4.411,1.278-1.855,2.162-3.108,2.666-3.772,3.317-4.546,5.811-7.224,7.433-8.035,1.683-.811,3.464-.528,5.369.884a10.25,10.25,0,0,1,.848.627,2.669,2.669,0,0,1,.5.479l1.732-2.359c-2.138-1.425-4.042-2.715-5.7-3.845-1.683-1.13-2.948-2.015-3.8-2.629M52.509,129.377q-3.667,4.976-7.322,9.779a30.19,30.19,0,0,1-3.157-1.708,38.019,38.019,0,0,1-3.182-2.138c-3.968-2.875-6.364-6.229-7.175-9.988s.074-7.408,2.617-10.922c2.826-3.894,6.18-5.983,10-6.278s8.01,1.2,12.568,4.509c.762.578,1.548,1.216,2.347,1.868.762.676,1.6,1.474,2.518,2.346-3.7,5.049-6.745,9.239-9.214,12.531" transform="translate(259.714 978.001)" fill="#f8f8f8"/>
  <path id="패스_92" data-name="패스 92" d="M92.536,115.671c-1.106-1.315-2.359-2.752-3.661-4.349s-2.641-3.256-4.005-5.037l-2.359,2.076a3.99,3.99,0,0,0,.516.516c.233.246.418.406.516.528,1.683,1.953,2.334,3.7,1.917,5.221s-2.862,4.2-7.261,8.047l-11.634,10.1q.645-7.74,1.462-19.951c.9-13.4,1.953-20.64,3.108-21.635a.931.931,0,0,1,.2-.16l.184-.086c-1.143-1.142-2.248-2.26-3.231-3.317-1.02-1.057-1.88-2.027-2.617-2.863-.762-.872-2.089-2.518-3.968-4.988-.528-.639-.934-1.155-1.192-1.535L58.173,80.35l.283.258a3.527,3.527,0,0,1,.5.565c1.806,2.015,2.334,7.162,1.683,15.394-.135,1.4-.209,2.482-.258,3.231L58.321,128.78l-30.677-2.826-.651-.049c-4.263-.43-7.543-1.941-9.779-4.5l-.27-.307-2.322,2.015c1.4,1.413,2.7,2.764,3.833,3.98,1.155,1.216,2.15,2.31,3,3.293,1.143,1.339,2.371,2.764,3.55,4.214,1.192,1.474,2.383,2.961,3.526,4.484l2.322-1.99-.749-.835a6.594,6.594,0,0,1-1.511-2.445,1.626,1.626,0,0,1,.553-1.61c.455-.405,2.887-.528,7.322-.393,1.941.086,3.514.16,4.668.184l25.406.8L53.455,144.173c-4.239,3.661-7.126,5.59-8.747,5.8-1.6.184-3.292-.737-5.062-2.764l-.381-.43-2.285,2c1.376,1.425,2.7,2.789,4.005,4.214s2.58,2.8,3.772,4.214c1.032,1.2,2.187,2.556,3.415,4.054s2.494,3.108,3.8,4.791l2.383-2.089-.454-.418-.393-.381c-1.536-1.769-2.039-3.5-1.425-5.16.59-1.622,2.826-4.152,6.72-7.543.639-.553,1.843-1.573,3.6-3.059,1.794-1.487,3.231-2.752,4.349-3.723l8.993-7.838c1.032-.872,2.334-2.027,3.944-3.465,1.585-1.425,2.69-2.408,3.292-2.912q6.468-5.658,9.214-6.315c1.806-.455,3.489.209,5.037,2.015.233.246.418.479.553.651a5.6,5.6,0,0,0,.344.467l2.322-2.064c-1.622-1.72-3.157-3.3-4.521-4.779s-2.494-2.752-3.391-3.772" transform="translate(165.005 882.944)" fill="#f8f8f8"/>
  <path id="패스_93" data-name="패스 93" d="M62.952,134.506a34.666,34.666,0,0,0,9.226-8.649A33.963,33.963,0,0,0,77.67,114.64a30.583,30.583,0,0,0,.786-13.207A32.98,32.98,0,0,0,54.905,75.327a32.857,32.857,0,0,0-14.091-.713,34.906,34.906,0,0,0-28.822,27.937,28.4,28.4,0,0,0,.246,11.438,35.713,35.713,0,0,0,4.988,11.278A32.037,32.037,0,0,0,25.6,134a32.718,32.718,0,0,0,11.168,5.086,31.96,31.96,0,0,0,13.465.467,33.86,33.86,0,0,0,12.716-5.049M36.6,132.7a19.544,19.544,0,0,1-14.632-9.337q-5.547-8.569-2.175-18.76Q23.129,94.394,34.118,87.28c6.868-4.472,13.489-6.388,19.78-5.7a19.284,19.284,0,0,1,14.779,9.214q5.51,8.532,1.978,18.834c-2.31,6.892-7.248,12.752-14.73,17.618Q45.845,133.769,36.6,132.7" transform="translate(130.102 836.97)" fill="#f8f8f8"/>
  <path id="패스_94" data-name="패스 94" d="M59.4,123.46q15.3-6.929,17.8-1.487c.135.332.258.627.307.786a3.417,3.417,0,0,1,.221.59l2.629-1.228c-1.167-2.26-2.187-4.288-3.1-6.081-.885-1.794-1.536-3.194-2.015-4.189-.872-1.892-1.708-3.784-2.494-5.7-.86-1.953-1.659-3.894-2.408-5.885l-2.715,1.241.037.16a1.477,1.477,0,0,0,.061.283c.061.1.111.185.209.319a.7.7,0,0,1,.184.307c1.167,2.507,1.376,4.411.7,5.762s-3.071,2.924-7.15,4.8l-12.507,5.75-1.13-2.457c-.651-1.413-1.265-2.678-1.867-3.821s-1.192-2.211-1.757-3.194c2.7-4.595,5.639-9.288,8.858-14.092,3.243-4.779,4.988-7.4,5.234-7.826a15.352,15.352,0,0,0,2.211-7.027A18.455,18.455,0,0,0,58.736,73.1c-.369-.811-1.057-2.052-2-3.747-.467-.737-.762-1.29-.983-1.659l-2.322,1.069.2.406c1.548,3.391-.491,9.546-6.094,18.526-.59.909-1.032,1.609-1.315,2.076L38.17,102.709A23.759,23.759,0,0,0,27.887,97.7,16.682,16.682,0,0,0,17.9,99.085,15.068,15.068,0,0,0,9.275,109.5q-1.953,7.371,1.892,15.725c.405.885,1.3,2.666,2.666,5.3,1.376,2.654,2.482,4.914,3.3,6.72.774,1.7,1.56,3.44,2.334,5.234.725,1.806,1.487,3.649,2.187,5.529l2.85-1.3-.16-.332c-1.02-2.224-1.278-3.968-.774-5.27.479-1.278,1.9-2.433,4.226-3.514q3.981-1.824,7.371-3.367c2.26-1.007,4.57-2.076,6.978-3.145l11.217-4.939c1.474-.626,3.452-1.548,6.032-2.678m-28.846,3.931c-3.6,1.61-7.1,3.133-10.467,4.607-.663-.946-1.29-1.916-1.9-2.948-.59-1.007-1.106-2.089-1.622-3.182q-2.838-6.229-1.118-11.45a13.089,13.089,0,0,1,7.4-7.838,15.978,15.978,0,0,1,8.317-1.6,17.291,17.291,0,0,1,8.1,3.256c.627,1.081,1.192,2.1,1.708,3.047.491.983.909,1.83,1.265,2.592.405.9.848,1.941,1.315,3.108.455,1.192.971,2.469,1.413,3.821q-9.067,4.165-14.4,6.585" transform="translate(97.265 763.983)" fill="#f8f8f8"/>
  <path id="패스_95" data-name="패스 95" d="M53.521,108.639c1.536-.43,3.624-1.057,6.352-1.843q16.033-4.883,17.8.811a6.854,6.854,0,0,1,.258.835c.025.2.086.406.1.614l2.789-.86-.516-1.523C77.085,97.3,74.775,90.481,73.448,86.23q-1.419-4.662-3.084-10.5c-1.106-3.894-2.261-8.084-3.477-12.617-2.408.184-4.853.332-7.371.381-2.494.049-5.037.012-7.678-.111l-.074,3.4c4.361.11,7.568,1.106,9.681,2.936,2.089,1.843,4.226,6.364,6.438,13.526.688,2.187,1.278,4.189,1.745,6.032s.848,3.5,1.106,4.988c-2.691.921-5.1,1.72-7.126,2.371q-3.078,1-5.872,1.892-1.64.5-5.344,1.585c-2.494.75-4.423,1.34-5.848,1.769L45.6,98.8,43.25,91.157c-1.622-5.2-2.211-8.637-1.806-10.32.43-1.671,1.855-2.875,4.275-3.636l.356-.1-.934-2.776c-.467.184-1.143.417-2,.762-2.408.9-3.968,1.45-4.718,1.683-1.29.405-2.727.786-4.251,1.167-1.536.356-3.243.725-5.074,1.069l.577,2.776c2.125-.528,3.784-.258,4.951.836,1.192,1.081,2.445,3.71,3.686,7.863.283.848.8,2.555,1.523,5.1.749,2.543,1.4,4.656,1.9,6.339l.393,1.327c-1.5.43-4.705,1.364-9.718,2.789-5.037,1.413-9.263,2.629-12.728,3.637-.086-.406-.307-1.02-.6-1.88-1.4-4.226-2.347-7.126-2.838-8.735-1.929-6.265-2.617-10.529-1.99-12.789s2.654-4.054,5.983-5.332l-1.13-2.789c-2.211.885-4.4,1.769-6.585,2.592-2.2.848-4.386,1.622-6.511,2.285,1.229,3.317,2.371,6.56,3.452,9.779s2.125,6.413,3.108,9.595q1.308,4.275,3.035,10.222c1.13,3.968,2.383,8.5,3.735,13.539l2.9-.885-.111-.332c-.725-2.346-.762-4.128-.111-5.332.676-1.216,2.2-2.187,4.681-2.936,2.764-.872,5.356-1.659,7.715-2.371,2.383-.725,4.828-1.462,7.359-2.211Z" transform="translate(67.859 712.217)" fill="#f8f8f8"/>
  <path id="패스_96" data-name="패스 96" d="M64.921,114.48a10.1,10.1,0,0,1,4.447,2.555,9.649,9.649,0,0,1,2.1,4.779l3-.491c-.467-2.052-.885-3.968-1.216-5.75-.356-1.72-.651-3.231-.848-4.4-.233-1.45-.467-3.157-.774-5.037-.233-1.88-.467-3.895-.725-6.081l-3.059.5.221,1.216a7.5,7.5,0,0,1-.172,4.251,3.6,3.6,0,0,1-2.85,1.659,20.538,20.538,0,0,1-5.381-.27c-2.555-.356-6.659-1.155-12.31-2.359-.381-1.9-.713-3.747-1.02-5.528s-.651-3.674-1-5.676q-.258-1.511-1.007-6.843c-.307-1.966-.528-3.489-.737-4.607l12.851-6.622a15.2,15.2,0,0,1,1.966-.909,6.881,6.881,0,0,1,1.548-.467,3.072,3.072,0,0,1,2.875.7,9.43,9.43,0,0,1,1.462,4.189l.111.811,3.071-.479c-.5-2.2-.934-4.275-1.315-6.229-.393-1.978-.737-3.8-1.007-5.455-.209-1.278-.442-2.9-.713-4.8s-.528-4.017-.8-6.364l-3.071.541.172.86a6.168,6.168,0,0,1-.369,3.845c-.467.971-2.064,2.261-4.668,3.919q-6.8,4.2-20.455,11.794Q21.578,85.308,4.98,94.012l1.253,7.6q19.81,3.888,36.439,7.556c11.069,2.482,18.514,4.238,22.249,5.307M14.243,98.251,39.171,84.737c.086.43.221,1.081.369,1.941.749,3.833,1.216,6.511,1.5,7.985.184,1.192.528,3.489,1.007,6.819.123,1.069.246,1.9.356,2.445Z" transform="translate(56.202 640.734)" fill="#f8f8f8"/>
  <path id="패스_97" data-name="패스 97" d="M20.014,100.634c-3.723-1-6.13-2.285-7.224-3.894-1.069-1.622-1.487-4.632-1.192-9.005l.59-9.054,14.276.921c12.224.8,21.254,1.437,27.028,1.929,5.811.479,9.128.885,10.05,1.2a4.285,4.285,0,0,1,2.752,2.076,9.318,9.318,0,0,1,.516,4.582l-.123,1.548,3.133.221c.061-2.617.123-5.025.233-7.273.049-2.211.16-4.091.258-5.59.1-1.757.27-3.71.467-5.9s.442-4.533.725-7l-3.133-.2-.111,1.56a9.808,9.808,0,0,1-.9,4.091A3.658,3.658,0,0,1,65,72.623a31.314,31.314,0,0,1-7.064.234q-5.676-.166-21.561-1.192c-2.813-.2-8.293-.565-16.426-1.155-3.108-.234-5.516-.405-7.2-.565l.541-8.452c.491-4.754,1.364-7.8,2.678-9.214,1.3-1.388,3.673-2.15,7.052-2.31l-.332-2.838c-2.138.172-4.214.295-6.229.319-2.027.061-3.981,0-5.836-.123-.319-.024-.823-.061-1.45-.135s-1.118-.135-1.4-.147a14.95,14.95,0,0,1,.86,5.578c.061,2.617-.221,8.452-.786,17.531L7.114,81.088c-.43,6.818-.86,11.622-1.29,14.325-.418,2.727-.921,4.509-1.56,5.369a63.916,63.916,0,0,1,7.371.921c2.482.455,5,1.069,7.568,1.806Z" transform="translate(48.121 530.926)" fill="#f8f8f8"/>
  <path id="패스_98" data-name="패스 98" d="M55.728,96.932a9.975,9.975,0,0,1,3.317,3.919,10.138,10.138,0,0,1,.307,5.209l3.01.565c.258-2.088.541-4,.823-5.786s.528-3.243.749-4.423c.258-1.462.614-3.12,1.044-4.988.393-1.843.872-3.845,1.388-5.971l-3.059-.565L63.1,86.084a7.486,7.486,0,0,1-1.634,3.931,3.622,3.622,0,0,1-3.256.577,21.561,21.561,0,0,1-4.951-2.138c-2.273-1.216-5.811-3.379-10.7-6.475.307-1.916.627-3.747.921-5.553.319-1.781.676-3.649,1.044-5.664.209-1,.688-3.243,1.474-6.757.393-1.929.663-3.465.9-4.583L61.22,57.667c.872-.1,1.573-.16,2.175-.172a11.009,11.009,0,0,1,1.622.123,3.024,3.024,0,0,1,2.433,1.658,8.829,8.829,0,0,1-.1,4.4l-.135.835,3.035.59c.295-2.236.614-4.325.909-6.315.319-1.978.627-3.784.958-5.43.221-1.3.553-2.887.983-4.779.405-1.867.921-3.956,1.462-6.216l-3.035-.59-.16.885a6.2,6.2,0,0,1-1.659,3.489c-.848.713-2.74,1.4-5.774,2.039-5.2,1.044-12.974,2.359-23.269,3.968Q25.2,54.528,6.611,56.93l-1.45,7.58c11.524,7,22.016,13.563,31.574,19.718q14.282,9.251,18.993,12.7M41.907,60.088c-.074.43-.184,1.081-.319,1.941-.651,3.858-1.106,6.536-1.376,8.01-.233,1.192-.713,3.465-1.437,6.745-.221,1.069-.393,1.88-.491,2.432L13.847,64.105Z" transform="translate(58.244 471.395)" fill="#f8f8f8"/>
  <path id="패스_99" data-name="패스 99" d="M9.236,77.066c.774-2.347,1.745-3.8,2.936-4.386s3.022-.479,5.479.319l26.721,8.674c1.29.442,3.022.983,5.148,1.634,2.15.676,3.636,1.13,4.435,1.4,5.344,1.745,8.661,3.268,9.927,4.595,1.3,1.3,1.6,3.1.848,5.394-.16.43-.27.774-.344.971-.111.221-.184.43-.295.639l2.764.909c.688-2.494,1.339-4.681,1.867-6.646.577-1.929,1.007-3.391,1.351-4.4.676-2.039,1.364-4.116,2.113-6.2.725-2.089,1.487-4.152,2.31-6.18l-2.85-.872-.135.16c-.037.086-.061.2-.123.32-.025.135-.061.282-.1.516l-.1.455c-.909,2.7-2.027,4.324-3.428,4.865-1.45.528-4.325.074-8.723-1.352L46.2,73.688c.737-1.671,1.351-3.145,1.843-4.361.491-1.253.86-2.236,1.106-2.973q3.649-11.186.614-18.932T37.751,36.733a16.094,16.094,0,0,0-14.079,1.6c-4.3,2.727-7.482,7.187-9.5,13.44-.283.836-.823,2.752-1.646,5.713s-1.585,5.492-2.285,7.592C9.691,66.955,9,68.847,8.327,70.752s-1.388,3.784-2.162,5.676l2.973.971Zm7.347-17c.283-1.167.639-2.4,1.057-3.686,1.487-4.656,3.931-7.973,7.261-9.9a13.3,13.3,0,0,1,11.217-.885c4.533,1.5,7.568,4.005,9.067,7.556q2.193,5.307-.405,13.33A28.207,28.207,0,0,1,43.709,69.3c-.405.946-.86,1.978-1.425,3.133-5.946-1.954-10.86-3.563-14.779-4.865-3.882-1.315-7.764-2.629-11.573-3.968.184-1.143.393-2.359.651-3.538" transform="translate(69.576 404.144)" fill="#f8f8f8"/>
  <path id="패스_100" data-name="패스 100" d="M12.958,48.658a3.565,3.565,0,0,1,.258-.467c1.216-2.039,2.7-3.035,4.435-2.985s4.841,1.425,9.288,4.079c.7.43,2.039,1.241,4.017,2.469,1.953,1.2,3.587,2.211,4.89,2.973l10.222,6.13c1.167.688,2.678,1.585,4.533,2.666s3.121,1.806,3.784,2.211q7.39,4.423,8.882,6.806c.958,1.573.872,3.391-.381,5.418a4.07,4.07,0,0,1-.442.712c-.123.172-.209.344-.319.492l2.666,1.609c1.106-2.125,2.15-4.066,3.17-5.823.958-1.757,1.806-3.207,2.494-4.4.921-1.474,1.9-3.084,3-4.8,1.118-1.732,2.322-3.514,3.55-5.381l-2.715-1.622c-.086.16-.184.381-.356.688a3.923,3.923,0,0,1-.307.614c-1.339,2.248-2.789,3.4-4.374,3.477S64.372,62.11,59.36,59.1L31.251,42.257c-4.791-2.9-7.531-5.062-8.219-6.536s-.344-3.378,1.057-5.676l.283-.516-2.6-1.56c-.909,1.757-1.855,3.477-2.764,5.16-.946,1.671-1.88,3.3-2.863,4.89-.786,1.364-1.72,2.863-2.789,4.5-1.044,1.646-2.162,3.329-3.342,5.1l2.678,1.622c.049-.147.16-.319.27-.577" transform="translate(112.957 315.644)" fill="#f8f8f8"/>
  <path id="패스_101" data-name="패스 101" d="M14.674,44.367a6.014,6.014,0,0,1,1.867-2.15,1.545,1.545,0,0,1,1.7-.012c.491.307,1.4,2.592,2.617,6.855.516,1.867.946,3.378,1.29,4.5l7.138,24.4Q36.818,76.168,48.7,73.2c13.047-3.329,20.185-4.595,21.561-3.8l.184.148a.568.568,0,0,0,.123.172c.749-1.474,1.474-2.85,2.187-4.128.663-1.278,1.3-2.4,1.9-3.366.577-1,1.769-2.752,3.489-5.344.442-.663.823-1.216,1.106-1.6L76.507,53.7a1.014,1.014,0,0,1-.147.381,3.724,3.724,0,0,1-.381.676c-1.351,2.31-6.081,4.4-14.116,6.327-1.376.332-2.408.59-3.157.774L30.534,68.877,23.691,38.851l-.16-.639c-.921-4.2-.491-7.765,1.265-10.688l.2-.356-2.6-1.573c-.946,1.781-1.794,3.4-2.641,4.877-.786,1.45-1.536,2.752-2.175,3.845-.934,1.548-1.917,3.12-2.924,4.705-1.032,1.585-2.089,3.157-3.145,4.742l2.6,1.573Z" transform="translate(129.829 288.852)" fill="#f8f8f8"/>
  <path id="패스_102" data-name="패스 102" d="M26.9,79.534a35.4,35.4,0,0,0,11.069,6.155,33.949,33.949,0,0,0,12.359,1.745,30.388,30.388,0,0,0,12.8-3.329,32.258,32.258,0,0,0,10.418-8.575,31.833,31.833,0,0,0,5.5-10.258,31.732,31.732,0,0,0,1.671-11.61,32.777,32.777,0,0,0-3.637-13.637A35.592,35.592,0,0,0,55.541,22.3a33.709,33.709,0,0,0-13.932-1.044,28.526,28.526,0,0,0-10.787,3.71,36.224,36.224,0,0,0-9.2,8.219,32.264,32.264,0,0,0-5.737,10.664,32.753,32.753,0,0,0-1.376,12.175,32.1,32.1,0,0,0,3.686,12.986A33.728,33.728,0,0,0,26.9,79.534m-2-42.41c4.3-5.307,10.025-7.912,17.187-7.863q10.744.037,20.861,8.293,9.583,7.8,11.536,17.1a19.338,19.338,0,0,1-4.251,16.88q-6.395,7.869-17.286,7.7c-7.273-.123-14.4-3-21.291-8.612-6.241-5.074-9.927-10.639-11.131-16.745A19.346,19.346,0,0,1,24.9,37.124" transform="translate(162.687 236.474)" fill="#f8f8f8"/>
  <path id="패스_103" data-name="패스 103" d="M20.565,42.258c1.781-1.646,3.4-2.445,4.767-2.346,1.364.061,2.936,1.057,4.656,2.949q2.93,3.188,5.455,5.971c1.683,1.83,3.366,3.722,5.123,5.676l8.158,9.165c1.032,1.179,2.518,2.838,4.41,4.926,7.506,8.268,9.779,13.76,6.892,16.45-.307.258-.553.442-.676.565-.147.123-.307.233-.5.368l2,2.15c1.781-1.806,3.379-3.428,4.828-4.8,1.425-1.4,2.543-2.482,3.366-3.231,1.524-1.4,3.071-2.789,4.681-4.153,1.573-1.364,3.182-2.715,4.8-4.066l-2-2.187-.16.062a.769.769,0,0,0-.221.172c-.061.061-.11.147-.233.27a1.357,1.357,0,0,1-.233.283c-2,1.855-3.784,2.666-5.258,2.42-1.45-.233-3.747-2.027-6.769-5.32L54.313,57.431l2-1.818c1.143-1.044,2.162-2.039,3.059-2.949.9-.934,1.757-1.806,2.518-2.666q7.777,1.714,16.131,4.14c5.541,1.6,8.575,2.445,9.054,2.519a14.858,14.858,0,0,0,7.359-.025,18.259,18.259,0,0,0,6.413-4.14c.651-.6,1.622-1.634,2.949-3.084.553-.639.971-1.093,1.265-1.413l-1.72-1.88-.332.307q-4.091,3.778-19.5-.147c-1.044-.246-1.831-.455-2.383-.577L66.34,42.013a22.965,22.965,0,0,0,1.61-11.3A16.737,16.737,0,0,0,63.6,21.594a15.113,15.113,0,0,0-12.568-4.976q-7.611.369-14.411,6.61-1.05,1.014-4.226,4.177C30.307,29.518,28.5,31.238,27,32.59c-1.315,1.278-2.752,2.519-4.263,3.821-1.462,1.265-2.985,2.543-4.57,3.772l2.125,2.334ZM35.148,31.091c.762-.86,1.659-1.732,2.519-2.543q5.049-4.626,10.578-4.558a12.912,12.912,0,0,1,9.73,4.632,15.785,15.785,0,0,1,4.042,7.4,17.532,17.532,0,0,1-.59,8.71c-.811.958-1.634,1.794-2.383,2.543-.749.774-1.45,1.45-2.076,2.015-.725.676-1.6,1.4-2.555,2.211-.971.835-2.027,1.671-3.207,2.518-4.5-4.89-8.047-8.772-10.688-11.7-2.6-2.9-5.16-5.762-7.592-8.538a33.121,33.121,0,0,1,2.224-2.691" transform="translate(205.046 187.198)" fill="#f8f8f8"/>
  <path id="패스_104" data-name="패스 104" d="M25.087,40.326c1.99-1.413,3.661-2,5.037-1.745,1.327.283,2.777,1.45,4.226,3.551,1.683,2.383,3.231,4.582,4.632,6.634,1.425,2.015,2.85,4.14,4.349,6.3l6.917,10.148c.9,1.3,2.113,3.108,3.723,5.442,6.352,9.165,7.936,14.927,4.681,17.2-.332.221-.565.393-.713.491-.209.1-.381.209-.565.283l1.683,2.383,1.327-.958q11.868-8.938,17.3-12.789c2.7-1.867,5.7-3.931,9.054-6.167s7-4.656,10.946-7.224c-.921-2.211-1.831-4.509-2.629-6.843-.835-2.371-1.548-4.816-2.285-7.384l-3.231,1c1.229,4.177,1.278,7.556.147,10.1-1.118,2.568-4.73,6-10.885,10.32-1.855,1.29-3.587,2.469-5.185,3.5-1.609,1-3.084,1.88-4.386,2.592-1.72-2.31-3.256-4.324-4.5-6.057s-2.42-3.4-3.563-5.025c-.663-.934-1.708-2.457-3.182-4.595s-2.592-3.821-3.44-4.988l2.6-1.88,6.561-4.582c4.447-3.133,7.556-4.754,9.263-4.853,1.732-.135,3.329.848,4.779,2.924l.233.307,2.334-1.757c-.295-.369-.737-.921-1.339-1.659-1.585-2-2.629-3.342-3.059-3.968-.786-1.118-1.573-2.347-2.42-3.686-.786-1.364-1.671-2.875-2.592-4.509l-2.445,1.413c1.167,1.855,1.376,3.5.737,4.976-.688,1.45-2.764,3.452-6.352,5.934-.737.5-2.2,1.523-4.386,3s-4.017,2.752-5.442,3.735l-1.143.823c-.872-1.3-2.752-4.1-5.651-8.428-2.9-4.349-5.344-7.986-7.384-10.971a17.794,17.794,0,0,0,1.585-1.167c3.612-2.641,6.106-4.423,7.482-5.393,5.344-3.772,9.177-5.7,11.548-5.786,2.347-.1,4.632,1.253,6.917,4.054l2.3-1.941c-1.56-1.818-3.01-3.637-4.484-5.492Q61.943,14.84,60,12.106c-2.752,2.15-5.528,4.251-8.244,6.29s-5.455,3.993-8.17,5.885c-2.445,1.732-5.369,3.747-8.809,6.032s-7.322,4.89-11.708,7.764L24.8,40.522Z" transform="translate(260.379 136.622)" fill="#f8f8f8"/>
  <path id="패스_105" data-name="패스 105" d="M35.77,72.971a9.817,9.817,0,0,1-1.02,5.037,10.124,10.124,0,0,1-3.894,3.465l1.4,2.69c1.806-1.044,3.489-2.027,5.037-2.924,1.585-.885,2.875-1.6,3.944-2.162,1.327-.688,2.826-1.45,4.558-2.285,1.708-.8,3.563-1.683,5.553-2.592l-1.425-2.727-1.069.553a7.452,7.452,0,0,1-4.128,1.155,3.656,3.656,0,0,1-2.469-2.187,22.9,22.9,0,0,1-1.4-5.2c-.455-2.543-.958-6.7-1.548-12.421,1.683-.946,3.329-1.88,4.914-2.715s3.3-1.732,5.135-2.691c.9-.467,2.949-1.5,6.18-3.084C57.294,44,58.67,43.3,59.69,42.773L69.949,52.921c.6.614,1.118,1.143,1.5,1.609a7.949,7.949,0,0,1,.885,1.315,3.061,3.061,0,0,1,.233,2.961,9.159,9.159,0,0,1-3.514,2.678l-.762.381,1.425,2.752c1.929-1.167,3.8-2.2,5.528-3.194s3.379-1.855,4.853-2.641c1.167-.6,2.617-1.315,4.349-2.175,1.757-.835,3.7-1.732,5.8-2.715l-1.45-2.752-.786.405a6.009,6.009,0,0,1-3.735.872c-1.069-.184-2.826-1.253-5.2-3.219-4.067-3.452-9.89-8.735-17.556-15.811Q50.077,22.772,36.667,9.639L29.824,13.2c1.671,13.354,3,25.7,4.116,37Q35.58,67.16,35.77,72.971M56.1,39.284c-.405.209-.971.541-1.757.946-3.44,1.9-5.774,3.207-7.126,3.895-1.093.553-3.157,1.585-6.155,3.071-1,.455-1.757.835-2.211,1.106L35.524,19.738Z" transform="translate(336.579 108.781)" fill="#f8f8f8"/>
  <path id="패스_106" data-name="패스 106" d="M40.262,33.607l3-.111c-.221-3.87.283-6.573,1.462-8.1s3.944-2.838,8.182-3.907l8.784-2.261,3.538,13.883q4.57,17.8,6.56,26.291c1.327,5.651,1.99,8.956,1.941,9.914a4.221,4.221,0,0,1-1.106,3.268,9.149,9.149,0,0,1-4.165,1.88l-1.56.405.823,3.047c2.469-.749,4.779-1.462,6.941-2.052,2.113-.614,3.944-1.118,5.418-1.5,1.683-.405,3.563-.872,5.749-1.351,2.138-.491,4.435-1,6.855-1.5l-.749-3.035-1.548.393a10.23,10.23,0,0,1-4.14.405,3.657,3.657,0,0,1-2.42-1.708c-.565-.8-1.376-3.035-2.42-6.646q-1.6-5.418-5.516-20.836c-.713-2.752-2.039-8.059-4.03-16.008-.713-3.022-1.29-5.356-1.671-7.015l8.194-2.089c4.656-1.032,7.826-1.143,9.583-.319,1.732.811,3.182,2.826,4.386,6.02l2.592-1.241c-.811-1.966-1.585-3.907-2.261-5.811-.614-1.892-1.179-3.759-1.658-5.578l-.332-1.413a13.383,13.383,0,0,0-.307-1.4A14.447,14.447,0,0,1,85.374,7.8c-2.469.872-8.121,2.433-16.917,4.681l-10.615,2.7c-6.659,1.7-11.315,2.764-14.042,3.207-2.7.455-4.583.5-5.578.172a64.723,64.723,0,0,1,1.425,7.285,75.282,75.282,0,0,1,.614,7.764" transform="translate(431.355 59.136)" fill="#f8f8f8"/>
  <path id="패스_107" data-name="패스 107" d="M50.163,72.032c1.806-.283,3.28-.491,4.484-.651,1.474-.2,3.121-.369,5.037-.553s3.944-.344,6.131-.5l-.406-3.059-1.2.16c-1.978.233-3.4.123-4.251-.369a3.59,3.59,0,0,1-1.548-2.887,21.278,21.278,0,0,1,.5-5.369c.467-2.555,1.425-6.622,2.826-12.212,1.941-.295,3.8-.565,5.6-.811,1.781-.233,3.661-.5,5.7-.749,1-.123,3.3-.381,6.892-.737,1.941-.221,3.489-.393,4.631-.528l6.081,13.072a17.474,17.474,0,0,1,.835,2.015,8.42,8.42,0,0,1,.393,1.548,3,3,0,0,1-.823,2.85,8.942,8.942,0,0,1-4.214,1.29l-.848.1.381,3.084c2.187-.393,4.3-.749,6.29-1.081,1.978-.307,3.808-.565,5.442-.786q1.99-.24,4.865-.516c1.9-.172,4.042-.369,6.352-.528l-.381-3.084-.885.111a5.977,5.977,0,0,1-3.8-.5c-.971-.541-2.211-2.162-3.759-4.828Q96.59,49.519,89.55,35.581q-7.058-13.95-15.087-30.9l-7.629.983Q62.172,25.31,57.792,41.773c-2.9,10.971-4.926,18.293-6.18,21.991a9.821,9.821,0,0,1-2.69,4.349,9.938,9.938,0,0,1-4.865,1.892l.381,3.047c2.064-.381,3.968-.725,5.725-1.02m19.694-58.27L82.375,39.23c-.405.049-1.093.147-1.966.283-3.858.577-6.536.983-8.01,1.167q-1.824.24-6.892.737c-1.044.1-1.879.2-2.445.27Z" transform="translate(497.205 52.85)" fill="#f8f8f8"/>
  <path id="패스_108" data-name="패스 108" d="M61.906,68.14c2.113.012,4.325.049,6.536.111,2.187.074,4.41.172,6.6.295L75.014,65.6a.638.638,0,0,0-.233-.074.981.981,0,0,0-.332-.025,4.2,4.2,0,0,0-.5.025,2.041,2.041,0,0,1-.491.061c-2.826-.012-4.73-.6-5.676-1.781-.909-1.179-1.364-4.079-1.388-8.686L66.439,41.6c1.831.172,3.4.319,4.754.405,1.3.111,2.371.135,3.157.147q11.757.055,18.195-5.234c4.3-3.489,6.462-8.416,6.487-14.73A16,16,0,0,0,93.148,9.317C89.229,6.037,84.02,4.4,77.484,4.378c-.921,0-2.912.061-5.983.2s-5.7.184-7.887.184c-1.99,0-3.968-.049-6.008-.1-2.039-.086-4.042-.184-6.057-.332V7.486l.307-.025c2.494.012,4.177.479,5.086,1.462.946.946,1.376,2.7,1.376,5.3L58.269,42.3c0,1.364,0,3.17.025,5.418s.049,3.808.025,4.619c0,5.627-.43,9.263-1.3,10.885-.835,1.634-2.469,2.445-4.853,2.433-.491.012-.848-.012-1.044-.012l-.713-.074-.024,2.9c2.568-.1,4.877-.172,6.917-.258,2.015-.037,3.538-.049,4.607-.074m4.632-46.206c.025-4.128.1-8.194.209-12.236,1.167-.209,2.334-.356,3.563-.467,1.192-.1,2.481-.147,3.808-.147,4.939.012,8.809,1.3,11.659,3.895,2.9,2.58,4.3,6.032,4.3,10.381q0,7.205-4.41,10.959c-2.924,2.469-7.175,3.723-12.789,3.71-1.02-.012-1.99-.049-3.034-.135-1.02-.111-2.138-.233-3.379-.43-.025-6.241.025-11.438.074-15.529" transform="translate(568.586 48.855)" fill="#f8f8f8"/>
  <path id="패스_109" data-name="패스 109" d="M71.029,69.7c1.708.381,3.563.811,5.528,1.339s4.067,1.069,6.229,1.671l.688-3.047c-.184-.037-.43-.086-.762-.123-.307-.061-.565-.111-.713-.123-2.543-.577-4.1-1.6-4.632-3.071-.565-1.462-.184-5.062,1.118-10.774l3.391-15.05c2.691,4.423,6.253,10.074,10.6,16.966q10.8,17.028,10.308,19.288a.851.851,0,0,1-.049.221l-.135.184c1.634.27,3.157.516,4.607.774,1.425.27,2.678.528,3.8.774s3.157.8,6.155,1.659c.762.221,1.425.381,1.831.5l.688-3.059a2.356,2.356,0,0,1-.405-.012,5.478,5.478,0,0,1-.737-.16c-2.654-.577-6.13-4.41-10.455-11.462-.737-1.179-1.327-2.089-1.732-2.727l-15.443-24.6,26.377-15.861.54-.356c3.71-2.162,7.224-2.912,10.553-2.138l.381.074.688-2.985c-1.953-.319-3.784-.627-5.418-.934s-3.1-.614-4.374-.921c-1.732-.381-3.538-.811-5.344-1.29-1.83-.479-3.686-1-5.516-1.511l-.664,2.973,1.094.258a6.117,6.117,0,0,1,2.641,1.081,1.507,1.507,0,0,1,.516,1.609c-.135.577-2.039,2.125-5.676,4.644-1.634,1.069-2.936,1.929-3.87,2.617L81.877,40.511l3.809-16.929c1.216-5.43,2.469-8.71,3.637-9.828,1.2-1.106,3.084-1.376,5.725-.8l.565.147.664-2.973c-1.941-.319-3.845-.651-5.725-1.02S86.8,8.36,85,7.954C83.45,7.6,81.742,7.18,79.862,6.7c-1.916-.5-3.87-1.044-5.885-1.634L73.29,8.138a3.427,3.427,0,0,0,.59.086,3.66,3.66,0,0,1,.528.111q3.483.756,4.2,3.28c.516,1.659.209,5.025-.971,10.074-.172.811-.528,2.334-1.081,4.607-.516,2.261-.971,4.091-1.3,5.553L72.638,43.5c-.283,1.327-.663,3.01-1.093,5.111-.491,2.113-.774,3.551-.921,4.3-1.3,5.6-2.519,9.116-3.71,10.541-1.2,1.45-2.961,1.892-5.271,1.364-.331-.074-.614-.147-.823-.2l-.553-.16-.688,3.035c2.371.393,4.533.786,6.511,1.179s3.612.725,4.939,1.032" transform="translate(672.378 57.184)" fill="#f8f8f8"/>
  <path id="패스_110" data-name="패스 110" d="M75.159,64.685a32.423,32.423,0,0,0,11.4,7.2,32.916,32.916,0,0,0,23.011.049,32.857,32.857,0,0,0,11.856-7.7,35.968,35.968,0,0,0,10.148-26A33.59,33.59,0,0,0,128.22,24.7a28.224,28.224,0,0,0-6.88-9.116A35.172,35.172,0,0,0,110.664,9.4a32.872,32.872,0,0,0-35.112,7.875,33.68,33.68,0,0,0-7.285,11.548,35.21,35.21,0,0,0-2.42,12.433,34.158,34.158,0,0,0,2.2,12.285,30.528,30.528,0,0,0,7.113,11.143m3.059-34.117c2.85-7.482,7-12.752,12.4-15.787a19.484,19.484,0,0,1,17.323-1.044c6.364,2.433,10.614,7.064,12.826,13.883,2.187,6.818,1.757,14.3-1.4,22.409-2.924,7.678-7.175,13.109-12.642,16.266a19.257,19.257,0,0,1-17.359,1.241c-6.339-2.408-10.553-7.113-12.715-14.042Q73.4,43.044,78.218,30.568" transform="translate(743.105 81.943)" fill="#f8f8f8"/>
  <path id="패스_111" data-name="패스 111" d="M77.177,67.925c1.781.921,3.157,1.671,4.116,2.211,1.806,1.007,3.588,2.052,5.43,3.145,1.745,1.069,3.563,2.162,5.369,3.329l1.449-2.58a.353.353,0,0,1-.135-.135.859.859,0,0,0-.221-.172,2.2,2.2,0,0,0-.356-.135,1.738,1.738,0,0,1-.332-.147c-2.4-1.351-3.7-2.752-3.919-4.238s.737-4.189,2.949-8.1l6.72-12L100.6,50.43c1.376.762,2.6,1.437,3.772,1.99,1.167.59,2.26,1.093,3.3,1.548.516,5.32.872,10.848,1.044,16.622.258,5.774.381,8.907.43,9.386a14.68,14.68,0,0,0,2.346,7,18.045,18.045,0,0,0,5.9,4.8c.823.442,2.064,1.044,3.87,1.855.761.332,1.327.59,1.732.749l1.241-2.224-.405-.234c-3.231-1.806-5.184-7.986-5.922-18.551-.074-1.081-.135-1.9-.16-2.457L116.687,55.75a23.447,23.447,0,0,0,11.2-2,16.5,16.5,0,0,0,7.323-7,15.141,15.141,0,0,0,.835-13.477q-2.745-7.076-10.786-11.61c-.836-.479-2.592-1.4-5.259-2.727s-4.865-2.518-6.622-3.489c-1.6-.921-3.256-1.867-4.939-2.863q-2.506-1.566-5.037-3.207L101.883,12.1l.307.184q3.206,1.806,3.735,3.809.535,1.972-1.351,5.344c-1.425,2.543-2.739,4.865-4.017,7.027-1.216,2.175-2.494,4.374-3.784,6.659L90.6,45.713c-.811,1.364-1.9,3.268-3.305,5.713-5.565,9.73-10.049,13.6-13.538,11.659-.332-.209-.577-.344-.737-.442q-.221-.184-.479-.369L71.12,64.816C73.381,65.959,75.4,67,77.177,67.925m31.144-36.648c1.953-3.379,3.894-6.683,5.8-9.878,1.069.356,2.138.811,3.207,1.278,1.069.491,2.162,1.02,3.231,1.634q5.915,3.354,7.6,8.6a13.025,13.025,0,0,1-1.4,10.713,15.8,15.8,0,0,1-5.75,6.155,17.86,17.86,0,0,1-8.489,2.138c-1.118-.5-2.187-1-3.157-1.511-.971-.479-1.806-.934-2.543-1.315-.848-.5-1.83-1.093-2.875-1.757-1.118-.688-2.224-1.425-3.416-2.261,3.256-5.811,5.86-10.381,7.789-13.8" transform="translate(802.625 105.768)" fill="#f8f8f8"/>
  <path id="패스_112" data-name="패스 112" d="M78.381,61.4c-.147-.123-.307-.27-.455-.418l-1.732,2.322,1.327.946c8.109,5.7,13.907,9.878,17.507,12.543q3.889,2.967,8.7,6.7c3.157,2.494,6.561,5.234,10.172,8.207,1.855-1.6,3.747-3.145,5.725-4.619,2.015-1.5,4.1-2.985,6.315-4.423l-1.928-2.8c-3.6,2.445-6.794,3.538-9.546,3.268-2.8-.27-7.175-2.666-13.207-7.162-1.782-1.376-3.4-2.666-4.89-3.87-1.5-1.229-2.74-2.359-3.808-3.4,1.622-2.347,3.071-4.374,4.324-6.106,1.29-1.732,2.519-3.366,3.686-4.976.688-.885,1.806-2.383,3.415-4.423,1.573-2.052,2.789-3.649,3.686-4.816l2.543,1.917,6.413,4.8c4.349,3.28,6.843,5.7,7.506,7.334.639,1.6.172,3.415-1.351,5.467l-.221.283,2.384,1.683c.283-.418.688-1,1.167-1.781,1.4-2.138,2.4-3.514,2.85-4.152.823-1.069,1.708-2.211,2.777-3.4,1.044-1.2,2.211-2.494,3.489-3.845l-2.113-1.9q-2.138,2.488-4.484,2.211c-1.622-.2-4.14-1.6-7.6-4.177-.737-.565-2.113-1.646-4.226-3.268-2.076-1.634-3.857-2.961-5.233-4.03l-1.094-.835c.934-1.216,3-3.882,6.229-7.973,3.207-4.079,5.958-7.543,8.17-10.381.307.258.86.639,1.6,1.143,3.587,2.6,6.081,4.435,7.408,5.418,5.246,3.944,8.268,7.027,9.091,9.214.835,2.211.246,4.828-1.707,7.826L143.8,51.5c1.241-2,2.543-4.005,3.809-5.971q1.953-2.949,3.919-5.651c-2.9-1.966-5.725-3.944-8.489-5.909s-5.5-3.968-8.146-5.946c-2.4-1.794-5.184-3.968-8.452-6.511-3.231-2.568-6.917-5.492-10.959-8.784l-1.806,2.42.27.221c1.965,1.474,3.034,2.875,3.182,4.238.184,1.364-.479,3.084-2.027,5.148q-2.635,3.465-4.89,6.45c-1.5,1.953-3.059,3.993-4.656,6.081L98.05,46.981c-.97,1.229-2.31,2.973-4.042,5.209Q83.855,65.532,79.069,61.969c-.331-.246-.516-.442-.688-.565" transform="translate(859.888 143.653)" fill="#f8f8f8"/>
  <path id="패스_113" data-name="패스 113" d="M86.8,42.416a10.052,10.052,0,0,1-4.5-2.654l-2.137,2.162c1.573,1.388,3,2.7,4.349,3.907,1.327,1.241,2.4,2.261,3.231,3.1C88.839,50,90.007,51.2,91.309,52.564c1.352,1.376,2.728,2.875,4.2,4.509L97.7,54.849,96.8,54c-1.425-1.413-2.211-2.58-2.334-3.551-.184-.97.307-1.953,1.314-3a21.63,21.63,0,0,1,4.533-2.949q3.409-1.806,11.327-5.3c1.425,1.351,2.8,2.617,4.067,3.895,1.351,1.241,2.727,2.592,4.152,4.017.713.713,2.334,2.359,4.8,4.951,1.4,1.413,2.519,2.506,3.3,3.293l-6.511,12.9a15.724,15.724,0,0,1-1.093,1.88,5.46,5.46,0,0,1-.971,1.278,2.937,2.937,0,0,1-2.715,1.118,9,9,0,0,1-3.661-2.519l-.565-.614-2.187,2.211c1.683,1.511,3.256,2.9,4.73,4.275s2.8,2.654,3.968,3.821c.946.921,2.089,2.089,3.416,3.477,1.314,1.413,2.8,2.961,4.349,4.693l2.187-2.211-.639-.626a5.856,5.856,0,0,1-1.954-3.317c-.184-1.069.332-3.059,1.5-5.922q3.059-7.39,9.668-21.536,6.634-14.153,14.989-30.947l-5.529-5.442Q128.669,26.4,113.017,33.141c-10.406,4.484-17.457,7.384-21.094,8.71a10.132,10.132,0,0,1-5.123.565m55.678-17.077L130.217,50.881c-.332-.295-.823-.749-1.425-1.339-2.875-2.7-4.865-4.558-5.909-5.614-.86-.848-2.469-2.506-4.828-4.951-.737-.762-1.3-1.376-1.707-1.757Z" transform="translate(904.714 201.807)" fill="#f8f8f8"/>
  <path id="패스_114" data-name="패스 114" d="M23.106,61.3h697.03l20.419-22.568-697.03.012Z" transform="translate(260.761 437.152)" fill="#f8f8f8"/>
</svg>
